<?xml version="1.0" encoding="UTF-8"?>
<svg version="1.1" xmlns="http://www.w3.org/2000/svg" width="640" height="2389">
<path d="M0 0 C0.93779297 -0.01224609 1.87558594 -0.02449219 2.84179688 -0.03710938 C8.71350076 -0.04935059 14.47515276 0.21644434 20.0625 2.1875 C23.01521052 5.14021052 23.05464649 7.26415142 23.08984375 11.40234375 C23.04537109 13.24505859 23.04537109 13.24505859 23 15.125 C22.89520325 23.51695919 23.64815699 31.70874713 26.1875 39.75 C27.77763766 45.99696936 28.47812408 53.25681514 25.5 59.1875 C23.00282754 62.26094303 21.16239299 63.42945403 17.7421875 65.18359375 C14.72937179 66.98427663 13.56610764 69.06462259 12.0625 72.1875 C10.34065127 79.05114529 10.74726719 85.85624312 14.0625 92.1875 C16.94201846 94.19064328 19.27296129 94.97567254 22.625 95.875 C26.54163907 97.9839595 28.35984852 101.14457859 30.0625 105.1875 C31.40209936 111.71022212 29.32165506 118.46591788 27.84375 124.80859375 C27.37606624 126.83132601 26.94600153 128.86416193 26.59375 130.91015625 C25.67977642 136.17429256 24.52811431 138.88294541 20.0625 142.1875 C14.65766874 145.32520406 9.00962944 147.8209535 3.23046875 150.171875 C1.96710693 150.68850708 1.96710693 150.68850708 0.67822266 151.21557617 C-0.99276813 151.89256871 -2.66878398 152.55731921 -4.35009766 153.20825195 C-9.11957751 155.12815717 -12.88746865 156.85842325 -15.9375 161.1875 C-16.20011869 164.04089628 -16.24216673 166.320553 -16 169.125 C-15.52012182 175.03246591 -16.06674717 178.46434311 -19.9375 183.1875 C-25.00191427 187.75782507 -28.80410591 188.48338249 -35.4375 188.40625 C-40.82923802 187.93447292 -45.13358007 184.8827365 -48.9375 181.1875 C-49.87890625 178.94140625 -49.87890625 178.94140625 -49.9375 176.1875 C-48.38143441 173.88298461 -46.92531211 172.02012734 -45.0625 170 C-40.44810473 165.10371214 -40.44810473 165.10371214 -38.5625 158.8125 C-38.57514256 155.17796364 -38.57514256 155.17796364 -40.80078125 153.1484375 C-45.90393907 149.95816947 -51.5690648 148.91473954 -57.36523438 147.4765625 C-66.08362908 145.1845181 -66.08362908 145.1845181 -68.9375 141.1875 C-69.6875 138.9375 -69.6875 138.9375 -69.9375 137.1875 C-66.91393998 135.17179332 -65.99762474 134.90247586 -62.55078125 134.66015625 C-61.69419922 134.58990234 -60.83761719 134.51964844 -59.95507812 134.44726562 C-58.17140229 134.31719251 -56.38754857 134.18953293 -54.60351562 134.06445312 C-48.43555379 133.55314337 -41.92161737 132.86291557 -37.125 128.5625 C-31.94863941 118.20977883 -32.58312126 110.32413658 -36.00952148 99.44775391 C-41.98026575 80.31740941 -43.13732975 60.45550563 -43.3125 40.5 C-43.32651855 39.42089355 -43.34053711 38.34178711 -43.35498047 37.22998047 C-43.28750128 26.18588736 -41.18211261 15.68794737 -33.375 7.5 C-23.83165178 0.1794063 -11.47200204 0.00785216 0 0 Z " fill="#000000" transform="translate(182.9375,419.8125)"/>
<path d="M0 0 C0.74241943 0.01998047 1.48483887 0.03996094 2.24975586 0.06054688 C8.84478269 0.26980059 15.43351537 0.7354815 22 1.375 C21.60299955 7.03225637 20.56792525 11.99890836 18.9375 17.4375 C14.43018832 33.28411154 16.27972342 52.77989499 24 67.375 C27.79672719 72.61400787 32.28793185 76.38564457 37.5625 80.0625 C53.14588234 91.14021846 53.14588234 91.14021846 55 100.375 C55.46638277 108.20532121 54.1932031 115.7046105 52.82104492 123.3840332 C52.44190048 125.53750606 52.09468441 127.69460683 51.74804688 129.85351562 C50.01111542 140.02123506 47.38437828 151.55995311 39.40014648 158.69995117 C33.32013925 162.94315427 25.82205648 161.99380914 18.71875 160.84375 C5.44809955 157.76066959 5.44809955 157.76066959 1.71484375 152.59765625 C-1.89393494 145.99509973 -4.09266372 138.64238672 -6.4140625 131.5078125 C-10.23634387 120.02319034 -16.00646726 115.36573455 -26.56640625 110.0546875 C-27.39519287 109.63413086 -28.22397949 109.21357422 -29.07788086 108.78027344 C-30.73803361 107.94582112 -32.40660891 107.12785701 -34.08422852 106.32910156 C-40.85824101 102.94174967 -45.64615092 98.46865057 -49.4375 91.875 C-50.5523018 86.92032532 -50.22695949 82.28283795 -49 77.375 C-48.63466829 71.71235853 -48.84075488 68.27727692 -52 63.375 C-54.56197123 60.56143108 -54.56197123 60.56143108 -57 58.375 C-55.49828883 53.14387368 -52.17744904 50.00179681 -48.4375 46.25 C-47.56254883 45.31994141 -47.56254883 45.31994141 -46.66992188 44.37109375 C-42.18597278 39.84332757 -38.10049145 37.99189138 -32 36.375 C-26.57519841 34.28853785 -23.88707078 31.30327657 -21 26.375 C-19.08937401 21.9894428 -17.58481914 17.46166578 -16.0390625 12.9375 C-12.89923533 4.17110255 -9.99197227 -0.52973278 0 0 Z " fill="#000000" transform="translate(585,2227.625)"/>
<path d="M0 0 C5.19644079 1.59890486 10.06612142 3.74138003 15 6 C14.79503906 6.69222656 14.59007812 7.38445313 14.37890625 8.09765625 C12.7563656 13.99004073 11.79228723 19.51184369 11.5 25.625 C10.88515918 36.82876609 7.48465659 46.7541348 1 56 C-1.22265625 56.87109375 -1.22265625 56.87109375 -3 57 C-8.27620353 51.40402656 -11.50503702 44.78848716 -15 38 C-21.07280559 62.39691088 -24.74136279 85.5007233 -22.1875 110.625 C-22.11756836 111.34695557 -22.04763672 112.06891113 -21.97558594 112.81274414 C-21.37900471 117.92706145 -20.10982887 122.28992199 -18 127 C-15.21855524 129.2817867 -15.21855524 129.2817867 -12.25 128.875 C-9.46585362 128.12542213 -7.73651046 127.37755696 -5.3125 125.9375 C-2 124 -2 124 1 124 C1.48164188 126.35368393 1.96036648 128.70790155 2.4375 131.0625 C2.63956055 132.04766602 2.63956055 132.04766602 2.84570312 133.05273438 C3.71430949 137.35339518 4.4143774 141.64966071 5 146 C5.185625 147.299375 5.37125 148.59875 5.5625 149.9375 C5.50352321 156.8613757 1.25778538 163.0259434 -1.93505859 168.9765625 C-3.53882558 172.0237933 -4.99102929 175.1247786 -6.4375 178.25 C-7.14712891 179.77367187 -7.14712891 179.77367187 -7.87109375 181.328125 C-10.79851677 188.25669713 -11.12232961 195.58734592 -8.6875 202.75 C-6.35589653 208.11184625 -2.69200274 212.27190087 0.98706055 216.74584961 C6.67187008 223.81217658 10.58060374 232.71034012 10 242 C9.34 242.99 8.68 243.98 8 245 C-0.02348989 243.98570977 -7.76892899 242.38307496 -15.625 240.5 C-24.5693786 238.36913561 -33.36395865 237.11586937 -42.51953125 236.359375 C-46 236 -46 236 -47 235 C-47.05116792 232.6932743 -47.03524567 230.38501633 -46.9921875 228.078125 C-46.97465904 226.64584057 -46.95775194 225.21354842 -46.94140625 223.78125 C-46.91052607 221.51866396 -46.87513288 219.25646214 -46.82861328 216.99414062 C-46.7860948 214.81375443 -46.76277541 212.63381415 -46.7421875 210.453125 C-46.7201123 209.14504883 -46.69803711 207.83697266 -46.67529297 206.48925781 C-47.02237322 202.75958045 -47.72333715 200.93662345 -50 198 C-52.77901168 196.26293967 -52.77901168 196.26293967 -55.9375 194.9375 C-60.07495193 193.08666958 -62.96829607 191.39696947 -66 188 C-65.79503906 187.39671875 -65.59007813 186.7934375 -65.37890625 186.171875 C-64.97478516 184.97304688 -64.97478516 184.97304688 -64.5625 183.75 C-64.16224609 182.56664062 -64.16224609 182.56664062 -63.75390625 181.359375 C-60.75474022 171.97338391 -60.95811039 162.06234197 -65 153 C-66.64663376 150.17429515 -68.40529421 147.45439789 -70.21484375 144.73046875 C-71.90971408 142.13809597 -73.47130956 139.54019902 -74.9375 136.8125 C-75.33839844 136.07644531 -75.73929687 135.34039063 -76.15234375 134.58203125 C-77.34276359 130.95591367 -77.13271665 127.80856573 -77 124 C-75.081875 123.83564453 -75.081875 123.83564453 -73.125 123.66796875 C-71.41661224 123.50839407 -69.7082818 123.34820503 -68 123.1875 C-67.16082031 123.11724609 -66.32164063 123.04699219 -65.45703125 122.97460938 C-59.24470131 122.37263942 -52.59624297 121.59624297 -48 117 C-47.45333703 112.53558573 -48.04950749 109.5744015 -50 105.625 C-52.86316686 99.62355771 -52.93074415 94.24014075 -50.875 87.9375 C-49.26401109 84.07267565 -46.91090546 80.91859339 -44.3046875 77.6640625 C-40.58060099 72.9141797 -41.73908951 66.75216612 -42 61 C-42.44801117 57.49382564 -42.99780386 54.01376456 -43.5546875 50.5234375 C-44.25116065 45.0127464 -44.16574844 39.54336435 -44 34 C-42.89011719 34.23976563 -42.89011719 34.23976563 -41.7578125 34.484375 C-31.46698435 36.40843919 -21.9747285 33.6406562 -12.65625 29.2578125 C-7.84011074 25.60027278 -6.89701898 19.55202381 -5.5 14 C-4.20988704 8.8728414 -3.05936189 4.41117296 0 0 Z " fill="#000000" transform="translate(161,782)"/>
<path d="M0 0 C2.44318434 2.44318434 2.43857148 3.70252935 3.0625 7.0625 C5.90440943 18.97555468 12.62032149 31.94592916 22 40 C25.84795292 42.30122674 29.60054057 42.94744913 34 42 C37.66389468 39.74587549 40.42088245 36.64678076 43.2734375 33.4609375 C46.39874918 30.64009744 48.9648682 29.65649603 52.9375 28.3125 C59.62812997 25.90956241 64.95464688 22.56390317 70.51928711 18.16333008 C71.96283373 17.04137724 73.47716367 16.01171861 75 15 C75.99 15.33 76.98 15.66 78 16 C78.11275269 17.66216553 78.11275269 17.66216553 78.2277832 19.35791016 C78.51400325 23.53720919 78.81362216 27.71546496 79.11694336 31.89355469 C79.24550194 33.68920189 79.37060422 35.4851005 79.49194336 37.28125 C80.76204689 63.13406043 80.76204689 63.13406043 93 85 C93.928125 85.474375 94.85625 85.94875 95.8125 86.4375 C96.8953125 87.2109375 96.8953125 87.2109375 98 88 C98.62554843 93.83306599 97.16110352 97.98385072 94.89453125 103.20703125 C94.41290779 104.35518562 94.41290779 104.35518562 93.92155457 105.52653503 C93.24215473 107.14001594 92.55684133 108.75101815 91.8659668 110.35961914 C90.82213941 112.7900557 89.79521243 115.22705436 88.77148438 117.66601562 C78.9018809 141.05889041 78.9018809 141.05889041 73 146 C72.42507812 146.49113281 71.85015625 146.98226562 71.2578125 147.48828125 C64.82114346 152.69707166 57.8882113 155.26627043 49.9375 157.3125 C39.5005832 160.39465199 33.43067031 168.73042226 27 177 C25.34484243 179.07216963 23.67353041 181.13001087 22 183.1875 C21.2575 184.10917969 20.515 185.03085937 19.75 185.98046875 C19.1725 186.64691406 18.595 187.31335938 18 188 C17.67 188 17.34 188 17 188 C17.0721875 186.97003906 17.144375 185.94007813 17.21875 184.87890625 C17.47524766 181.05681914 17.68908343 177.23362404 17.87988281 173.40771484 C17.957052 171.86088047 18.03930363 170.31428666 18.12792969 168.76806641 C19.00463743 152.23425759 14.87427448 136.93579057 3.55078125 124.2578125 C1.41691025 122.10719212 -0.74619424 120.02382558 -3 118 C-0.0294557 114.83780768 3.02800764 112.17084151 6.5 109.5625 C11.66210462 105.60288231 16.25415163 101.50725301 18 95 C18.54272293 90.38685506 17.82332713 87.29537589 16 83.125 C13.92404388 78.32756076 13.31761735 74.19058277 14 69 C14.33 68.34 14.66 67.68 15 67 C16.99609375 66.65625 16.99609375 66.65625 19.4375 66.5 C23.16559619 66.34878389 23.16559619 66.34878389 26 64 C26.66468305 60.89814578 26.5667319 58.90135517 24.85546875 56.1796875 C18.89402752 49.01435425 11.07312731 42.30532596 3 37.625 C-0.92408757 34.19142337 -1.73976223 30.88691704 -3.078125 25.9375 C-3.86484422 22.94828196 -3.86484422 22.94828196 -5.671875 20.5 C-7.44872552 17.1553402 -7.02683005 15.6053144 -6 12 C-5.05204682 9.84150273 -4.02878489 7.71469447 -2.9375 5.625 C-2.38964844 4.56539062 -1.84179688 3.50578125 -1.27734375 2.4140625 C-0.85582031 1.61742187 -0.43429688 0.82078125 0 0 Z " fill="#000000" transform="translate(106,600)"/>
<path d="M0 0 C3.77770041 0.48225963 7.35369321 1.08767342 11.03125 2.07421875 C15.66249397 3.12688196 19.85265658 2.92511998 24.56518555 2.6159668 C37.41131995 1.85107926 37.41131995 1.85107926 42.1328125 5.265625 C44.12698672 8.10144689 45.55379594 10.8573689 47 14 C47.69738281 14.84175781 48.39476562 15.68351562 49.11328125 16.55078125 C52.39487827 20.8107426 52.07896523 25.16425517 52.18847656 30.33251953 C52.4060546 38.66092349 53.26487604 44.9236203 58 52 C64.1024233 61.39095141 64.1024233 61.39095141 64 66 C62.0690837 69.16670274 60.06706581 70.95148431 57.0625 73.125 C51.94656792 77.18917955 49.17444155 84.68885958 48 91 C47.08373453 101.30144174 48.6583639 109.68009784 51.90625 119.41796875 C53 123 53 123 53 127 C47.17531101 128.18521115 42.47865754 127.70960285 36.6875 126.5 C35.3866748 126.23195557 35.3866748 126.23195557 34.05957031 125.95849609 C21.92007291 123.28851219 9.38057162 119.45709565 0 111 C-3.27354385 108.10037388 -5.80929795 107.48359006 -10.125 106.9375 C-15.78962132 106.21037868 -15.78962132 106.21037868 -18 104 C-18.6701808 97.00441406 -16.53564113 90.6046864 -14.68945312 83.9140625 C-11.1650646 70.253334 -15.77604494 58.40018551 -22.53125 46.40625 C-23.76736023 44.38113324 -25.07272422 42.51517603 -26.5 40.625 C-28 38 -28 38 -27.5625 35.4375 C-25.27455843 31.86831115 -22.35878603 29.21638051 -19.2109375 26.3984375 C-13.7698898 21.3042295 -9.9590406 15.66701778 -6.078125 9.3671875 C-4.1181244 6.19139706 -2.08688149 3.09272077 0 0 Z " fill="#000000" transform="translate(83,1210)"/>
<path d="M0 0 C2.9329239 2.87052126 5.6172538 5.92178757 8.29296875 9.03125 C9.57607396 10.51107843 10.90295925 11.95312365 12.25 13.375 C18.24771445 22.37157167 17.67095712 33.58409091 18 44 C19.87640133 42.91909567 21.75105424 41.83515594 23.625 40.75 C24.72972656 40.11320312 25.83445312 39.47640625 26.97265625 38.8203125 C30.08831616 37.02795006 30.08831616 37.02795006 33.0625 34.625 C38.87259128 31.41090695 45.64228021 31.49392171 52 33 C50.63851677 39.56105253 49.09348963 43.78069772 43.71875 47.94140625 C40.48700312 49.93186853 38.93773164 49.99096104 35.125 49.4375 C31.52199496 48.94648274 29.10618405 48.83508384 26 51 C23.87326159 55.87898812 25.65408268 60.15343984 27.48828125 64.8515625 C29.86011147 69.79134327 32.82337696 74.2964434 35.87890625 78.8359375 C37.67512599 81.51538131 39.36932539 84.21795451 41 87 C36.67721022 87.75885965 32.34837552 88.40572201 28 89 C27.10796875 89.14824219 26.2159375 89.29648438 25.296875 89.44921875 C19.7237763 89.99753975 16.91811598 88.61811777 12.5625 85.125 C10.69446386 83.43184384 8.84064951 81.7228889 7 80 C6.02160156 79.18402344 5.04320312 78.36804687 4.03515625 77.52734375 C-7.00258713 68.17859735 -10.0465873 57.41270299 -14.3515625 44.0234375 C-15.37515882 40.841769 -16.4709469 37.71351291 -17.6796875 34.59765625 C-19.49105364 29.66195147 -20.03507683 25.75520452 -18.19140625 20.84765625 C-13.9684267 12.53320862 -7.33804336 5.64564252 0 0 Z " fill="#000000" transform="translate(464,1951)"/>
<path d="M0 0 C2.7185972 1.52861381 5.11989249 3.37991494 7.5625 5.3125 C8.83376056 6.28890053 10.10588498 7.26417744 11.37890625 8.23828125 C11.98492676 8.71217285 12.59094727 9.18606445 13.21533203 9.67431641 C15.21330864 11.20367132 15.21330864 11.20367132 18.40234375 13.04296875 C21 15 21 15 21.76171875 17.33154297 C22.18093306 22.02622784 19.96882793 25.73623476 18.0625 29.9375 C17.51239258 31.25911133 17.51239258 31.25911133 16.95117188 32.60742188 C14.11700843 38.94512404 10.85325878 42.34918205 5 46 C-0.28092529 49.6560252 -1.90185865 52.72304885 -4.01171875 58.56640625 C-6.36166696 64.35303761 -10.60257794 67.94928318 -16 71 C-16.99 71 -17.98 71 -19 71 C-19.32871094 70.00742188 -19.65742187 69.01484375 -19.99609375 67.9921875 C-23.45283991 57.98014179 -28.01095979 49.69986894 -34 41 C-35.5214596 37.95708081 -35.57627079 36.39359463 -35 33 C-33.42578125 31.54296875 -33.42578125 31.54296875 -31.375 30 C-27.35720468 26.82805633 -25.85002857 23.87783582 -24 19.125 C-21.38905757 12.45574487 -18.26503464 7.83069577 -13 3 C-12.47277344 2.5153125 -11.94554687 2.030625 -11.40234375 1.53125 C-7.45680438 -1.58309575 -4.70200218 -1.13914486 0 0 Z " fill="#000000" transform="translate(553,2172)"/>
<path d="M0 0 C0.89078247 0.94685669 0.89078247 0.94685669 1.79956055 1.9128418 C3.037245 3.19202556 4.27681573 4.46938706 5.51831055 5.74487305 C6.11256836 6.3579834 6.70682617 6.97109375 7.3190918 7.6027832 C10.37649026 10.69150747 13.65995496 13.49767544 16.98706055 16.2878418 C19.01263687 18.31341812 18.71456065 22.12862045 19.04956055 24.9128418 C19.14043945 25.61280273 19.23131836 26.31276367 19.32495117 27.03393555 C20.77919115 38.82093327 20.77919115 38.82093327 18.29956055 43.4128418 C17.53643555 44.3615918 16.77331055 45.3103418 15.98706055 46.2878418 C15.26518555 47.2159668 14.54331055 48.1440918 13.79956055 49.1003418 C10.03551536 52.0279325 6.72011735 52.74750133 1.98706055 52.2878418 C-4.15817555 50.70822466 -8.42968082 47.75436918 -13.07543945 43.5378418 C-13.68250732 42.99853027 -14.2895752 42.45921875 -14.91503906 41.90356445 C-16.10145323 40.84326957 -17.28278287 39.77725006 -18.45825195 38.70483398 C-19.72255636 37.55250629 -21.00570105 36.42087533 -22.29418945 35.2956543 C-30.65548571 27.63113273 -33.99853924 16.63525556 -35.3371582 5.61987305 C-35.01293945 3.2878418 -35.01293945 3.2878418 -33.3684082 1.6394043 C-22.5136944 -4.58900528 -9.73565118 -10.04104061 0 0 Z " fill="#000000" transform="translate(444.012939453125,2020.712158203125)"/>
<path d="M0 0 C6.17797001 0.06448362 12.11246782 0.92816121 18.15991211 2.18945312 C15.99140554 4.50071404 13.73003235 6.18765349 11.09741211 7.93945312 C7.99661794 10.23084882 7.18882382 11.12237796 5.59741211 14.81445312 C5.21555616 17.76019906 5.07212812 19.46999315 6.15991211 22.18945312 C10.65851242 23.78895546 13.71105704 24.17640989 18.47241211 23.68945312 C22.14956734 23.6145111 23.66554881 23.80362792 26.59741211 26.09179688 C28.22769486 27.83201646 29.83072127 29.59805291 31.40991211 31.38476562 C34.97336575 35.0190834 38.89535148 37.47411169 43.25097656 40.05639648 C49.2134758 43.64002626 53.67974217 47.57566662 56.15991211 54.18945312 C56.29758842 59.42115283 52.51634734 63.4937653 49.15991211 67.18945312 C42.67889645 72.96141333 37.58928 74.74268899 28.89819336 74.66210938 C24.93671865 73.97831702 23.40006643 72.18181599 20.91381836 69.15039062 C18.9620497 66.96823501 16.95862051 65.7800617 14.47241211 64.25195312 C8.54113119 59.74578539 7.95890314 53.29878689 6.62231445 46.40820312 C3.47397853 30.86273557 3.47397853 30.86273557 -3.84008789 17.18945312 C-7.50051481 15.88802396 -7.50051481 15.88802396 -10.84008789 16.18945312 C-11.79921282 12.43400621 -11.79085186 9.71760609 -10.96508789 5.93945312 C-10.78204102 5.06804687 -10.59899414 4.19664063 -10.41040039 3.29882812 C-9.0836848 -1.60820214 -4.34562236 0.00418603 0 0 Z " fill="#000000" transform="translate(332.840087890625,1905.810546875)"/>
<path d="M0 0 C8.40176177 7.02632543 15.4368155 15.41405414 21.16796875 24.71875 C19.04575406 26.93951955 16.83516461 28.78411002 14.35546875 30.59375 C11.85293378 32.43197569 9.55296885 34.26832438 7.23046875 36.34375 C-2.92322313 44.21804166 -18.0294911 46.82924756 -30.625 45.40234375 C-33.08203125 44.90625 -33.08203125 44.90625 -36.83203125 43.71875 C-40.05668977 37.26943296 -37.60711988 27.74208209 -36.64453125 20.84375 C-36.54366211 20.02334229 -36.44279297 19.20293457 -36.33886719 18.35766602 C-35.51838324 12.96536147 -34.3212319 10.1667055 -29.83203125 6.71875 C-8.54195148 -5.9739021 -8.54195148 -5.9739021 0 0 Z " fill="#000000" transform="translate(242.83203125,1686.28125)"/>
<path d="M0 0 C16.58121216 1.73560352 34.44012084 17.51518301 44.98828125 29.203125 C49.05594456 34.25263807 49.05594456 34.25263807 48.84765625 37.03515625 C47.83616204 39.37977186 46.67552005 40.45900657 44.75 42.125 C38.00820399 48.60430805 35.31876982 57.13966003 33 66 C26.90100218 64.89354464 22.71360701 60.30622943 19.125 55.4765625 C18.50625 54.57679687 17.8875 53.67703125 17.25 52.75 C12.13134573 45.3925705 5.46646005 38.97764004 -2 34 C-2.20829431 31.44954765 -2.23205085 29.16051644 -2.109375 26.62109375 C-2.08530579 25.89382584 -2.06123657 25.16655792 -2.03643799 24.41725159 C-1.98275812 22.87954609 -1.92175088 21.34208162 -1.85400391 19.80493164 C-1.75027845 17.44383823 -1.66807891 15.08276539 -1.58984375 12.72070312 C-1.53510823 11.22912012 -1.47915996 9.73758102 -1.421875 8.24609375 C-1.38268951 7.18049477 -1.38268951 7.18049477 -1.3427124 6.09336853 C-1.11733518 1.11733518 -1.11733518 1.11733518 0 0 Z " fill="#000000" transform="translate(475,1842)"/>
<path d="M0 0 C6.91171579 1.83020511 11.84386537 4.74896131 17.66821289 8.85351562 C29.75130255 17.34235756 39.18430986 21.529723 54 21 C54.495 26.94 54.495 26.94 55 33 C50.27038873 35.74977399 47.26405432 36.12247315 41.8125 35.5 C32.13126197 34.48968732 23.95720434 37.26364061 15.25390625 41.328125 C12.36568743 42.18908451 10.86123313 41.93329656 8 41 C1.70095999 37.27446159 -6.82122742 31.83198883 -10 25 C-9.92259622 18.35734874 -7.66430989 13.70250936 -4.4375 8 C-4.01275391 7.22527344 -3.58800781 6.45054687 -3.15039062 5.65234375 C-2.11178658 3.761851 -1.05749488 1.8799909 0 0 Z " fill="#000000" transform="translate(480,2136)"/>
<path d="M0 0 C3.65319077 3.56103821 7.03621437 7.27503672 10.3125 11.1875 C10.78671387 11.75122314 11.26092773 12.31494629 11.74951172 12.89575195 C25.00499006 28.7072294 25.00499006 28.7072294 25.25 35.375 C26.05483631 45.7511974 31.12478249 54.50650946 35.86328125 63.6015625 C37 66 37 66 37 68 C27.14442234 68.1081333 21.47817474 66.36413158 14 60 C13.2678125 59.47277344 12.535625 58.94554687 11.78125 58.40234375 C2.40274696 51.28098043 0.24880835 39.81393083 -1.5 28.74609375 C-2.80827865 18.94422477 -1.45188237 9.72242658 0 0 Z " fill="#000000" transform="translate(206,834)"/>
<path d="M0 0 C3.95156665 3.49526565 6.30042744 7.56702943 8.9375 12.0625 C13.51789713 19.72588702 18.39563746 27.12685561 23.49584961 34.45336914 C33 48.12237666 33 48.12237666 33 51 C30.77208002 52.12752649 28.54274113 53.25208139 26.3125 54.375 C25.68666016 54.69210937 25.06082031 55.00921875 24.41601562 55.3359375 C20.99635299 57.05472081 17.57992926 58.64469217 14 60 C8.52095855 55.23753339 3.21879497 50.49255776 -1.39453125 44.87109375 C-2.94257581 42.97425187 -2.94257581 42.97425187 -4.76171875 41.47265625 C-7.82678558 38.66479783 -8.88085048 36.74553555 -9.546875 32.578125 C-9.81403725 25.1866362 -9.08044102 19.72770636 -5.30859375 13.359375 C-3.46549109 10.03628841 -2.55855162 6.58739297 -1.578125 2.93359375 C-1 1 -1 1 0 0 Z " fill="#000000" transform="translate(262,216)"/>
<path d="M0 0 C1.27642514 2.55285029 1.32420824 4.71197344 1.625 7.5625 C3.15529178 18.97991136 6.75114631 29.9757123 10 41 C9.25363281 41.55171875 8.50726563 42.1034375 7.73828125 42.671875 C4.98091349 45.01622762 3.19655281 47.25611738 1.1875 50.25 C0.58292969 51.14203125 -0.02164063 52.0340625 -0.64453125 52.953125 C-1.31548828 53.96632813 -1.31548828 53.96632813 -2 55 C-7.23281198 54.3076363 -10.48988553 53.00310808 -14 49 C-17.1139418 44.3290873 -18.4419877 40.68168056 -18 35 C-17.046875 32.1328125 -17.046875 32.1328125 -15.75 29.125 C-13.38801976 23.34611014 -11.80150357 17.6669578 -10.60839844 11.55712891 C-9.2511918 5.33948506 -6.92044275 0 0 0 Z " fill="#000000" transform="translate(239,281)"/>
<path d="M0 0 C2.1859329 1.95700074 3.90331405 3.49659095 5.3125 6.0703125 C5.1454303 11.40818939 2.05001236 13.73030085 -1.625 17.1953125 C-2.305625 17.8140625 -2.98625 18.4328125 -3.6875 19.0703125 C-4.595 19.9159375 -5.5025 20.7615625 -6.4375 21.6328125 C-8.6875 23.0703125 -8.6875 23.0703125 -10.56640625 22.77734375 C-12.75519019 22.0477491 -14.78716607 21.17648036 -16.875 20.1953125 C-20.78681063 18.39484337 -24.68349269 17.09078712 -28.83984375 15.9765625 C-30.6875 15.0703125 -30.6875 15.0703125 -31.921875 13.31640625 C-33.70655353 8.08074218 -33.51260063 2.09180906 -31.4375 -2.9921875 C-22.57296344 -12.80649584 -8.61717239 -6.58812889 0 0 Z " fill="#000000" transform="translate(32.6875,1178.9296875)"/>
<path d="M0 0 C4.74531635 4.49701491 6.31356274 8.75774284 7.1875 15.125 C6.1452786 24.20721504 3.54229265 33.46784125 -3.25 39.9375 C-4.57200736 40.62635323 -5.9043984 41.29595612 -7.25 41.9375 C-10.76012729 35.47638074 -12.96597111 28.99112809 -15 21.9375 C-15.47373047 20.37515625 -15.47373047 20.37515625 -15.95703125 18.78125 C-19.80438813 5.59031211 -19.80438813 5.59031211 -17 -1 C-15.25 -3.0625 -15.25 -3.0625 -13.5 -3.9375 C-7.93763907 -4.24652005 -4.35379774 -3.51345075 0 0 Z " fill="#000000" transform="translate(246.25,798.0625)"/>
<path d="M0 0 C4.87135028 3.25414087 10.25840844 6.9888123 11.7109375 12.88671875 C11.6898278 15.35303485 11.41142734 17.57633497 11 20 C8.31433412 21.44101533 5.62657941 22.87787947 2.9375 24.3125 C2.18533203 24.71662109 1.43316406 25.12074219 0.65820312 25.53710938 C-11.25014279 31.87791694 -11.25014279 31.87791694 -15.6875 32.1875 C-18.86042971 30.55815772 -19.85105963 28.67647888 -21.265625 25.453125 C-23.01936056 19.59490195 -23.17208441 14.17672819 -20.25 8.75 C-15.28126974 3.88121547 -7.08062017 -2.75666217 0 0 Z " fill="#000000" transform="translate(337,1)"/>
<path d="M0 0 C3.22976055 2.29606614 4.71028028 5.53658549 6.5234375 8.96484375 C7.10617432 10.04040527 7.10617432 10.04040527 7.70068359 11.13769531 C8.48457778 12.58503402 9.26473452 14.03440363 10.04101562 15.48583984 C11.02821528 17.30571717 12.06184559 19.10023248 13.1015625 20.890625 C13.92914063 22.31955078 13.92914063 22.31955078 14.7734375 23.77734375 C15.26070312 24.6075 15.74796875 25.43765625 16.25 26.29296875 C17.1484375 28.52734375 17.1484375 28.52734375 17.03125 30.7109375 C15.86692164 33.10656886 14.88421343 33.46608417 12.3984375 34.33984375 C11.72296875 34.59378906 11.0475 34.84773438 10.3515625 35.109375 C7.54859615 35.64114344 5.85463875 35.450686 3.1484375 34.52734375 C-3.15189311 28.7281758 -6.65210864 21.32601254 -9.8515625 13.52734375 C-16.7815625 17.98234375 -16.7815625 17.98234375 -23.8515625 22.52734375 C-24.8515625 19.52734375 -24.8515625 19.52734375 -23.99609375 17.1875 C-23.55652344 16.33027344 -23.11695313 15.47304687 -22.6640625 14.58984375 C-22.23738281 13.73519531 -21.81070313 12.88054687 -21.37109375 12 C-18.31377428 7.02497886 -15.13067047 4.94439194 -9.7265625 2.83984375 C-8.67210937 2.42347656 -7.61765625 2.00710938 -6.53125 1.578125 C-5.20480469 1.05798828 -5.20480469 1.05798828 -3.8515625 0.52734375 C-1.8515625 -0.47265625 -1.8515625 -0.47265625 0 0 Z " fill="#000000" transform="translate(154.8515625,1161.47265625)"/>
<path d="M0 0 C1.35769229 4.39965691 0.3289302 8.01432376 -0.75 12.375 C-0.92015625 13.1175 -1.0903125 13.86 -1.265625 14.625 C-3.77715506 25.07739715 -3.77715506 25.07739715 -7.6484375 28.42578125 C-16.77002284 33.11039635 -28.01508126 33.50727785 -37.9375 31 C-38.948125 30.67 -39.95875 30.34 -41 30 C-37.31897296 25.3987162 -33.33392459 21.23576064 -29.0625 17.1875 C-28.32821777 16.46759888 -28.32821777 16.46759888 -27.57910156 15.7331543 C-23.932503 12.34196186 -20.78972306 11.14300209 -16 10 C-9.94606923 7.46641664 -4.82471527 4.4438167 0 0 Z " fill="#000000" transform="translate(465,750)"/>
<path d="M0 0 C2.43119623 1.87015094 3.64069173 3.28138345 5 6 C5.2719306 10.22357658 5.23169246 14.45616968 5.25 18.6875 C5.270625 19.85990234 5.29125 21.03230469 5.3125 22.24023438 C5.34126769 28.60868094 5.12070615 33.39094132 2 39 C-1 39 -1 39 -2.578125 37.5234375 C-8.79350865 29.53637907 -16.25893772 18.37487194 -17 8 C-12.74470405 1.24158878 -7.8578492 -1.35535797 0 0 Z " fill="#000000" transform="translate(531,395)"/>
<path d="M0 0 C0.78375 0.00451172 1.5675 0.00902344 2.375 0.01367188 C4.29170014 0.02535907 6.20836048 0.04329092 8.125 0.0625 C3.79166667 8.72916667 -0.54166667 17.39583333 -4.875 26.0625 C-10.99736394 23.73117102 -16.04557214 21.14668893 -19.3125 15.25 C-21.18446143 11.06795851 -21.19860923 7.59302917 -20.875 3.0625 C-13.80932323 0.53904401 -7.42529261 -0.08180407 0 0 Z " fill="#000000" transform="translate(24.875,1008.9375)"/>
<path d="M0 0 C0.86238281 0.4846875 1.72476563 0.969375 2.61328125 1.46875 C10.8439536 6.01288614 19.17528522 9.91060593 27.9152832 13.38476562 C28.69347412 13.69865234 29.47166504 14.01253906 30.2734375 14.3359375 C30.96872559 14.60970215 31.66401367 14.8834668 32.38037109 15.16552734 C34 16 34 16 35 18 C34.29296875 19.734375 34.29296875 19.734375 33.1875 21.75 C31.3756718 25.07277519 30.13975148 28.38992743 29 32 C15.1262789 27.51994423 15.1262789 27.51994423 11.43359375 21.21875 C9.72177524 17.81507355 8.28365523 14.29920034 6.82763672 10.78027344 C5.19832214 7.2755649 2.63724357 4.76910574 0 2 C0 1.34 0 0.68 0 0 Z " fill="#000000" transform="translate(141,1121)"/>
<path d="M0 0 C8.72630608 -0.09744014 17.33003296 -0.16711095 26 1 C25.32510673 5.06452577 24.07017831 8.67040762 22.5625 12.5 C21.91474609 14.15515625 21.91474609 14.15515625 21.25390625 15.84375 C20.17317865 18.56408614 19.08973667 21.28326115 18 24 C17.030625 23.154375 16.06125 22.30875 15.0625 21.4375 C12.22670078 18.97711208 9.290737 16.76218209 6.25 14.5625 C2.12505122 11.38079889 0.33243438 9.04421587 -1 4 C-0.5546875 1.79296875 -0.5546875 1.79296875 0 0 Z " fill="#000000" transform="translate(124,1047)"/>
<path d="M0 0 C-1.38253394 1.62447738 -2.76774661 3.24672848 -4.1640625 4.859375 C-5.42783953 6.33288524 -6.67165472 7.82367533 -7.8984375 9.328125 C-12.19676051 14.45892954 -15.75263694 17.52259741 -22 20 C-22.66 20 -23.32 20 -24 20 C-24.25833115 13.28339 -23.86666931 6.48842272 -22 0 C-15.50913233 -4.32724511 -6.7297865 -3.80784687 0 0 Z " fill="#000000" transform="translate(284,1798)"/>
<path d="M0 0 C6.36089723 0.12862108 12.24852947 0.48877555 17.6015625 4.203125 C20.05240657 7.35225426 19.6259641 10.639281 19.37890625 14.4765625 C19 17 19 17 18 20 C11.30686474 18.82870133 7.87125226 14.18912538 4 9 C0 2.31843575 0 2.31843575 0 0 Z " fill="#000000" transform="translate(238,931)"/>
<path d="M0 0 C6.98426892 1.51383169 13.00164161 3.04653652 19 7 C15.46097273 12.30854091 10.393851 15.73925732 5 19 C4.34 19 3.68 19 3 19 C1.05543072 14.86581409 0.62971979 11.230003 0.375 6.6875 C0.30023438 5.43324219 0.22546875 4.17898438 0.1484375 2.88671875 C0.09945312 1.93410156 0.05046875 0.98148438 0 0 Z " fill="#000000" transform="translate(195,786)"/>
<path d="M0 0 C0.375 3.25 0.375 3.25 0 7 C-4.17778777 11.29070096 -8.70897265 11.67042574 -14.51171875 12.3125 C-17 12 -17 12 -18.7890625 10.234375 C-20.42087319 7.22342108 -20.67493529 4.38067301 -21 1 C-13.97360585 0.25194283 -7.06608191 -0.13794954 0 0 Z " fill="#000000" transform="translate(164,1089)"/>
<path d="M0 0 C1.75299712 0.59541454 3.50229748 1.20171914 5.25 1.8125 C6.22453125 2.14894531 7.1990625 2.48539063 8.203125 2.83203125 C10.85948302 3.94132042 12.79689939 5.1693283 15 7 C13.60588807 11.87939176 11.09654343 14.10832229 7 17 C4.125 17.8125 4.125 17.8125 2 18 C-0.78156819 12.55276229 -1.64777778 8.11651714 -1 2 C-0.67 1.34 -0.34 0.68 0 0 Z " fill="#000000" transform="translate(93,1061)"/>
</svg>
