<?xml version="1.0" encoding="UTF-8"?>
<svg version="1.1" xmlns="http://www.w3.org/2000/svg" width="2272" height="1937">
<path d="M0 0 C0.79921875 0.00902344 1.5984375 0.01804688 2.421875 0.02734375 C3.02515625 0.03894531 3.6284375 0.05054688 4.25 0.0625 C3.10845302 3.90224894 1.61662144 7.38434371 -0.140625 10.96875 C-3.00802515 17.2297501 -4.44440661 23.52646411 -5.8125 30.25 C-8.01252995 40.9913227 -10.38140337 48.78616189 -17.6875 57.125 C-18.39495361 57.94073486 -18.39495361 57.94073486 -19.11669922 58.77294922 C-20.65376518 60.54270641 -22.20182692 62.30245666 -23.75 64.0625 C-25.96200373 66.60098411 -28.16840653 69.144313 -30.375 71.6875 C-30.92857178 72.32373291 -31.48214355 72.95996582 -32.05249023 73.61547852 C-35.17950773 77.21742719 -38.24710718 80.85563231 -41.25 84.5625 C-45.84552024 90.23338877 -50.62980752 95.73000136 -55.421875 101.234375 C-60.06444754 106.56713254 -64.65680389 111.94266481 -69.25292969 117.31542969 C-70.78286759 119.10085624 -72.31670801 120.88286145 -73.8515625 122.6640625 C-95.1255065 147.36571749 -113.70432581 173.72756016 -131.63525391 200.92700195 C-138.82589444 211.79936129 -144.9040326 219.6569038 -155.75 227.0625 C-156.30929199 227.44680176 -156.86858398 227.83110352 -157.44482422 228.22705078 C-186.12364506 247.74089041 -217.04916475 265.69401642 -248.6875 279.9375 C-258.65666742 284.43983676 -267.33480749 289.04429597 -275.75 296.0625 C-276.30671387 296.51898926 -276.86342773 296.97547852 -277.43701172 297.44580078 C-281.26577932 300.58738113 -285.01938712 303.80513626 -288.75 307.0625 C-289.48863281 307.70058594 -290.22726562 308.33867187 -290.98828125 308.99609375 C-297.12474679 314.32092256 -303.1452401 319.780117 -309.15234375 325.25 C-309.94769531 325.971875 -310.74304687 326.69375 -311.5625 327.4375 C-312.37589844 328.17613281 -313.18929688 328.91476562 -314.02734375 329.67578125 C-316.03364014 331.43452887 -318.04922839 333.12583727 -320.12890625 334.79296875 C-332.99450301 345.15074283 -336.79123143 356.82543696 -338.734375 373.0859375 C-338.99485039 375.53590408 -339.24983208 377.98645947 -339.5 380.4375 C-340.89704286 392.8114708 -342.78025047 405.0799462 -345.05700684 417.3225708 C-345.39125282 419.13428733 -345.71620691 420.94774534 -346.03137207 422.76287842 C-349.21033041 440.94294032 -349.21033041 440.94294032 -356.75 447.0625 C-357.55824219 447.84238281 -358.36648438 448.62226563 -359.19921875 449.42578125 C-359.93785156 450.06902344 -360.67648437 450.71226562 -361.4375 451.375 C-365.2910351 454.77103779 -369.0994818 458.20551438 -372.875 461.6875 C-376.76963145 465.26953119 -380.70252806 468.79839206 -384.703125 472.26171875 C-387.19074726 474.45025665 -389.62353452 476.69489191 -392.0625 478.9375 C-396.57366534 483.05666063 -401.22875188 486.93395152 -405.984375 490.765625 C-409.80404922 493.93789681 -413.42739234 497.30569649 -417.046875 500.703125 C-417.93890625 501.48171875 -418.8309375 502.2603125 -419.75 503.0625 C-420.25305664 503.50907959 -420.75611328 503.95565918 -421.27441406 504.41577148 C-426.20558722 508.40660496 -430.80161197 509.03147825 -437 509.625 C-448.29417887 511.0031239 -457.04927811 512.45031058 -465.19140625 520.96484375 C-472.13732408 526.65943593 -479.95659815 528.86003208 -488.625 530.5 C-499.28888481 532.74821628 -508.163918 535.44551016 -516.1875 543.16015625 C-522.32573458 548.77189905 -529.05602357 553.21724524 -536 557.75 C-537.33838171 558.63190753 -538.6764307 559.5143202 -540.01416016 560.3972168 C-550.28628118 567.16245904 -560.6248895 573.82350704 -571.04296875 580.36181641 C-573.89746587 582.15514495 -576.74567118 583.95821693 -579.59375 585.76171875 C-589.83415379 592.22820393 -600.14143367 598.57841113 -610.5625 604.75 C-611.5220459 605.32621094 -612.4815918 605.90242187 -613.47021484 606.49609375 C-628.08664551 615.0625 -628.08664551 615.0625 -634.75 615.0625 C-635.26928216 616.66052902 -635.76407932 618.26651258 -636.25 619.875 C-636.5284375 620.76832031 -636.806875 621.66164063 -637.09375 622.58203125 C-640.98278496 643.20780594 -634.8090206 666.99698541 -629.57910156 686.89355469 C-628.10167508 692.540491 -626.70427459 698.20646513 -625.3125 703.875 C-625.04139404 704.9374292 -624.77028809 705.9998584 -624.4909668 707.09448242 C-624.24773682 708.08037354 -624.00450684 709.06626465 -623.75390625 710.08203125 C-623.53549072 710.94932861 -623.3170752 711.81662598 -623.09204102 712.71020508 C-622.7345838 715.16852078 -622.97105039 716.72497529 -623.75 719.0625 C-624.60464844 718.56943359 -624.60464844 718.56943359 -625.4765625 718.06640625 C-629.30938681 716.37390479 -632.81975867 716.74563158 -636.75 718.0625 C-639.1770701 720.12872261 -640.98791907 722.41592354 -642.75 725.0625 C-646.11497872 724.64187766 -648.48990559 723.68000354 -651.375 722 C-656.39400918 719.40494412 -661.21327555 719.23751955 -666.75 720.0625 C-672.50956726 722.77927701 -676.48494217 727.67924906 -679.984375 732.90625 C-681.0895527 736.01879129 -680.63937309 737.89633181 -679.75 741.0625 C-677.97836898 744.11838884 -677.97836898 744.11838884 -675.6875 747.125 C-674.86946538 748.25700268 -674.05443993 749.39118501 -673.2421875 750.52734375 C-672.82807617 751.10597168 -672.41396484 751.68459961 -671.98730469 752.28076172 C-669.26712492 756.19786353 -666.84688223 760.30441987 -664.37890625 764.3828125 C-661.9766942 768.78101418 -661.9766942 768.78101418 -657.75 771.0625 C-656.41474283 771.14223476 -655.07587917 771.17021338 -653.73828125 771.16015625 C-652.98095703 771.15693359 -652.22363281 771.15371094 -651.44335938 771.15039062 C-650.65767578 771.14201172 -649.87199219 771.13363281 -649.0625 771.125 C-647.86657227 771.11823242 -647.86657227 771.11823242 -646.64648438 771.11132812 C-644.68095743 771.0995585 -642.71546915 771.08162348 -640.75 771.0625 C-649.82069896 782.22643718 -660.2050606 789.29863866 -672.75 796.0625 C-673.50635742 796.47209961 -674.26271484 796.88169922 -675.04199219 797.30371094 C-684.9238839 802.55806715 -694.45584104 806.02914727 -705.39208984 808.3984375 C-718.94501798 811.33756568 -732.16817539 817.58853811 -743.4765625 825.671875 C-758.26680752 835.99544028 -775.46819542 839.77138603 -792.75 844.0625 C-793.9464917 844.36067627 -795.1429834 844.65885254 -796.37573242 844.96606445 C-805.30067496 847.11110103 -814.06440049 848.21114671 -823.20556641 848.87060547 C-824.86569444 848.99580799 -826.52454246 849.13981424 -828.18115234 849.30517578 C-838.14338976 850.27524273 -844.67998366 849.69929035 -852.62988281 843.33203125 C-853.76122854 842.3913176 -854.88733735 841.44427249 -856.00830078 840.49121094 C-865.32103137 832.85200441 -879.48465081 821.60966848 -891.94921875 822.484375 C-901.71823982 824.50085355 -910.92775347 829.03141321 -919.9375 833.1875 C-920.64398682 833.51169922 -921.35047363 833.83589844 -922.07836914 834.16992188 C-923.08178345 834.64655273 -923.08178345 834.64655273 -924.10546875 835.1328125 C-924.68965576 835.40883301 -925.27384277 835.68485352 -925.87573242 835.96923828 C-929.48322981 838.07349428 -932.22646756 839.74684861 -933.80883789 843.72338867 C-934.00727295 844.7363501 -934.20570801 845.74931152 -934.41015625 846.79296875 C-934.63977051 847.94716309 -934.86938477 849.10135742 -935.10595703 850.29052734 C-936.36531698 857.66623286 -937.45355771 865.05902813 -938.47680664 872.47045898 C-943.05748202 905.39670746 -943.05748202 905.39670746 -948.75 911.0625 C-951.6797851 912.67991163 -954.61569448 914.11477228 -957.66430664 915.48608398 C-961.1319342 917.08860725 -963.62577317 918.3290561 -965.5625 921.6875 C-967.21852133 926.39408692 -967.86801727 930.61093893 -967.9609375 935.58984375 C-967.98929688 936.62947266 -968.01765625 937.66910156 -968.046875 938.74023438 C-968.09886061 940.90933404 -968.14316097 943.07863182 -968.1796875 945.24804688 C-968.48959457 955.67512834 -968.48959457 955.67512834 -971.75 960.0625 C-974.2734375 961.671875 -974.2734375 961.671875 -977.125 962.8125 C-978.06085938 963.19921875 -978.99671875 963.5859375 -979.9609375 963.984375 C-981.78178481 964.68823194 -983.6208997 965.34697726 -985.4765625 965.953125 C-988.24898635 967.30599162 -988.58040431 968.27701553 -989.75 971.0625 C-990.80481268 972.39802895 -991.89285216 973.70752524 -993 975 C-1005.047515 989.84114166 -1014.80304255 1006.70007811 -1024.89550781 1022.90136719 C-1025.86490438 1024.45691051 -1026.83851329 1026.00982662 -1027.8125 1027.5625 C-1028.57240234 1028.78453125 -1028.57240234 1028.78453125 -1029.34765625 1030.03125 C-1032.64058213 1034.80094765 -1032.64058213 1034.80094765 -1035.73828125 1035.53125 C-1045.70293916 1035.66522859 -1055.90366381 1032.23208489 -1063.75 1026.0625 C-1065.36529132 1023.85882078 -1066.75596078 1021.7774508 -1068.125 1019.4375 C-1068.89846609 1018.1850969 -1069.67585809 1016.93511044 -1070.45703125 1015.6875 C-1070.84068848 1015.07390625 -1071.2243457 1014.4603125 -1071.61962891 1013.828125 C-1077.3300036 1004.90859372 -1082.49411534 999.45215084 -1092.88085938 996.98535156 C-1097.85342779 995.91940227 -1102.64792114 995.77316631 -1107.71875 995.796875 C-1108.63910034 995.79496155 -1109.55945068 995.7930481 -1110.50769043 995.79107666 C-1112.44051387 995.78972446 -1114.3733467 995.7933529 -1116.30615234 995.80175781 C-1119.24207215 995.81247107 -1122.17738017 995.80182942 -1125.11328125 995.7890625 C-1127.0026055 995.79038427 -1128.89192937 995.79294701 -1130.78125 995.796875 C-1131.64713745 995.79282654 -1132.5130249 995.78877808 -1133.40515137 995.78460693 C-1160.082037 995.98694942 -1182.1992375 1019.47588099 -1201.5 1035.625 C-1202.28697266 1036.26985352 -1202.28697266 1036.26985352 -1203.08984375 1036.92773438 C-1210.38388398 1043.04212119 -1214.73887654 1049.32869981 -1218.5 1058.0625 C-1218.92555176 1059.01801758 -1219.35110352 1059.97353516 -1219.78955078 1060.95800781 C-1221.99700022 1065.93796179 -1224.12425138 1070.94629734 -1226.1953125 1075.984375 C-1231.17325661 1087.99318903 -1236.77809871 1098.66168742 -1244.41162109 1109.19824219 C-1245.58880109 1110.83796244 -1246.71477594 1112.51418912 -1247.83203125 1114.1953125 C-1256.38108615 1126.82991574 -1268.80932724 1135.84173017 -1280.75 1145.0625 C-1286.24081534 1149.05882836 -1286.24081534 1149.05882836 -1288.75 1155.0625 C-1290.25880959 1190.36639255 -1286.86853823 1227.39139896 -1274.64294434 1260.61047363 C-1271.20493078 1270.05126357 -1267.95994798 1279.56339533 -1264.6875 1289.0625 C-1264.29207001 1290.20660339 -1263.89664001 1291.35070679 -1263.48922729 1292.52947998 C-1256.46299304 1312.9492313 -1251.27159411 1333.28209651 -1247.24871826 1354.47570801 C-1246.53490177 1358.17818879 -1245.7825918 1361.87253709 -1245.03039551 1365.56738281 C-1244.07274342 1370.27208437 -1243.12874525 1374.97949209 -1242.1875 1379.6875 C-1242.01047546 1380.57038696 -1241.83345093 1381.45327393 -1241.65106201 1382.36291504 C-1241.15425176 1384.85770402 -1240.66724258 1387.35419268 -1240.18359375 1389.8515625 C-1240.03724991 1390.58192719 -1239.89090607 1391.31229187 -1239.74012756 1392.06478882 C-1237.6360357 1403.09795992 -1237.6360357 1403.09795992 -1240.55078125 1408.23828125 C-1241.3675863 1409.29989434 -1242.20608358 1410.34507584 -1243.0625 1411.375 C-1243.50964355 1411.9333252 -1243.95678711 1412.49165039 -1244.41748047 1413.06689453 C-1249.59048294 1419.35673405 -1255.57561568 1424.83257915 -1262.01171875 1429.8125 C-1267.82518376 1434.41897894 -1271.50098174 1439.95764687 -1273.75 1447.0625 C-1274.72963235 1455.56939285 -1271.83439955 1462.82329466 -1268.9375 1470.6875 C-1268.69079559 1471.36924286 -1268.44409119 1472.05098572 -1268.18991089 1472.75338745 C-1261.0049967 1492.57022198 -1251.42350504 1510.93264899 -1241.24511719 1529.35400391 C-1233.91511645 1542.6327479 -1227.18203761 1555.52279128 -1222.75 1570.0625 C-1222.53682129 1570.72652832 -1222.32364258 1571.39055664 -1222.10400391 1572.07470703 C-1216.21020746 1590.50338528 -1211.44490649 1611.655019 -1211.6875 1631.0625 C-1211.69652344 1632.01125 -1211.70554687 1632.96 -1211.71484375 1633.9375 C-1211.72644531 1634.63875 -1211.73804688 1635.34 -1211.75 1636.0625 C-1220.36799235 1633.41569645 -1227.46719285 1628.57009065 -1234.89453125 1623.62109375 C-1242.18366852 1618.63948145 -1242.18366852 1618.63948145 -1250.75 1617.0625 C-1257.9880646 1619.1806158 -1262.3219201 1624.15645842 -1266.1875 1630.375 C-1267.94620542 1638.77770369 -1264.73166399 1647.61968548 -1262.58984375 1655.71875 C-1261.75 1659.0625 -1261.75 1659.0625 -1261.75 1661.0625 C-1263.43029297 1660.99289062 -1263.43029297 1660.99289062 -1265.14453125 1660.921875 C-1266.61716085 1660.88435577 -1268.08981927 1660.84795577 -1269.5625 1660.8125 C-1270.30048828 1660.77898437 -1271.03847656 1660.74546875 -1271.79882812 1660.7109375 C-1276.1701427 1660.57883557 -1276.1701427 1660.57883557 -1279.69140625 1662.890625 C-1282.99754347 1669.67369619 -1283.28610166 1676.62791864 -1283.75 1684.0625 C-1289.94255232 1686.60696457 -1295.99609222 1686.44122867 -1302.58203125 1686.54101562 C-1306.1403798 1686.65005321 -1309.02015917 1686.74987001 -1312.3125 1688.16015625 C-1314.46551129 1691.00938586 -1314.38625436 1693.53195834 -1314.625 1697.0625 C-1315.54674183 1706.35616945 -1318.66972901 1713.52625992 -1325.5625 1719.9375 C-1328.98419993 1722.69714688 -1332.60101914 1724.76215616 -1336.57421875 1726.62890625 C-1343.55476972 1731.2282998 -1345.78700019 1738.43827295 -1348.62304688 1745.8984375 C-1351.2923245 1752.6282526 -1354.54619115 1758.7324572 -1360.5 1763.0625 C-1364.96041909 1764.43493664 -1369.121385 1764.30948143 -1373.75 1764.0625 C-1374.22308594 1763.1446875 -1374.69617187 1762.226875 -1375.18359375 1761.28125 C-1380.03077862 1752.17494415 -1385.32149994 1743.33822005 -1395.75 1740.0625 C-1398.43416737 1739.784344 -1398.43416737 1739.784344 -1401.25 1739.875 C-1402.82201172 1739.89433594 -1402.82201172 1739.89433594 -1404.42578125 1739.9140625 C-1407.78565946 1740.06409231 -1411.09347425 1740.39717196 -1414.4375 1740.75 C-1421.71016251 1741.358955 -1426.82634935 1740.09115555 -1432.8125 1735.9375 C-1436.53601499 1733.5607883 -1439.40121232 1732.6861626 -1443.75 1733.0625 C-1452.04818773 1734.98886501 -1459.18261168 1738.62823768 -1466.375 1743.0625 C-1467.38723633 1743.68475464 -1467.38723633 1743.68475464 -1468.41992188 1744.31958008 C-1472.23185583 1746.77238035 -1475.43989694 1749.06265403 -1477.75 1753.0625 C-1477.97134756 1756.61030226 -1477.97134756 1756.61030226 -1477.5625 1760.375 C-1477.34094238 1765.24926774 -1477.41247395 1768.74497021 -1480.75 1772.5625 C-1482.07660891 1773.73680732 -1483.41068442 1774.90270576 -1484.75 1776.0625 C-1485.64537476 1776.89068237 -1485.64537476 1776.89068237 -1486.55883789 1777.7355957 C-1491.41244117 1782.16675692 -1496.46640506 1785.54083052 -1502.1875 1788.75 C-1502.98220703 1789.20955078 -1503.77691406 1789.66910156 -1504.59570312 1790.14257812 C-1506.95997722 1791.49111851 -1509.34825686 1792.7821221 -1511.75 1794.0625 C-1512.43900391 1794.45896729 -1513.12800781 1794.85543457 -1513.83789062 1795.26391602 C-1520.76762138 1798.88620189 -1527.69858322 1798.60686598 -1535.375 1798.625 C-1552.74705997 1798.91587077 -1565.38638265 1800.63690444 -1580.06787109 1810.64208984 C-1589.59150581 1815.68564589 -1604.04383089 1810.70530257 -1613.94873047 1808.546875 C-1616.71405951 1807.94531833 -1619.48325805 1807.3655623 -1622.25390625 1806.7890625 C-1631.63252617 1804.80867541 -1640.93019635 1802.58816591 -1650.16796875 1800.02734375 C-1651.45084778 1799.68079239 -1651.45084778 1799.68079239 -1652.75964355 1799.32723999 C-1659.35041813 1797.44204391 -1664.40006096 1794.56529935 -1670.0703125 1790.69921875 C-1673.77753963 1788.43489197 -1676.45156303 1788.0625 -1680.75 1788.0625 C-1681.41 1788.0625 -1682.07 1788.0625 -1682.75 1788.0625 C-1682.85957031 1789.14789062 -1682.96914062 1790.23328125 -1683.08203125 1791.3515625 C-1683.24158608 1792.79694152 -1683.40177611 1794.24225051 -1683.5625 1795.6875 C-1683.63275391 1796.40035156 -1683.70300781 1797.11320312 -1683.77539062 1797.84765625 C-1684.38819334 1803.19129593 -1685.56476362 1807.62945331 -1689.265625 1811.75 C-1696.79447522 1817.44750828 -1707.02200949 1822.91367329 -1716.6875 1821.9375 C-1718.04951866 1821.68502825 -1719.40896867 1821.40959046 -1720.75 1821.0625 C-1719.22300762 1825.2499224 -1717.13318677 1828.9886649 -1714.875 1832.8125 C-1706.80065472 1846.78303762 -1706.80065472 1846.78303762 -1706.6875 1851.875 C-1707.75 1854.0625 -1707.75 1854.0625 -1710.0703125 1855.71875 C-1713.4609667 1858.68433677 -1714.84622095 1861.70632392 -1716.6875 1865.75 C-1719.30676639 1871.26349029 -1722.03920149 1876.39547973 -1725.62109375 1881.36328125 C-1727.81754849 1884.66936365 -1727.97666575 1887.89580557 -1728.25 1891.75390625 C-1728.3325 1892.86314453 -1728.415 1893.97238281 -1728.5 1895.11523438 C-1728.6669435 1897.45896467 -1728.83360926 1899.80271477 -1729 1902.14648438 C-1729.0825 1903.25443359 -1729.165 1904.36238281 -1729.25 1905.50390625 C-1729.3221875 1906.52170166 -1729.394375 1907.53949707 -1729.46875 1908.58813477 C-1729.75 1911.0625 -1729.75 1911.0625 -1730.75 1913.0625 C-1733.51317285 1911.75106035 -1735.93847401 1910.25508115 -1738.4375 1908.5 C-1742.75949336 1905.80577037 -1746.63460836 1904.59181292 -1751.75 1905.0625 C-1754.69515105 1906.00275937 -1757.31134709 1907.14641557 -1759.75 1909.0625 C-1760.76973129 1912.12169388 -1760.86533602 1914.18668025 -1760.84765625 1917.38671875 C-1760.84282227 1918.92875977 -1760.84282227 1918.92875977 -1760.83789062 1920.50195312 C-1760.82951172 1921.57380859 -1760.82113281 1922.64566406 -1760.8125 1923.75 C-1760.80573242 1925.37518555 -1760.80573242 1925.37518555 -1760.79882812 1927.03320312 C-1760.78703743 1929.70969085 -1760.77058063 1932.38606777 -1760.75 1935.0625 C-1765.366934 1936.66191472 -1768.83830096 1937.83803143 -1773.75 1937.0625 C-1778.78745658 1933.83984765 -1781.23825915 1929.3155146 -1783.6875 1924 C-1789.65148248 1911.51291168 -1803.54693877 1907.29543018 -1815.8828125 1902.79296875 C-1817.48866211 1902.20672729 -1817.48866211 1902.20672729 -1819.12695312 1901.60864258 C-1821.25849959 1900.8400746 -1823.39515527 1900.08550232 -1825.53710938 1899.34643555 C-1831.11031932 1897.35438466 -1835.00749289 1895.72020536 -1838.75 1891.0625 C-1837.76 1890.753125 -1836.77 1890.44375 -1835.75 1890.125 C-1824.81516553 1885.33826523 -1817.4771861 1870.38560658 -1812.1875 1860.25 C-1805.79530947 1848.82025535 -1797.87402398 1844.72366584 -1786.10595703 1840.0078125 C-1782.44324424 1838.53817271 -1778.81163513 1836.99953771 -1775.1875 1835.4375 C-1774.5279834 1835.15495361 -1773.8684668 1834.87240723 -1773.18896484 1834.58129883 C-1768.5468483 1832.54247558 -1764.42284961 1830.13914363 -1760.3515625 1827.12890625 C-1758.75 1826.0625 -1758.75 1826.0625 -1756.75 1826.0625 C-1756.46817871 1825.47573486 -1756.18635742 1824.88896973 -1755.89599609 1824.28442383 C-1754.84524517 1822.24716686 -1753.68914477 1820.41301724 -1752.4140625 1818.51171875 C-1749.29658744 1813.5656147 -1747.21204892 1808.32013751 -1745.125 1802.875 C-1744.72893555 1801.84906738 -1744.33287109 1800.82313477 -1743.92480469 1799.76611328 C-1741.21231585 1792.60128398 -1739.19657867 1785.58642103 -1737.75 1778.0625 C-1735.48389364 1767.19098287 -1733.27257432 1757.28262979 -1727.93359375 1747.4921875 C-1725.99648518 1743.51568079 -1725.88850742 1741.44175395 -1726.75 1737.0625 C-1729.21609243 1732.24097313 -1732.02987451 1727.86914103 -1736.75 1725.0625 C-1740.10634817 1724.68104959 -1740.10634817 1724.68104959 -1743.859375 1724.83984375 C-1744.88783539 1724.85332603 -1744.88783539 1724.85332603 -1745.93707275 1724.86708069 C-1748.12523761 1724.89702213 -1750.31228777 1724.94672935 -1752.5 1725 C-1774.08681622 1725.47794575 -1774.08681622 1725.47794575 -1779.4375 1720.625 C-1785.52046601 1712.25318915 -1787.95093395 1703.45314732 -1787.7421875 1693.26171875 C-1787.72463713 1691.71029338 -1787.70773224 1690.15886061 -1787.69140625 1688.60742188 C-1787.66081321 1686.19664165 -1787.62570822 1683.78624949 -1787.57861328 1681.37573242 C-1787.34322327 1668.62367708 -1787.51986388 1654.95311334 -1792.75 1643.0625 C-1796.88470853 1641.5614854 -1801.21035282 1642.04962544 -1805.5390625 1642.17578125 C-1807.30335778 1642.20793442 -1809.06768292 1642.23848139 -1810.83203125 1642.26757812 C-1813.59734063 1642.31674027 -1816.36105212 1642.37456792 -1819.12548828 1642.46020508 C-1838.6852612 1643.04085843 -1838.6852612 1643.04085843 -1846.75 1636.0625 C-1848.19439453 1634.97195313 -1848.19439453 1634.97195313 -1849.66796875 1633.859375 C-1858.93368801 1625.502685 -1867.57807541 1614.95367051 -1868.75 1602.0625 C-1868.04296875 1598.87890625 -1868.04296875 1598.87890625 -1866.9375 1595.625 C-1866.56496094 1594.48675781 -1866.19242188 1593.34851562 -1865.80859375 1592.17578125 C-1865.45925781 1591.14839844 -1865.10992188 1590.12101562 -1864.75 1589.0625 C-1862.42592029 1582.09026086 -1861.7397484 1576.30593935 -1863.9375 1569.25 C-1867.10510826 1563.67937859 -1871.1307667 1561.45357946 -1877.109375 1559.671875 C-1887.67829958 1557.2328924 -1895.6606612 1558.348081 -1905.75 1562.0625 C-1914.15135629 1565.06384536 -1919.95997249 1565.65917584 -1928.5 1562.8125 C-1932.08391841 1560.88269778 -1934.07194903 1559.13246087 -1936.75 1556.0625 C-1937.69552734 1554.99322266 -1937.69552734 1554.99322266 -1938.66015625 1553.90234375 C-1945.0024417 1546.42200334 -1948.95780874 1538.45441606 -1951.75 1529.0625 C-1955.47691271 1533.30845763 -1957.85157155 1537.872899 -1960.375 1542.875 C-1965.03230816 1551.92270933 -1970.18915168 1560.54543936 -1975.75 1569.0625 C-1976.45382812 1570.15175781 -1977.15765625 1571.24101563 -1977.8828125 1572.36328125 C-1979.75 1575.0625 -1979.75 1575.0625 -1982.25 1577.4375 C-1984.94323804 1580.26539994 -1986.29450776 1582.85687501 -1987.85546875 1586.390625 C-1988.75 1588.0625 -1988.75 1588.0625 -1990.75 1589.0625 C-1992.85353495 1589.1435206 -1994.95795952 1589.20169907 -1997.0625 1589.25 C-2012.3430181 1589.97122679 -2030.77929015 1594.59004226 -2041.5 1605.875 C-2042.17546875 1606.66519531 -2042.8509375 1607.45539063 -2043.546875 1608.26953125 C-2045.75 1610.0625 -2045.75 1610.0625 -2048.8203125 1610.40625 C-2052.96930615 1609.91943474 -2054.6759572 1608.93606175 -2057.75 1606.0625 C-2058.94256513 1603.36106215 -2059.84655744 1600.6425107 -2060.73828125 1597.828125 C-2062.14072814 1593.99440917 -2064.27958719 1591.28776117 -2066.75 1588.0625 C-2066.75 1587.4025 -2066.75 1586.7425 -2066.75 1586.0625 C-2067.2759375 1585.80726562 -2067.801875 1585.55203125 -2068.34375 1585.2890625 C-2070.15619016 1584.36518878 -2071.9441867 1583.39312693 -2073.71875 1582.3984375 C-2086.59599392 1575.19547209 -2100.03343802 1569.00636848 -2114.5625 1566.125 C-2127.73486506 1563.43660503 -2137.90351363 1556.00996829 -2146.75 1546.0625 C-2151.00159679 1541.37202923 -2151.00159679 1541.37202923 -2156.75 1539.0625 C-2162.6718861 1539.54212383 -2167.55646141 1540.60686525 -2171.75 1545.0625 C-2174.07113738 1548.37841055 -2174.08790257 1551.07616291 -2173.75 1555.0625 C-2172.65938355 1558.07154586 -2171.25348784 1560.89511982 -2169.8125 1563.75 C-2169.07298396 1565.25329945 -2168.33465317 1566.75718269 -2167.59765625 1568.26171875 C-2167.26773682 1568.92002686 -2166.93781738 1569.57833496 -2166.59790039 1570.2565918 C-2165.1187583 1573.40695576 -2164.56966303 1576.05748531 -2164.5 1579.5 C-2164.47421875 1580.26183594 -2164.4484375 1581.02367187 -2164.421875 1581.80859375 C-2164.84587862 1584.72109479 -2165.72030823 1585.94078674 -2167.75 1588.0625 C-2170.13500977 1588.5324707 -2170.13500977 1588.5324707 -2172.94140625 1588.48828125 C-2173.96943359 1588.47990234 -2174.99746094 1588.47152344 -2176.05664062 1588.46289062 C-2177.13107422 1588.43388672 -2178.20550781 1588.40488281 -2179.3125 1588.375 C-2180.35986328 1588.36533203 -2181.40722656 1588.35566406 -2182.48632812 1588.34570312 C-2188.95265773 1588.25326958 -2195.32894617 1587.82471465 -2201.75 1587.0625 C-2204.17597742 1577.81132109 -2205.58069666 1570.62050544 -2200.625 1562 C-2198.82113325 1559.12703911 -2196.96060382 1556.34848262 -2194.94921875 1553.6171875 C-2191.72382999 1549.19863583 -2189.79185592 1545.95334637 -2190.24609375 1540.3671875 C-2191.85145842 1533.02482193 -2195.88094326 1527.76147988 -2200.75 1522.1875 C-2208.13379252 1513.68400624 -2210.81781467 1504.97458421 -2212.57885742 1494.01611328 C-2213.53301096 1488.38626786 -2215.40846963 1483.48975084 -2217.859375 1478.3203125 C-2218.15328125 1477.57523438 -2218.4471875 1476.83015625 -2218.75 1476.0625 C-2218.42 1475.4025 -2218.09 1474.7425 -2217.75 1474.0625 C-2197.16988655 1487.69912276 -2197.16988655 1487.69912276 -2188.75 1496.0625 C-2187.74499432 1497.04187466 -2186.73977232 1498.02102739 -2185.734375 1499 C-2181.3320074 1503.32223812 -2177.02108604 1507.64302236 -2173.125 1512.4375 C-2160.85232027 1526.69633804 -2139.57596946 1526.56423926 -2122.2734375 1528.58984375 C-2105.06894806 1530.6757588 -2105.06894806 1530.6757588 -2099.23828125 1538.09375 C-2098.50158203 1539.06828125 -2098.50158203 1539.06828125 -2097.75 1540.0625 C-2092.94948559 1546.17431883 -2088.45298798 1551.32845204 -2080.3828125 1552.3671875 C-2076.31276396 1552.48728729 -2073.2293355 1552.35769191 -2069.75 1550.0625 C-2066.36268155 1544.84128302 -2067.37257052 1539.1254952 -2068.4375 1533.3046875 C-2071.31891458 1520.03837399 -2077.45954094 1510.10994058 -2085.43554688 1499.25024414 C-2092.65884252 1489.32522101 -2092.65884252 1489.32522101 -2093.75 1485.0625 C-2092.78876983 1482.39011181 -2092.31824827 1481.34662414 -2089.75 1480.0625 C-2081.95828901 1479.18232524 -2075.46023804 1480.88339509 -2068.0546875 1483.16015625 C-2062.53389404 1484.66760695 -2058.23266357 1484.86155596 -2052.80078125 1483.11328125 C-2048.4265157 1480.17283386 -2047.02340665 1476.54438461 -2044.9375 1471.8125 C-2044.34678711 1470.56146484 -2044.34678711 1470.56146484 -2043.74414062 1469.28515625 C-2041.31879062 1463.98516326 -2039.19833162 1458.86211599 -2040.0625 1452.91015625 C-2042.25068274 1447.22834085 -2045.53562248 1443.39648423 -2049.75 1439.0625 C-2050.81120127 1437.92708646 -2051.87239887 1436.79166951 -2052.93359375 1435.65625 C-2064.43876451 1423.35577642 -2064.43876451 1423.35577642 -2079.90625 1417.9296875 C-2080.6796875 1417.93226562 -2081.453125 1417.93484375 -2082.25 1417.9375 C-2083.0234375 1417.93492188 -2083.796875 1417.93234375 -2084.59375 1417.9296875 C-2086.93447017 1417.98104187 -2086.93447017 1417.98104187 -2089.75 1419.0625 C-2091.88528104 1424.58910974 -2092.43345678 1430.41896375 -2093.1875 1436.26953125 C-2093.75 1439.0625 -2093.75 1439.0625 -2095.75 1441.0625 C-2101.81671341 1441.61866867 -2105.13267191 1440.84556427 -2110.4375 1437.625 C-2111.03199951 1437.26591553 -2111.62649902 1436.90683105 -2112.23901367 1436.53686523 C-2114.09215894 1435.40244147 -2115.92279564 1434.23818109 -2117.75 1433.0625 C-2118.33040039 1432.69382812 -2118.91080078 1432.32515625 -2119.50878906 1431.9453125 C-2126.27645902 1427.60538543 -2132.29573877 1422.95210501 -2137.75 1417.0078125 C-2141.95190273 1412.92080555 -2145.88935258 1411.26116601 -2151.75 1411.0625 C-2158.15604482 1412.53894081 -2163.06824384 1415.53986575 -2166.75 1421.0625 C-2167.60575302 1424.47103175 -2167.97847389 1427.86710233 -2168.28515625 1431.36328125 C-2168.37216797 1432.33974609 -2168.45917969 1433.31621094 -2168.54882812 1434.32226562 C-2168.63583984 1435.32966797 -2168.72285156 1436.33707031 -2168.8125 1437.375 C-2168.90337891 1438.40173828 -2168.99425781 1439.42847656 -2169.08789062 1440.48632812 C-2169.31104654 1443.01151351 -2169.53166711 1445.5368938 -2169.75 1448.0625 C-2173.85898997 1447.12621122 -2177.96656364 1446.18399046 -2182.07299805 1445.23657227 C-2183.46619015 1444.91598205 -2184.85973801 1444.5969334 -2186.25366211 1444.27954102 C-2201.69389394 1440.76158364 -2211.38959221 1438.44568246 -2220.5 1424.625 C-2229.03731698 1410.50033141 -2229.03731698 1410.50033141 -2227.75 1403.0625 C-2223.77863051 1397.92308066 -2219.21023985 1395.49899417 -2212.875 1394.375 C-2211.84375 1394.271875 -2210.8125 1394.16875 -2209.75 1394.0625 C-2214.42826054 1383.02184392 -2214.42826054 1383.02184392 -2223.77734375 1376.21484375 C-2226.86966093 1375.13334794 -2229.98589612 1374.25290776 -2233.1640625 1373.4609375 C-2244.23431993 1370.54401253 -2257.32937264 1362.6513783 -2264.05859375 1353.23046875 C-2265.93885148 1347.33474534 -2264.3569735 1341.49745287 -2262.9375 1335.6875 C-2261.66085046 1330.27251344 -2260.51385351 1324.88630213 -2259.65014648 1319.38964844 C-2257.83157383 1307.86544689 -2255.14272551 1294.54855738 -2245.28125 1287.23046875 C-2243.52816695 1286.03403994 -2241.75427675 1284.86728555 -2239.95703125 1283.73828125 C-2237.50329054 1281.87517547 -2236.68946997 1280.97585633 -2235.75 1278.0625 C-2235.47625853 1275.45490086 -2235.2876349 1272.92565899 -2235.1875 1270.3125 C-2234.98912467 1266.01757781 -2234.78771964 1261.79755181 -2234 1257.5625 C-2233.60579345 1252.04360836 -2235.33213636 1248.13604236 -2238.4140625 1243.62890625 C-2241.27414023 1240.48664694 -2244.36458797 1238.44217678 -2247.9375 1236.1875 C-2249.2813521 1235.31074226 -2250.6238046 1234.43183551 -2251.96484375 1233.55078125 C-2252.61308105 1233.12619629 -2253.26131836 1232.70161133 -2253.92919922 1232.26416016 C-2265.72770246 1224.47759097 -2265.72770246 1224.47759097 -2267.75 1217.0625 C-2268.26120847 1213.33798114 -2268.33191491 1211.83838654 -2266.0625 1208.8125 C-2260.08706852 1204.29055185 -2253.95961696 1204.41231765 -2246.75 1205.0625 C-2240.06155578 1206.31470873 -2233.68907068 1208.16768895 -2227.4609375 1210.88671875 C-2207.79930687 1219.46112698 -2191.427413 1216.00585298 -2171.03222656 1210.85302734 C-2168.75980344 1210.30571211 -2166.47332932 1209.81481123 -2164.17871094 1209.36962891 C-2163.0240332 1209.14065918 -2161.86935547 1208.91168945 -2160.6796875 1208.67578125 C-2159.63796387 1208.48411377 -2158.59624023 1208.29244629 -2157.52294922 1208.0949707 C-2154.02206681 1206.79146377 -2152.78833676 1205.14337386 -2150.75 1202.0625 C-2144.40102428 1187.02545225 -2147.24091011 1165.90031543 -2152.75 1151.0625 C-2154.60152478 1147.58692348 -2156.65957238 1145.01665814 -2159.4375 1142.25 C-2167.55371027 1133.25191789 -2172.02948587 1121.78773364 -2174.86328125 1110.1484375 C-2176.65290103 1103.92024533 -2179.18303201 1099.5450531 -2184.75 1096.0625 C-2187.74682933 1094.65474166 -2190.81444727 1093.53170826 -2193.9375 1092.4375 C-2195.53784918 1091.86951036 -2197.13564061 1091.29424954 -2198.73046875 1090.7109375 C-2199.43067139 1090.46520996 -2200.13087402 1090.21948242 -2200.85229492 1089.96630859 C-2202.95216134 1088.96621783 -2204.20898079 1087.78639285 -2205.75 1086.0625 C-2204.88117187 1085.96453125 -2204.01234375 1085.8665625 -2203.1171875 1085.765625 C-2191.29906082 1084.2321768 -2186.15569015 1080.10404339 -2178.75 1071.0625 C-2176.29261289 1067.56510626 -2174.04481681 1063.95661153 -2171.8125 1060.3125 C-2170.60368207 1058.37237568 -2169.39274771 1056.43356842 -2168.1796875 1054.49609375 C-2167.59799805 1053.56651855 -2167.01630859 1052.63694336 -2166.41699219 1051.67919922 C-2163.53456087 1047.15460946 -2160.44822263 1042.78552788 -2157.32421875 1038.42578125 C-2154.58192473 1034.30893788 -2154.33716122 1030.92883714 -2154.75 1026.0625 C-2156.46954717 1023.02007555 -2156.46954717 1023.02007555 -2158.75 1020.125 C-2162.83515293 1014.24498733 -2163.26398498 1009.83603626 -2162.89038086 1002.81494141 C-2162.55671484 995.92921207 -2163.78977843 990.52097668 -2168.328125 985.21875 C-2169.48599696 984.07130932 -2170.66618626 982.94596759 -2171.8671875 981.84375 C-2173.98059973 979.84433926 -2175.83832417 977.74596255 -2177.6875 975.5 C-2178.56728516 974.44619141 -2178.56728516 974.44619141 -2179.46484375 973.37109375 C-2181.16400729 970.31879693 -2181.25276252 968.51065004 -2180.75 965.0625 C-2179.0625 962.5703125 -2179.0625 962.5703125 -2176.75 960.1875 C-2175.93015625 959.33414063 -2175.1103125 958.48078125 -2174.265625 957.6015625 C-2173.02039062 956.34472656 -2173.02039062 956.34472656 -2171.75 955.0625 C-2171.02296875 954.28648437 -2170.2959375 953.51046875 -2169.546875 952.7109375 C-2163.69328967 946.5669071 -2159.27156981 944.82963843 -2150.74609375 944.25390625 C-2149.98579361 944.20048569 -2149.22549347 944.14706512 -2148.44215393 944.09202576 C-2146.8413907 943.98404807 -2145.24029135 943.88095488 -2143.63891602 943.7824707 C-2141.18978589 943.62514684 -2138.74522818 943.43108721 -2136.29882812 943.23632812 C-2134.73972876 943.13574075 -2133.18048528 943.03735783 -2131.62109375 942.94140625 C-2130.52721596 942.84648643 -2130.52721596 942.84648643 -2129.41123962 942.74964905 C-2127.33764648 942.64672852 -2127.33764648 942.64672852 -2123.75 943.0625 C-2120.41494763 946.30232367 -2118.54317434 950.09657742 -2116.5 954.25 C-2115.71882813 955.81814453 -2115.71882813 955.81814453 -2114.921875 957.41796875 C-2113.75 960.0625 -2113.75 960.0625 -2113.75 962.0625 C-2102.88353365 967.91367419 -2085.31110669 971.39054895 -2073.19921875 968.44140625 C-2064.30302915 965.54467302 -2055.22978435 960.67644368 -2047.9609375 954.8125 C-2045.75 953.0625 -2045.75 953.0625 -2043.75 953.0625 C-2043.42 952.0725 -2043.09 951.0825 -2042.75 950.0625 C-2041.88375 950.2275 -2041.0175 950.3925 -2040.125 950.5625 C-2029.43980089 951.97176839 -2019.33442471 950.89641513 -2008.75 949.25 C-2007.66348145 949.0847583 -2006.57696289 948.9195166 -2005.45751953 948.74926758 C-2000.03668295 947.85505257 -1995.47017997 946.92247016 -1990.75 944.0625 C-1990.110625 944.76375 -1989.47125 945.465 -1988.8125 946.1875 C-1978.93804349 955.9787448 -1967.13417367 959.30567863 -1953.81640625 961.38671875 C-1950.5422138 961.9016332 -1947.39323679 962.65273417 -1944.1875 963.5 C-1939.97327756 964.33287842 -1937.4421964 963.7267928 -1933.76171875 961.546875 C-1930.58303412 959.2014378 -1927.68571029 956.5911447 -1924.828125 953.8671875 C-1922.86784118 952.16483576 -1921.11675658 951.09662337 -1918.75 950.0625 C-1918.358125 951.3 -1917.96625 952.5375 -1917.5625 953.8125 C-1916.04374738 957.8036406 -1914.55819916 959.89875048 -1910.75 962.0625 C-1907.19892109 963.04657238 -1907.19892109 963.04657238 -1903.75 963.0625 C-1902.76 962.4025 -1901.77 961.7425 -1900.75 961.0625 C-1897.82421875 961.2265625 -1897.82421875 961.2265625 -1894.4375 961.6875 C-1889.15375099 962.21606168 -1889.15375099 962.21606168 -1884.25 960.3125 C-1883.425 959.57 -1882.6 958.8275 -1881.75 958.0625 C-1880.09634594 957.04112543 -1878.43131842 956.03766468 -1876.75 955.0625 C-1876.02554687 955.53300781 -1875.30109375 956.00351562 -1874.5546875 956.48828125 C-1863.59492643 964.16749831 -1863.59492643 964.16749831 -1850.75 965.0625 C-1846.87445951 962.17645921 -1845.41019395 959.49216547 -1843.75 955.0625 C-1843.14003174 955.04268066 -1842.53006348 955.02286133 -1841.90161133 955.00244141 C-1839.12149467 954.90682124 -1836.34209154 954.79729295 -1833.5625 954.6875 C-1832.60279297 954.6565625 -1831.64308594 954.625625 -1830.65429688 954.59375 C-1829.25727539 954.53574219 -1829.25727539 954.53574219 -1827.83203125 954.4765625 C-1826.97843018 954.4451416 -1826.1248291 954.4137207 -1825.24536133 954.38134766 C-1822.44551528 954.02359412 -1820.28392338 953.29936342 -1817.75 952.0625 C-1812.7938628 945.5133187 -1812.84430343 936.9363486 -1813.75 929.0625 C-1814.97103084 924.7079925 -1816.68905794 920.56260645 -1818.4375 916.3984375 C-1819.75 913.0625 -1819.75 913.0625 -1819.75 910.0625 C-1818.0209226 910.03524659 -1816.29171824 910.01599013 -1814.5625 910 C-1813.59957031 909.98839844 -1812.63664062 909.97679687 -1811.64453125 909.96484375 C-1808.88212503 910.05804234 -1806.45092158 910.51553158 -1803.75 911.0625 C-1797.71638041 911.35640124 -1791.8039316 911.11278116 -1785.8125 910.375 C-1781.34444346 909.90198686 -1779.48380467 910.46958009 -1775.75 913.0625 C-1771.55167857 913.59683182 -1769.4129573 913.427803 -1765.6875 911.375 C-1762.65661227 908.988982 -1759.67868622 906.57280247 -1756.75 904.0625 C-1755.28515625 905.33203125 -1753.8203125 906.6015625 -1752.35546875 907.87109375 C-1748.72869842 910.56249266 -1745.08713594 910.28318501 -1740.75 910.0625 C-1737.09120499 909.13888219 -1733.5483502 907.99544692 -1729.95703125 906.83984375 C-1726.90886592 906.10100709 -1725.57550957 905.84694897 -1722.75 907.0625 C-1722.04875 907.660625 -1721.3475 908.25875 -1720.625 908.875 C-1713.57080226 914.24232436 -1704.65181981 916.02389268 -1696.125 917.8125 C-1695.14015625 918.03292969 -1694.1553125 918.25335937 -1693.140625 918.48046875 C-1682.55821671 920.97997012 -1682.55821671 920.97997012 -1672.5 918.0625 C-1666.11948974 913.60865362 -1664.48262647 907.07728334 -1663.046875 899.75 C-1662.94890625 899.193125 -1662.8509375 898.63625 -1662.75 898.0625 C-1658.03226842 900.79381829 -1653.73818438 903.970052 -1649.37109375 907.22265625 C-1644.86203899 910.49208098 -1644.86203899 910.49208098 -1639.5 910.6875 C-1638.5925 910.48125 -1637.685 910.275 -1636.75 910.0625 C-1635.62807288 903.98890957 -1635.75895547 898.21700472 -1636.0625 892.0625 C-1636.10882568 891.05243896 -1636.15515137 890.04237793 -1636.20288086 889.00170898 C-1636.6140322 880.94096195 -1637.45380137 873.02845858 -1638.75 865.0625 C-1637.656875 864.381875 -1636.56375 863.70125 -1635.4375 863 C-1631.95348193 860.82015981 -1628.47375628 858.63366001 -1625 856.4375 C-1624.09765625 855.86773438 -1623.1953125 855.29796875 -1622.265625 854.7109375 C-1619.75846001 853.13016181 -1619.75846001 853.13016181 -1617.63671875 851.33984375 C-1615.06443152 849.59835737 -1613.19195083 850.0863428 -1610.234375 850.63671875 C-1607.63683818 851.12690972 -1607.63683818 851.12690972 -1604.515625 851.26953125 C-1595.67865163 852.01927447 -1595.67865163 852.01927447 -1592.9453125 855.08984375 C-1591.6875 857.5 -1591.6875 857.5 -1590.77734375 859.87109375 C-1589.46033468 862.68037927 -1588.52552443 863.64511396 -1585.75 865.0625 C-1579.09256393 865.82739691 -1574.47595724 864.1211999 -1568.5 861.3125 C-1567.71109375 860.96445312 -1566.9221875 860.61640625 -1566.109375 860.2578125 C-1560.36111416 857.63613948 -1556.38832476 855.02940045 -1553.6875 849.125 C-1552.56419848 846.6956376 -1551.57505632 844.83326346 -1549.9375 842.6875 C-1548.5372577 839.59222755 -1548.90730565 838.52227047 -1549.5 835.25 C-1549.96853086 832.00409545 -1550.10273918 830.62531931 -1548.33984375 827.8125 C-1546.4375 825.75 -1546.4375 825.75 -1544.51171875 823.94921875 C-1541.07202007 820.26546163 -1540.47786301 816.26934061 -1540.125 811.375 C-1540.04378906 810.32183594 -1539.96257813 809.26867187 -1539.87890625 808.18359375 C-1539.76345942 805.38838107 -1539.88197432 802.72464033 -1540.0625 799.9375 C-1540.14547308 794.76827687 -1538.09758777 791.5948504 -1535.26171875 787.390625 C-1533.90100447 785.29505468 -1533.06236114 783.4685388 -1532.25 781.125 C-1530.37115873 777.28903241 -1528.5595951 776.76465951 -1524.75 775.0625 C-1523.55104376 773.04571336 -1523.55104376 773.04571336 -1522.75 771.0625 C-1521.904375 771.2790625 -1521.05875 771.495625 -1520.1875 771.71875 C-1508.85736806 774.92893674 -1508.85736806 774.92893674 -1497.875 772.1875 C-1494.31873686 769.78876565 -1491.64354359 766.83765754 -1488.75 763.6875 C-1484.27106956 759.07904189 -1484.27106956 759.07904189 -1479.8125 758.9375 C-1478.45508379 759.30056142 -1477.10106684 759.6764809 -1475.75 760.0625 C-1466.22410455 761.42985341 -1458.58322449 758.28312316 -1450.75 753.0625 C-1447.20596949 750.25217718 -1443.92163351 747.28528889 -1440.75 744.0625 C-1439.64591797 744.54589844 -1439.64591797 744.54589844 -1438.51953125 745.0390625 C-1433.34670672 746.95059992 -1428.04520463 746.93141552 -1422.9375 744.75 C-1417.81717396 741.90651914 -1413.68703846 737.64595489 -1409.484375 733.62109375 C-1407.31095176 731.58739058 -1405.17463458 729.77706302 -1402.75 728.0625 C-1402.38648438 728.60519531 -1402.02296875 729.14789062 -1401.6484375 729.70703125 C-1398.51416492 734.16734223 -1396.11369362 737.31108984 -1390.75 739.0625 C-1386.24035062 739.38461781 -1382.18294837 738.83453033 -1377.75 738.0625 C-1377.54246094 738.88234375 -1377.33492187 739.7021875 -1377.12109375 740.546875 C-1375.33492686 747.60904372 -1375.33492686 747.60904372 -1370.75 752.9375 C-1364.6715239 755.50165373 -1357.68521235 753.23658494 -1351.859375 750.90625 C-1347.19487975 748.72273731 -1347.19487975 748.72273731 -1343.25 745.49609375 C-1341.37883643 743.70776815 -1339.78126605 743.30839976 -1337.3125 742.5625 C-1332.50463112 740.73395662 -1329.12353168 738.17511306 -1325.375 734.75 C-1324.87556885 734.30011719 -1324.3761377 733.85023438 -1323.86157227 733.38671875 C-1318.57486874 728.36484082 -1315.76687394 722.83325132 -1313.6875 715.875 C-1312.07809715 710.49420677 -1312.07809715 710.49420677 -1310.19140625 708.01171875 C-1308.41563225 705.61033331 -1307.8927441 704.0463122 -1307.75 701.0625 C-1309.14373078 698.58852196 -1310.8197705 696.55346358 -1312.59765625 694.34375 C-1313.75 692.0625 -1313.75 692.0625 -1312.99609375 689.40625 C-1312.58488281 688.6328125 -1312.17367187 687.859375 -1311.75 687.0625 C-1310.20836825 683.9792365 -1310.45252465 681.45371901 -1310.75 678.0625 C-1313.98393459 674.65575975 -1318.05390466 674.14403161 -1322.5 673.375 C-1323.19738281 673.24544922 -1323.89476562 673.11589844 -1324.61328125 672.98242188 C-1326.32375889 672.66610067 -1328.03666725 672.36297253 -1329.75 672.0625 C-1329.41226563 671.44503906 -1329.07453125 670.82757812 -1328.7265625 670.19140625 C-1326.40802387 665.78886325 -1324.60473131 662.09360323 -1324 657.125 C-1323.5546875 654.8828125 -1323.5546875 654.8828125 -1322.75 653.0625 C-1319.125 651.5 -1319.125 651.5 -1316.7109375 650.92578125 C-1312.80868002 649.78805183 -1309.36098217 648.03325291 -1305.75 646.1875 C-1304.71141846 645.66047485 -1304.71141846 645.66047485 -1303.65185547 645.12280273 C-1298.6210645 642.5501171 -1293.64308542 639.88961602 -1288.75 637.0625 C-1286.05618684 640.12034197 -1283.99489402 642.51947413 -1282.3125 646.25 C-1280.2733922 649.92039404 -1278.66443284 650.61271006 -1274.75 652.0625 C-1274.0075 652.12824219 -1273.265 652.19398438 -1272.5 652.26171875 C-1269.88636794 652.5239417 -1268.07000598 652.80638886 -1265.75 654.0625 C-1264.36291149 656.92365616 -1263.63678553 659.755215 -1262.828125 662.828125 C-1261.036688 668.20243599 -1257.48523441 671.9052052 -1253.75 676.0625 C-1253.15832031 676.77277344 -1252.56664062 677.48304688 -1251.95703125 678.21484375 C-1246.54960588 684.6616827 -1240.84693129 689.97144854 -1233.5 694.125 C-1229.11638061 696.62513766 -1227.28255852 698.77663174 -1224.75 703.0625 C-1221.99189681 705.22958108 -1220.58960066 705.05715336 -1217 704.9375 C-1212.83850889 704.80551241 -1210.1727599 706.03574378 -1206.609375 708.08984375 C-1202.11127964 710.44283901 -1197.34628242 710.27833311 -1192.375 710.3125 C-1191.6325 710.333125 -1190.89 710.35375 -1190.125 710.375 C-1185.26718852 710.40933082 -1181.94218766 709.77883404 -1177.75 707.0625 C-1174.37795015 701.59745369 -1173.58729117 696.90565862 -1173.5 690.5625 C-1173.47421875 689.4384375 -1173.4484375 688.314375 -1173.421875 687.15625 C-1173.47435873 684.07099241 -1173.47435873 684.07099241 -1175.234375 682.15234375 C-1177.48436111 679.04991445 -1177.20282377 675.82159435 -1177.25 672.125 C-1177.3146908 667.08373823 -1177.4428053 663.12476199 -1180.75 659.0625 C-1185.3438179 656.32808458 -1190.97786786 655.85792491 -1196.1875 655.1875 C-1201.72339773 654.43730825 -1205.74116239 652.78556286 -1210.59765625 650.109375 C-1213.45254408 648.72079072 -1215.62864084 648.61659155 -1218.75 649.0625 C-1219.34554688 649.28550781 -1219.94109375 649.50851562 -1220.5546875 649.73828125 C-1223.74958498 650.21012554 -1225.63229958 649.02471092 -1228.5 647.625 C-1229.48484375 647.15191406 -1230.4696875 646.67882812 -1231.484375 646.19140625 C-1232.23203125 645.81886719 -1232.9796875 645.44632813 -1233.75 645.0625 C-1233.42515625 643.90234375 -1233.42515625 643.90234375 -1233.09375 642.71875 C-1231.47022554 636.6455659 -1230.38746775 631.34639231 -1230.75 625.0625 C-1225.51536001 627.05664857 -1223.2273693 629.69428725 -1220.2421875 634.22265625 C-1218.54121222 636.31993205 -1217.27399895 637.13639392 -1214.75 638.0625 C-1206.27875817 638.0625 -1201.9790517 634.07138909 -1196 628.5 C-1192.92313509 624.64105572 -1192.02859407 619.78615765 -1190.83984375 615.0859375 C-1189.63521085 611.74405268 -1188.62955607 610.13557358 -1185.75 608.0625 C-1182.27610478 607.97388022 -1179.07401776 609.10211762 -1175.75 610.0625 C-1174.97140625 610.23910156 -1174.1928125 610.41570313 -1173.390625 610.59765625 C-1171.25 611.1875 -1171.25 611.1875 -1167.75 613.0625 C-1166.89932998 615.06920878 -1166.56713497 616.90680745 -1166.2421875 619.05859375 C-1165.44383903 622.3090125 -1163.23023071 623.96384324 -1160.75 626.0625 C-1160.42 626.3925 -1160.09 626.7225 -1159.75 627.0625 C-1157.45566324 626.86182041 -1155.16437293 626.62604794 -1152.875 626.375 C-1146.68284627 625.82697647 -1142.23130147 626.55317189 -1136.54296875 629.0234375 C-1133.33740417 630.21599719 -1130.39536856 630.61217515 -1127 631 C-1120.26358282 631.8003664 -1114.50987987 633.70803063 -1108.22265625 636.13671875 C-1104.32877792 637.1747943 -1101.66169159 636.88680283 -1097.75 636.0625 C-1095.69698199 629.90344598 -1095.52123149 620.69295242 -1097.609375 614.5234375 C-1098.75001133 612.48674187 -1098.75001133 612.48674187 -1100.75 610.0625 C-1101.08 609.4025 -1101.41 608.7425 -1101.75 608.0625 C-1100.85796875 607.68480469 -1099.9659375 607.30710937 -1099.046875 606.91796875 C-1092.02299153 603.77501395 -1092.02299153 603.77501395 -1086.99609375 598.1484375 C-1086.05459773 595.45944149 -1085.29092118 592.85810199 -1084.75 590.0625 C-1084.10933594 590.2790625 -1083.46867187 590.495625 -1082.80859375 590.71875 C-1076.7503012 592.66896042 -1071.27727568 594.42706651 -1065.07421875 592.02734375 C-1061.04813722 590.8587866 -1057.43780232 591.09304544 -1053.3125 591.3125 C-1045.975018 591.53389278 -1040.59126491 590.34035077 -1033.96557617 587.26879883 C-1030.07258548 585.48541466 -1026.89859133 584.67117188 -1022.625 584.5 C-1018.83479178 584.32515409 -1017.91135011 584.17221808 -1014.625 581.9375 C-1012.34019702 578.43413543 -1011.82204275 576.24097949 -1011.75 572.0625 C-1012.39533078 569.72317594 -1013.06060191 567.38921854 -1013.75 565.0625 C-1013.375 562.125 -1013.375 562.125 -1012.75 560.0625 C-1008.52177105 558.90934665 -1004.69003881 558.02058723 -1000.3125 557.8125 C-993.87754474 557.15137446 -988.94359111 553.50935779 -984.69042969 548.76513672 C-980.5492098 544.26369119 -977.3155226 541.58927083 -971.01634216 541.28485107 C-967.47875963 541.29205832 -963.96705171 541.46019862 -960.4375 541.6875 C-958.27381267 541.79325773 -956.11069144 541.88550677 -953.945755 541.96151733 C-951.99482372 542.03499117 -950.04543396 542.14651525 -948.09643555 542.26025391 C-944.37617869 542.04040944 -942.68654196 541.30117217 -939.75 539.0625 C-937.43876562 536.31146225 -937.43876562 536.31146225 -935.3125 533.1875 C-932.90188573 529.81575828 -930.60824606 526.63124325 -927.3125 524.0625 C-924.60263386 521.94748253 -923.85015188 521.23957412 -922.75 518.0625 C-922.68339122 515.16067405 -922.71198807 512.33288279 -922.8125 509.4375 C-923.17585924 484.80693437 -916.22602921 459.29175433 -898.92578125 441.125 C-895.22306252 437.61506196 -891.6517855 434.6964285 -886.75 433.0625 C-884.38575455 430.89527501 -882.28844283 428.84554034 -880.46875 426.19921875 C-872.46119116 415.23141874 -855.44455853 411.57688686 -842.69921875 409.5859375 C-841.68472656 409.43382812 -840.67023438 409.28171875 -839.625 409.125 C-822.22155135 406.34135347 -810.3096933 396.91909942 -799.7265625 383.49609375 C-794.64060585 377.23413527 -789.84576495 371.96744628 -781.54956055 370.49414062 C-780.42332275 370.40326172 -779.29708496 370.31238281 -778.13671875 370.21875 C-776.88826172 370.10660156 -775.63980469 369.99445313 -774.35351562 369.87890625 C-773.06123047 369.77449219 -771.76894531 369.67007812 -770.4375 369.5625 C-756.40477195 368.90382144 -756.40477195 368.90382144 -744.1484375 362.8984375 C-743.48070312 362.08632813 -742.81296875 361.27421875 -742.125 360.4375 C-741.38507813 359.55578125 -740.64515625 358.6740625 -739.8828125 357.765625 C-737.35968774 354.56781852 -734.85629129 351.35949464 -732.453125 348.0703125 C-725.79282107 340.21848631 -715.88936521 339.03798107 -706.0546875 338.19140625 C-687.29795635 337.14230095 -675.31505648 343.97219446 -659.50390625 353.58203125 C-653.71140865 356.69601223 -648.97794339 357.41482862 -642.5 356.875 C-639.86727914 355.65266532 -639.7690995 353.74221846 -638.75 351.0625 C-634.96753214 342.80240803 -631.99895037 337.08992871 -623.75 333.0625 C-618.1479379 329.55581568 -618.1479379 329.55581568 -614.75 324.0625 C-614.27887509 320.72258103 -614.32143772 317.37009633 -614.3125 314 C-614.30778687 312.53421509 -614.30778687 312.53421509 -614.30297852 311.03881836 C-614.42394018 303.53129309 -615.75570475 296.94240486 -617.88525391 289.77734375 C-620.77153175 279.9719067 -621.66278248 270.49436244 -619.24609375 260.4609375 C-617.96077512 254.24687736 -617.70868264 248.3659345 -620.875 242.75 C-621.26945312 242.17636719 -621.66390625 241.60273438 -622.0703125 241.01171875 C-623.16409546 237.87495037 -622.0641067 236.04211799 -620.75 233.0625 C-619.28167224 230.79478019 -617.80406447 228.65378485 -616.1875 226.5 C-615.2851176 225.27572667 -614.38410797 224.05044049 -613.484375 222.82421875 C-613.02869141 222.20466309 -612.57300781 221.58510742 -612.10351562 220.94677734 C-610.77837645 219.10200387 -609.51366617 217.22963478 -608.265625 215.33203125 C-607.87318604 214.74043213 -607.48074707 214.14883301 -607.07641602 213.53930664 C-605.99565084 211.9006674 -604.9252563 210.255202 -603.85546875 208.609375 C-601.5083506 205.77018941 -600.30248698 204.91302243 -596.75 204.0625 C-594.4179198 203.98603835 -592.08154122 203.97106701 -589.75 204.0625 C-589.56937012 204.64104736 -589.38874023 205.21959473 -589.20263672 205.81567383 C-583.60456318 224.51068114 -583.60456318 224.51068114 -572.75 240.4375 C-565.45991957 248.2712002 -562.35723391 257.90125193 -560.5859375 268.28515625 C-559.59714693 271.5703436 -558.41616867 272.94134924 -555.75 275.0625 C-551.15972286 276.36163504 -547.88219917 276.30480489 -543.54296875 274.20703125 C-541.50504788 272.90613623 -539.88136845 271.41063348 -538.125 269.75 C-531.1458208 263.37478823 -522.23965637 260.51664565 -513.375 257.6875 C-503.29730046 254.10902483 -500.01422722 247.93549782 -495.5 238.75 C-495.17016113 238.04383545 -494.84032227 237.3376709 -494.50048828 236.61010742 C-491.60136881 230.42071744 -491.60136881 230.42071744 -488.75 228.0625 C-482.88313152 228.09843794 -477.72484141 231.30870144 -472.5625 233.8125 C-452.95865646 243.11891189 -452.95865646 243.11891189 -431.75 244.0625 C-423.16916147 240.62385515 -417.59145841 233.17224554 -413.75 225.0625 C-414.65363281 224.59199219 -415.55726562 224.12148437 -416.48828125 223.63671875 C-417.67983986 223.00810122 -418.87123772 222.37917891 -420.0625 221.75 C-420.65740234 221.44126953 -421.25230469 221.13253906 -421.86523438 220.81445312 C-428.1168763 217.49654261 -428.1168763 217.49654261 -429.75 215.0625 C-429.62137551 211.21180437 -427.14503922 208.83555536 -424.75 206 C-420.62772281 201.10479583 -419.42764967 197.85681225 -419.50048828 191.54541016 C-419.92660185 187.30512147 -421.51429555 183.63668039 -423.1875 179.75 C-423.83392111 178.19218912 -424.47851959 176.63362038 -425.12109375 175.07421875 C-425.40911865 174.39834717 -425.69714355 173.72247559 -425.99389648 173.02612305 C-428.88376832 165.52104097 -428.6283338 157.35057748 -425.9921875 149.81640625 C-422.64391216 145.08880994 -416.98548634 143.23067388 -411.75 141.3125 C-384.88801638 130.98888864 -361.51936892 111.60123783 -348.58203125 85.7265625 C-344.82920072 76.2475821 -346.47479997 64.94530027 -347.75 55.0625 C-346.533125 54.85625 -345.31625 54.65 -344.0625 54.4375 C-340.36969687 53.4801066 -338.14378959 52.2131673 -335.84375 49.01953125 C-331.75055057 41.69562798 -328.43323306 32.22496926 -330.23828125 23.77734375 C-330.40714844 23.21144531 -330.57601563 22.64554688 -330.75 22.0625 C-326.30200917 19.50490528 -321.94783883 17.5657154 -316.75 18.0625 C-314.09627679 19.15398427 -311.64582721 20.46027688 -309.12890625 21.8359375 C-304.55546683 24.19399986 -300.6285927 24.55493234 -295.75 23.125 C-287.72040657 19.6926206 -283.49506355 11.51811039 -279.75 4.0625 C-276.03890972 7.75385044 -276.32119138 11.76469189 -276.25 16.6875 C-275.8511007 27.4053788 -274.44848156 36.05539334 -266.75 44.0625 C-260.97879552 49.12198827 -260.97879552 49.12198827 -253.875 51.3125 C-250.38983931 51.03368714 -249.22848842 50.45247098 -246.75 48.0625 C-246.09 47.0725 -245.43 46.0825 -244.75 45.0625 C-244.38390625 45.54976562 -244.0178125 46.03703125 -243.640625 46.5390625 C-239.3440315 52.16555399 -234.80337478 57.54013666 -230.16845703 62.88696289 C-227.28825782 66.22271769 -224.52354677 69.59948996 -221.875 73.125 C-214.28251978 82.95698878 -204.65385039 86.19838627 -192.75 88.0625 C-189.42937036 88.31091545 -186.13703439 88.31518228 -182.80859375 88.26953125 C-181.40207802 88.25923637 -181.40207802 88.25923637 -179.96714783 88.24873352 C-169.05578908 88.11942306 -158.16292241 87.56965146 -147.27026367 86.94555664 C-143.79205681 86.74884382 -140.31320452 86.57035562 -136.83398438 86.39257812 C-109.86451759 85.24312152 -109.86451759 85.24312152 -87.0859375 72.078125 C-84.66253221 69.98702612 -82.14452542 68.21309368 -79.50439453 66.41113281 C-67.74179431 58.36159034 -63.63976811 50.53116688 -59.5 36.9765625 C-59.17334351 35.91308594 -59.17334351 35.91308594 -58.84008789 34.828125 C-58.41450723 33.43213127 -57.99664305 32.03375475 -57.58764648 30.6328125 C-56.04976502 25.51458051 -54.16142403 20.34905981 -49.75 17.0625 C-47.35119972 16.30529547 -44.99981835 15.66310156 -42.5625 15.0625 C-31.51398941 12.11492266 -21.39835884 7.0685097 -11.13745117 2.10644531 C-7.3195829 0.43703078 -4.15016233 -0.0610318 0 0 Z " fill="#000000" transform="translate(2267.75,-0.0625)"/>
<path d="" fill="#151515" transform="translate(0,0)"/>
<path d="" fill="#131313" transform="translate(0,0)"/>
<path d="" fill="#111111" transform="translate(0,0)"/>
</svg>
