<?xml version="1.0" encoding="UTF-8"?>
<svg version="1.1" xmlns="http://www.w3.org/2000/svg" width="1556" height="1285">
<path d="M0 0 C1.06299316 0.00862061 2.12598633 0.01724121 3.22119141 0.02612305 C6.05283744 0.30366284 7.71530495 0.64796185 10.0234375 2.30078125 C11.29858242 6.90023392 11.56592005 9.84951184 9.42578125 14.1484375 C8.62028226 15.56268661 7.79729511 16.96705952 6.9609375 18.36328125 C-18.4935962 62.10032783 -18.4935962 62.10032783 -24.390625 109.87109375 C-18.76126262 127.5855093 -5.38944724 142.05959146 9.1796875 152.91699219 C12.22801657 155.20485357 15.21834969 157.56574952 18.2109375 159.92578125 C18.79214355 160.3839624 19.37334961 160.84214355 19.97216797 161.31420898 C21.11310326 162.2142444 22.25357676 163.11486557 23.39355469 164.01611328 C24.93445814 165.23064803 26.48264239 166.43592895 28.03125 167.640625 C34.37784476 172.67016876 39.79587734 178.11806195 45.0234375 184.30078125 C42.08595155 187.39761196 38.98568824 189.87362514 35.5234375 192.36328125 C31.12378116 195.5833833 27.05192518 198.99899676 23.0859375 202.73828125 C17.07133208 208.39499279 10.69826628 213.43769171 4.0234375 218.30078125 C2.68925781 219.37199219 2.68925781 219.37199219 1.328125 220.46484375 C-3.2882347 223.02948803 -7.79256243 223.51685318 -12.9765625 224.23828125 C-29.69686564 226.77548633 -29.69686564 226.77548633 -43.9765625 235.30078125 C-44.6365625 236.29078125 -45.2965625 237.28078125 -45.9765625 238.30078125 C-48.51738535 238.81445489 -50.87228349 239.14014304 -53.44140625 239.36328125 C-54.18934952 239.44070557 -54.93729279 239.51812988 -55.707901 239.59790039 C-58.10885525 239.84522237 -60.5110394 240.07451242 -62.9140625 240.30078125 C-79.59985012 240.71094525 -79.59985012 240.71094525 -93.69897461 247.21484375 C-95.74784849 250.56007181 -95.99776863 253.11494664 -96.0390625 256.92578125 C-96.70402826 264.79107935 -100.30616456 271.30750061 -103.90332031 278.19921875 C-104.89354287 280.13821688 -105.79829332 282.09525941 -106.6875 284.08203125 C-111.64280307 294.21685924 -118.61817195 299.02407056 -127.97167969 304.91479492 C-129.97980289 306.30302135 -131.64199328 307.82145 -133.40234375 309.5078125 C-137.39029434 313.02702691 -141.45147142 313.70359911 -146.6015625 314.48828125 C-148.37921317 314.79772113 -150.15655827 315.10892157 -151.93359375 315.421875 C-152.7942041 315.56737793 -153.65481445 315.71288086 -154.54150391 315.86279297 C-157.83237804 316.45471478 -161.04507113 317.24072533 -164.2890625 318.05078125 C-167.76476195 318.89081603 -170.30061209 319.29563761 -173.9140625 319.23828125 C-178.03770347 319.32243719 -179.85410246 320.67507622 -182.9765625 323.30078125 C-183.39421875 324.06519531 -183.811875 324.82960938 -184.2421875 325.6171875 C-186.44377307 329.02369491 -189.27186646 331.15812515 -192.4765625 333.55078125 C-193.74676907 334.52385869 -195.01629315 335.49782762 -196.28515625 336.47265625 C-197.22657471 337.19098633 -197.22657471 337.19098633 -198.18701172 337.92382812 C-205.36311649 343.44541488 -212.24371002 349.34885976 -219.13867188 355.21484375 C-222.56696995 358.12666038 -226.03630565 360.97841602 -229.5390625 363.80078125 C-233.4251267 366.95680449 -237.13438785 370.25747262 -240.7890625 373.67578125 C-244.96280006 377.57154084 -249.26832987 381.18935181 -253.7890625 384.67578125 C-265.7446435 393.90401088 -276.89893118 404.04824247 -287.9765625 414.30078125 C-294.25561867 420.10693779 -300.62314635 425.70150017 -307.27734375 431.07421875 C-310.85696016 434.02701376 -314.28672139 437.12688357 -317.70703125 440.26171875 C-319.60300952 441.96516222 -321.53737016 443.53953693 -323.5390625 445.11328125 C-336.06051128 455.91784107 -340.82776235 469.4332129 -342.1640625 485.36328125 C-342.22392334 486.26812256 -342.28378418 487.17296387 -342.34545898 488.10522461 C-342.64181215 492.54137802 -342.93345072 496.25659703 -344.9765625 500.30078125 C-350.02092183 499.36664063 -353.50943884 498.09364616 -357.7890625 495.23828125 C-365.3659533 490.52582478 -372.15724491 490.72141164 -380.7265625 492.48828125 C-382.81987048 493.056926 -384.9049202 493.65766904 -386.9765625 494.30078125 C-387.71519531 494.51089844 -388.45382812 494.72101563 -389.21484375 494.9375 C-392.31908814 496.1938216 -393.79301503 497.8784431 -395.10327148 500.89331055 C-397.7241163 509.24616754 -398.64158405 517.01788688 -398.9765625 525.73828125 C-399.96079119 543.49367709 -402.46749052 556.18501192 -415.6640625 568.92578125 C-421.75933465 574.86608885 -423.67486852 580.03505651 -425.6640625 588.23828125 C-427.39999598 594.7393867 -429.92482889 597.70559369 -434.84765625 602.109375 C-439.97568722 607.38795367 -441.1868655 614.35019881 -441.6015625 621.48828125 C-441.40779783 628.51435654 -439.06093401 634.46432917 -436.38671875 640.8671875 C-433.68955322 647.43452408 -433.68955322 647.43452408 -434.67333984 650.40380859 C-435.0492627 651.14066895 -435.42518555 651.8775293 -435.8125 652.63671875 C-436.21726562 653.45398438 -436.62203125 654.27125 -437.0390625 655.11328125 C-437.4721875 655.95890625 -437.9053125 656.80453125 -438.3515625 657.67578125 C-442.29908638 665.12574684 -442.29908638 665.12574684 -443.9765625 673.30078125 C-442.52179903 676.61440917 -441.0393809 678.24938438 -438.2265625 680.55078125 C-435.9765625 683.30078125 -435.9765625 683.30078125 -435.87890625 685.6171875 C-436.13757239 687.8814021 -436.52900705 690.0680675 -436.9765625 692.30078125 C-444.82245336 692.02606818 -451.07805372 690.00057322 -458.2265625 686.86328125 C-460.1269241 686.05049146 -462.02794776 685.23924754 -463.9296875 684.4296875 C-464.80923096 684.05408691 -465.68877441 683.67848633 -466.5949707 683.29150391 C-471.9851769 681.04922233 -477.0977046 679.13144638 -482.9765625 680.30078125 C-495.07926614 685.4131302 -500.14953996 698.72642367 -505.06298828 710.04638672 C-506.08020962 712.55654756 -506.98606491 715.09143785 -507.87890625 717.6484375 C-514.19799529 735.67234615 -514.19799529 735.67234615 -522.9765625 741.30078125 C-529.46009516 745.94874423 -534.03130242 750.30279534 -537.9765625 757.30078125 C-538.3262207 757.90067871 -538.67587891 758.50057617 -539.03613281 759.11865234 C-540.13988227 761.67974078 -540.21613353 763.54607961 -540.21484375 766.328125 C-540.23901367 767.76381836 -540.23901367 767.76381836 -540.26367188 769.22851562 C-540.28056546 771.23105531 -540.28582 773.23372781 -540.27929688 775.23632812 C-540.37479322 779.81707223 -540.44345288 782.50916375 -543.046875 786.375 C-546.45573801 788.61575929 -549.59451879 789.4627926 -553.5390625 790.17578125 C-563.82523733 792.37734629 -574.31928429 797.26532888 -580.890625 805.78125 C-586.07453571 813.98319092 -589.68203656 820.59896035 -588.69140625 830.453125 C-588.13259981 832.45383657 -588.13259981 832.45383657 -586.19140625 833.390625 C-585.46050781 833.69097656 -584.72960937 833.99132812 -583.9765625 834.30078125 C-575.41450863 839.18893564 -569.83810617 844.87363367 -566.51953125 854.24609375 C-565.02468073 859.90286623 -564.95579793 865.14252032 -565.09375 870.95556641 C-565.48176298 889.07092243 -562.60158107 905.77030215 -550.66796875 920.06640625 C-548.51384616 922.26048726 -546.31549106 924.30644622 -543.9765625 926.30078125 C-543.34878906 926.84605469 -542.72101562 927.39132812 -542.07421875 927.953125 C-540.72995185 929.09496112 -539.35727349 930.20329303 -537.9765625 931.30078125 C-538.40775391 933.19183594 -538.40775391 933.19183594 -538.84765625 935.12109375 C-540.24093394 941.38900203 -541.39495135 947.6990177 -542.56445312 954.01171875 C-542.81678711 955.3575 -542.81678711 955.3575 -543.07421875 956.73046875 C-543.29863647 957.94065674 -543.29863647 957.94065674 -543.52758789 959.17529297 C-544.5517393 964.02372264 -544.5517393 964.02372264 -547.8515625 966.17578125 C-551.18563911 968.44295334 -552.42398682 969.62362832 -553.9765625 973.30078125 C-554.00951413 974.7588911 -554.02915793 976.21733275 -554.0390625 977.67578125 C-554.2862887 980.87394147 -554.54214776 981.9272346 -557.01171875 984.05078125 C-558.77920315 985.15979107 -560.55157841 986.26103461 -562.328125 987.35546875 C-568.69362843 992.03101552 -572.44887897 999.65471958 -573.9765625 1007.30078125 C-574.24887853 1010.63307661 -574.25371021 1013.95089632 -574.25 1017.29296875 C-574.27028832 1019.23438077 -574.29113909 1021.17578698 -574.3125 1023.1171875 C-574.33506555 1026.1473484 -574.35156539 1029.17727852 -574.35742188 1032.20751953 C-574.36699939 1035.153083 -574.40083323 1038.09763465 -574.4375 1041.04296875 C-574.43245453 1041.93700409 -574.42740906 1042.83103943 -574.42221069 1043.75216675 C-574.57015348 1053.31857213 -578.06537371 1060.10892011 -584.7265625 1066.80078125 C-585.79709475 1067.92426981 -586.8674068 1069.04796824 -587.9375 1070.171875 C-589.72987915 1072.02266502 -591.52885524 1073.86683544 -593.328125 1075.7109375 C-602.40958742 1085.37094869 -606.39062022 1095.43669264 -606.3359375 1108.546875 C-605.77684107 1114.38700181 -603.53773936 1119.09305496 -600.9765625 1124.30078125 C-599.11232351 1128.66787397 -598.27868098 1131.49315301 -598.9765625 1136.30078125 C-601.01434326 1140.16575145 -603.50799412 1143.7007857 -605.9765625 1147.30078125 C-614.20310796 1159.92981392 -621.24785141 1170.8684951 -621.625 1186.16015625 C-622.098797 1190.3927428 -623.70423746 1192.70585974 -626.29296875 1195.99609375 C-628.96449624 1199.65317315 -630.64209504 1203.77282016 -632.484375 1207.89453125 C-633.9765625 1210.30078125 -633.9765625 1210.30078125 -635.90625 1211.39453125 C-637.9765625 1211.30078125 -637.9765625 1211.30078125 -640.10546875 1209.99609375 C-642.88291075 1205.99518564 -643.22095413 1201.9325824 -643.9140625 1197.17578125 C-645.56748142 1186.96838088 -647.99642827 1177.19384979 -650.9765625 1167.30078125 C-653.35835014 1167.07462586 -653.35835014 1167.07462586 -655.73876953 1169.85180664 C-656.9089367 1171.02910237 -658.07375201 1172.21173167 -659.234375 1173.3984375 C-659.85625702 1174.02552109 -660.47813904 1174.65260468 -661.11886597 1175.2986908 C-663.11787223 1177.31556291 -665.11013106 1179.33893161 -667.1015625 1181.36328125 C-669.70494386 1184.00337041 -672.31150908 1186.64025392 -674.921875 1189.2734375 C-675.54744293 1189.90473068 -676.17301086 1190.53602386 -676.8175354 1191.18644714 C-680.56473458 1194.94661684 -684.38940701 1198.54883329 -688.44189453 1201.98168945 C-693.47049188 1206.30391527 -698.96846409 1211.53212049 -699.9765625 1218.30078125 C-699.87927437 1223.74891637 -698.40645533 1227.86555629 -696.4140625 1232.92578125 C-693.8052814 1239.97100696 -692.5936907 1246.83327354 -693.9765625 1254.30078125 C-697.77659601 1260.12174167 -703.55863323 1264.06890126 -708.9765625 1268.30078125 C-709.95109375 1269.06777344 -710.925625 1269.83476563 -711.9296875 1270.625 C-713.34507812 1271.70201172 -713.34507812 1271.70201172 -714.7890625 1272.80078125 C-715.64113281 1273.45046875 -716.49320313 1274.10015625 -717.37109375 1274.76953125 C-721.09962678 1276.96081303 -724.35227707 1277.61016895 -728.6015625 1276.80078125 C-732.85821676 1274.11236803 -734.40288176 1269.89087461 -736.0546875 1265.3125 C-738.42312478 1258.30959796 -738.42312478 1258.30959796 -743.7265625 1253.55078125 C-750.63519588 1250.99730888 -757.03581486 1252.02318359 -763.93359375 1254.05859375 C-768.05594956 1256.5651122 -769.69580535 1260.35556552 -771.03125 1264.8515625 C-771.30195312 1266.09292969 -771.57265625 1267.33429688 -771.8515625 1268.61328125 C-773.38376092 1275.10753144 -775.76137729 1280.11610344 -779.9765625 1285.30078125 C-780.5953125 1284.59953125 -781.2140625 1283.89828125 -781.8515625 1283.17578125 C-785.04165131 1279.92115308 -788.87512637 1277.95998013 -792.8671875 1275.828125 C-795.44558708 1273.96117271 -795.45268417 1273.36796262 -795.9765625 1270.30078125 C-796.15635258 1268.12641193 -796.29451792 1265.94845814 -796.40625 1263.76953125 C-796.47972656 1262.48304687 -796.55320312 1261.1965625 -796.62890625 1259.87109375 C-796.77790653 1257.18908864 -796.91637605 1254.50705196 -797.05078125 1251.82421875 C-797.6640037 1241.36825629 -799.31172432 1231.75723807 -803.3515625 1222.05078125 C-805.86104026 1215.76571459 -807.89454889 1209.39814537 -809.86328125 1202.9296875 C-810.23066406 1201.73214844 -810.59804688 1200.53460937 -810.9765625 1199.30078125 C-811.29238281 1198.17542969 -811.60820313 1197.05007813 -811.93359375 1195.890625 C-812.27777344 1195.03597656 -812.62195313 1194.18132812 -812.9765625 1193.30078125 C-816.76123402 1192.03922408 -818.97894217 1191.78495927 -822.9765625 1192.30078125 C-825.35342318 1193.86715763 -827.44471297 1195.58493754 -829.5703125 1197.4765625 C-832.56577545 1199.74747353 -835.48411894 1200.92330048 -838.9765625 1202.30078125 C-839.36300149 1158.37554915 -839.36300149 1158.37554915 -831.9765625 1149.30078125 C-826.67498606 1144.40701838 -822.33433457 1143.03092727 -815.1640625 1143.17578125 C-814.00261719 1143.19382812 -812.84117187 1143.211875 -811.64453125 1143.23046875 C-810.32388672 1143.26527344 -810.32388672 1143.26527344 -808.9765625 1143.30078125 C-806.20114111 1130.48923785 -805.02164031 1117.45232149 -811.9765625 1105.80078125 C-815.26591004 1100.9382675 -819.11490839 1097.03317462 -823.3359375 1092.98046875 C-826.29047479 1089.98222529 -828.94089214 1086.85771477 -831.5390625 1083.55078125 C-832.18355347 1082.75438232 -832.18355347 1082.75438232 -832.84106445 1081.94189453 C-835.52413474 1078.45275864 -836.60313914 1075.67704095 -836.9765625 1071.30078125 C-824.68620077 1064.17237145 -810.39587911 1063.6743685 -796.5390625 1062.67578125 C-794.13708508 1062.49471916 -791.73534178 1062.31093486 -789.33372498 1062.12515259 C-787.85583512 1062.01164822 -786.37770495 1061.90121115 -784.89930725 1061.79452515 C-780.55167484 1061.47053723 -776.28247309 1060.96117761 -771.9765625 1060.30078125 C-782.78214726 1053.59386657 -793.79725131 1047.70206278 -805.26074219 1042.20556641 C-815.59516039 1037.24325284 -825.59825604 1031.91987838 -835.4140625 1025.98828125 C-836.39125244 1025.40159668 -837.36844238 1024.81491211 -838.37524414 1024.21044922 C-849.9872174 1017.07855786 -849.9872174 1017.07855786 -851.7890625 1012.01953125 C-852.09858881 1008.35680325 -852.21004345 1005.89745479 -850.8515625 1002.42578125 C-847.34259518 998.44895162 -844.35512394 997.07565843 -839.1015625 996.61328125 C-835.82467405 996.67629834 -834.47702307 996.83388816 -832.0546875 999.09375 C-830.92634294 1000.55593962 -829.80640482 1002.02465808 -828.6953125 1003.5 C-826.68270675 1005.60866193 -825.72904888 1005.96833324 -822.8515625 1006.11328125 C-818.12067148 1005.12132023 -817.05388728 1003.97739957 -813.9765625 1000.30078125 C-812.34220662 997.34236752 -811.01103504 994.27342291 -809.6640625 991.17578125 C-803.45416978 977.71227336 -797.95973193 970.29019233 -784.83203125 963.40234375 C-772.73695041 956.98095538 -767.93285649 947.40228119 -763.6015625 934.80078125 C-760.72246593 924.48503951 -760.91991141 917.45190724 -765.91650391 907.87402344 C-769.72110794 900.35526658 -771.86041388 892.31134064 -774.13476562 884.22412109 C-774.60366211 882.60304443 -774.60366211 882.60304443 -775.08203125 880.94921875 C-775.35168701 879.98161621 -775.62134277 879.01401367 -775.89916992 878.01708984 C-777.35879355 874.33710516 -779.26664969 871.10624916 -782.93359375 869.37890625 C-785.58494046 869.27751632 -787.24296353 869.97473726 -789.6640625 871.05078125 C-799.55978279 875.26265631 -808.17757892 877.51676092 -818.9765625 877.30078125 C-818.1103125 876.35203125 -817.2440625 875.40328125 -816.3515625 874.42578125 C-805.91571372 862.2094085 -803.09054223 848.78955396 -804.22265625 833.01953125 C-805.03648118 824.47436944 -806.51919762 816.79535559 -811.8515625 809.86328125 C-816.46350741 806.47214528 -821.72630389 805.99187714 -827.2890625 805.42578125 C-835.01768783 804.49078303 -841.81058098 803.32145803 -846.8515625 796.98828125 C-847.31949219 796.38757813 -847.78742187 795.786875 -848.26953125 795.16796875 C-854.98882518 787.81826051 -865.59324742 783.08211081 -875.359375 781.88671875 C-888.11262219 781.35416557 -897.54600847 786.7930349 -908.19482422 793.08959961 C-913.85413267 796.40224282 -919.28196647 799.30078125 -925.9765625 799.30078125 C-926.08871094 798.47578125 -926.20085938 797.65078125 -926.31640625 796.80078125 C-928.13126277 786.17260188 -932.45531185 778.41555937 -937.9765625 769.30078125 C-939.85718615 766.0456345 -939.9765625 765.31358552 -939.9765625 761.30078125 C-939.3475 761.14222656 -938.7184375 760.98367188 -938.0703125 760.8203125 C-931.04015677 758.90395981 -924.77291643 756.62145154 -919.9765625 750.92578125 C-918.66523061 747.48353505 -918.58456716 744.95940442 -918.9765625 741.30078125 C-920.92862287 737.43360802 -923.2747877 734.86870546 -926.5390625 732.05078125 C-927.32410156 731.365 -928.10914063 730.67921875 -928.91796875 729.97265625 C-930.87052031 728.26350184 -930.87052031 728.26350184 -932.9765625 727.30078125 C-931.64322917 723.30078125 -930.30989583 719.30078125 -928.9765625 715.30078125 C-928.2223291 708.33957793 -928.83911317 703.00828892 -932.9765625 697.30078125 C-940.55491762 687.92032909 -949.07515259 679.75148621 -959.9765625 674.30078125 C-967.27943673 673.73902169 -971.46233459 675.90393051 -977.0390625 680.36328125 C-987.24217798 689.72472559 -994.73059188 702.47335962 -1001.81811523 714.26171875 C-1005.76397982 720.79374151 -1005.76397982 720.79374151 -1007.9765625 722.30078125 C-1010.28125 722.41015625 -1010.28125 722.41015625 -1012.8515625 722.05078125 C-1014.11613281 721.88835937 -1014.11613281 721.88835937 -1015.40625 721.72265625 C-1017.05270084 721.45241812 -1018.6935881 721.14384566 -1020.32348633 720.78710938 C-1024.79134917 719.96811768 -1029.25803335 720.07483449 -1033.7890625 720.05078125 C-1034.74876953 720.03015625 -1035.70847656 720.00953125 -1036.69726562 719.98828125 C-1042.82693193 719.95480867 -1047.47192494 720.50821484 -1052.9765625 723.30078125 C-1054.81255168 725.27646177 -1054.81255168 725.27646177 -1055.7265625 727.73828125 C-1056.11199219 728.61355469 -1056.49742187 729.48882813 -1056.89453125 730.390625 C-1058.41590222 734.48239892 -1059.71119974 738.62833192 -1060.88671875 742.83203125 C-1061.9765625 745.30078125 -1061.9765625 745.30078125 -1064.09765625 746.64453125 C-1064.71769531 746.86109375 -1065.33773438 747.07765625 -1065.9765625 747.30078125 C-1069.18244707 744.09489668 -1069.09318137 739.51071652 -1069.74414062 735.15429688 C-1070.42021656 731.00657445 -1070.42021656 731.00657445 -1072.38671875 727.359375 C-1075.33763297 725.39451565 -1077.96448548 725.17294962 -1081.3984375 725.16796875 C-1082.25953125 725.16667969 -1083.120625 725.16539062 -1084.0078125 725.1640625 C-1084.905 725.16792969 -1085.8021875 725.17179688 -1086.7265625 725.17578125 C-1087.60828125 725.17191406 -1088.49 725.16804687 -1089.3984375 725.1640625 C-1094.36536335 725.17145376 -1099.08069943 725.45805072 -1103.9765625 726.30078125 C-1107.39229386 737.86872479 -1109.16639742 749.27622592 -1109.9765625 761.30078125 C-1111.42675781 761.24857422 -1111.42675781 761.24857422 -1112.90625 761.1953125 C-1122.26581341 761.00070772 -1131.51841111 760.85667676 -1138.9765625 767.30078125 C-1140.0650743 770.39885329 -1139.99921231 772.18753222 -1139.3515625 775.42578125 C-1138.9765625 778.30078125 -1138.9765625 778.30078125 -1140.125 779.89453125 C-1144.91704808 783.53406144 -1151.70037284 783.47391424 -1157.46875 783.03515625 C-1165.85366847 781.6286538 -1173.10993348 778.78736186 -1180.72314453 775.08251953 C-1187.83985815 771.65690721 -1193.50057565 770.59730617 -1201.09375 773.0703125 C-1205.24611608 774.84266387 -1209.07913405 777.10549361 -1212.89086914 779.51928711 C-1216.94979957 782.01370992 -1220.29024894 782.74330933 -1224.9765625 783.30078125 C-1225.14260986 782.34300781 -1225.30865723 781.38523437 -1225.47973633 780.3984375 C-1226.10376427 776.81126554 -1226.73802953 773.22596421 -1227.37524414 769.64111328 C-1227.64850484 768.09569908 -1227.91906679 766.54980497 -1228.18676758 765.00341797 C-1228.57427444 762.76785698 -1228.97177932 760.53425971 -1229.37109375 758.30078125 C-1229.48685257 757.62023682 -1229.60261139 756.93969238 -1229.72187805 756.23852539 C-1231.06191777 748.14834432 -1231.06191777 748.14834432 -1234.9765625 741.30078125 C-1242.0311996 740.60915016 -1245.27195039 743.12828957 -1250.6171875 747.421875 C-1258.67727398 754.57701165 -1264.73474345 762.45932688 -1271.05859375 771.16796875 C-1272.9765625 773.30078125 -1272.9765625 773.30078125 -1276.2265625 773.61328125 C-1277.1340625 773.51015625 -1278.0415625 773.40703125 -1278.9765625 773.30078125 C-1280.5000583 768.77717064 -1279.96220932 764.01876544 -1279.76171875 759.3203125 C-1279.66208719 754.51082528 -1280.44229666 751.3837651 -1282.9765625 747.30078125 C-1287.01896552 743.63735351 -1290.83750088 742.94913759 -1296.2578125 743.01953125 C-1304.83838486 743.90717667 -1312.94891367 747.51592325 -1320.63671875 751.25 C-1324.17290836 752.83803841 -1327.30886186 753.41575176 -1331.171875 753.4765625 C-1343.22225595 753.79454677 -1352.91471772 754.4403108 -1361.9765625 763.30078125 C-1365.02009305 766.6520094 -1367.99611854 770.04986999 -1370.7890625 773.61328125 C-1380.77717766 781.31839866 -1396.65851584 779.37915191 -1408.41796875 779.17382812 C-1409.58714844 779.16287109 -1410.75632812 779.15191406 -1411.9609375 779.140625 C-1413.02022461 779.12378662 -1414.07951172 779.10694824 -1415.17089844 779.08959961 C-1418.0108623 779.30336299 -1419.61621379 779.74031331 -1421.9765625 781.30078125 C-1423.19806622 783.29600876 -1423.19806622 783.29600876 -1422.72265625 785.7421875 C-1421.396019 799.15969591 -1429.66411805 809.13376995 -1437.5390625 819.23828125 C-1438.17972656 819.98980469 -1438.82039063 820.74132812 -1439.48046875 821.515625 C-1443.59258305 829.17081428 -1441.78055221 837.65150293 -1439.9140625 845.73828125 C-1439.68509277 846.7530957 -1439.45612305 847.76791016 -1439.22021484 848.81347656 C-1437.48972168 856.05517623 -1435.21655972 862.13537467 -1430.9765625 868.30078125 C-1429.72315529 870.25693559 -1428.47319811 872.2153045 -1427.2265625 874.17578125 C-1426.36804687 875.47128906 -1426.36804687 875.47128906 -1425.4921875 876.79296875 C-1423.34597158 880.34418168 -1421.96307819 882.90997088 -1422.00390625 887.12109375 C-1423.3434392 891.50012917 -1425.75433131 894.58796279 -1428.5390625 898.17578125 C-1429.05919922 898.86414063 -1429.57933594 899.5525 -1430.11523438 900.26171875 C-1431.39239808 901.94898089 -1432.68314611 903.62594553 -1433.9765625 905.30078125 C-1443.60031029 900.67804747 -1449.75377795 890.66583589 -1455.9765625 882.30078125 C-1455.9765625 886.26078125 -1455.9765625 890.22078125 -1455.9765625 894.30078125 C-1458.46739372 891.80995003 -1458.73564759 890.05354291 -1459.59765625 886.6484375 C-1459.89212646 885.48812012 -1460.18659668 884.32780273 -1460.48999023 883.13232422 C-1460.79493408 881.88854004 -1461.09987793 880.64475586 -1461.4140625 879.36328125 C-1461.88211304 877.46666748 -1461.88211304 877.46666748 -1462.35961914 875.53173828 C-1470.45515701 842.0480663 -1470.45515701 842.0480663 -1466.8515625 832.23828125 C-1464.72110094 828.90055813 -1462.53957977 825.60423149 -1460.28125 822.3515625 C-1456.69017817 816.70691367 -1457.56293327 809.73342885 -1457.9765625 803.30078125 C-1458.6832467 800.3363787 -1459.65994365 798.08593652 -1460.9765625 795.30078125 C-1461.440625 793.87765625 -1461.440625 793.87765625 -1461.9140625 792.42578125 C-1463.24704128 789.75982369 -1464.30724625 789.51886496 -1466.9765625 788.30078125 C-1467.61851563 787.96820312 -1468.26046875 787.635625 -1468.921875 787.29296875 C-1477.4378782 782.92813557 -1486.21770527 779.14590049 -1494.9765625 775.30078125 C-1494.93990479 774.31384277 -1494.90324707 773.3269043 -1494.86547852 772.31005859 C-1494.73689202 768.57924467 -1494.65775239 764.84861691 -1494.59204102 761.11621094 C-1494.55725882 759.51398586 -1494.50981272 757.91197564 -1494.44848633 756.31054688 C-1493.87680525 740.97604271 -1497.89539521 731.49446532 -1506.91015625 718.97265625 C-1507.9765625 717.30078125 -1507.9765625 717.30078125 -1507.9765625 715.30078125 C-1507.0484375 714.88828125 -1506.1203125 714.47578125 -1505.1640625 714.05078125 C-1501.2024701 711.95345485 -1501.2024701 711.95345485 -1498.9765625 708.30078125 C-1498.42246071 703.79408673 -1499.18452967 700.47383655 -1501.73046875 696.703125 C-1503.14164258 694.98008955 -1504.57539503 693.27529592 -1506.03125 691.58984375 C-1509.73294351 687.23403573 -1511.12740681 683.92915941 -1510.9765625 678.30078125 C-1510.30109375 678.22601562 -1509.625625 678.15125 -1508.9296875 678.07421875 C-1503.07487519 677.24158924 -1503.07487519 677.24158924 -1498.4765625 673.73828125 C-1493.68392393 662.7551512 -1493.9816294 652.47708218 -1497.9765625 641.30078125 C-1490.91268561 641.0078094 -1484.24631032 641.72742866 -1477.2734375 642.86328125 C-1470.77443675 643.82003685 -1470.77443675 643.82003685 -1464.9765625 641.30078125 C-1463.86765647 634.94115776 -1467.38408272 630.41932404 -1470.51367188 625.19335938 C-1477.16642842 613.47801737 -1477.67255981 600.12872708 -1478.6640625 586.98828125 C-1478.7940362 585.36125713 -1478.92489018 583.73430308 -1479.05664062 582.10742188 C-1479.3734061 578.17260672 -1479.67834626 574.23704387 -1479.9765625 570.30078125 C-1479.35201172 569.96868652 -1478.72746094 569.6365918 -1478.08398438 569.29443359 C-1475.21110788 567.76177206 -1472.34385338 566.21886527 -1469.4765625 564.67578125 C-1468.00316406 563.89267578 -1468.00316406 563.89267578 -1466.5 563.09375 C-1457.68681628 558.33463079 -1450.60828551 553.58615591 -1444.421875 545.64453125 C-1440.27484543 543.36565238 -1436.36617706 545.12489377 -1431.9765625 546.30078125 C-1430.23715272 546.73117076 -1428.49757011 547.16086242 -1426.7578125 547.58984375 C-1424.11277375 548.25600166 -1421.47002105 548.92750116 -1418.83203125 549.62109375 C-1412.92604292 551.09102862 -1407.06932935 552.10535338 -1400.9765625 551.30078125 C-1397.72806273 549.57851629 -1397.72806273 549.57851629 -1396.9765625 546.30078125 C-1396.81347605 542.77448969 -1396.6804475 539.25429583 -1396.63476562 535.72460938 C-1396.43763723 530.50299901 -1395.42218275 527.44551285 -1391.9765625 523.30078125 C-1387.32026882 520.10528559 -1383.60137273 519.19716147 -1378.00073242 518.51928711 C-1367.12082143 517.1369295 -1361.64845518 512.8778291 -1353.9765625 505.30078125 C-1348.96225856 500.42854925 -1345.71931208 497.89294315 -1338.5390625 497.80078125 C-1336.35050553 497.95294048 -1334.16284291 498.11881421 -1331.9765625 498.30078125 C-1331.11933594 498.2440625 -1330.26210937 498.18734375 -1329.37890625 498.12890625 C-1324.23606385 497.96165934 -1321.33085824 499.45916751 -1317.46362305 502.85180664 C-1314.54822307 505.58529767 -1311.76283711 508.43676047 -1308.9765625 511.30078125 C-1306.90638546 513.37949407 -1304.82964058 515.45149956 -1302.75244141 517.52319336 C-1301.3988963 518.87784611 -1300.0505624 520.23773397 -1298.70849609 521.60375977 C-1294.86029262 525.50761297 -1290.89628006 529.19521081 -1286.74194336 532.77172852 C-1284.12656422 535.0369919 -1281.62931877 537.42932723 -1279.12890625 539.8203125 C-1274.14074061 543.2513738 -1268.22358362 543.68596338 -1262.3203125 543.66796875 C-1261.55924194 543.66594452 -1260.79817139 543.66392029 -1260.01403809 543.66183472 C-1247.74338356 543.41819302 -1235.58932763 541.24340052 -1223.4765625 539.42578125 C-1218.50851061 538.69441107 -1213.53945882 537.96998512 -1208.5703125 537.24609375 C-1206.79228241 536.98474892 -1206.79228241 536.98474892 -1204.97833252 536.71812439 C-1197.47668421 535.62590484 -1189.97561129 534.65545675 -1182.43054199 533.91714478 C-1173.93756028 533.06776714 -1166.97863757 531.59564047 -1160.9765625 525.30078125 C-1158.2506355 520.95949011 -1157.14056154 516.42237702 -1156.015625 511.47265625 C-1154.9765625 509.30078125 -1154.9765625 509.30078125 -1152.72265625 508 C-1143.37089208 505.61882534 -1133.0722157 509.06845192 -1124.04467773 511.57250977 C-1112.40781999 514.73195753 -1102.53829934 512.645686 -1091.7890625 507.42578125 C-1079.16960013 501.42929913 -1067.27036047 498.96789691 -1053.36987305 498.03369141 C-1045.83660406 497.5125931 -1038.43138316 496.63029207 -1030.9765625 495.42578125 C-1029.50014282 495.20136353 -1029.50014282 495.20136353 -1027.99389648 494.97241211 C-1017.66652154 493.23410579 -1010.73812118 488.67167874 -1002.4765625 482.42578125 C-1001.27193359 481.52666016 -1001.27193359 481.52666016 -1000.04296875 480.609375 C-999.24761719 480.01511719 -998.45226562 479.42085938 -997.6328125 478.80859375 C-996.84261719 478.22883789 -996.05242188 477.64908203 -995.23828125 477.05175781 C-992.9680293 475.35990862 -992.9680293 475.35990862 -991.05859375 473.44824219 C-988.18031535 470.79473501 -986.25896442 469.25720476 -982.22839355 469.39416504 C-981.20105103 469.58055542 -980.1737085 469.7669458 -979.11523438 469.95898438 C-977.96075806 470.16466034 -976.80628174 470.3703363 -975.61682129 470.58224487 C-969.5765774 471.77450488 -963.55341426 473.02292179 -957.5390625 474.33984375 C-956.20208982 474.62893053 -954.86501065 474.91752524 -953.52783203 475.20565796 C-948.63047436 476.26185109 -943.73470543 477.32531506 -938.8394165 478.39105225 C-934.66988326 479.29876648 -930.49952604 480.20247319 -926.32785034 481.10029221 C-924.38770104 481.51953466 -922.44883993 481.94472442 -920.51000977 482.37002563 C-918.74161743 482.75074722 -918.74161743 482.75074722 -916.9375 483.13916016 C-915.90415527 483.36407135 -914.87081055 483.58898254 -913.80615234 483.82070923 C-911.13062712 484.27464244 -908.68328985 484.39315135 -905.9765625 484.30078125 C-906.21890625 483.09019043 -906.46125 481.87959961 -906.7109375 480.63232422 C-907.61124376 476.12711337 -908.50400499 471.62043456 -909.39453125 467.11328125 C-909.78050426 465.16528323 -910.16850369 463.21768556 -910.55859375 461.27050781 C-911.11996178 458.4665318 -911.67395099 455.66118193 -912.2265625 452.85546875 C-912.40155273 451.98961151 -912.57654297 451.12375427 -912.75683594 450.23165894 C-913.61228091 445.84992393 -914.18097884 441.7915528 -913.9765625 437.30078125 C-911.52081447 436.04548573 -909.06214702 434.79653499 -906.6015625 433.55078125 C-905.92222656 433.20273437 -905.24289062 432.8546875 -904.54296875 432.49609375 C-895.58207919 427.97377565 -886.94935331 424.87701955 -877.1015625 422.92578125 C-867.82726049 420.94108682 -859.69515194 418.46496154 -851.92871094 412.80957031 C-844.90209151 407.70687202 -837.51048986 403.60911256 -829.7265625 399.80078125 C-829.05992584 399.47373199 -828.39328918 399.14668274 -827.70645142 398.8097229 C-813.22786188 391.79803306 -798.83736425 388.0198444 -782.9765625 385.30078125 C-781.59380127 385.04820557 -781.59380127 385.04820557 -780.18310547 384.79052734 C-760.37502996 381.28280737 -746.95244834 386.59515876 -729.9765625 396.30078125 C-711.76841502 406.63083998 -691.46846266 409.5867191 -670.9765625 412.30078125 C-670.67709717 411.51759521 -670.37763184 410.73440918 -670.0690918 409.92749023 C-667.16709105 402.95036711 -659.7351377 395.63002647 -652.93359375 392.30078125 C-640.79627809 387.56426782 -626.75033307 387.90414536 -613.9140625 388.73828125 C-574.64430061 391.28359191 -574.64430061 391.28359191 -538.8125 376.9921875 C-535.41985678 373.8666247 -533.26503513 370.27747139 -530.9765625 366.30078125 C-530.16143127 364.91721677 -529.34490311 363.53447481 -528.52734375 362.15234375 C-527.2034907 359.91136212 -525.88363483 357.66861294 -524.57836914 355.41674805 C-522.71554575 352.20644433 -520.84003446 349.10333705 -518.7265625 346.046875 C-517.08456285 343.47025502 -516.4747213 342.01343595 -516.1015625 339.05078125 C-513.97554234 328.06942493 -506.09266559 320.78004272 -497.9140625 313.86328125 C-489.7555067 306.75998267 -484.47383947 297.77214704 -481.96484375 287.2265625 C-478.34293866 272.89579631 -469.88489109 264.87108201 -458.9765625 255.30078125 C-458.25895752 254.66897949 -457.54135254 254.03717773 -456.80200195 253.38623047 C-455.45471983 252.20457056 -454.10547403 251.0251443 -452.75390625 249.84838867 C-448.77848371 246.38682226 -444.86274048 242.86204927 -440.9765625 239.30078125 C-440.33460937 238.71425781 -439.69265625 238.12773437 -439.03125 237.5234375 C-432.16807089 230.98341257 -427.4638087 223.38378669 -423.1640625 214.98828125 C-417.29609094 203.628197 -409.23385358 194.29783769 -400.51171875 185.03125 C-398.32771803 182.67899037 -396.26999979 180.27393466 -394.2265625 177.80078125 C-388.65532888 171.40712743 -381.38383967 168.59343088 -372.97265625 167.8515625 C-371.45383337 167.75957912 -369.93415999 167.68101226 -368.4140625 167.61328125 C-367.56835693 167.57275635 -366.72265137 167.53223145 -365.85131836 167.49047852 C-357.9015828 167.19135168 -349.9857722 167.44208707 -342.0390625 167.73828125 C-340.75749268 167.78597656 -339.47592285 167.83367187 -338.15551758 167.8828125 C-335.62304546 167.97815263 -333.09057473 168.07352943 -330.55810547 168.16894531 C-325.40579342 168.35860097 -320.25671047 168.52763512 -315.1015625 168.61328125 C-313.87385132 168.65763306 -313.87385132 168.65763306 -312.62133789 168.70288086 C-307.11679198 168.7589612 -302.41664476 167.72993405 -297.9765625 164.30078125 C-295.28093285 159.81421586 -295.79913106 156.27542907 -296.9765625 151.30078125 C-298.18320818 148.17302863 -299.4997081 145.13506434 -300.91796875 142.09765625 C-302.0018883 139.23386882 -302.06248392 137.32039601 -301.9765625 134.30078125 C-301.38343262 134.42195312 -300.79030273 134.543125 -300.17919922 134.66796875 C-277.49357117 139.34996121 -277.49357117 139.34996121 -254.9765625 135.30078125 C-253.89761719 134.91019531 -253.89761719 134.91019531 -252.796875 134.51171875 C-250.17204961 132.76559027 -249.76689774 131.34212365 -248.9765625 128.30078125 C-248.89643435 124.93191531 -248.97620875 121.63340139 -249.14257812 118.27148438 C-249.274643 113.46705541 -248.47291574 110.39880474 -245.9765625 106.30078125 C-244.9765625 105.30078125 -244.9765625 105.30078125 -242.57495117 105.21899414 C-241.5254126 105.23696045 -240.47587402 105.25492676 -239.39453125 105.2734375 C-237.65333008 105.29180664 -237.65333008 105.29180664 -235.87695312 105.31054688 C-233.44459313 105.34509381 -231.01229017 105.38399432 -228.58007812 105.42773438 C-211.77972577 105.5844025 -199.55960795 102.33949098 -186.609375 91.3671875 C-183.6787869 89.06706717 -180.63065564 87.24024917 -177.4140625 85.36328125 C-167.8331366 79.5787832 -161.5760543 72.14006977 -155.1171875 63.09765625 C-151.03162375 57.75958391 -147.51981406 54.30353749 -140.9765625 52.30078125 C-138.03705165 52.22039859 -135.25051176 52.58981759 -132.3515625 53.05078125 C-131.61421875 53.15132812 -130.876875 53.251875 -130.1171875 53.35546875 C-127.16408174 53.76826848 -124.2528261 54.2419322 -121.3359375 54.86328125 C-107.93339569 57.34852079 -95.12487829 53.83718164 -83.9765625 46.30078125 C-77.18431684 41.12880272 -75.00712605 32.46971656 -72.05273438 24.73828125 C-69.43002096 18.54234084 -67.51996002 14.88365383 -61.16015625 12.21484375 C-59.10918241 11.54468427 -57.0479613 10.90486275 -54.9765625 10.30078125 C-53.35851095 9.67832113 -51.7458768 9.04148137 -50.140625 8.38671875 C-32.97382271 1.82976077 -18.40352868 -0.14966308 0 0 Z " fill="#000000" transform="translate(1510.9765625,-0.30078125)"/>
</svg>
