<?xml version="1.0" encoding="UTF-8"?>
<svg version="1.1" xmlns="http://www.w3.org/2000/svg" width="1104" height="1917">
<path d="M0 0 C4.2753933 -0.03087592 8.54930029 -0.07773173 12.82400513 -0.16193199 C17.03933932 -0.24459036 21.25336705 -0.28665084 25.46946716 -0.30144119 C27.0481593 -0.31351609 28.62682018 -0.33913488 30.20503235 -0.37989044 C43.98824624 -0.71894069 53.70411149 3.15119342 64.53787231 11.80901527 C69.22650661 16.27486349 73.15821562 21.42532629 77.16287231 26.49651527 C87.42177652 39.19890393 98.01471662 51.5672786 109.16287231 63.49651527 C109.78677856 64.19776527 110.41068481 64.89901527 111.05349731 65.62151527 C114.22044653 69.05484339 116.56316759 70.69128162 120.97537231 72.24651527 C129.4038805 76.16111741 132.43922655 86.55439196 136.16287231 94.49651527 C137.78974864 97.88095883 139.43861846 101.25407012 141.10037231 104.62151527 C141.5073938 105.44893227 141.91441528 106.27634926 142.33377075 107.12883949 C146.62117566 115.68518358 151.77774806 123.59920759 157.16287231 131.49651527 C158.39347606 133.30803987 159.62295708 135.12032876 160.85037231 136.93401527 C161.5367981 137.92208168 161.5367981 137.92208168 162.23709106 138.93010902 C163.16287231 140.49651527 163.16287231 140.49651527 163.16287231 142.49651527 C164.82593072 143.17213275 166.49381836 143.83584809 168.16287231 144.49651527 C169.33849731 145.03276527 170.51412231 145.56901527 171.72537231 146.12151527 C179.74761274 149.06753577 188.26829744 148.32390259 195.97537231 144.82854652 C200.70428269 141.94897789 203.34949742 137.76442319 206.28787231 133.18401527 C208.15488095 130.50796957 209.05137618 129.37162356 212.16287231 128.49651527 C214.71143039 128.81352401 215.87034121 129.1933286 217.67092896 131.05950356 C218.36496826 132.05312904 218.36496826 132.05312904 219.07302856 133.06682777 C219.58800903 133.79901527 220.1029895 134.53120277 220.63357544 135.28557777 C221.15886841 136.05643715 221.68416138 136.82729652 222.22537231 137.62151527 C223.01911255 138.74299965 223.01911255 138.74299965 223.82888794 139.88714027 C228.38111797 146.44417926 232.11091703 152.18501649 231.16287231 160.49651527 C230.11807523 163.13555315 229.06134184 165.45754605 227.72537231 167.93401527 C227.37063843 168.61923256 227.01590454 169.30444984 226.65042114 170.01043129 C224.37786927 174.35596249 221.97069262 178.61998202 219.53128052 182.8734684 C212.40387197 194.71627381 212.40387197 194.71627381 211.31521606 208.16839027 C212.74576248 212.09744863 215.38718584 214.96009656 218.15505981 218.03948402 C222.28625694 223.09497623 223.53392698 227.09667117 223.31521606 233.59807777 C223.28344753 234.97997777 223.25247181 236.36189617 223.22219849 237.74382973 C223.20144257 238.45914864 223.18068665 239.17446754 223.15930176 239.91146278 C222.5879926 261.33747936 223.87815848 282.49609452 238.55740356 299.36370277 C242.36004664 303.80627763 245.59591901 308.67539395 248.91311646 313.48357582 C249.39256714 314.17491615 249.87201782 314.86625648 250.36599731 315.57854652 C250.78526489 316.18932045 251.20453247 316.80009438 251.63650513 317.4293766 C252.39205688 318.45261024 252.39205688 318.45261024 253.16287231 319.49651527 C253.7857312 320.55813881 254.40859009 321.61976234 255.05032349 322.71355629 C256.90724097 324.89718507 257.89417278 325.44516105 260.74523926 325.99006081 C264.10071784 326.12607022 267.40449731 326.06490518 270.76052856 325.94182777 C271.98694565 325.92385139 273.21336273 325.90587502 274.47694397 325.8873539 C278.39423811 325.82730525 282.30907703 325.72771826 286.22537231 325.62151527 C290.14506647 325.52593055 294.06413996 325.43927044 297.98451233 325.37709999 C300.42337416 325.33751605 302.86201099 325.27817777 305.29985046 325.19722939 C306.40457199 325.17756111 307.50929352 325.15789284 308.64749146 325.13762856 C309.61836197 325.11064888 310.58923248 325.0836692 311.58952332 325.05587196 C314.88698197 325.62050704 316.05430657 326.97741665 318.16287231 329.49651527 C316.67245459 333.29030585 314.47224719 335.17995286 311.16287231 337.49651527 C310.50287231 337.49651527 309.84287231 337.49651527 309.16287231 337.49651527 C306.8367257 341.72992386 307.11821638 345.33498022 307.34500122 349.99798012 C307.99551936 364.02432072 307.99551936 364.02432072 304.28787231 368.37151527 C302.36599731 370.00823402 302.36599731 370.00823402 300.16287231 371.49651527 C299.33271606 372.10108559 298.50255981 372.7056559 297.64724731 373.32854652 C295.93618894 374.54524222 294.20853721 375.7390028 292.46365356 376.90667152 C285.58898685 381.6570779 281.88291149 387.39615986 280.16287231 395.49651527 C279.86637894 397.49580543 279.57510549 399.49587374 279.28787231 401.49651527 C278.18545585 408.28909674 276.42427543 412.28650768 271.41287231 417.18401527 C262.40148905 423.59596106 252.54090621 425.71474797 241.95974731 428.40862465 C231.06764476 431.26449093 231.06764476 431.26449093 221.16287231 436.49651527 C218.85718218 440.6308562 218.90804851 443.4933734 220.10037231 447.93401527 C222.80473028 454.67199191 226.2567312 459.36781225 233.03787231 462.29339027 C246.91828009 467.76661718 258.65884716 469.84674754 272.82693481 463.80901527 C283.9822657 459.42003263 295.37386846 459.07824576 307.16287231 459.49651527 C305.34023093 464.42099131 302.95212624 468.80679654 298.31790161 471.61419106 C295.8815627 472.61169064 293.66107871 473.03905152 291.05740356 473.42620277 C290.07320435 473.58217934 289.08900513 473.7381559 288.07498169 473.89885902 C286.02882165 474.21087587 283.98194969 474.51826364 281.93435669 474.82073402 C273.01539191 476.24823262 264.43744947 478.63825652 258.16287231 485.49651527 C255.07635924 491.52531184 253.90727748 496.80415636 254.28787231 503.51214027 C254.08496205 506.73334069 251.94369948 508.88092538 250.16287231 511.49651527 C249.66087482 518.37544962 250.96177833 524.86536163 252.16287231 531.62151527 C255.54267709 551.81054948 255.54267709 551.81054948 254.16287231 558.49651527 C251.83246355 561.40056312 249.40128139 563.09297577 246.10037231 564.74651527 C242.49139083 566.66232201 239.33750559 568.81778771 236.10037231 571.30901527 C231.57467272 574.6729697 226.93898005 577.353531 221.91287231 579.87151527 C221.25150269 580.20514076 220.59013306 580.53876625 219.90872192 580.8825016 C212.56502666 584.4618976 205.95162919 585.71163798 197.85037231 585.87151527 C190.5367228 586.15503878 184.65473571 586.88747935 178.16287231 590.49651527 C177.23732544 590.98120277 176.31177856 591.46589027 175.35818481 591.96526527 C165.83869466 597.20716635 149.12982532 606.56260925 144.16287231 616.49651527 C143.66005149 622.02754437 144.40606744 627.0017369 145.70584106 632.35979652 C146.62490232 636.65660426 147.00228525 640.13246925 144.66287231 643.93401527 C143.92037231 644.70745277 143.92037231 644.70745277 143.16287231 645.49651527 C142.17287231 645.16651527 141.18287231 644.83651527 140.16287231 644.49651527 C134.92554228 644.10124508 131.64606835 644.72120344 127.16287231 647.49651527 C125.10535284 651.61155422 125.54355962 656.03746385 126.16287231 660.49651527 C128.08578189 666.03074283 130.59257677 671.23818275 133.16287231 676.49651527 C134.2857403 678.82277173 135.40435048 681.15090093 136.51638794 683.48235512 C137.22565185 684.96382212 137.94406844 686.44095048 138.67263794 687.91301918 C140.37539224 691.42895393 141.16287231 693.51632536 141.16287231 697.49651527 C140.25795044 697.40950356 140.25795044 697.40950356 139.33474731 697.32073402 C134.25369092 696.93883365 134.25369092 696.93883365 129.97537231 699.30901527 C127.80032034 703.13410669 125.66671244 706.97590856 123.62771606 710.87542152 C122.29533012 713.25950411 120.85704919 715.35994206 119.16287231 717.49651527 C118.02849731 717.33151527 116.89412231 717.16651527 115.72537231 716.99651527 C108.2338341 716.09805919 100.84033494 715.37457181 94.16287231 719.49651527 C89.26128978 725.16453697 87.3102371 732.41143408 85.16287231 739.43401527 C81.8758101 750.14369157 78.25115727 760.77498817 69.10037231 767.87151527 C64.32900403 772.13529119 62.7755845 777.24685099 62.16287231 783.49651527 C61.93570879 788.90893305 62.19502011 794.22784776 62.66287231 799.62151527 C63.45555926 809.16773086 64.00074404 819.05918982 62.16287231 828.49651527 C63.05490356 828.95542152 63.94693481 829.41432777 64.86599731 829.88714027 C66.04849293 830.50654274 67.23077329 831.12635626 68.41287231 831.74651527 C70.15310669 832.65143715 70.15310669 832.65143715 71.92849731 833.57464027 C74.85655293 835.31449941 76.90795574 836.97368782 79.16287231 839.49651527 C78.32884888 839.38952309 77.49482544 839.2825309 76.63552856 839.17229652 C68.16526151 838.26996567 62.03977036 838.49534725 54.72537231 842.99651527 C52.13874536 847.13511839 51.86451301 851.7291173 51.16287231 856.49651527 C50.799876 858.39468352 50.42567987 860.29076032 50.03787231 862.18401527 C49.87029419 863.01288246 49.70271606 863.84174965 49.53005981 864.69573402 C49.40888794 865.28999184 49.28771606 865.88424965 49.16287231 866.49651527 C48.31015747 866.75174965 48.31015747 866.75174965 47.44021606 867.01214027 C38.54543281 869.80382517 33.25873779 872.0703406 28.62771606 880.48479652 C23.00456834 892.04598825 19.10657255 904.28782625 15.16287231 916.49651527 C13.45191688 916.26514052 11.74411387 916.01041397 10.03787231 915.74651527 C9.08654419 915.60729652 8.13521606 915.46807777 7.15505981 915.32464027 C0.13163333 913.38081989 -3.95778107 908.38410028 -8.58712769 903.12151527 C-17.75931581 892.9897501 -17.75931581 892.9897501 -30.39962769 888.74651527 C-36.61544615 889.19598363 -40.99589101 893.25904139 -45.71212769 896.97307777 C-49.72313973 900.03505572 -52.62211564 901.29972237 -57.83712769 901.49651527 C-58.45563599 901.33989418 -59.07414429 901.18327309 -59.71139526 901.0219059 C-62.22965183 900.3995 -64.5688132 900.29996355 -67.16134644 900.21526527 C-68.70532104 900.15919106 -68.70532104 900.15919106 -70.28048706 900.10198402 C-71.88633667 900.04977699 -71.88633667 900.04977699 -73.52462769 899.99651527 C-80.0308847 899.78110272 -86.44778778 899.55457807 -92.89230347 898.58782387 C-97.88249018 898.35353692 -101.89507796 900.86207362 -105.89962769 903.55901527 C-121.7893049 918.12098361 -126.27546702 939.91074726 -129.39279175 960.13323402 C-129.63014038 961.64143715 -129.63014038 961.64143715 -129.87228394 963.18010902 C-130.07929932 964.5344706 -130.07929932 964.5344706 -130.29049683 965.91619301 C-130.86078628 968.60819357 -131.74443798 970.97586266 -132.83712769 973.49651527 C-133.53837769 973.18714027 -134.23962769 972.87776527 -134.96212769 972.55901527 C-137.99926707 971.4365942 -140.60155802 970.70753069 -143.83712769 970.49651527 C-146.92402522 972.73470375 -147.40702042 975.02587996 -148.02462769 978.68401527 C-148.18318237 979.58506996 -148.34173706 980.48612465 -148.50509644 981.41448402 C-148.61466675 982.10155434 -148.72423706 982.78862465 -148.83712769 983.49651527 C-149.82712769 983.82651527 -150.81712769 984.15651527 -151.83712769 984.49651527 C-152.77616675 991.20393715 -150.52173832 995.55470265 -147.41281128 1001.32952309 C-145.01085386 1005.87683435 -143.93928373 1009.3887131 -143.83712769 1014.49651527 C-148.67399534 1013.89775409 -152.3114558 1011.77230491 -156.52462769 1009.49651527 C-164.77150499 1005.24214412 -170.99815375 1003.30016737 -180.21212769 1005.68401527 C-183.93017017 1006.96227478 -186.48362186 1008.22207238 -188.83712769 1011.49651527 C-191.97044773 1020.89647541 -188.24722325 1028.83821509 -184.83712769 1037.62151527 C-183.88579325 1040.07774586 -182.95159662 1042.5385904 -182.02462769 1045.00432777 C-181.60568237 1046.08343422 -181.18673706 1047.16254066 -180.75509644 1048.27434731 C-179.73143578 1051.86750511 -179.54358214 1054.77771573 -179.83712769 1058.49651527 C-181.77462769 1061.24651527 -181.77462769 1061.24651527 -183.83712769 1063.49651527 C-189.94534448 1081.82116567 -181.25852829 1110.69639699 -175.75509644 1128.45354652 C-174.83712769 1131.49651527 -174.83712769 1131.49651527 -174.83712769 1133.49651527 C-175.49712769 1134.03276527 -176.15712769 1134.56901527 -176.83712769 1135.12151527 C-179.23806209 1137.97262488 -179.28453193 1139.87297973 -179.11447144 1143.53948402 C-178.75938967 1146.04506096 -177.80655865 1148.16988095 -176.83712769 1150.49651527 C-177.11934822 1152.82483465 -177.71583957 1154.28961202 -178.89962769 1156.30901527 C-181.26533707 1161.82900385 -179.48169681 1167.72031988 -177.90353394 1173.24651527 C-177.49663831 1174.74581644 -177.09117494 1176.24550689 -176.6869812 1177.74553871 C-176.47582672 1178.52151405 -176.26467224 1179.2974894 -176.04711914 1180.09697914 C-172.22991367 1194.24314646 -169.82695387 1207.38248178 -169.86740112 1222.09661293 C-169.73334565 1232.72375215 -168.90931798 1243.30355854 -161.21212769 1251.18401527 C-153.0539683 1257.28741437 -143.06001765 1260.34657541 -133.52072144 1263.5453434 C-132.11886597 1264.03357582 -132.11886597 1264.03357582 -130.68869019 1264.53167152 C-129.85160522 1264.81405678 -129.01452026 1265.09644203 -128.15206909 1265.38738441 C-125.83712769 1266.49651527 -125.83712769 1266.49651527 -124.03390503 1268.55681801 C-120.93015272 1271.29735058 -117.80633014 1271.30568823 -113.83712769 1271.49651527 C-112.56804565 1271.56427162 -111.29896362 1271.63202797 -109.99142456 1271.70183754 C-108.69269409 1271.73849525 -107.39396362 1271.77515297 -106.05587769 1271.81292152 C-105.35692383 1271.83370262 -104.65796997 1271.85448372 -103.93783569 1271.87589455 C-101.7376851 1271.94050063 -99.53743072 1271.99985436 -97.33712769 1272.05901527 C-95.83190926 1272.10228544 -94.32670076 1272.1459022 -92.82150269 1272.18987465 C-89.16015024 1272.29608846 -85.49868535 1272.39759724 -81.83712769 1272.49651527 C-81.78257645 1275.16346476 -81.74319377 1277.82927025 -81.71212769 1280.49651527 C-81.69536987 1281.24030434 -81.67861206 1281.9840934 -81.66134644 1282.75042152 C-81.61551567 1288.02095917 -82.43032975 1292.41910663 -83.83712769 1297.49651527 C-84.6557446 1304.7471222 -82.42443613 1309.24434913 -78.83712769 1315.49651527 C-80.70680374 1316.48580988 -82.58314146 1317.46251996 -84.46212769 1318.43401527 C-85.50626831 1318.97928871 -86.55040894 1319.52456215 -87.62619019 1320.08635902 C-94.77382865 1323.22540706 -99.79112995 1322.12365732 -107.08712769 1320.18401527 C-107.99720581 1319.95778481 -108.90728394 1319.73155434 -109.84494019 1319.4984684 C-116.56505601 1317.76858695 -116.56505601 1317.76858695 -118.83712769 1315.49651527 C-118.74431519 1314.28995277 -118.74431519 1314.28995277 -118.64962769 1313.05901527 C-118.74244019 1311.79057777 -118.74244019 1311.79057777 -118.83712769 1310.49651527 C-122.77718809 1307.41951572 -126.31736499 1307.00083462 -131.21212769 1306.55901527 C-139.20039617 1305.72570669 -139.20039617 1305.72570669 -142.58712769 1303.37151527 C-150.44114207 1298.84035313 -159.03046291 1301.88833046 -167.27462769 1304.05901527 C-168.15143188 1304.30514565 -169.02823608 1304.55127602 -169.93161011 1304.80486488 C-171.18228271 1305.14916542 -171.18228271 1305.14916542 -172.45822144 1305.50042152 C-173.57861816 1305.82248573 -173.57861816 1305.82248573 -174.72164917 1306.15105629 C-177.25637503 1306.56497863 -178.49843785 1306.59730021 -180.83712769 1305.49651527 C-182.55709839 1303.07903481 -182.55709839 1303.07903481 -184.26290894 1299.87932777 C-184.5735881 1299.30753792 -184.88426727 1298.73574806 -185.20436096 1298.14663124 C-186.19878521 1296.31142501 -187.17490164 1294.46724745 -188.14962769 1292.62151527 C-189.43138642 1290.2250295 -190.72092927 1287.83281607 -192.01290894 1285.44182777 C-192.48460007 1284.56328133 -192.48460007 1284.56328133 -192.96582031 1283.66698647 C-195.59715074 1278.8143242 -198.51500111 1274.19214366 -201.57614136 1269.60149574 C-202.83712769 1267.49651527 -202.83712769 1267.49651527 -202.83712769 1265.49651527 C-209.39342335 1263.13527888 -215.95156565 1261.45338948 -222.77462769 1260.05901527 C-223.80370239 1259.84511147 -224.8327771 1259.63120766 -225.89303589 1259.41082191 C-233.73650402 1257.82203956 -241.60624372 1256.5824788 -249.52462769 1255.43401527 C-270.51771232 1252.37612552 -270.51771232 1252.37612552 -277.83712769 1247.49651527 C-282.36993613 1247.10575593 -285.70082885 1247.30821657 -289.95431519 1248.89495277 C-295.85268996 1250.94005395 -301.87409904 1251.87196623 -308.02072144 1252.86956215 C-315.6131965 1254.20186871 -323.89536065 1256.11339952 -328.83712769 1262.49651527 C-329.87432713 1265.60811361 -329.93831807 1267.71085006 -329.89962769 1270.96917152 C-329.89189331 1272.03329262 -329.88415894 1273.09741371 -329.87619019 1274.1937809 C-329.86329956 1275.30430824 -329.85040894 1276.41483559 -329.83712769 1277.55901527 C-329.81168905 1279.75818558 -329.790632 1281.95741233 -329.77462769 1284.15667152 C-329.76302612 1285.1325724 -329.75142456 1286.10847328 -329.73947144 1287.11394691 C-329.83712769 1289.49651527 -329.83712769 1289.49651527 -330.83712769 1291.49651527 C-331.29254667 1296.1417889 -330.96564486 1299.68462261 -328.40353394 1303.68401527 C-324.8675245 1307.77555736 -320.338678 1310.57247946 -315.83712769 1313.49651527 C-314.92060425 1314.13460121 -314.00408081 1314.77268715 -313.05978394 1315.43010902 C-303.58732313 1321.48907044 -293.08955288 1324.64256591 -282.41012573 1327.90813637 C-275.78831985 1329.9602777 -270.08144873 1331.83660538 -264.83712769 1336.49651527 C-263.03472148 1340.57564511 -263.95732384 1343.30859024 -265.46212769 1347.30901527 C-266.9499335 1350.78578256 -268.68420587 1353.9578607 -270.64962769 1357.18401527 C-272.35721303 1360.21497926 -272.84580186 1361.59887051 -273.14962769 1365.18401527 C-271.26736429 1369.93448955 -268.0620873 1371.84153093 -263.83712769 1374.49651527 C-262.84712769 1375.15651527 -261.85712769 1375.81651527 -260.83712769 1376.49651527 C-261.02674072 1377.97861488 -261.02674072 1377.97861488 -261.22018433 1379.4906559 C-261.69041798 1383.18704204 -262.14760602 1386.88494848 -262.6010437 1390.58342934 C-262.79838164 1392.17826841 -262.99916738 1393.77268507 -263.20358276 1395.36663246 C-263.49826009 1397.66929439 -263.78014739 1399.97323418 -264.05978394 1402.27776527 C-264.15244034 1402.98018349 -264.24509674 1403.6826017 -264.34056091 1404.40630531 C-264.99828621 1409.98674437 -265.37319725 1415.72147968 -262.568573 1420.78826332 C-257.78714714 1425.94319395 -252.57006948 1429.64839957 -246.58712769 1433.30901527 C-244.80907324 1434.41646729 -243.03294585 1435.52702084 -241.25900269 1436.64104652 C-240.48137573 1437.11904701 -239.70374878 1437.5970475 -238.90255737 1438.08953285 C-235.48312444 1440.41886997 -234.0571376 1441.93030358 -232.53634644 1445.84417152 C-230.84605957 1450.03515676 -228.17783542 1452.23695188 -224.64962769 1454.93401527 C-223.81141479 1455.60207191 -223.81141479 1455.60207191 -222.95626831 1456.28362465 C-221.59311684 1457.36715531 -220.21647049 1458.43367283 -218.83712769 1459.49651527 C-218.9757019 1460.04799232 -219.11427612 1460.59946938 -219.25704956 1461.16765785 C-221.00297163 1468.83713313 -221.19525675 1476.34282347 -221.33712769 1484.18401527 C-222.00844956 1511.75349809 -222.00844956 1511.75349809 -225.83712769 1517.49651527 C-226.68275269 1517.78526527 -227.52837769 1518.07401527 -228.39962769 1518.37151527 C-231.03054751 1519.27377924 -231.03054751 1519.27377924 -231.96212769 1521.80901527 C-231.81000732 1525.0796032 -230.74157266 1525.89953258 -228.44161987 1528.08465004 C-224.70894822 1531.36919663 -220.74896126 1534.38791207 -216.80783081 1537.41643715 C-205.48353273 1546.37927023 -205.48353273 1546.37927023 -204.51266479 1552.56316566 C-204.58619283 1554.73262436 -204.86829051 1556.73983047 -205.27462769 1558.87151527 C-205.39080444 1559.61175941 -205.5069812 1560.35200356 -205.62667847 1561.11467934 C-208.33588733 1577.44132144 -208.33588733 1577.44132144 -213.83712769 1582.49651527 C-215.10078143 1583.03453379 -216.37257678 1583.55361868 -217.64962769 1584.05901527 C-223.73639518 1586.90550728 -225.94428243 1592.73603474 -228.83712769 1598.49651527 C-229.17276733 1599.16457191 -229.50840698 1599.83262856 -229.85421753 1600.52092934 C-231.94717767 1604.6939561 -231.94717767 1604.6939561 -233.99728394 1608.88811684 C-235.98712524 1612.9808586 -238.03287363 1616.88631419 -240.83712769 1620.49651527 C-242.60056519 1620.74401527 -242.60056519 1620.74401527 -244.39962769 1620.99651527 C-246.10119019 1621.24401527 -246.10119019 1621.24401527 -247.83712769 1621.49651527 C-250.95902263 1625.7333727 -251.78056856 1630.93744452 -252.89572144 1636.00823402 C-254.05019295 1639.05967947 -254.97623393 1639.958295 -257.83712769 1641.49651527 C-267.6696345 1643.74895511 -275.84481546 1642.11399408 -284.38009644 1636.96135902 C-285.89361703 1635.95646036 -287.39116506 1634.92668644 -288.86447144 1633.86370277 C-292.99406193 1631.00161035 -295.7519293 1630.15750205 -300.83712769 1630.49651527 C-302.13669104 1631.58849669 -302.13669104 1631.58849669 -302.14962769 1634.24651527 C-301.77204718 1638.17335253 -300.4973937 1639.66998264 -297.83712769 1642.49651527 C-298.57769409 1643.31055824 -298.57769409 1643.31055824 -299.33322144 1644.14104652 C-299.9738855 1644.85647621 -300.61454956 1645.5719059 -301.27462769 1646.30901527 C-301.91271362 1647.01671059 -302.55079956 1647.7244059 -303.20822144 1648.45354652 C-305.0279878 1650.4954768 -305.0279878 1650.4954768 -305.83712769 1653.49651527 C-302.02616407 1662.11260692 -295.01935723 1667.23493739 -286.83712769 1671.49651527 C-288.12677945 1672.87214382 -289.46402061 1674.2041792 -290.83712769 1675.49651527 C-291.49712769 1675.49651527 -292.15712769 1675.49651527 -292.83712769 1675.49651527 C-293.09494019 1676.05854652 -293.35275269 1676.62057777 -293.61837769 1677.19964027 C-294.97891263 1679.76372536 -296.58376135 1681.93264659 -298.33712769 1684.24651527 C-301.71721424 1688.82244472 -304.75117706 1693.51615876 -307.71212769 1698.37151527 C-312.29317834 1705.81979787 -317.24274654 1712.77599247 -322.83712769 1719.49651527 C-323.50744019 1720.30604652 -324.17775269 1721.11557777 -324.86837769 1721.94964027 C-331.58773145 1729.34092941 -340.21004943 1733.70409259 -348.83712769 1738.49651527 C-369.72241196 1750.08739805 -369.72241196 1750.08739805 -388.40744019 1764.84026527 C-390.95446194 1767.06099483 -391.68538663 1767.47476219 -395.18869019 1767.97698402 C-396.26892456 1767.88030434 -397.34915894 1767.78362465 -398.46212769 1767.68401527 C-403.36451306 1767.28227585 -405.89268077 1767.4366204 -409.83712769 1770.49651527 C-420.65401838 1782.28772149 -424.94169907 1801.15593482 -425.02462769 1816.74651527 C-425.03880737 1817.94792152 -425.05298706 1819.14932777 -425.06759644 1820.38714027 C-424.99641461 1823.62510425 -424.41719406 1826.57841978 -423.72384644 1829.73870277 C-422.54166689 1835.92453832 -423.18262835 1841.24707047 -424.46212769 1847.37151527 C-424.68159058 1848.42290688 -424.90105347 1849.47429848 -425.12716675 1850.55755043 C-427.87409155 1861.90133249 -434.07904144 1867.70067606 -442.75900269 1874.93010902 C-445.424014 1877.38918765 -447.26964177 1879.21862562 -448.83712769 1882.49651527 C-448.52089903 1887.46657568 -447.16091495 1891.76640732 -445.52120972 1896.44182777 C-444.44677255 1899.66897381 -443.74168843 1902.92101618 -443.02462769 1906.24651527 C-442.77068237 1907.35510902 -442.51673706 1908.46370277 -442.25509644 1909.60589027 C-441.85738502 1912.35641781 -441.85884314 1913.92776813 -442.83712769 1916.49651527 C-443.16712769 1916.82651527 -443.49712769 1917.15651527 -443.83712769 1917.49651527 C-449.84731356 1917.14708586 -454.17681083 1915.04774008 -459.46212769 1912.30901527 C-473.69579129 1905.2964543 -488.61070611 1901.81944351 -504.08712769 1898.62151527 C-505.64004517 1898.29812172 -505.64004517 1898.29812172 -507.22433472 1897.96819496 C-515.98536965 1896.09549456 -515.98536965 1896.09549456 -524.83712769 1896.49651527 C-529.54066667 1900.0092849 -532.44858366 1905.18532303 -535.53048706 1910.11956215 C-536.65353394 1911.82854652 -536.65353394 1911.82854652 -538.83712769 1914.49651527 C-540.15712769 1914.49651527 -541.47712769 1914.49651527 -542.83712769 1914.49651527 C-544.73303977 1911.86330404 -546.26887305 1909.32512115 -547.83712769 1906.49651527 C-548.49944655 1905.33796465 -549.163637 1904.18048272 -549.82931519 1903.02385902 C-551.21770285 1900.60913346 -552.59750364 1898.18986992 -553.96994019 1895.76604652 C-555.11081496 1893.76832228 -556.29757628 1891.79487932 -557.55978394 1889.87151527 C-560.59995805 1884.2188368 -558.95783033 1877.65081888 -557.29415894 1871.76214027 C-555.72526993 1863.98474177 -556.04589632 1856.47238098 -559.83712769 1849.49651527 C-560.16712769 1848.50651527 -560.49712769 1847.51651527 -560.83712769 1846.49651527 C-562.16169131 1845.81259026 -563.4967533 1845.14890989 -564.83712769 1844.49651527 C-572.69409163 1837.57053808 -572.69409163 1837.57053808 -573.08712769 1831.87151527 C-570.44920223 1824.74911654 -567.5545823 1820.8467294 -561.64181519 1816.17229652 C-558.60788368 1813.35507441 -557.89734927 1811.15895268 -557.52462769 1807.05901527 C-557.86216161 1803.21112851 -558.28622435 1801.38753906 -560.83712769 1798.49651527 C-565.84531071 1796.49324206 -570.02246161 1798.31093361 -574.93478394 1799.79339027 C-579.25894242 1800.84096568 -583.41916294 1800.75526809 -587.83712769 1800.49651527 C-587.5857605 1799.54389809 -587.33439331 1798.5912809 -587.07540894 1797.60979652 C-586.76990112 1796.35553871 -586.46439331 1795.1012809 -586.14962769 1793.80901527 C-585.8363855 1792.56764809 -585.52314331 1791.3262809 -585.20040894 1790.04729652 C-584.6082347 1786.55129481 -584.6082347 1786.55129481 -585.75509644 1783.53948402 C-587.79136026 1781.14864446 -587.79136026 1781.14864446 -591.43869019 1780.91057777 C-596.6057143 1781.25284296 -600.7328088 1783.41881285 -605.21212769 1785.87151527 C-606.04776245 1786.31833656 -606.88339722 1786.76515785 -607.74435425 1787.22551918 C-613.77452392 1790.58357432 -618.20000271 1794.21729939 -622.82150269 1799.35589027 C-625.56542155 1802.26997465 -628.21619135 1803.83691945 -631.83712769 1805.49651527 C-632.49712769 1805.49651527 -633.15712769 1805.49651527 -633.83712769 1805.49651527 C-634.84639248 1801.3402516 -634.93952347 1797.45286434 -634.89962769 1793.18401527 C-634.89060425 1791.92975746 -634.88158081 1790.67549965 -634.87228394 1789.38323402 C-634.85488159 1787.95430824 -634.85488159 1787.95430824 -634.83712769 1786.49651527 C-630.55987367 1783.79684586 -625.67866432 1783.85977469 -620.76876831 1783.54924965 C-616.93477164 1783.1863315 -614.9215696 1782.56155539 -611.84494019 1780.19182777 C-609.76773858 1777.40336647 -609.18866244 1776.54598843 -609.64962769 1773.18401527 C-611.02094248 1765.54020503 -616.36070057 1760.17162486 -622.50509644 1755.78948402 C-625.19740542 1754.2967633 -627.82857064 1753.44620145 -630.77462769 1752.55901527 C-639.80065589 1749.7966414 -647.69261267 1743.47692638 -652.83712769 1735.49651527 C-654.68566125 1730.17378741 -655.4794172 1724.79741813 -656.27462769 1719.24651527 C-656.78118986 1715.99414875 -657.3065956 1712.74504774 -657.83712769 1709.49651527 C-658.01630737 1708.3853434 -658.19548706 1707.27417152 -658.38009644 1706.12932777 C-659.77985209 1699.49692849 -662.57739539 1696.25276426 -667.56759644 1691.75432777 C-670.51404149 1688.82309672 -672.28752314 1685.63838305 -674.15744019 1681.95354652 C-679.77405133 1673.73761999 -687.46337993 1671.51438869 -696.71212769 1668.74651527 C-697.94060425 1668.36108559 -699.16908081 1667.9756559 -700.43478394 1667.57854652 C-703.8912668 1666.50788892 -707.35681429 1665.48666417 -710.83712769 1664.49651527 C-711.96852173 1664.16840858 -711.96852173 1664.16840858 -713.12277222 1663.83367348 C-721.56773573 1661.66394243 -730.56978192 1661.57140946 -739.24630737 1661.04558754 C-755.74660369 1660.02185948 -771.7542864 1656.62428122 -784.02462769 1644.55901527 C-784.62275269 1643.87839027 -785.22087769 1643.19776527 -785.83712769 1642.49651527 C-784.83712769 1639.49651527 -784.83712769 1639.49651527 -782.21212769 1637.95354652 C-780.54150269 1637.13950356 -780.54150269 1637.13950356 -778.83712769 1636.30901527 C-766.79098714 1630.10167491 -760.19553091 1622.5031421 -755.46212769 1609.80901527 C-753.03717874 1597.45693156 -754.52293974 1584.36456826 -760.03244019 1573.03948402 C-761.98981417 1566.85380215 -759.08737017 1561.31730041 -756.46212769 1555.80901527 C-751.96664782 1545.94361735 -749.53277955 1536.3390892 -748.83712769 1525.49651527 C-742.83712769 1523.49651527 -742.83712769 1523.49651527 -740.54025269 1522.83635902 C-739.75134644 1522.60046059 -738.96244019 1522.36456215 -738.14962769 1522.12151527 C-737.4032605 1521.9075309 -736.65689331 1521.69354652 -735.88790894 1521.47307777 C-733.13004312 1520.15980834 -732.28395153 1519.21843313 -730.83712769 1516.49651527 C-729.99262826 1512.62816309 -729.61637524 1508.69145194 -729.19650269 1504.75823402 C-728.19267107 1497.0336273 -725.2022962 1490.93852284 -719.08712769 1485.93401527 C-718.40392456 1485.36553871 -717.72072144 1484.79706215 -717.01681519 1484.21135902 C-714.7699071 1482.44363026 -712.49276328 1480.72043006 -710.21212769 1478.99651527 C-707.25079012 1476.75522896 -704.97053424 1474.56465147 -702.71212769 1471.62151527 C-700.66173216 1469.15992931 -699.88747854 1468.51603907 -696.77462769 1467.30901527 C-685.30583398 1467.85514831 -677.53816729 1472.19361822 -669.83712769 1480.49651527 C-668.64053554 1481.88456217 -667.45234471 1483.27991786 -666.27462769 1484.68401527 C-661.77129159 1490.03239544 -655.57838214 1495.02928341 -648.41915894 1495.73479652 C-634.91462252 1496.09669524 -625.61692829 1487.9264929 -615.89962769 1479.12151527 C-607.82430142 1470.3799779 -605.99855888 1457.82520279 -603.52072144 1446.6156559 C-601.2428958 1436.85278927 -598.51435919 1430.24595891 -590.64962769 1423.80901527 C-587.12647717 1420.91971493 -585.12579617 1418.912817 -583.83712769 1414.49651527 C-583.39693832 1409.87452697 -583.29005346 1407.56878076 -585.39962769 1403.43401527 C-586.20400269 1402.46464027 -587.00837769 1401.49526527 -587.83712769 1400.49651527 C-588.276698 1399.95381996 -588.71626831 1399.41112465 -589.16915894 1398.85198402 C-598.04821664 1388.89395221 -611.37999053 1383.44021521 -624.21212769 1381.18401527 C-631.1307443 1379.90495755 -636.18120099 1377.65990576 -641.83712769 1373.49651527 C-643.43040894 1372.34215981 -643.43040894 1372.34215981 -645.05587769 1371.16448402 C-655.53881283 1363.42180109 -663.0423151 1357.26718595 -666.83712769 1344.49651527 C-669.54823574 1335.35980407 -669.54823574 1335.35980407 -675.83712769 1328.49651527 C-685.5442253 1324.57634124 -695.08717357 1326.67648963 -704.83712769 1329.49651527 C-706.12238535 1330.04733999 -707.39721861 1330.62460962 -708.64962769 1331.24651527 C-712.88552842 1332.90765282 -715.41365816 1332.35016729 -719.83712769 1331.49651527 C-717.83712769 1329.49651527 -717.83712769 1329.49651527 -714.08712769 1328.30901527 C-706.05597202 1325.34255237 -702.25786875 1317.61865098 -698.42697144 1310.36760902 C-696.45788998 1306.0075822 -695.63425558 1301.49236318 -694.77462769 1296.80901527 C-693.38153784 1289.25739047 -691.51983073 1283.70890131 -686.83712769 1277.49651527 C-686.15392456 1276.48975746 -685.47072144 1275.48299965 -684.76681519 1274.44573402 C-680.67816338 1268.61192597 -676.96544681 1264.23379141 -670.68478394 1260.77776527 C-668.46748087 1259.24018513 -667.75406606 1258.01445715 -666.83712769 1255.49651527 C-667.04890633 1250.51971708 -668.6025266 1248.17066145 -671.83712769 1244.49651527 C-673.38250635 1243.17978957 -674.96788245 1241.90876287 -676.58712769 1240.68401527 C-685.08172249 1233.95550021 -690.6730512 1227.73416346 -695.69284058 1218.1312809 C-698.50849077 1212.71297968 -698.50849077 1212.71297968 -702.83712769 1208.49651527 C-706.2458062 1207.61473677 -706.2458062 1207.61473677 -710.02462769 1207.30901527 C-710.68793091 1207.23569984 -711.35123413 1207.16238441 -712.03463745 1207.08684731 C-713.96727253 1206.87558665 -715.90219989 1206.68562859 -717.83712769 1206.49651527 C-719.64984634 1206.29009312 -721.46239634 1206.08217274 -723.27462769 1205.87151527 C-724.45025269 1205.74776527 -725.62587769 1205.62401527 -726.83712769 1205.49651527 C-721.00046921 1197.47110987 -713.35675226 1195.20083454 -704.26681519 1191.78948402 C-702.01328416 1190.93991823 -699.76799266 1190.06810301 -697.53244019 1189.17229652 C-692.16183675 1187.02791889 -686.99322679 1185.22881104 -681.33712769 1183.99651527 C-676.46369259 1182.81507646 -673.66675856 1181.87787921 -670.83712769 1177.49651527 C-667.2516436 1168.05219762 -666.82464353 1158.19408392 -666.59640503 1148.19964027 C-666.34414839 1137.82108122 -665.3489827 1127.95262313 -663.12106323 1117.80413246 C-661.71119196 1111.14806603 -661.44896872 1105.80165566 -664.14962769 1099.37151527 C-671.80993927 1091.17676334 -683.71979368 1088.81265597 -694.17819214 1085.94402504 C-695.15232056 1085.66872963 -696.12644897 1085.39343422 -697.13009644 1085.10979652 C-698.01205688 1084.87043373 -698.89401733 1084.63107094 -699.80270386 1084.38445473 C-700.47406372 1084.09143471 -701.14542358 1083.79841469 -701.83712769 1083.49651527 C-702.33212769 1082.01151527 -702.33212769 1082.01151527 -702.83712769 1080.49651527 C-701.97990112 1080.01182777 -701.12267456 1079.52714027 -700.23947144 1079.02776527 C-692.39636773 1074.47755021 -685.50773822 1070.08051911 -681.46212769 1061.62151527 C-680.5882975 1057.25236436 -680.11984676 1052.94112208 -679.83712769 1048.49651527 C-679.7385144 1047.2512809 -679.7385144 1047.2512809 -679.63790894 1045.98089027 C-678.95622564 1031.03087051 -689.8529012 1017.83550203 -697.89962769 1005.99651527 C-710.47282336 987.382254 -722.1324192 961.65529534 -717.83712769 938.49651527 C-716.32728588 935.02502295 -714.28593049 932.36439155 -711.83712769 929.49651527 C-710.82199097 928.24354652 -710.82199097 928.24354652 -709.78634644 926.96526527 C-701.80535342 917.55251329 -692.21044793 911.9994349 -681.33712769 906.43401527 C-670.1603143 900.55708259 -660.46034668 893.62838724 -650.83712769 885.49651527 C-650.20097534 884.98669106 -649.564823 884.47686684 -648.90939331 883.9515934 C-645.19067834 880.92109487 -642.67632602 878.21427996 -640.46212769 873.87151527 C-639.73896362 872.49092934 -639.73896362 872.49092934 -639.00119019 871.08245277 C-636.66684099 865.89675086 -636.85135529 861.37894985 -637.12619019 855.76995277 C-638.45769648 819.81167291 -638.45769648 819.81167291 -627.14474487 807.03655434 C-620.95899795 799.75132439 -618.29784759 789.49942873 -618.51290894 780.08635902 C-619.39818838 773.01478947 -621.6056298 765.87432562 -624.64962769 759.43401527 C-626.01462247 756.05744922 -625.94522906 754.90524618 -624.83712769 751.49651527 C-623.12228394 749.75823402 -623.12228394 749.75823402 -620.89962769 748.18401527 C-619.68146362 747.28682777 -619.68146362 747.28682777 -618.43869019 746.37151527 C-617.15091675 745.44339027 -617.15091675 745.44339027 -615.83712769 744.49651527 C-604.3578156 736.15821738 -604.3578156 736.15821738 -597.12228394 724.30510902 C-596.76721883 722.223227 -596.76721883 722.223227 -596.83712769 719.49651527 C-601.26922611 715.32446344 -606.50580032 715.71583169 -612.30587769 715.21917152 C-616.17300283 714.42777976 -617.50594638 713.6225523 -619.83712769 710.49651527 C-619.89962769 708.49651527 -619.89962769 708.49651527 -618.83712769 706.49651527 C-615.43074211 703.29050532 -609.6938401 698.49651527 -604.83712769 698.49651527 C-604.15366087 696.83666729 -603.49124453 695.16814722 -602.83712769 693.49651527 C-602.51228394 692.70245277 -602.18744019 691.90839027 -601.85275269 691.09026527 C-600.07806944 684.81061687 -599.75101025 678.27700178 -599.15744019 671.79339027 C-598.45688393 665.15402754 -597.36651214 660.20621444 -593.83712769 654.49651527 C-590.40704112 652.78147199 -586.60240001 653.22116373 -582.83712769 653.49651527 C-580.83712769 654.16318194 -578.83712769 654.82984861 -576.83712769 655.49651527 C-570.7857617 656.39175481 -566.61253157 655.53079956 -561.62228394 651.96917152 C-555.71927706 647.09951377 -553.0786555 641.92597536 -551.83712769 634.49651527 C-551.61335392 629.81672477 -551.65503402 625.17699697 -551.83712769 620.49651527 C-550.74915894 620.66796059 -549.66119019 620.8394059 -548.54025269 621.01604652 C-543.73050245 621.44725415 -539.25356555 621.69286206 -534.83712769 619.49651527 C-531.43560034 615.51433072 -529.41490361 610.78941769 -527.16964722 606.09588051 C-523.55209435 598.85890684 -523.55209435 598.85890684 -519.42306519 596.76604652 C-516.1635659 596.39447832 -513.10969479 596.38474727 -509.83712769 596.49651527 C-506.35006083 595.09153115 -506.35006083 595.09153115 -503.83712769 593.49651527 C-502.84712769 593.16651527 -501.85712769 592.83651527 -500.83712769 592.49651527 C-499.72342133 590.52302419 -499.72342133 590.52302419 -499.02462769 588.05901527 C-498.75005737 587.25592934 -498.47548706 586.4528434 -498.19259644 585.62542152 C-497.18323722 576.74084203 -501.19022389 568.86167902 -504.96212769 561.05901527 C-505.88638945 559.12519485 -506.80589944 557.18909395 -507.71994019 555.25042152 C-508.12615601 554.40809975 -508.53237183 553.56577797 -508.95089722 552.69793129 C-509.83712769 550.49651527 -509.83712769 550.49651527 -509.83712769 547.49651527 C-506.50184702 547.42875562 -503.17273921 547.45832125 -499.83712769 547.49651527 C-498.72079956 547.47717934 -497.60447144 547.4578434 -496.45431519 547.43792152 C-493.08181551 547.49553826 -490.1057092 547.6522822 -486.83712769 548.49651527 C-485.13575231 550.33382528 -484.31482828 552.09789324 -483.25900269 554.35979652 C-479.56233957 559.91494686 -470.53323407 562.93804723 -464.10665894 564.25042152 C-452.85533444 565.66448984 -452.85533444 565.66448984 -442.83712769 561.49651527 C-439.25187624 556.49802979 -437.66319278 551.03466901 -436.52462769 545.05901527 C-435.34706063 539.92771748 -435.34706063 539.92771748 -433.19259644 538.10589027 C-431.05334112 537.24512482 -429.11685674 536.83293362 -426.83712769 536.49651527 C-425.69244019 536.22387856 -425.69244019 536.22387856 -424.52462769 535.94573402 C-421.32483409 535.3241525 -418.94882464 534.86333136 -416.04025269 536.51995277 C-414.57535491 537.77454344 -413.20093178 539.13271118 -411.83712769 540.49651527 C-409.12503926 541.40054475 -407.33320019 541.68830652 -404.52462769 541.74651527 C-403.41667847 541.78518715 -403.41667847 541.78518715 -402.28634644 541.82464027 C-397.74305068 541.21596907 -394.6848354 539.57450579 -391.85275269 535.97307777 C-390.97876831 534.56155434 -390.97876831 534.56155434 -390.08712769 533.12151527 C-384.28376323 524.76334901 -376.43852085 522.51260532 -367.08712769 519.39104652 C-364.68442615 518.60771103 -364.68442615 518.60771103 -362.83712769 516.49651527 C-362.9741336 513.99319568 -362.9741336 513.99319568 -363.46212769 511.12151527 C-364.28423568 502.9787313 -362.39892088 495.27706989 -357.21212769 488.80901527 C-353.84332087 485.52886127 -352.05618713 485.40008363 -347.4291687 485.25725746 C-333.81106305 484.8073696 -317.55952564 482.84221089 -307.27462769 473.05901527 C-305.56948778 470.01941806 -304.90845894 467.99174667 -304.83712769 464.49651527 C-306.79332912 459.58943372 -309.2283401 456.94401384 -313.33712769 453.68401527 C-313.86467651 453.25806068 -314.39222534 452.83210609 -314.9357605 452.39324379 C-316.56097623 451.08312585 -318.19685245 449.78771138 -319.83712769 448.49651527 C-338.03126806 434.15298662 -338.03126806 434.15298662 -342.83712769 423.49651527 C-342.42697144 421.29729652 -342.42697144 421.29729652 -341.83712769 419.49651527 C-340.72639893 419.26315468 -340.72639893 419.26315468 -339.5932312 419.02507973 C-336.19195187 418.30148802 -332.79596545 417.55544308 -329.39962769 416.80901527 C-328.23495972 416.56473793 -327.07029175 416.32046059 -325.87033081 416.0687809 C-317.43874109 414.1924553 -309.52237705 411.99245941 -303.77462769 405.18401527 C-301.38395051 401.3572716 -300.86592661 397.89700155 -301.83712769 393.49651527 C-302.96719221 390.93568236 -304.27378262 388.84153287 -305.83712769 386.49651527 C-304.9051355 386.47073402 -303.97314331 386.44495277 -303.01290894 386.41839027 C-296.30355117 386.11989509 -290.44266689 385.60144379 -284.02462769 383.43401527 C-275.44091584 380.57972274 -268.92359747 381.21350247 -260.14962769 382.99651527 C-246.65976692 385.8042607 -246.65976692 385.8042607 -233.65744019 382.90667152 C-226.08918431 376.43906228 -225.4761555 367.89056734 -223.85861206 358.56487465 C-222.15660796 349.50471143 -219.28696864 341.48495645 -212.83712769 334.68401527 C-212.15134644 333.95053871 -211.46556519 333.21706215 -210.75900269 332.46135902 C-208.47006645 330.12124739 -206.15177325 327.81116084 -203.83712769 325.49651527 C-200.12510683 321.16342335 -200.12510683 321.16342335 -198.39962769 315.87151527 C-199.26084157 309.22786529 -204.37956342 304.87061634 -209.02462769 300.37151527 C-213.92688577 295.54381625 -215.68616884 291.27569649 -217.21212769 284.62151527 C-218.79369853 277.9289734 -220.9938372 272.39204226 -226.83712769 268.49651527 C-235.12113638 266.95898283 -241.59108728 270.16300637 -248.83712769 273.80901527 C-267.75552264 283.11216 -267.75552264 283.11216 -278.83712769 282.49651527 C-279.00728394 281.80428871 -279.17744019 281.11206215 -279.35275269 280.39885902 C-279.87103558 278.30642968 -280.39501671 276.21540777 -280.92306519 274.12542152 C-281.54478422 271.65714383 -282.15369265 269.18561164 -282.75119019 266.71135902 C-286.2468635 252.73495791 -286.2468635 252.73495791 -294.83712769 241.49651527 C-294.83712769 240.83651527 -294.83712769 240.17651527 -294.83712769 239.49651527 C-295.41366089 239.21203529 -295.99019409 238.92755531 -296.584198 238.63445473 C-300.30795873 236.75360852 -303.93947408 234.70750939 -307.58712769 232.68401527 C-308.36056519 232.25798012 -309.13400269 231.83194496 -309.93087769 231.39299965 C-314.4089139 228.90979332 -318.76987284 226.32372445 -323.04611206 223.50554848 C-328.20976712 220.59641729 -333.06314622 221.35783701 -338.58712769 222.55901527 C-348.79129286 225.42693623 -357.1788542 230.26189942 -365.20993042 237.06902504 C-368.90387435 240.11698808 -372.13129346 241.6124554 -376.83712769 242.49651527 C-380.67010557 241.28273894 -384.58598943 240.01391881 -386.83712769 236.49651527 C-386.13995726 231.37336894 -382.58057365 228.73426766 -378.83712769 225.49651527 C-376.08731871 223.41198266 -373.29232019 221.40197484 -370.48556519 219.39495277 C-362.813928 213.89581461 -357.8865062 208.64465082 -354.83712769 199.49651527 C-354.04245757 190.86211881 -355.78894112 182.84775214 -357.83712769 174.49651527 C-357.17712769 174.82651527 -356.51712769 175.15651527 -355.83712769 175.49651527 C-350.53200108 175.86615372 -350.53200108 175.86615372 -345.52853394 174.48089027 C-342.06747704 173.21501751 -339.26011626 173.41164228 -335.58712769 173.55901527 C-328.10671043 173.71550175 -322.57856829 172.6223338 -316.08712769 168.93401527 C-308.22320653 160.41476735 -307.31379462 149.51749292 -305.83712769 138.49651527 C-301.78175034 139.00781501 -299.83894105 139.98481107 -297.02462769 142.93401527 C-296.42005737 143.55147621 -295.81548706 144.16893715 -295.19259644 144.80510902 C-293.83712769 146.49651527 -293.83712769 146.49651527 -293.83712769 148.49651527 C-293.27251831 148.7569059 -292.70790894 149.01729652 -292.12619019 149.28557777 C-289.62096702 150.61086648 -287.48325924 152.17741389 -285.21212769 153.87151527 C-278.73905529 158.43015045 -272.48456361 161.17773066 -264.64962769 162.37151527 C-257.28029148 163.5792676 -250.66020794 166.58843256 -243.83712769 169.49651527 C-227.60084244 176.47241439 -227.60084244 176.47241439 -211.08712769 182.74651527 C-209.95790894 183.14354652 -208.82869019 183.54057777 -207.66525269 183.94964027 C-204.9424835 184.70084507 -204.9424835 184.70084507 -202.75509644 183.88323402 C-200.29426048 182.10401455 -198.11419992 180.13709616 -195.89962769 178.05901527 C-190.44008738 172.93700451 -186.47110715 170.39088681 -179.02462769 169.18401527 C-171.87018648 167.73814391 -166.74500518 165.63400954 -162.46994019 159.55120277 C-161.20603135 157.45950587 -161.20603135 157.45950587 -159.83712769 154.49651527 C-151.44535372 154.80732172 -146.13162204 158.58691212 -139.31759644 163.20354652 C-131.55629677 168.35835275 -123.41833681 171.95420937 -114.83712769 175.49651527 C-95.70409684 157.59520539 -95.70409684 157.59520539 -85.64962769 134.68401527 C-88.95518451 119.49058436 -99.25086473 112.16179411 -111.39572144 103.94573402 C-115.15323277 101.33355458 -118.66065945 98.45423945 -122.14962769 95.49651527 C-122.71907104 95.01529213 -123.2885144 94.53406898 -123.87521362 94.03826332 C-125.21844038 92.88344639 -126.53124365 91.69339753 -127.83712769 90.49651527 C-127.83712769 90.16651527 -127.83712769 89.83651527 -127.83712769 89.49651527 C-123.32107482 89.06326918 -118.80448615 88.63628968 -114.287323 88.21477699 C-112.75493915 88.070935 -111.22270703 87.92546604 -109.69064331 87.77825356 C-101.3896991 86.98175303 -93.18768923 86.29729711 -84.83712769 86.49651527 C-84.58157104 85.81476234 -84.3260144 85.13300941 -84.06271362 84.43059731 C-82.92049403 81.6960963 -81.61637975 79.10249392 -80.23648071 76.48189735 C-75.1726721 66.78982221 -71.31329104 56.75850916 -67.61740112 46.47942543 C-66.588877 43.62636775 -65.53825363 40.78213883 -64.48556519 37.93792152 C-60.73992368 27.68362386 -57.65973202 17.5651505 -55.537323 6.85149574 C-54.83712769 3.49651527 -54.83712769 3.49651527 -53.83712769 1.49651527 C-35.90027284 0.52608666 -17.96054775 0.12765694 0 0 Z " fill="#000000" transform="translate(785.8371276855469,-0.49651527404785156)"/>
</svg>
