<?xml version="1.0" encoding="UTF-8"?>
<svg version="1.1" xmlns="http://www.w3.org/2000/svg" width="632" height="265">
<path d="M0 0 C9.65830326 0.56813549 19.31917502 4.07479216 27 10 C26.54657425 12.64498351 26.0808547 14.83829059 24.875 17.25 C23.56651031 21.36239616 23.92957275 24.84760434 25 29 C28.73441033 35.97089929 34.87207425 40.17297469 41 45 C42.53239341 46.23580114 44.05469051 47.48432051 45.5625 48.75 C46.49255859 49.51570313 46.49255859 49.51570313 47.44140625 50.296875 C49.32759801 52.35797678 50.021096 54.40406416 51 57 C39.80416079 62.99503042 28.58046101 67.49951988 16.5 71.375 C14.90589946 71.89867373 13.31214776 72.42341053 11.71875 72.94921875 C10.17739203 73.45406846 8.63573586 73.95800886 7.09375 74.4609375 C6.3977771 74.68800385 5.7018042 74.91507019 4.98474121 75.14901733 C-9.32005565 79.73418098 -9.32005565 79.73418098 -17 78 C-24.4413697 74.13621189 -27.35649345 67.64795711 -30.4375 60.25 C-32.79525369 54.68293949 -35.2943758 49.29880326 -38.25 44.015625 C-39 42 -39 42 -38.98046875 40.05078125 C-37.48450206 36.92176726 -34.96035812 35.06880561 -32.3125 32.9375 C-31.44878784 32.22231201 -31.44878784 32.22231201 -30.56762695 31.49267578 C-26.93235945 28.50227227 -23.21996288 25.62039617 -19.484375 22.75708008 C-11.21889247 16.3996213 -3.46412433 10.17586521 0 0 Z " fill="#000000" transform="translate(39,0)"/>
<path d="M0 0 C0.495 1.485 0.495 1.485 1 3 C0.03320312 3.14695313 -0.93359375 3.29390625 -1.9296875 3.4453125 C-10.89557907 4.93924322 -19.45591557 6.82138126 -25.734375 13.9765625 C-27.70610358 17.128894 -27.50929511 19.37127235 -27 23 C-24.48167576 26.51039137 -22.89472645 27.7805388 -18.6875 28.8125 C-14.98173237 29.10768333 -14.98173237 29.10768333 -11.25 28.53515625 C-7.4215689 28.53118164 -5.81641459 29.62658814 -3.11328125 32.2890625 C-1.82403722 33.71450359 -0.55749488 35.16075268 0.6875 36.625 C1.32494141 37.33785156 1.96238281 38.05070312 2.61914062 38.78515625 C3.86445098 40.18596976 5.09568976 41.59944213 6.3112793 43.02612305 C7.36902155 44.26247495 8.44838854 45.4809935 9.55786133 46.67114258 C11.67864455 48.99608543 12.92573254 50.62971615 13.55078125 53.74609375 C12.97555351 60.24333823 11.37011151 63.70485528 6.59375 68.1484375 C-0.2235735 70.38665515 -8.8083684 64.25263621 -14.8125 61.25 C-29.73164067 53.98094914 -46.84065858 45.87517795 -63.83203125 47.22265625 C-69.92633458 46.59675483 -74.15868777 42.3466259 -78.375 38.3125 C-78.92027344 37.80138672 -79.46554687 37.29027344 -80.02734375 36.76367188 C-81.35739035 35.5152948 -82.6795319 34.25850439 -84 33 C-83.13402243 28.43247752 -80.68720201 25.70649037 -77 23 C-74.17346962 21.79739717 -71.3083599 21.14850368 -68.3125 20.5 C-56.29226962 17.46402493 -48.28072133 13.28584831 -40.40869141 3.58203125 C-36.77130751 -0.75470203 -33.36658901 -2.38850106 -28 -4 C-26.824375 -4.45375 -25.64875 -4.9075 -24.4375 -5.375 C-16.9088021 -7.18968615 -6.08410471 -4.54896883 0 0 Z " fill="#000000" transform="translate(619,196)"/>
<path d="M0 0 C-0.165 0.94875 -0.33 1.8975 -0.5 2.875 C-1.88965417 12.91099669 -1.88965417 12.91099669 1.44140625 22.22265625 C3.51818093 24.59090808 5.89219025 26.48703551 8.3125 28.5 C12.96009113 32.50513 12.96009113 32.50513 13.3125 36.875 C12.09274225 39.77918513 11.23607734 40.94256245 9 43 C8.23816406 42.566875 7.47632813 42.13375 6.69140625 41.6875 C-2.18066958 36.7484435 -2.18066958 36.7484435 -12 37 C-14.98119541 39.22976163 -14.98119541 39.22976163 -17 42 C-17.66 42.66 -18.32 43.32 -19 44 C-21.125 43.625 -21.125 43.625 -23 43 C-23.26554687 41.90300781 -23.53109375 40.80601563 -23.8046875 39.67578125 C-24.16126815 38.22130753 -24.5180496 36.76688302 -24.875 35.3125 C-25.04902344 34.59126953 -25.22304688 33.87003906 -25.40234375 33.12695312 C-26.35324462 29.27052182 -27.47182618 25.67552152 -29 22 C-29.74849969 18.1826516 -29.48583007 15.89947967 -27.6328125 12.46875 C-22.58900605 5.35300646 -17.38880107 2.83975085 -9 1 C-8.13761719 0.80535156 -7.27523437 0.61070313 -6.38671875 0.41015625 C-4 0 -4 0 0 0 Z " fill="#000000" transform="translate(522,74)"/>
</svg>
