<?xml version="1.0" encoding="UTF-8"?>
<svg version="1.1" xmlns="http://www.w3.org/2000/svg" width="1764" height="1438">
<path d="M0 0 C-0.02618408 0.60996826 -0.05236816 1.21993652 -0.0793457 1.84838867 C-0.18365719 4.62782758 -0.24842982 7.40685439 -0.3125 10.1875 C-0.3753418 11.62706055 -0.3753418 11.62706055 -0.43945312 13.09570312 C-0.56946146 19.05155466 -0.56946146 19.05155466 2.39453125 24.11328125 C6.69655257 27.22853807 9.95481519 27.18986542 15.12890625 27.23828125 C15.95140366 27.246353 16.77390106 27.25442474 17.62132263 27.26274109 C19.37407317 27.27660103 21.12685092 27.2873146 22.87963867 27.29516602 C24.64144001 27.30654903 26.40321077 27.32677607 28.16479492 27.35668945 C47.74135662 27.68887303 63.23296194 23.38512305 81.203125 15.80273438 C93.17093756 10.99866147 104.76131983 10.31675205 117.5 11.6875 C118.32757812 11.75388672 119.15515625 11.82027344 120.0078125 11.88867188 C125.68131115 12.46052452 129.20806402 13.92517441 134 17 C138.92624973 19.77478556 143.60017668 20.939122 149.0625 22.125 C157.71246685 24.12684487 165.60367229 27.09675452 173.66821289 30.78955078 C183.67631873 35.39744201 183.67631873 35.39744201 194.4375 37 C197.86941974 35.66071425 198.46994096 34.31814578 200 31 C200.14855798 27.63654446 200.14855798 27.63654446 199.6875 24.1875 C199.56761719 23.02605469 199.44773437 21.86460938 199.32421875 20.66796875 C199.21722656 19.78753906 199.11023437 18.90710938 199 18 C201.60219103 21.03588954 202.93542787 22.72787461 203.875 26.6875 C204.64944636 30.15039934 204.64944636 30.15039934 207.4375 31.4375 C216.75728295 32.90904468 225.51880255 31.62844097 234.74267578 30.06762695 C242.63561883 28.76246414 249.4181881 28.66530753 257.3125 30.4375 C268.86378148 33.02248948 280.52512324 33.21390511 292.3125 33.5 C302.57157357 33.75087896 312.76786349 34.16859477 323 35 C323.125 38.375 323.125 38.375 323 42 C320.79918066 44.20081934 319.91309364 44.43647867 316.96484375 45.11328125 C315.75622681 45.40356201 315.75622681 45.40356201 314.52319336 45.69970703 C313.66991455 45.90192871 312.81663574 46.10415039 311.9375 46.3125 C299.90115473 49.08194653 299.90115473 49.08194653 291 57 C290.75892674 59.28648848 290.75892674 59.28648848 290.875 61.6875 C290.90207031 62.89986328 290.90207031 62.89986328 290.9296875 64.13671875 C290.95289063 64.75160156 290.97609375 65.36648437 291 66 C296.66031262 68.32477125 301.30885822 69.1533145 307.4375 69.3125 C323.28021471 69.96867421 337.47820974 77.31536184 351.6105957 83.94848633 C357.51152259 86.67322064 362.4775414 88.70497437 369 89 C369.6496875 87.8553125 369.6496875 87.8553125 370.3125 86.6875 C371.74930797 84.39925026 373.07287662 82.8407537 375 81 C375.99966797 81.92619141 375.99966797 81.92619141 377.01953125 82.87109375 C390.46019397 95.22146495 404.58177572 106.082094 420.15625 115.60546875 C422.47091105 117.02670228 424.68341797 118.48225058 426.90625 120.05078125 C434.43140762 125.34332433 442.14109749 127.23353525 451 129 C452.43360758 129.30201767 453.86720134 129.60410098 455.30078125 129.90625 C467.94142652 132.47114447 475.7207625 132.9201119 487 126 C491.49701997 122.87495222 495.7537628 119.45398623 500 116 C500.89203125 115.34128906 501.7840625 114.68257813 502.703125 114.00390625 C511.86366138 106.01180563 517.30853011 86.6052084 520 75 C520.66 75 521.32 75 522 75 C522.40726318 76.0516333 522.81452637 77.1032666 523.23413086 78.18676758 C525.12654192 83.06542492 527.02967789 87.93985026 528.9375 92.8125 C529.27814484 93.68291931 529.61878967 94.55333862 529.96975708 95.45013428 C534.14205136 106.08417545 538.3517031 116.63908386 543.56030273 126.81958008 C545.29896092 130.24969884 546 132.05160274 546 136 C545.21496094 136.38671875 544.42992187 136.7734375 543.62109375 137.171875 C532.42588837 141.88332789 532.42588837 141.88332789 524 150 C522.01661545 164.70563502 526.54054789 177.08627161 535 189 C535.9590625 190.36898437 535.9590625 190.36898437 536.9375 191.765625 C538.12190222 193.45339816 539.3148323 195.13524761 540.51953125 196.80859375 C542.96174318 200.42358291 544.23886463 203.04398161 544.2734375 207.44921875 C544.2940625 208.29806641 544.3146875 209.14691406 544.3359375 210.02148438 C544.36169162 211.77920273 544.38009091 213.53704642 544.390625 215.29492188 C544.63707397 224.37930493 547.77838286 230.85820409 553.25 238.0625 C553.95640625 239.00222656 554.6628125 239.94195312 555.390625 240.91015625 C555.92171875 241.59980469 556.4528125 242.28945312 557 243 C563.53944449 241.97633005 569.01924189 239.36523829 574 235 C576.2120271 230.48193465 577.1129556 225.92981643 578 221 C580.33062907 210.04739054 580.33062907 210.04739054 584.0625 206.8125 C587 205 587 205 589 205 C589.3403125 206.26972656 589.680625 207.53945312 590.03125 208.84765625 C593.16997432 220.14001295 597.13060858 229.88621396 603 240 C608.69204516 250.35717495 613.02146768 261.96583384 612 274 C610.56469218 277.06124246 608.59418952 278.87845785 606 281 C604.62411309 282.18647227 603.24913009 283.37399348 601.875 284.5625 C601.19953125 285.14515625 600.5240625 285.7278125 599.828125 286.328125 C594.43335962 291.26179932 592.54408602 296.87136275 592 304 C592.21279166 306.89178408 592.93822063 309.3094717 594 312 C594.42925781 313.10214844 594.42925781 313.10214844 594.8671875 314.2265625 C601.6346236 329.39154705 617.32199996 348.64152682 633 355 C634.04800781 355.51046875 634.04800781 355.51046875 635.1171875 356.03125 C638.51444326 357.17287524 641.74773417 357.53815688 645.29931641 357.93701172 C666.23356523 360.30825284 666.23356523 360.30825284 672.73046875 368.06640625 C674.57624441 372.33156785 674.84491041 376.45657324 675.1875 381.0625 C675.27008057 382.05386963 675.35266113 383.04523926 675.43774414 384.06665039 C676.1400259 393.54489113 676.1017596 403.00914793 675.83862305 412.50610352 C675.69632396 420.39264748 675.91572759 426.3554453 681.21484375 432.6171875 C684.61182494 435.5234407 688.06141802 438.34547992 691.5625 441.125 C708.67380266 454.88045182 708.67380266 454.88045182 714.68359375 462.19921875 C717.98783166 466.19439342 720.27092503 467.77993591 725.4375 468.4375 C729.77026419 467.90540615 731.58672986 466.70162308 735 464 C736.56013482 461.6958863 737.86188168 459.57326637 739.125 457.125 C739.77127107 455.91810824 740.41969612 454.71236733 741.0703125 453.5078125 C741.38387695 452.92418945 741.69744141 452.34056641 742.02050781 451.73925781 C745.57840617 445.42159383 745.57840617 445.42159383 748 443 C752.08185169 442.59981846 754.52749695 442.77283507 758.25 444.5625 C761.53817244 447.47701648 762.51399883 449.89580628 764 454 C766.0889723 458.74755895 766.0889723 458.74755895 770 462 C771.258125 462.185625 772.51625 462.37125 773.8125 462.5625 C777.67178629 463.45147637 779.00274006 464.88371803 781.125 468.1875 C781.60582031 468.99316406 782.08664062 469.79882812 782.58203125 470.62890625 C786.31918489 476.87808603 791.19912611 481.1653503 797.046875 485.421875 C800.12449896 487.90859516 800.95148834 489.67048007 801.52734375 493.58203125 C801.74423964 495.69726362 801.93758177 497.8134339 802.12304688 499.93164062 C802.59685985 504.49475842 803.28189719 508.16634249 806 512 C809.25557525 513.59046402 809.25557525 513.59046402 813.0625 514.5 C826.98347165 518.61165127 838.1462464 527.13386392 847.46484375 538.21484375 C852.16500801 543.68042916 857.11320128 546.11760835 864 548 C863.93039062 549.55847656 863.93039062 549.55847656 863.859375 551.1484375 C863.51834676 561.90503671 864.36591468 569.85145052 871.375 578.5 C876.02305329 583.4479277 881.5286053 587.14498552 887.12109375 590.93359375 C890 593 890 593 891 595 C892.39531383 605.94324701 888.17027543 614.64508641 883.39819336 624.24047852 C879.74916277 631.64268435 877.62937895 638.88211839 875.7734375 646.91674805 C873.96743461 654.57221011 871.59898078 660.95729079 866.4375 667 C863.21281051 670.96884861 861.69252703 675.21553812 860 680 C855.18910843 679.50176735 850.75265851 678.73929845 846.11474609 677.38671875 C837.32188839 674.84919712 831.07846712 674.55842927 822.75 678.5625 C813.72984436 686.55763796 810.77844484 697.66643545 808.50390625 709.12109375 C808 711 808 711 806.375 713.5 C804.26268198 717.34057823 804.15676608 720.72617337 805 725 C807.91209596 731.20509899 813.64048401 735.45443191 818.66040039 739.92211914 C823.70333902 744.48228235 826.88380169 748.71706381 829.0625 755.125 C828.95913447 759.87981415 826.25255764 762.74744236 823 766 C818.15867485 767.47344679 815.29135934 766.438088 810.76953125 764.51953125 C806.51249318 762.18386438 802.98352446 759.12220639 799.34765625 755.92578125 C793.94834261 751.49672697 786.62484868 752.46502881 780 753 C774.97096217 754.46175347 771.85016264 756.58689225 769 761 C767.78325551 768.14385627 769.65199135 775.60024881 771.1875 782.5625 C771.41453613 783.61099121 771.64157227 784.65948242 771.87548828 785.73974609 C775.58865174 802.52468197 780.12550949 817.21142443 789.6875 831.6875 C798.46701461 845.17315082 797.34226557 857.12062392 795.51074219 872.46899414 C795.2494636 874.6920639 795.0113003 876.91689685 794.7734375 879.14257812 C794.60557922 880.57829085 794.43635536 882.01384473 794.265625 883.44921875 C794.11899414 884.73143311 793.97236328 886.01364746 793.82128906 887.3347168 C792.84208188 891.70476357 791.56189706 894.3339573 789 898 C786.043696 898.6402187 784.06133177 898.85236753 781.125 898.75 C775.73122864 898.67995102 771.63364098 898.93873569 767 902 C765.74415651 903.73839242 765.74415651 903.73839242 765.25 905.75 C765.02699219 906.44996094 764.80398438 907.14992188 764.57421875 907.87109375 C764.04203602 909.84415217 763.55048022 911.82804711 763.0625 913.8125 C762 917 762 917 760.4375 918.8125 C753.1981708 922.33935269 744.90557017 922.49168923 737 923 C738.53048841 940.12375637 738.53048841 940.12375637 746.58911133 954.35107422 C748 956 748 956 748.15698242 958.17651367 C748.05748291 958.99869385 747.9579834 959.82087402 747.85546875 960.66796875 C747.70561523 962.00698242 747.70561523 962.00698242 747.55273438 963.37304688 C747.43220703 964.30181641 747.31167969 965.23058594 747.1875 966.1875 C747.07857422 967.12787109 746.96964844 968.06824219 746.85742188 969.03710938 C746.58619592 971.36021861 746.29987972 973.68044459 746 976 C743.06938872 976.98406388 740.14056004 977.95711067 737.18359375 978.859375 C731.02081142 980.85811521 727.51937597 982.48631098 724 988 C721.64922596 995.05232211 723.38888833 1002.44713637 724.75 1009.5625 C724.90726563 1010.46935547 725.06453125 1011.37621094 725.2265625 1012.31054688 C726.39297202 1018.49700354 727.8062121 1024.22588579 732.75390625 1028.5234375 C740.85177469 1032.33625677 748.79659842 1033.02684676 757.27709961 1030.05517578 C759.09696212 1029.34994438 760.89328757 1028.58082054 762.66015625 1027.75170898 C770.27380865 1024.21782751 776.72205787 1023.22980046 785.0625 1023.1875 C786.23119629 1023.16381348 787.39989258 1023.14012695 788.60400391 1023.11572266 C792.06953978 1023.05257479 795.533994 1023.0228394 799 1023 C800.9336033 1022.97334042 802.86719808 1022.94605054 804.80078125 1022.91796875 C817.7952278 1022.7885444 817.7952278 1022.7885444 823 1024 C831.62557638 1025.52123802 837.20413681 1022.10749908 844.44140625 1017.98046875 C850.50387555 1014.53286889 856.92392991 1011.86782879 864 1013 C867.2482086 1017.00185328 867.3287584 1020.27428369 867.1875 1025.3125 C867.16042969 1026.56675781 867.13335938 1027.82101562 867.10546875 1029.11328125 C867.07066406 1030.06589844 867.03585937 1031.01851562 867 1032 C857.70212396 1035.85365471 848.01096237 1035.97288492 838.09350586 1036.58129883 C818.53604954 1037.81708906 794.4139675 1041.23939921 779.625 1055.25 C776.73455704 1060.14151886 774.49153159 1065.33724253 773.45703125 1070.94140625 C771.02170704 1082.73427925 762.10066358 1090.61842435 753 1098 C748.31508394 1100.7854761 744.42399914 1101.9279152 739 1101 C736.39186349 1100.00850994 733.89572876 1098.91614378 731.39453125 1097.6796875 C728.96286851 1096.77938703 728.96286851 1096.77938703 726.32421875 1097.6328125 C723.62025134 1099.22338156 723.16663112 1100.14983535 722 1103 C721.58535117 1105.0341474 721.58535117 1105.0341474 721.4375 1107.15234375 C721.32535156 1108.31733398 721.32535156 1108.31733398 721.2109375 1109.50585938 C721.10652344 1110.70952148 721.10652344 1110.70952148 721 1111.9375 C720.16309963 1121.53860701 720.16309963 1121.53860701 718 1126 C717.38294189 1126.06469482 716.76588379 1126.12938965 716.13012695 1126.19604492 C691.51187684 1128.67058564 691.51187684 1128.67058564 668 1136 C667.59862651 1140.65593248 667.47796626 1143.04915282 669.75 1147.1875 C676.4823606 1154.08677863 688.87132283 1156.42729339 697.79321289 1159.41381836 C712.88609984 1164.54215094 712.88609984 1164.54215094 716.4375 1170.875 C717.01113281 1171.84695313 717.58476563 1172.81890625 718.17578125 1173.8203125 C719.07876953 1175.39425781 719.07876953 1175.39425781 720 1177 C726.02859255 1187.05954497 732.82218482 1195.83027186 740.72241211 1204.50463867 C746.94246494 1211.78494128 746.58036056 1224.16732408 746.35742188 1233.36694336 C745.29773573 1244.13824768 739.03653417 1253.8464311 733.875 1263.125 C729.42935463 1271.2166838 726.06243775 1278.56292914 725.25 1287.875 C724.55039993 1295.35212104 724.55039993 1295.35212104 722.19140625 1298.12890625 C719.46095017 1299.63088127 717.04178762 1300.31229149 714 1301 C712.7103923 1301.37654255 711.42272406 1301.75976972 710.13671875 1302.1484375 C698.23493917 1305.55637415 688.67402826 1305.52055479 676.625 1302.6875 C675.61493896 1302.45530762 674.60487793 1302.22311523 673.56420898 1301.98388672 C671.58499773 1301.52732973 669.6066785 1301.06688363 667.62939453 1300.60205078 C665.46927798 1300.10745028 663.29640474 1299.66888833 661.12109375 1299.24609375 C654.24863065 1297.85053611 649.56439549 1295.44216385 645 1290 C642.32550189 1285.7751996 642.24094497 1281.05762632 641.66015625 1276.19140625 C640.94769316 1272.74713204 640.18516364 1270.75151275 638 1268 C631.65067171 1263.92212155 625.30232383 1264.17654646 618 1265 C609.44812605 1267.37101718 600.88347093 1271.49457667 596 1279.125 C593.88533597 1285.35842143 593.76038241 1293.07078454 596.4375 1299.125 C598.93863329 1303.44595429 602.47954902 1306.91073571 605.875 1310.53515625 C611.19153838 1316.70194985 613.65208893 1323.86664865 613.609375 1331.9609375 C612.42722127 1337.85655031 607.92893393 1341.67303682 604 1346 C602.83700081 1347.55563567 601.70744102 1349.13727222 600.625 1350.75 C600.18414063 1351.40484375 599.74328125 1352.0596875 599.2890625 1352.734375 C595.95535481 1358.59361881 594.56470003 1363.0426152 594.8125 1369.8046875 C594.82385986 1370.52810333 594.83521973 1371.25151917 594.84692383 1371.99685669 C594.89543504 1375.05830187 594.97980073 1378.11848938 595.06152344 1381.17919922 C595.52964118 1400.40077059 595.52964118 1400.40077059 589.9375 1407.6875 C582.17943142 1413.79491569 573.58284495 1417.67354645 564.4375 1421.25 C563.36564453 1421.683125 562.29378906 1422.11625 561.18945312 1422.5625 C555.19742587 1424.93732181 549.40912106 1427.15052204 543 1428 C540.8359375 1426.9453125 540.8359375 1426.9453125 539.375 1425.125 C538.81683594 1424.46628906 538.25867187 1423.80757812 537.68359375 1423.12890625 C537.12800781 1422.42636719 536.57242187 1421.72382812 536 1421 C534.81522983 1419.68503531 533.62772527 1418.37252913 532.4375 1417.0625 C530.10978241 1414.39262347 528.02918637 1411.65114444 526 1408.75 C522.61322313 1404.20153186 519.18837049 1401.5959095 513.5546875 1400.54296875 C511.36643828 1400.28572942 509.20051902 1400.09979678 507 1400 C509.54972745 1397.45027255 511.51870145 1396.9195883 515 1396 C516.155 1396.04125 517.31 1396.0825 518.5 1396.125 C522.80616663 1395.97120833 524.60518751 1394.54610937 528 1392 C528.99 1391.67 529.98 1391.34 531 1391 C531.4852606 1383.58477976 531.4852606 1383.58477976 529.4375 1376.5625 C522.25714124 1369.01391772 511.09432969 1366.64980597 501 1366 C495.69285277 1366.37481508 490.92613952 1368.03075603 486 1370 C485.18917969 1370.30550781 484.37835937 1370.61101562 483.54296875 1370.92578125 C477.77434628 1373.42956194 473.32794865 1377.75057167 469.6875 1382.83203125 C463.80367486 1390.86975666 453.98411387 1392.52142057 444.75 1394.75 C436.55499502 1396.98832354 431.88084134 1401.64947436 427.26953125 1408.61328125 C425.80499733 1410.95497298 425.80499733 1410.95497298 425.875 1413.75 C428.73435013 1422.01034481 435.11857082 1427.24226271 442.05859375 1432.17578125 C442.69925781 1432.77777344 443.33992188 1433.37976562 444 1434 C444 1435.32 444 1436.64 444 1438 C406.36299266 1438.9582265 406.36299266 1438.9582265 391.25 1427.25 C390.5075 1426.5075 389.765 1425.765 389 1425 C389 1424.34 389 1423.68 389 1423 C387.78183594 1422.81824219 386.56367187 1422.63648438 385.30859375 1422.44921875 C383.68482008 1422.19579743 382.06112629 1421.9418639 380.4375 1421.6875 C379.23770508 1421.51057617 379.23770508 1421.51057617 378.01367188 1421.33007812 C372.91027888 1420.51770128 368.66340261 1419.23467749 364 1417 C364.42315028 1411.75092149 367.24838472 1408.56261463 370.375 1404.5625 C370.91157227 1403.86165283 371.44814453 1403.16080566 372.00097656 1402.4387207 C375.09218058 1398.41407473 378.22853977 1394.42455525 381.36987305 1390.43896484 C383.17768903 1388.14473666 384.97810271 1385.84473278 386.77880859 1383.54492188 C387.8749015 1382.15826136 388.99275907 1380.78887064 390.11328125 1379.421875 C398.6177296 1368.58253802 408.67194984 1351.36214414 408.2890625 1337.1953125 C407.70555549 1332.76381335 406.06744988 1328.66372785 404.5 1324.5 C404.16613281 1323.5821875 403.83226562 1322.664375 403.48828125 1321.71875 C402.67014864 1319.47472914 401.84061372 1317.2356748 401 1315 C401.90492188 1314.70996094 401.90492188 1314.70996094 402.828125 1314.4140625 C403.62734375 1314.15367188 404.4265625 1313.89328125 405.25 1313.625 C406.03890625 1313.36976562 406.8278125 1313.11453125 407.640625 1312.8515625 C412.19180766 1311.32076318 412.19180766 1311.32076318 415.25 1307.875 C415.4975 1307.25625 415.745 1306.6375 416 1306 C424.64604208 1308.3632515 424.64604208 1308.3632515 428.1875 1311.6875 C430.80778674 1314.20950355 430.80778674 1314.20950355 434.0625 1314.625 C438.00320026 1313.78655314 439.85211254 1312.2830052 442 1309 C445.0192791 1303.0692732 447.53872784 1297.76717781 447 1291 C444.7355987 1286.36827006 441.7484032 1283.97250909 437.75 1280.75 C433.20896769 1276.80243594 433.20896769 1276.80243594 432.31640625 1273.375 C432.31117491 1269.85953745 432.79871374 1266.76854753 433.6875 1263.375 C434.18123067 1259.62264694 432.82162722 1256.27459178 431 1253 C430.01 1252.34 429.02 1251.68 428 1251 C427.34 1251.33 426.68 1251.66 426 1252 C425.67 1251.34 425.34 1250.68 425 1250 C423.39620659 1249.94583812 421.79188594 1249.90713362 420.1875 1249.875 C418.84751953 1249.84019531 418.84751953 1249.84019531 417.48046875 1249.8046875 C414.74597286 1249.81714173 414.74597286 1249.81714173 412 1252 C410.07457293 1252.66125778 408.13507867 1253.28215215 406.1875 1253.875 C398.94738993 1256.23893955 394.23416814 1259.45793961 389 1265 C386.15978814 1257.00498804 384.05748066 1248.84854683 381.90029907 1240.65057373 C378.37754518 1227.30778587 374.72934137 1214.11888679 369.82666016 1201.20507812 C368.93996486 1198.83985901 368.09799043 1196.46161575 367.26171875 1194.078125 C362.20896782 1179.77462925 355.96602186 1167.20956904 347.42333984 1154.68920898 C337.05526045 1139.36326678 330.982445 1124.00893632 332.25 1105.3125 C335.11168664 1099.89573601 340.45590063 1099.00500891 346 1097 C354.14162744 1093.53711498 359.84709411 1087.18243005 363.23828125 1079.12109375 C365.64661561 1072.14177939 365.29652225 1065.41944726 365 1058.125 C364.89783579 1055.56578653 364.81374585 1053.00577097 364.75 1050.4453125 C364.70359375 1049.32656738 364.6571875 1048.20782227 364.609375 1047.05517578 C365.10013326 1043.21683276 366.26620683 1041.69572545 369 1039 C376.80874212 1034.36131237 386.59818292 1033.1622899 395.3671875 1031.37695312 C403.56591043 1029.60699353 411.22779922 1027.32312925 417.625 1021.6875 C420.18867254 1016.67668548 419.5822721 1012.92402953 418.01171875 1007.734375 C415.33864989 999.99238 415.33864989 999.99238 410 994 C395.85327037 988.05876061 380.44428553 992.10896481 366.25 995.6875 C357.95806699 997.63854306 348.4859044 999.0439944 340.83984375 994.453125 C334.50734779 989.45166322 329.02018456 982.94783138 327 975 C326.94204687 972.66738647 326.93223199 970.33234902 327 968 C329.05849723 966.92908765 331.12059744 965.86700907 333.1875 964.8125 C333.81591797 964.49007324 334.44433594 964.16764648 335.09179688 963.83544922 C339.30964215 961.71702693 343.50685198 960.10198637 348 958.625 C354.54394659 956.16606249 357.02015072 953.18751578 360 947 C360.55558594 945.97003906 361.11117188 944.94007813 361.68359375 943.87890625 C366.29149246 934.84401941 367.26594244 928.39597715 364.8125 918.625 C363.43658201 914.45138211 361.87562239 912.28562346 358 910 C352.19941148 907.09970574 343.51734752 908.57849669 337.5625 910.5 C336.76714844 910.76941406 335.97179688 911.03882813 335.15234375 911.31640625 C332.26489011 912.2334741 329.99357519 912.4989292 327 912 C323.26949488 909.51299659 322.40405 906.68223186 321.40576172 902.42138672 C320.62107786 897.73877871 320.66294487 893.04940684 320.6875 888.3125 C320.69023926 887.25192383 320.69297852 886.19134766 320.69580078 885.09863281 C320.81270097 876.3244005 321.17505214 866.64916954 326 859 C334.10292402 854.63053333 344.02413806 853.25353657 352.94726562 851.37695312 C359.34207285 849.93978579 364.89375485 848.2638689 370 844 C371.65419539 840.69160921 371.60658745 837.56221454 371 834 C366.50940523 823.32198266 357.60860105 814.53015937 347 810 C335.14786251 806.0492875 322.04942299 806.86086157 309.6875 806.9375 C308.2532568 806.94253243 306.81901185 806.94709221 305.38476562 806.95117188 C301.92314002 806.96202241 298.46158178 806.9791876 295 807 C294.70520752 807.9168457 294.41041504 808.83369141 294.10668945 809.77832031 C293.05262784 812.84679529 291.73814189 815.65944046 290.28515625 818.5559082 C286.72803621 825.6661924 283.60338783 832.86835634 280.83203125 840.31640625 C280.41983589 841.42044296 280.41983589 841.42044296 279.99931335 842.54678345 C278.62703824 846.2365205 277.27826668 849.93303558 275.95776367 853.64160156 C272.86742637 862.14421485 269.1466296 869.48942523 264.05615234 876.9699707 C261.64938511 880.51668029 259.5510505 884.14588201 257.5625 887.9375 C257.23830078 888.53111328 256.91410156 889.12472656 256.58007812 889.73632812 C252.60178432 897.22728382 250.79397422 904.58955705 252 913 C253.02721776 915.90100464 254.19303012 918.70194149 255.42797852 921.51953125 C258.05091887 927.68862551 259.7869236 934.01012214 261.4375 940.5 C261.70836426 941.52697998 261.97922852 942.55395996 262.25830078 943.61206055 C263.98116185 950.5747681 264.8880471 956.12631228 261.0390625 962.53515625 C260.24692461 963.71942863 259.441968 964.89521819 258.625 966.0625 C252.2330774 975.15063421 252.2330774 975.15063421 251 986 C251.53431801 988.53660445 252.12289449 990.90722017 252.875 993.375 C253.08697021 994.08833496 253.29894043 994.80166992 253.51733398 995.53662109 C255.64399639 1002.38831973 258.34624979 1008.98985843 261.0625 1015.625 C264.75096124 1024.64522261 268.13327679 1033.41240799 270 1043 C270.17917969 1043.75667969 270.35835937 1044.51335937 270.54296875 1045.29296875 C270.99598985 1048.58229584 270.21690452 1050.68754767 268.3605957 1053.36157227 C262.40691642 1060.56200481 256.04949228 1067.16145016 249.375 1073.6875 C228.97758257 1093.70682216 214.25035118 1116.03765897 203.125 1142.37890625 C202.66710083 1143.46051025 202.66710083 1143.46051025 202.19995117 1144.56396484 C201.62786097 1145.93288936 201.06720456 1147.30667622 200.52075195 1148.68603516 C198.12431936 1154.46887749 195.10463982 1158.30863732 189.30859375 1160.78515625 C183.81368707 1162.62108638 178.24358881 1162.43506611 172.50976562 1162.43945312 C164.19138775 1162.62515979 157.60579566 1165.20813804 151.1875 1170.5625 C150.35347656 1171.25730469 149.51945313 1171.95210937 148.66015625 1172.66796875 C145.25848882 1175.65004725 141.92868296 1178.70579453 138.60888672 1181.77807617 C116.7580257 1201.94837049 116.7580257 1201.94837049 101.1875 1202.0625 C79.10587045 1202.88258109 48.1854901 1210.09885157 32.24609375 1225.71875 C27.87672104 1229.87106964 23.29342526 1232.62811833 17.9375 1235.3125 C17.26452881 1235.65015381 16.59155762 1235.98780762 15.89819336 1236.33569336 C11.67153515 1238.37948295 7.5479756 1239.83491392 3 1241 C2.52433594 1240.07380859 2.52433594 1240.07380859 2.0390625 1239.12890625 C-1.91395026 1231.95451568 -6.73870854 1227.19841791 -13 1222 C-15.1105321 1220.17135403 -17.21104721 1218.33282935 -19.30078125 1216.48046875 C-20.68365293 1215.27562193 -22.1166356 1214.12847953 -23.5625 1213 C-25 1211 -25 1211 -24.875 1207.5625 C-24 1204 -24 1204 -22.875 1201.5 C-21.6251977 1197.92913629 -22.02707293 1195.63226104 -23 1192 C-30.79442019 1182.47348644 -45.18547884 1177.8689638 -57 1176 C-60.80022443 1175.90064773 -63.92463199 1176.53124984 -67.4375 1178.0625 C-69.35863152 1180.06560824 -69.35863152 1180.06560824 -69.25 1183.6875 C-69.6804306 1188.51886384 -71.8816193 1190.61855193 -75.375 1193.8125 C-79.61180187 1197.34316822 -83.94567289 1200.74041905 -88.30859375 1204.11328125 C-92.0226634 1206.9971819 -95.6517962 1209.97316518 -99.25 1213 C-99.79873779 1213.45673096 -100.34747559 1213.91346191 -100.9128418 1214.3840332 C-105.25028839 1217.9621584 -105.25028839 1217.9621584 -107.3996582 1223.0168457 C-107.70388074 1231.07161931 -104.71558211 1237.0865735 -101.1875 1244.1875 C-100.0971886 1246.45159777 -99.00733161 1248.71591444 -97.91796875 1250.98046875 C-97.4079834 1252.02509277 -96.89799805 1253.0697168 -96.37255859 1254.14599609 C-94.81048662 1257.39406109 -93.37394715 1260.66878077 -92 1264 C-92.90878906 1263.67515625 -92.90878906 1263.67515625 -93.8359375 1263.34375 C-102.87216252 1260.34094292 -110.4367476 1259.65935084 -119.3046875 1263.5234375 C-122.5358101 1265.29353075 -125.46409638 1267.40057871 -128.4375 1269.5625 C-141.07490613 1278.573615 -156.32420566 1278.78380191 -171.375 1276.484375 C-178.41658668 1274.34675047 -183.85288127 1269.48857281 -189.44921875 1264.890625 C-204.0142764 1252.93286792 -216.81294303 1247.79660779 -235.6875 1247.875 C-236.65921143 1247.87113281 -237.63092285 1247.86726563 -238.63208008 1247.86328125 C-243.92612182 1247.87033821 -248.94352615 1248.2058405 -254.1875 1249 C-260.38008588 1249.5461684 -263.51507514 1247.41132721 -268.18359375 1243.50390625 C-269.11300781 1242.67761719 -270.04242187 1241.85132813 -271 1241 C-272.06983865 1240.12870858 -273.14422395 1239.26297564 -274.22265625 1238.40234375 C-283.48938119 1230.93299121 -291.8142202 1223.02201833 -297.8125 1212.625 C-305.00882275 1200.45326373 -316.08023981 1191.76989875 -327.22509766 1183.34277344 C-338.84492844 1174.55197986 -349.69507009 1165.32400075 -360 1155 C-361.61148434 1153.39924129 -363.22347696 1151.79899413 -364.8359375 1150.19921875 C-366.68236349 1148.36205135 -368.52871546 1146.52480955 -370.375 1144.6875 C-371.29539062 1143.77548828 -372.21578125 1142.86347656 -373.1640625 1141.92382812 C-377.79942808 1137.30501742 -382.30350449 1132.64507899 -386.56005859 1127.67407227 C-388.34927967 1125.59392833 -390.23928411 1123.61759858 -392.125 1121.625 C-409.09786903 1102.7148529 -419.86047351 1081.11755117 -429.47216797 1057.84985352 C-436.49631548 1040.93132476 -443.90669836 1023.34960546 -459.921875 1013.13671875 C-467.9249991 1007.58125062 -473.82721482 999.06930216 -479.74829102 991.41137695 C-483.57072123 986.48571683 -487.58007282 981.74740175 -491.6640625 977.03759766 C-494.6414808 973.60026079 -497.5361285 970.11634655 -500.375 966.5625 C-505.6867281 960.01906684 -511.49838349 953.9566197 -517.28076172 947.83251953 C-519.86194251 945.08126377 -522.39953016 942.29105516 -524.9375 939.5 C-528.30181988 935.81550326 -531.72354816 932.23304854 -535.28881836 928.74414062 C-536.99137298 927.00879319 -538.56515236 925.21034012 -540.140625 923.359375 C-544.20978669 918.68101883 -548.58069043 914.34516008 -553 910 C-554.54418521 908.48172394 -556.08588206 906.96091265 -557.625 905.4375 C-558.29789063 904.77621094 -558.97078125 904.11492188 -559.6640625 903.43359375 C-561.60507788 901.41143224 -563.43848794 899.35392778 -565.26757812 897.23242188 C-569.02557972 892.90843501 -573.02052686 888.86919747 -577.09375 884.84375 C-577.84410522 884.0971814 -578.59446045 883.35061279 -579.36755371 882.5814209 C-581.7425992 880.21847975 -584.12086817 877.8588263 -586.5 875.5 C-589.63839217 872.38839354 -592.77332745 869.27336245 -595.90625 866.15625 C-596.6137439 865.45705444 -597.32123779 864.75785889 -598.0501709 864.03747559 C-602.05014572 860.05700008 -605.85308044 855.97475937 -609.51411438 851.67955017 C-611.39791939 849.55021734 -613.43651429 847.79493403 -615.6875 846.0625 C-616.54085938 845.39992188 -617.39421875 844.73734375 -618.2734375 844.0546875 C-621.10917784 841.91772558 -623.96018556 839.80227667 -626.8125 837.6875 C-632.40400448 833.52085767 -637.73809049 829.11418008 -643.01953125 824.56640625 C-644.7950685 823.03753603 -646.58068013 821.52005979 -648.38671875 820.02734375 C-656.26340141 813.44093672 -660.65638799 807.18359283 -662.640625 797.046875 C-662.84109436 796.0965741 -663.04156372 795.14627319 -663.24810791 794.16717529 C-665.54588381 782.93627244 -667.1663608 771.59911938 -668.75 760.25 C-669.05521311 758.12228431 -669.36120044 755.99467953 -669.66796875 753.8671875 C-669.96162992 751.81259885 -670.2546237 749.75791467 -670.546875 747.703125 C-670.6791449 746.77381165 -670.81141479 745.84449829 -670.94769287 744.88702393 C-672.22633864 735.71248596 -673.17990229 726.64421007 -673.1875 717.375 C-673.19974609 716.5809375 -673.21199219 715.786875 -673.22460938 714.96875 C-673.24024727 708.60933786 -672.58059132 702.84506438 -669.4375 697.1875 C-663.56428919 691.91666979 -654.14921392 690.9892929 -646.625 689.4375 C-645.5844043 689.22279053 -644.54380859 689.00808105 -643.47167969 688.78686523 C-636.7580119 687.44669415 -630.05362613 686.3287947 -623.25 685.5625 C-622.47092285 685.46960693 -621.6918457 685.37671387 -620.88916016 685.28100586 C-616.92344624 684.891698 -614.31903531 684.73133441 -611 687 C-605.90688972 694.89568583 -602.75612403 704.23452291 -599.3125 712.9375 C-598.37500678 715.30233624 -597.43374176 717.66568153 -596.48828125 720.02734375 C-596.08134033 721.05593506 -595.67439941 722.08452637 -595.25512695 723.14428711 C-593.13433175 727.96960155 -591.63406929 731.23269564 -586.625 733.25 C-585.87476563 733.56453125 -585.12453125 733.8790625 -584.3515625 734.203125 C-573.54399668 737.8654895 -563.25799954 736.54398504 -552.875 732.3671875 C-547.53928949 730.33655882 -541.91309327 729.42264353 -536.30786133 728.43261719 C-535.5320874 728.28727539 -534.75631348 728.14193359 -533.95703125 727.9921875 C-533.26585205 727.87214355 -532.57467285 727.75209961 -531.86254883 727.62841797 C-528.85062042 726.61220304 -527.4157258 724.74712287 -525.90234375 722.02734375 C-525.42474609 720.99287109 -525.42474609 720.99287109 -524.9375 719.9375 C-523.77100702 717.42181031 -522.98948974 715.98948974 -521 714 C-514.93170862 713.44892653 -510.92714258 714.5578715 -505.5 717.3125 C-495.93078295 721.81566096 -482.51033972 726.6878385 -472 723 C-468.78999222 721.2624211 -465.91588271 719.18818423 -463 717 C-447.8865995 706.04347286 -429.76803549 701.0954267 -411.39477539 699.16357422 C-403.65331626 698.26499191 -396.57517408 696.01961774 -390.75 690.625 C-390.09773438 690.02558594 -389.44546875 689.42617188 -388.7734375 688.80859375 C-387.16810233 687.17143476 -385.76938162 685.50374867 -384.375 683.6875 C-380.81994067 679.66466971 -377.36554966 679.14532958 -372.109375 678.5859375 C-370.6567473 678.50600702 -369.20353765 678.43619157 -367.75 678.375 C-366.96423584 678.33487793 -366.17847168 678.29475586 -365.36889648 678.25341797 C-360.66184749 678.03679713 -355.98419969 678.0006441 -351.27392578 678.08789062 C-334.28535618 678.3729715 -312.78891788 676.7322691 -299.59863281 664.79125977 C-296.71277892 661.55767546 -295.06265027 657.77668793 -293.25 653.875 C-288.91733745 645.13001495 -284.10513969 638.69763903 -277 632 C-276.2265625 631.26652344 -275.453125 630.53304687 -274.65625 629.77734375 C-270.90973731 626.35403374 -266.99198 623.1933441 -263 620.0625 C-257.35635659 615.59133445 -252.09103735 610.71221697 -247.4765625 605.17041016 C-243.23882972 600.1120409 -238.75760043 596.17785498 -233.375 592.375 C-232.58810791 591.81304932 -231.80121582 591.25109863 -230.99047852 590.67211914 C-223.85898046 585.69319773 -216.60130916 582.10156316 -208.44921875 579.04296875 C-201.6090255 576.34137982 -196.95860666 572.15830885 -193.78222656 565.41455078 C-192.76510601 562.63266132 -191.88971224 559.84390533 -191.0625 557 C-190.76021484 556.05382812 -190.45792969 555.10765625 -190.14648438 554.1328125 C-188.07459441 547.34866486 -186.29856246 541.39471471 -189.62890625 534.75 C-192.19790337 531.77047122 -194.55904457 530.00452238 -197.9375 528 C-198.78042603 527.49907837 -198.78042603 527.49907837 -199.64038086 526.98803711 C-210.11436453 520.89215243 -220.56207287 515.37605699 -233 517 C-237.36487174 520.02868651 -238.68037137 522.96856488 -240 528 C-240.37086484 531.62070765 -240.50673332 535.23829949 -240.625 538.875 C-240.66367187 539.84953125 -240.70234375 540.8240625 -240.7421875 541.828125 C-240.83593033 544.2185672 -240.9216383 546.60901244 -241 549 C-241.89460937 549.44730469 -242.78921875 549.89460937 -243.7109375 550.35546875 C-244.29141846 550.64607178 -244.87189941 550.9366748 -245.4699707 551.23608398 C-246.74858919 551.87465585 -248.02839414 552.51085711 -249.30932617 553.14477539 C-252.1869411 554.57220246 -255.03126893 556.01737641 -257.83984375 557.578125 C-264.45560996 561.2152287 -269.29632346 562.23817368 -276.65625 560.30078125 C-282.54453035 558.34077782 -287.69147654 555.61342008 -292.90625 552.26953125 C-297.09101307 549.73212827 -301.22882526 549.31490824 -306 550 C-312.33378046 552.15150948 -317.84901977 556.0976554 -323.3125 559.875 C-323.89918457 560.27315918 -324.48586914 560.67131836 -325.09033203 561.08154297 C-329.25399881 564.05898667 -332.59351639 567.43312805 -335 572 C-335.38930235 575.69837235 -335.13173147 578.46209648 -334.25 582.0625 C-333.90102638 586.16294008 -335.49615759 587.8523124 -338 591 C-340 593 -340 593 -342.39306641 593.2722168 C-352.1789838 593.23889974 -361.69665486 592.12982366 -371.375 590.8125 C-372.20849976 590.70217438 -373.04199951 590.59184875 -373.90075684 590.47817993 C-385.01288283 589.00257117 -395.99094756 587.27494437 -406.87255859 584.5246582 C-413.70273008 582.83714815 -420.53304853 581.82254479 -427.3125 584.125 C-433.53749533 588.46802 -435.69763915 592.86168241 -437.0625 600.0625 C-438.07236577 605.26644946 -439.14777242 609.14777242 -443 613 C-446.64891852 615.45574422 -450.38268881 615.33427425 -454.6328125 615.296875 C-455.41246368 615.29258484 -456.19211487 615.28829468 -456.99539185 615.28387451 C-467.21296627 615.10701642 -477.3395361 613.87234224 -487.47607422 612.65625 C-490.86148765 612.25161504 -494.24873983 611.86686502 -497.63671875 611.484375 C-507.83537054 610.30691439 -517.98545509 608.9856504 -528.0703125 607.046875 C-529.23722122 606.82998016 -529.23722122 606.82998016 -530.42770386 606.60870361 C-538.3732744 604.98418528 -545.26002978 601.65854479 -552.125 597.3828125 C-553.78366089 596.35933716 -553.78366089 596.35933716 -555.47583008 595.31518555 C-556.04975494 594.95822601 -556.62367981 594.60126648 -557.21499634 594.23348999 C-580.30797078 579.89271772 -604.11382038 566.75236839 -628.52270508 554.78393555 C-642.87871829 547.73089485 -655.81659924 539.22902556 -668.66748047 529.72363281 C-670.98204846 528.01326543 -673.30433787 526.31393128 -675.62890625 524.6171875 C-691.35993997 513.11301558 -706.96690887 501.39986754 -722.19140625 489.23046875 C-723.80048559 487.95260463 -725.42498882 486.69257818 -727.08984375 485.48828125 C-733.34739361 480.76319258 -737.05251615 473.63520546 -741 467 C-741.35771484 466.40026367 -741.71542969 465.80052734 -742.08398438 465.18261719 C-745.61535173 459.21976306 -748.92935223 453.21659792 -751.875 446.9375 C-759.772931 430.92989722 -773.84564119 417.29642702 -785.95458984 404.38671875 C-788.24900562 401.93504074 -790.47015435 399.45415767 -792.58984375 396.8515625 C-794.63973224 394.42624872 -796.62422625 392.44919703 -799.0625 390.4375 C-807.31832963 383.36552518 -807.31832963 383.36552518 -808 378 C-807.18310547 375.96044922 -807.18310547 375.96044922 -805.8671875 373.8046875 C-805.3932959 373.01094727 -804.9194043 372.21720703 -804.43115234 371.39941406 C-803.66085693 370.1498291 -803.66085693 370.1498291 -802.875 368.875 C-801.84104642 367.16048168 -800.80976181 365.44435077 -799.78125 363.7265625 C-799.29011719 362.90704102 -798.79898438 362.08751953 -798.29296875 361.24316406 C-796.7991072 358.65147224 -795.56409711 355.9934169 -794.375 353.25 C-787.12021991 338.56287527 -764.42849148 332.24051793 -750.1875 326.5625 C-721.57490188 316.60209221 -721.57490188 316.60209221 -699 298 C-696.8776221 289.79619311 -697.15082926 281.56561146 -701 274 C-703.66321256 271.36496958 -705.30622157 270.12190422 -709.0234375 269.46875 C-733.32073003 269.69529818 -756.14586896 279.87815832 -773 297 C-774.22892421 298.37773925 -775.44141923 299.77061726 -776.625 301.1875 C-791.55554956 318.82285926 -815.07169609 332.17697196 -834.8671875 343.71875 C-836.31737925 344.58992746 -837.73948744 345.5092441 -839.1328125 346.46875 C-839.81085937 346.9328125 -840.48890625 347.396875 -841.1875 347.875 C-841.75855469 348.28492188 -842.32960938 348.69484375 -842.91796875 349.1171875 C-846.19304143 350.50586747 -848.4726869 350.45441626 -852 350 C-854.6441827 348.49311987 -856.77917991 346.56802126 -859 344.5 C-859.91084351 343.6800354 -859.91084351 343.6800354 -860.84008789 342.84350586 C-872.91517927 331.83095773 -872.91517927 331.83095773 -873.11328125 327.5546875 C-871.4433329 323.7225955 -868.29560492 322.42878357 -864.75 320.5625 C-858.40332548 317.18127552 -854.10820961 314.07587192 -850.7109375 307.5078125 C-848.04638515 298.10867729 -850.28502107 288.16364494 -852.57666016 278.92529297 C-854.97873273 268.91701374 -854.28613952 261.13658338 -850.5625 251.5625 C-850.20704102 250.61890625 -849.85158203 249.6753125 -849.48535156 248.703125 C-845.01638106 237.08146803 -840.18638804 225.22927307 -833 215 C-805.81262822 218.12948164 -779.0189007 224.50922261 -752.60546875 231.52734375 C-742.75800815 234.13638785 -733.05098308 236.09539325 -722.875 236.8125 C-722.16327637 236.86583496 -721.45155273 236.91916992 -720.71826172 236.97412109 C-716.60566025 237.19181808 -713.54519368 237.15617517 -710 235 C-705.40976938 230.67855322 -702.56613707 225.81422023 -700.125 220.0625 C-699.7947583 219.3003418 -699.4645166 218.53818359 -699.12426758 217.75292969 C-689.99133608 196.10290279 -680.66669613 173.30340582 -688.5625 150.1875 C-689.24121157 148.18459788 -689.9096098 146.17816395 -690.56640625 144.16796875 C-690.86490479 143.29422607 -691.16340332 142.4204834 -691.47094727 141.52026367 C-692.08077932 138.61518925 -691.89515885 136.81979455 -691 134 C-685.62864358 128.35318941 -678.51207297 125.70592892 -671 124 C-670.31421875 123.81695312 -669.6284375 123.63390625 -668.921875 123.4453125 C-666.18111182 123.04109922 -664.62165265 123.02550411 -662 124 C-659.50216409 127.14905742 -657.77762896 130.19686738 -655.921875 133.765625 C-652.64830476 139.27480418 -649.03012817 141.25656435 -643 143 C-641.03602179 143.24479762 -639.06215431 143.41916139 -637.0859375 143.52734375 C-635.99539063 143.59759766 -634.90484375 143.66785156 -633.78125 143.74023438 C-631.50285161 143.87218291 -629.22419593 143.99975876 -626.9453125 144.12304688 C-625.85734375 144.19458984 -624.769375 144.26613281 -623.6484375 144.33984375 C-622.66020996 144.39519287 -621.67198242 144.45054199 -620.65380859 144.50756836 C-617.66213466 145.06269314 -616.30171058 146.0689886 -614 148 C-608.11817685 149.93205518 -603.41946058 147.36712071 -598 145 C-596.69339887 144.29794566 -595.39886031 143.5723465 -594.125 142.8125 C-589.27586207 140 -589.27586207 140 -586 140 C-581.41446707 141.62973687 -577.48172243 144.31648453 -573.5 147.0625 C-556.93714087 158.20733911 -532.05368158 156.60347353 -513.02734375 153.39794922 C-502.71085124 151.37291516 -493.72396564 147.10390674 -484.828125 141.671875 C-479.58530584 138.57252887 -474.95289538 138.31781281 -469 139 C-456.30577566 142.43181789 -446.00484269 151.31907002 -436.25 159.75 C-427.83930179 166.97661948 -419.70928861 171.1949774 -409.38818359 174.96484375 C-401.91563803 177.80684091 -395.16618812 181.68197078 -388.34448242 185.82470703 C-383.02488301 189.01781486 -377.97890341 191.34248222 -372 193 C-370.84963257 193.31952637 -370.84963257 193.31952637 -369.67602539 193.64550781 C-367.30943933 194.28312707 -364.93781769 194.89577373 -362.5625 195.5 C-357.48389689 196.80055804 -352.46821775 198.12984519 -347.5 199.8125 C-340.42948772 201.96814399 -332.6700946 202.12644005 -325.8359375 199.0859375 C-314.59209838 192.43532627 -310.72387452 178.85854732 -306.53515625 167.23120117 C-304.47054043 161.65196832 -302.15560403 156.64041001 -296.5625 153.875 C-285.52961571 148.99735947 -272.98596413 148.00991122 -261.125 146.5 C-259.45035087 146.28138655 -257.77570905 146.06271709 -256.10107422 145.84399414 C-245.45876318 144.47234145 -234.81288368 143.37862552 -224.125 142.4375 C-207.86877222 140.97875294 -193.75528685 138.89332048 -180.5 128.875 C-175.94991107 125.49240962 -172.65515633 123.59527961 -167 123 C-164.5625 123.6875 -164.5625 123.6875 -163 125 C-161.90715367 128.27853899 -161.76364595 130.94734225 -161.60546875 134.3984375 C-161.53650391 135.68363281 -161.46753906 136.96882812 -161.39648438 138.29296875 C-161.25598303 140.97503325 -161.13131444 143.6565358 -161.01367188 146.33984375 C-160.42236161 156.87877184 -159.27061293 168.75293452 -152 177 C-141.53921421 184.54213108 -127.15965786 191.95955839 -114 191 C-101.81408207 188.22552761 -93.69635107 178.26056647 -86.29296875 168.82421875 C-79.09309483 159.87074556 -68.1130889 155.93018877 -57 154 C-54.9172753 153.87879043 -52.8318302 153.80013834 -50.74609375 153.75390625 C-49.56208984 153.72103516 -48.37808594 153.68816406 -47.15820312 153.65429688 C-44.6739236 153.59300494 -42.18954189 153.53572539 -39.70507812 153.48242188 C-38.52236328 153.44826172 -37.33964844 153.41410156 -36.12109375 153.37890625 C-34.50352173 153.34132202 -34.50352173 153.34132202 -32.85327148 153.30297852 C-30.01847605 153.0019619 -28.32529596 152.63253957 -26 151 C-24.81619634 147.71936606 -24.81619634 147.71936606 -25 144 C-27.58988525 139.43070244 -30.84268215 136.00575406 -34.75 132.5625 C-35.27932129 132.08441895 -35.80864258 131.60633789 -36.35400391 131.11376953 C-39.30354946 128.45998515 -42.31915566 125.90580545 -45.375 123.375 C-50.62157369 118.81847671 -55.26377204 113.08756765 -56 106 C-53.99884356 94.41330423 -45.31735442 83.20294709 -38.71875 73.70703125 C-35.04461581 67.92026991 -35.78093939 61.59333718 -35.75 54.9375 C-35.729375 53.85533203 -35.70875 52.77316406 -35.6875 51.65820312 C-35.64703097 43.22546798 -36.23582283 35.11719697 -41.04296875 27.95703125 C-41.75066406 27.24933594 -42.45835937 26.54164062 -43.1875 25.8125 C-43.90292969 25.07644531 -44.61835937 24.34039063 -45.35546875 23.58203125 C-46.16951172 22.79892578 -46.16951172 22.79892578 -47 22 C-46.67 21.34 -46.34 20.68 -46 20 C-44.948125 19.773125 -43.89625 19.54625 -42.8125 19.3125 C-32.42272299 16.91914065 -22.84393786 10.47700118 -13.9375 4.796875 C-9.10331704 1.839795 -5.72505268 -0.19550138 0 0 Z " fill="#000000" transform="translate(873,0)"/>
</svg>
