<?xml version="1.0" encoding="UTF-8"?>
<svg version="1.1" xmlns="http://www.w3.org/2000/svg" width="827" height="871">
<path d="M0 0 C3.07610266 2.65278578 4.65207425 5.82535716 6.5625 9.375 C11.96486167 19.09697152 18.60168395 27.50967327 26.1875 35.625 C33.35010543 43.38261811 38.14113074 51.42477137 41.6640625 61.37109375 C44.94366688 67.82481815 51.56793505 69.77383193 58 72 C59.89933907 72.58917458 61.79888098 73.17779237 63.70214844 73.75415039 C76.39335753 77.60175944 87.61275731 82.70632283 99.0625 89.375 C108.937559 95.10987188 118.86901202 99.38474605 129.62548828 103.15771484 C133.25953503 104.4467814 136.85108886 105.83466781 140.4375 107.25 C141.57058594 107.68828125 142.70367187 108.1265625 143.87109375 108.578125 C147.18113379 110.08231298 149.98622681 111.97826048 153 114 C156.76471704 114.99071501 159.00019056 115.34877073 162.6875 114.0625 C166.867435 110.33444987 168.50133842 105.20055118 170.625 100.125 C172 97 172 97 174 95 C183.76614272 93.54695444 190.92043601 95.63537538 199.625 99.6875 C204.26960742 101.49373622 207.40338922 101.66525449 212 99.75 C220.34866469 93.5128495 222.98221182 79.48937438 225.75 70.0625 C226.51190723 67.51058897 227.27953211 64.96044291 228.046875 62.41015625 C228.53945801 60.74158569 228.53945801 60.74158569 229.04199219 59.03930664 C229.90746532 56.29356887 230.88982104 53.65473551 232 51 C235.06090587 53.7950221 236.84657049 56.26966677 238.5 60.0625 C239.13808594 61.50882813 239.13808594 61.50882813 239.7890625 62.984375 C240.95861785 65.89694509 241.91971384 68.82416894 242.875 71.8125 C244.74675251 77.07445483 247.16375603 80.17970615 252 83 C260.11085518 86.18640739 266.22715107 85.2727785 274 82 C275.25841946 88.74153283 276.26404456 95.13484138 276 102 C275.33613281 102.15855469 274.67226563 102.31710938 273.98828125 102.48046875 C268.4952833 103.93190325 264.29553382 105.05669927 261 110 C260.13016973 112.91718588 260.02540372 115.09983775 261 118 C266.30746264 124.21157299 277.44852508 125.84636334 285 128 C286.28981701 133.3512051 286.28981701 133.3512051 284.96875 136.30859375 C284.4840625 137.01113281 283.999375 137.71367187 283.5 138.4375 C281.55479955 141.67044488 281.00508697 142.84739076 280.875 146.75 C283.18893127 153.43469032 289.02235957 156.79436962 295 160 C297.08160769 160.91060989 299.1747796 161.79513158 301.27734375 162.65625 C302.35105225 163.09775391 303.42476074 163.53925781 304.53100586 163.99414062 C305.34577393 164.32607422 306.16054199 164.65800781 307 165 C306.97643433 166.37551025 306.97643433 166.37551025 306.95239258 167.77880859 C306.90083609 171.22678441 306.86344446 174.6743423 306.83520508 178.12255859 C306.82024816 179.60634889 306.79987505 181.09009599 306.77368164 182.57373047 C306.46294364 195.10056056 306.46294364 195.10056056 310 207 C312.12784499 209.42974642 312.12784499 209.42974642 315 210 C323.0581434 208.77376079 327.85671064 202.3660561 332.4375 196.1875 C333.20707031 195.14078125 333.97664062 194.0940625 334.76953125 193.015625 C340.624931 185.0990425 346.8474373 179.32362463 354.89697266 173.71655273 C357.87809667 171.6323602 359.95983144 170.06025284 362 167 C361.68372903 163.45776514 361.12451909 160.37355726 360 157 C365.6285759 155.78090752 371.22044936 154.83096436 376.9375 154.125 C387.50929191 152.61310777 394.87635345 149.71623278 403.00390625 142.70703125 C405 141 405 141 407 140 C406.57691514 143.62683039 406.13384263 147.25096436 405.6875 150.875 C405.56955078 151.88820312 405.45160156 152.90140625 405.33007812 153.9453125 C403.13956112 171.46944857 403.13956112 171.46944857 397 178.0625 C390.68310964 184.86990647 389.4578781 193.8666424 387.5625 202.6875 C386.14459918 209.17724835 384.60610239 215.53410134 382.625 221.875 C381.08465465 227.13103557 380.33944603 230.72529915 382 236 C386.04515681 240.39188454 390.80903494 241.82014466 396.6640625 242.30078125 C409.25323791 242.33802733 419.42255874 239.88940841 431.08984375 234.98828125 C433.97662187 234.00793915 435.99084185 233.91981917 439 234 C438.86215088 235.31009033 438.72430176 236.62018066 438.58227539 237.9699707 C437.08266077 253.0704042 436.53396259 268.09975088 436.46459961 283.27124023 C436.44649492 285.88761179 436.41224552 288.50392018 436.36206055 291.11987305 C435.8327597 314.93552741 435.8327597 314.93552741 444 337 C447.37636589 340.43786891 450.83116496 342.63785504 455 345 C456.68554748 346.28276064 458.33414097 347.61588116 459.9375 349 C460.62714844 349.5775 461.31679688 350.155 462.02734375 350.75 C468.66104344 358.31635846 468.52588981 365.84631894 468.48828125 375.51171875 C468.59255095 382.68737002 469.598129 388.31022594 474.58374023 393.71777344 C477.02152813 396.04241831 479.19717938 397.71580412 482.39453125 398.84765625 C488.22343035 400.91597528 490.69437808 403.50748255 493.29711914 408.96655273 C495.01172059 412.92798705 496.54982367 416.93489994 498 421 C498.27247559 421.75506836 498.54495117 422.51013672 498.82568359 423.28808594 C502.76996133 434.43678332 504.14489369 442.05198821 499.625 453.125 C494.19849518 467.2821663 492.68697741 476.85594837 498.90576172 491.0703125 C505.72882097 506.20740819 514.61260916 520.22631169 523.37109375 534.29296875 C524.69610701 536.4949692 525.89851469 538.68079224 527 541 C526.23743896 541.72590332 525.47487793 542.45180664 524.68920898 543.19970703 C521.86312368 545.89903786 519.06031586 548.62151791 516.26391602 551.3515625 C515.05073557 552.52955244 513.83134539 553.70118215 512.60571289 554.86621094 C510.84408311 556.54286547 509.10611039 558.24118603 507.37109375 559.9453125 C506.81908798 560.46118927 506.26708221 560.97706604 505.698349 561.50857544 C503.95756886 563.17033114 503.95756886 563.17033114 502 566 C501.88150528 569.03165744 501.88150528 569.03165744 503 572 C503.48702393 573.55279663 503.48702393 573.55279663 503.98388672 575.13696289 C504.37850098 576.2377417 504.77311523 577.33852051 505.1796875 578.47265625 C505.61410156 579.70306641 506.04851563 580.93347656 506.49609375 582.20117188 C507.18044848 584.12120763 507.86706116 586.04039928 508.55615234 587.95874023 C512.61161567 599.28379042 516.44682871 610.48594786 516.375 622.625 C516.38660156 623.30433594 516.39820313 623.98367188 516.41015625 624.68359375 C516.39332544 627.52800095 516.30739277 629.53422498 514.71875 631.94140625 C508.77731738 635.60078861 497.37406274 632.39846642 491 631 C483.43568002 628.79913428 476.93883894 625.47196593 470.3125 621.3125 C461.29437635 615.66116313 461.29437635 615.66116313 450.9296875 615.4765625 C444.79546345 618.05053102 440.44753655 623.22028229 436 628 C435.34 628.66 434.68 629.32 434 630 C433.78214844 629.11699219 433.56429687 628.23398437 433.33984375 627.32421875 C431.72656022 623.32158235 429.82275859 621.61488092 426.5625 618.8125 C425.47467852 617.85630574 424.38878627 616.89791288 423.3046875 615.9375 C422.75393555 615.4528125 422.20318359 614.968125 421.63574219 614.46875 C415.76224201 609.19487283 410.2234405 603.52342755 405.125 597.5 C401.60331527 593.42753046 399.02556436 591.29462754 393.5625 590.5 C389.04610595 591.13387987 386.7572858 592.49262133 384 596 C382.00301638 599.36399096 380.18944115 602.74617768 378.41796875 606.234375 C377 609 377 609 376 610 C374.56803653 610.10881124 373.13126507 610.15579353 371.6953125 610.17578125 C357.39126951 610.43279979 357.39126951 610.43279979 344 615 C343.31760254 615.32645508 342.63520508 615.65291016 341.93212891 615.98925781 C332.53359895 620.49754403 324.02990332 625.37970547 315.99243164 632.02685547 C308.4055444 638.25329723 299.84471718 642.64851284 291.03466797 646.890625 C282.30771913 651.11273416 274.65374254 656.06349515 267 662 C265.97712891 662.78479736 265.97712891 662.78479736 264.93359375 663.58544922 C262.77641498 665.24982422 260.63561996 666.93307181 258.5 668.625 C257.84128906 669.13893311 257.18257812 669.65286621 256.50390625 670.18237305 C250.4037882 675.1137696 244.612722 681.09766219 243 689 C242.58870825 696.34552632 243.90809811 702.40193053 245.9375 709.4375 C251.28119174 728.14662028 251.28119174 728.14662028 248.76171875 733.7578125 C244.49839793 737.21912247 239.73237322 739.47551552 234.8125 741.875 C221.55763322 747.85960459 221.55763322 747.85960459 212.375 758.4375 C211.37184074 767.967513 214.31279589 775.14806456 220.29492188 782.61669922 C221.72268326 784.30040812 223.16852428 785.96608165 224.625 787.625 C237.4730065 802.33441626 236.78259128 821.30019404 238 840 C238.07573242 840.78165527 238.15146484 841.56331055 238.22949219 842.36865234 C238.449907 845.74912782 238.35160524 847.55489094 236.22265625 850.25 C231.49231865 852.81871666 226.56104763 854.38767278 221.4375 856 C220.41591797 856.33 219.39433594 856.66 218.34179688 857 C216.27592191 857.66733627 214.20877327 858.33074223 212.14038086 858.99023438 C207.97142865 860.33072931 203.82033141 861.72244991 199.66992188 863.11914062 C197.14462022 863.95228697 194.60905054 864.73471395 192.0625 865.5 C189.1253026 866.45274683 187.86417169 867.11595099 185.4375 869.1875 C181.99907109 871.74428047 179.06272282 871.5502389 175 871 C174.33613281 870.93683594 173.67226563 870.87367188 172.98828125 870.80859375 C168.78616783 869.89221931 167.27261562 868.40892342 164.859375 864.7890625 C163.78033804 862.91305435 162.76225414 861.02434016 161.7890625 859.09130859 C159.98384834 855.51596059 158.5797866 852.93074863 155 851 C148.04002622 849.28983501 141.76045456 851.94393734 135.5300293 854.86499023 C129.95993974 857.38352892 125.22657456 858.00830455 119.3125 856.16015625 C118.549375 855.79792969 117.78625 855.43570313 117 855.0625 C109.90019028 852.04751231 105.62409231 851.19297028 98.25 853.9375 C97.34765625 854.31777344 96.4453125 854.69804688 95.515625 855.08984375 C93 856 93 856 89 856 C89.01160156 854.89140625 89.02320313 853.7828125 89.03515625 852.640625 C89.04453792 851.17708502 89.05363771 849.71354322 89.0625 848.25 C89.07087891 847.52039063 89.07925781 846.79078125 89.08789062 846.0390625 C89.16296273 842.11205541 89.16296273 842.11205541 88.52758789 838.26049805 C87.73343887 834.85789472 87.63610655 831.41958651 87.4609375 827.94140625 C87.41899261 827.15012833 87.37704773 826.3588504 87.33383179 825.54359436 C87.04960322 819.85170539 86.88786955 814.16269232 86.7890625 808.46484375 C86.77470154 807.68001617 86.76034058 806.8951886 86.74554443 806.08657837 C86.68861616 802.89052694 86.63318484 799.69467329 86.59863281 796.49829102 C86.44525894 782.32583971 86.44525894 782.32583971 81.43359375 769.25 C77.78428045 765.87599605 73.52938688 764.10589659 69.0625 762 C59.74907647 757.38547003 53.32167107 752.12866489 46.41015625 744.48974609 C42.67479035 740.54355449 38.28199784 737.32073302 34 734 C33.09507812 733.23171875 32.19015625 732.4634375 31.2578125 731.671875 C25.61472586 727.09985579 21.83716765 725.11031258 14.51171875 725.6328125 C12.33659318 725.95079353 10.21290122 726.36316243 8.0625 726.8125 C5 727 5 727 2.9375 725.1875 C1.83034456 723.36605073 0.747534 721.52799835 -0.2578125 719.6484375 C-4.48097131 712.00982784 -9.07183197 708.35694993 -16.875 704.625 C-26.29457086 702.74108583 -36.24083794 703.42100412 -44.4375 708.625 C-45.39462891 709.29402344 -45.39462891 709.29402344 -46.37109375 709.9765625 C-48 711 -48 711 -50 711 C-53.19030155 704.6193969 -50.18399494 694.9938208 -49.125 688.3125 C-47.33243046 676.60885644 -46.29317475 665.07192831 -45.77197266 653.2434082 C-45.71187012 652.0905835 -45.65176758 650.93775879 -45.58984375 649.75 C-45.54722412 648.73421875 -45.50460449 647.7184375 -45.46069336 646.671875 C-44.93861875 643.64400828 -43.89332883 642.3599047 -42 640 C-41.13216975 632.53836151 -40.86564623 624.49684164 -45 618 C-49.7290587 613.83201606 -54.84640329 613.76417496 -60.97802734 614.11230469 C-65.2701571 614.4367102 -65.2701571 614.4367102 -69.55371094 614.85644531 C-74.53520066 615.31019036 -74.53520066 615.31019036 -76.8671875 613.75390625 C-78.0157405 611.97562937 -78.87501051 610.26643813 -79.6875 608.3125 C-84.20340161 599.14787614 -93.01471531 593.52217023 -101.00854492 587.56762695 C-102.41645576 586.51689742 -103.81593849 585.45474714 -105.20532227 584.37963867 C-106.61156212 583.29860732 -108.05532658 582.26635929 -109.51171875 581.25390625 C-112.05056325 577.40898951 -111.28725994 573.16114647 -111.0625 568.6875 C-110.74677218 561.92526981 -110.73330333 557.03646441 -114 551 C-115.09354906 549.70475652 -115.09354906 549.70475652 -117.75 549.625 C-123.00811015 550.23170502 -125.24720508 554.05477036 -128.4296875 558.05078125 C-129.24718936 559.13621914 -130.06223353 560.22351177 -130.875 561.3125 C-131.75238317 562.46210152 -132.6312919 563.61054032 -133.51171875 564.7578125 C-134.14859619 565.58780762 -134.14859619 565.58780762 -134.79833984 566.43457031 C-135.39316162 567.20945801 -135.39316162 567.20945801 -136 568 C-136.64582031 568.84304688 -137.29164063 569.68609375 -137.95703125 570.5546875 C-141.58038483 575.02049124 -144.04628572 577.33847619 -150 578 C-161.147021 577.94791112 -167.93238895 576.16293947 -176.4375 568.8125 C-177.0044458 568.32491211 -177.5713916 567.83732422 -178.15551758 567.33496094 C-191.14723304 555.99443499 -192.28133406 547.19079843 -193.76757812 530.31445312 C-194.68365222 520.84498005 -195.54787735 513.56496519 -203 507 C-218.95976283 492.26791123 -227.08734933 464.73731834 -229.37109375 443.55859375 C-229.50896445 437.07867075 -229.11874053 433.00885754 -225.24609375 427.75390625 C-221.64123052 422.6799765 -221.1956476 416.01253417 -222 410 C-224.04953416 402.8499206 -227.48231151 398.94720536 -233.73046875 394.87109375 C-237.07756669 392.63230639 -239.31272301 390.71644982 -241.5 387.3125 C-249.98938474 375.63145399 -266.07824722 369.65048168 -278.65649414 363.35327148 C-296.90825347 354.18349306 -296.90825347 354.18349306 -299 350 C-301.05891583 336.59585757 -299.61095075 325.01972294 -295.62695312 312.21044922 C-294.32739893 307.62860978 -293.68483686 302.90117142 -292.96875 298.19921875 C-291.28643255 292.64350104 -288.42974202 289.86841144 -283.6171875 286.9453125 C-282.3752323 286.32748203 -281.12755677 285.72104425 -279.875 285.125 C-274.01852858 282.18893669 -268.94871524 278.86569778 -263.75390625 274.84765625 C-260.7137342 272.80793798 -257.72439686 271.62476802 -254.3125 270.3125 C-244.33923378 265.96548254 -240.49496923 256.06794882 -236.69140625 246.4140625 C-234.77292432 239.71563407 -235.11994845 233.80446628 -235.9375 227 C-237.84208277 210.53457476 -237.84208277 210.53457476 -232.8125 202.0625 C-224.41899748 187.13833863 -219.00939929 169.52335054 -222.80078125 152.37890625 C-224.08624766 148.20445348 -225.5092373 144.10475714 -227 140 C-228.19786099 136.66906919 -229.38972521 133.33627806 -230.57055664 129.99926758 C-231.3843005 127.70648385 -232.21116027 125.41830338 -233.05249023 123.13549805 C-236.24926171 114.19413701 -236.24926171 114.19413701 -235.9609375 109.79296875 C-236.01522587 104.52156768 -238.1396307 101.2474556 -240.8125 96.8125 C-241.26431641 96.03197266 -241.71613281 95.25144531 -242.18164062 94.44726562 C-243.43673364 92.28703984 -244.71274786 90.14117713 -246 88 C-246.60199219 86.99324219 -247.20398438 85.98648438 -247.82421875 84.94921875 C-248.21222656 84.30597656 -248.60023438 83.66273437 -249 83 C-241.89252392 84.90378823 -236.0538711 88.08074278 -229.84960938 91.95092773 C-225.39372518 94.61622694 -222.33379468 95.5689381 -217 95 C-209.90864829 92.55026032 -207.43340936 87.28596192 -203.9921875 80.99609375 C-201.13213035 76.69479211 -198.754162 75.35628141 -193.73046875 74.3359375 C-189.58926128 73.96301201 -185.46630514 73.77665391 -181.3125 73.625 C-174.68371761 73.34484372 -168.80863657 72.33065187 -162.41015625 70.5 C-159.11190745 69.81576038 -157.03487064 70.65901065 -154 72 C-149.94851522 72.43408765 -147.63827287 72.29959747 -143.9375 70.5625 C-137.83552257 65.23949842 -134.57662518 58.2866026 -131.0625 51.125 C-123.53191182 35.79449186 -116.26483256 26.67674356 -100.75 19.0625 C-93.29128314 15.2980063 -86.20202156 11.49297385 -79.40234375 6.62109375 C-74.26155032 3.15210306 -70.51297846 1.26523414 -64.359375 2.24609375 C-56.54227266 4.74394268 -51.48647823 11.48077509 -46.82421875 17.86328125 C-43.96715554 21.20977713 -41.82975466 21.89628067 -37.5 22.4375 C-24.40999518 22.07253704 -10.84049908 11.93576308 -2 3 C-1.34 2.01 -0.68 1.02 0 0 Z " fill="#000000" transform="translate(300,0)"/>
</svg>
