<?xml version="1.0" encoding="UTF-8"?>
<svg version="1.1" xmlns="http://www.w3.org/2000/svg" width="786" height="855">
<path d="M0 0 C4.46481297 1.52280164 6.51697788 5.09153438 9.0625 8.8125 C9.49626953 9.42931641 9.93003906 10.04613281 10.37695312 10.68164062 C13.95372075 15.80453002 17.0704036 20.51832879 18.75390625 26.60546875 C19.05103516 27.67216797 19.34816406 28.73886719 19.65429688 29.83789062 C19.95400391 30.94326172 20.25371094 32.04863281 20.5625 33.1875 C21.01786133 34.81655273 21.01786133 34.81655273 21.48242188 36.47851562 C26.53045186 54.78999695 26.53045186 54.78999695 25.6875 62.4375 C25.53861328 63.92056641 25.53861328 63.92056641 25.38671875 65.43359375 C25 68 25 68 24 71 C25.29035156 70.97679688 26.58070313 70.95359375 27.91015625 70.9296875 C29.62759834 70.91091764 31.34504674 70.89271875 33.0625 70.875 C33.91005859 70.85824219 34.75761719 70.84148437 35.63085938 70.82421875 C41.92790999 70.77559288 47.4204466 70.98669003 52.5625 75 C54.67052935 77.59449766 55.96823321 79.82282548 57.5 82.75 C64.40321574 94.24970582 77.04461925 98.57918024 88.875 103.5 C89.83685715 103.90155304 89.83685715 103.90155304 90.81814575 104.31121826 C104.0357009 109.87135537 104.0357009 109.87135537 117.8125 107.75 C118.51536133 107.49347656 119.21822266 107.23695312 119.94238281 106.97265625 C125.14937964 104.85634122 127.79701068 102.40997664 131.25 98 C133.5390625 95.10546875 133.5390625 95.10546875 136 93 C140.35409289 92.6518804 143.91869923 93.52035316 148 95 C148.30744141 93.71802734 148.30744141 93.71802734 148.62109375 92.41015625 C149.02521484 90.75306641 149.02521484 90.75306641 149.4375 89.0625 C149.70433594 87.96035156 149.97117187 86.85820313 150.24609375 85.72265625 C151 83 151 83 152 82 C153.99958364 81.95919217 156.00045254 81.95745644 158 82 C158.38478516 83.08667969 158.38478516 83.08667969 158.77734375 84.1953125 C161.72559484 91.64039102 164.82799162 95.42034272 172 99 C173.60875 99.556875 173.60875 99.556875 175.25 100.125 C180.07757887 103.41653105 181.91588959 108.37839474 183 114 C183.80675106 122.26879258 184.13693239 131.19128388 181.97265625 139.265625 C181.04792594 142.81599517 180.48862843 145.37483125 181 149 C182.81697745 151.57776617 182.81697745 151.57776617 185.3125 153.75 C186.11300781 154.50796875 186.91351563 155.2659375 187.73828125 156.046875 C190.04040598 158.11648573 190.04040598 158.11648573 193 160 C192.67 163.3 192.34 166.6 192 170 C193.09699219 170.14695313 194.19398438 170.29390625 195.32421875 170.4453125 C196.77885222 170.67054607 198.23326887 170.89718311 199.6875 171.125 C200.40873047 171.2178125 201.12996094 171.310625 201.87304688 171.40625 C205.82331414 172.055609 208.3213336 172.835096 211.0546875 175.85546875 C213 179 213 179 213.12109375 181.16796875 C212.89550781 181.83441406 212.66992188 182.50085938 212.4375 183.1875 C211.36726897 186.70737095 210.6832268 190.03895072 210.1875 193.6875 C209.29973055 198.82645814 207.70982073 201.38780613 204 205 C204.73722411 206.92161695 205.49034695 208.8371387 206.25 210.75 C206.87648438 212.35101563 206.87648438 212.35101563 207.515625 213.984375 C208.80781779 217.0412051 208.80781779 217.0412051 211.0703125 218.9921875 C213.62589087 221.65123058 213.94096767 223.77352856 214.625 227.375 C214.86476563 228.61507812 215.10453125 229.85515625 215.3515625 231.1328125 C215.97189936 234.83241184 216.50371674 238.53194346 217 242.25 C218.47996278 254.57339178 218.47996278 254.57339178 225.8984375 263.9609375 C229.09630083 265.54203721 232.13693281 265.68253669 235.66796875 265.69921875 C238.64651521 266.08338638 239.93568975 266.82283452 242 269 C242.265625 271.453125 242.265625 271.453125 242.25 274.25 C242.51657839 277.26694055 242.51657839 277.26694055 244 280 C248.11025454 283.07059422 253.16066164 284.61144534 257.96020508 286.28588867 C261.08285414 287.37909615 264.02638554 288.53589211 267 290 C268.4375 293.1875 268.4375 293.1875 269 296 C275.81379035 297.38823556 275.81379035 297.38823556 282.0625 295.0625 C283.031875 294.381875 284.00125 293.70125 285 293 C288.03137561 292.65427286 290.96310494 292.7570484 294 293 C293.690625 293.9075 293.38125 294.815 293.0625 295.75 C292.711875 296.8225 292.36125 297.895 292 299 C291.78601563 299.61617188 291.57203125 300.23234375 291.3515625 300.8671875 C290.19280685 307.89697175 294.892511 315.19594756 298.76245117 320.74462891 C302.61242715 326.09488424 302.61242715 326.09488424 307 331 C307.1953125 333.3828125 307.1953125 333.3828125 307.125 336.125 C307.09792969 337.49011719 307.09792969 337.49011719 307.0703125 338.8828125 C307.03550781 339.93082031 307.03550781 339.93082031 307 341 C308.98 341 310.96 341 313 341 C313.185625 341.680625 313.37125 342.36125 313.5625 343.0625 C316.98585743 350.05805648 323.37740002 354.26726183 330 358 C329.52450066 360.62571335 329.04477433 363.2505304 328.5625 365.875 C328.42779297 366.62136719 328.29308594 367.36773437 328.15429688 368.13671875 C327.11328125 373.7734375 327.11328125 373.7734375 326 376 C328.62559844 375.6919856 331.25039806 375.37879818 333.875 375.0625 C334.62136719 374.97548828 335.36773438 374.88847656 336.13671875 374.79882812 C340.1953231 374.36673937 340.1953231 374.36673937 344 373 C345.78752492 372.85245826 347.5816284 372.7788478 349.375 372.75 C350.33148437 372.72421875 351.28796875 372.6984375 352.2734375 372.671875 C355.43054136 373.051813 356.52756824 374.10547404 359 376 C363.98397965 376.3352859 369.48878379 375.04078828 374 373 C374.495 372.29875 374.99 371.5975 375.5 370.875 C377 369 377 369 380.0625 368.5625 C381.031875 368.706875 382.00125 368.85125 383 369 C385.20009864 372.30014795 385.62319003 373.1718327 385 377 C383.46569256 379.12627654 381.72736223 381.02158354 380 383 C381.05058594 383.49628906 382.10117187 383.99257813 383.18359375 384.50390625 C397.950603 391.5998104 408.34501454 398.26333005 413.9375 414.1875 C414.4005957 415.54004883 414.4005957 415.54004883 414.87304688 416.91992188 C416.76531898 422.30997276 416.76531898 422.30997276 421.05859375 425.8671875 C422.02925781 426.24101562 422.99992188 426.61484375 424 427 C425.7578125 428.90234375 425.7578125 428.90234375 427.125 430.9375 C427.62386719 431.64132812 428.12273438 432.34515625 428.63671875 433.0703125 C429.08660156 433.70710938 429.53648437 434.34390625 430 435 C433.18531233 438.8018244 436.44805506 440.11698222 441 442 C441.03758423 443.07483643 441.03758423 443.07483643 441.07592773 444.17138672 C441.19169751 447.40611514 441.31450969 450.64053841 441.4375 453.875 C441.47681641 455.00292969 441.51613281 456.13085938 441.55664062 457.29296875 C441.59853516 458.36933594 441.64042969 459.44570313 441.68359375 460.5546875 C441.73858032 462.04718018 441.73858032 462.04718018 441.79467773 463.56982422 C441.84959532 466.00779501 441.84959532 466.00779501 443 468 C441.21046815 468.83790789 439.41830305 469.67019396 437.625 470.5 C436.62726562 470.9640625 435.62953125 471.428125 434.6015625 471.90625 C432 473 432 473 430 473 C430.32355469 473.49628906 430.64710938 473.99257813 430.98046875 474.50390625 C432.24422077 476.65923736 433.24902546 478.61356979 434 481 C432.9974476 484.59739391 432.08124507 486.96034128 429.375 489.5625 C426.72519737 492.3327482 427.01706963 496.21479694 426.9375 499.875 C426.958125 500.57625 426.97875 501.2775 427 502 C427.9075 502.28875 428.815 502.5775 429.75 502.875 C433 504 433 504 435.0625 505.1875 C437.83309704 506.34936327 439.13445014 505.91176586 442 505 C443.9281779 504.05100864 445.82686424 503.051987 447.73046875 502.0546875 C451.67882332 500.21982393 455.81118797 499.1635589 460 498 C460 494.7 460 491.4 460 488 C461.65 488 463.3 488 465 488 C469.12206799 494.29718136 470.82703776 499.46828078 471 507 C471.86625 507.268125 472.7325 507.53625 473.625 507.8125 C477 509 477 509 480.0625 510.6875 C483.98188408 512.43871417 486.04664317 511.72467218 489.93212891 510.28320312 C492 510 492 510 493.73583984 511.06054688 C494.30512207 511.60775391 494.8744043 512.15496094 495.4609375 512.71875 C496.09773437 513.32203125 496.73453125 513.9253125 497.390625 514.546875 C498.04546875 515.19140625 498.7003125 515.8359375 499.375 516.5 C500.02210938 517.11359375 500.66921875 517.7271875 501.3359375 518.359375 C505.0266503 521.90126873 508.439997 525.56413423 511.66259766 529.53710938 C513.13060281 531.26027027 513.13060281 531.26027027 516 533 C516.90722656 535.6262207 516.90722656 535.6262207 517.640625 538.92578125 C517.90617188 540.11494141 518.17171875 541.30410156 518.4453125 542.52929688 C518.71085938 543.77775391 518.97640625 545.02621094 519.25 546.3125 C519.67152344 548.1677832 519.67152344 548.1677832 520.1015625 550.06054688 C522.45371009 560.8373419 522.45371009 560.8373419 521 565 C515.52915672 570.93729959 507.74644222 574.45776166 500.625 578 C475.01737505 591.105019 465.33300575 606.72909993 453 632 C452.09765625 631.67644531 451.1953125 631.35289062 450.265625 631.01953125 C444.43284614 629.19853211 439.37004247 629.3957079 433.625 631.4375 C428.62086722 633.12376003 423.91341674 633.28432393 418.6875 633.4375 C409.26302554 633.76470669 400.81474651 635.05765491 392.625 640.0625 C388.80982275 644.33186502 385.91060504 649.08297196 383 654 C379.8172652 652.80566747 376.76194962 651.42563857 373.70703125 649.94140625 C372.91103516 649.55533203 372.11503906 649.16925781 371.29492188 648.77148438 C369.65729221 647.97392909 368.02181533 647.17193618 366.38867188 646.36523438 C358.35880587 642.48896974 350.0491962 638.90785563 341 640 C338.28892287 641.37716666 338.28892287 641.37716666 337 644 C337.30859291 649.43648786 338.83892014 653.05658348 341.625 657.6875 C342.15806763 658.59532227 342.15806763 658.59532227 342.7019043 659.52148438 C344.40609214 662.41417381 346.16522938 665.25713211 347.98046875 668.08203125 C351.16460305 673.15356286 353.30909356 677.46251605 354.3515625 683.390625 C355.97728059 691.50801831 358.67516468 699.01832617 361.5625 706.75 C369.4560488 727.96182941 370.44514723 744.13349284 361.1953125 765.234375 C349.88578582 789.30880981 330.08437658 800.83359075 306.94311523 811.66333008 C290.92472214 819.18468349 277.59208385 825.78587335 269.6875 842.375 C269.14899414 843.47908203 269.14899414 843.47908203 268.59960938 844.60546875 C267.72562986 846.40004002 266.86174832 848.19952337 266 850 C265.67 850 265.34 850 265 850 C264.87882813 849.32453125 264.75765625 848.6490625 264.6328125 847.953125 C264.38144531 846.61507813 264.38144531 846.61507813 264.125 845.25 C263.96257813 844.36828125 263.80015625 843.4865625 263.6328125 842.578125 C262.78517894 839.12480311 262.18100999 836.77419026 259.12890625 834.7734375 C252.16753487 832.24435212 245.97869068 834.45096775 239.48046875 837.3203125 C237 838 237 838 234.80859375 837.25390625 C232.81608354 835.87248988 231.2752117 834.22739837 229.59765625 832.48828125 C221.66762401 825.1011363 211.07235126 818.19425178 200 818 C196.46863299 820.35424468 196.53148474 820.91343896 195.6875 824.875 C194.05818062 831.42676047 191.24290929 837.10533676 188 843 C187.55785156 843.86238281 187.11570312 844.72476563 186.66015625 845.61328125 C183.07660364 850.76516512 176.52414853 854.24020651 170.4453125 855.55078125 C167.8674081 855.63107663 165.54818065 855.40134792 163 855 C161.95714844 854.86335937 160.91429687 854.72671875 159.83984375 854.5859375 C152.61583659 853.31856782 148.07758445 851.08167036 142.6015625 846.265625 C135.96019831 840.48185438 128.02979943 833.62274479 119 833 C116.37503453 833.71353228 114.42809464 834.68882889 112 836 C105.56171208 839.21914396 96.49002236 836.54121795 89.875 834.875 C88.96556641 834.65054199 88.05613281 834.42608398 87.11914062 834.19482422 C64.31936765 828.37488217 43.15754938 818.40622541 30 798 C25.1098914 788.14059076 29.23731474 774.95291812 31.37890625 764.7265625 C32.30848624 759.14908258 32.81339115 754.06410408 30 749 C27.84410661 747.00801541 26.55266472 746.06781856 23.61254883 745.70703125 C22.73622803 745.74183594 21.85990723 745.77664063 20.95703125 745.8125 C19.96380859 745.83570313 18.97058594 745.85890625 17.94726562 745.8828125 C15.90813138 745.95904182 13.86906332 746.0370702 11.83007812 746.1171875 C-2.63918582 746.44960199 -16.12818628 743.07195062 -29.72241211 738.40356445 C-31.82485986 737.68326551 -33.9340032 736.98604748 -36.04492188 736.29101562 C-61.25982964 727.86278866 -61.25982964 727.86278866 -68.05078125 717.953125 C-68.57969971 717.19459229 -69.10861816 716.43605957 -69.65356445 715.65454102 C-70.20101318 714.86104248 -70.74846191 714.06754395 -71.3125 713.25 C-80.05051398 700.95453104 -89.40508293 693.14891448 -102 685 C-103.09441406 684.28972656 -104.18882812 683.57945312 -105.31640625 682.84765625 C-115.83006101 676.36400736 -125.61090191 674.64914661 -137.77319336 673.90893555 C-151.23981921 672.92708791 -163.85142372 668.17085778 -176.375 663.4375 C-178.31575649 662.7107476 -180.25724815 661.98600487 -182.19914246 661.26229858 C-184.03637565 660.57707849 -185.87233266 659.88843971 -187.70825195 659.19970703 C-190.47888724 658.18992421 -193.25157627 657.27004791 -196.06640625 656.39453125 C-214.88906453 650.21588424 -234.6697985 626.06920233 -245 610 C-245.9590625 608.6078125 -245.9590625 608.6078125 -246.9375 607.1875 C-250.35687238 596.92938286 -247.0650747 586.83511003 -244 576.9375 C-237.48310147 554.48998007 -238.55401635 530.71154364 -241.5625 507.6953125 C-242.598249 498.94693258 -242.598249 498.94693258 -240.6796875 495.91015625 C-239.78636719 494.99556641 -239.78636719 494.99556641 -238.875 494.0625 C-237.91787109 493.04349609 -237.91787109 493.04349609 -236.94140625 492.00390625 C-236.30074219 491.34261719 -235.66007812 490.68132812 -235 490 C-226.11441453 480.44538221 -223.54947636 472.10423338 -223.796875 459.05859375 C-224.13671609 450.27038604 -226.30880551 442.05758603 -228.98046875 433.73046875 C-229.34076172 432.60294189 -229.70105469 431.47541504 -230.07226562 430.3137207 C-230.79737556 428.07791215 -231.54120773 425.84805931 -232.30664062 423.62573242 C-235.54724672 413.75078493 -235.61046469 404.69560802 -234.3125 394.4375 C-233.07648405 379.569482 -240.08308966 367.82280315 -249.25390625 356.82080078 C-255.80743852 348.87486858 -254.81446512 338.86484291 -254 329 C-252.5727051 319.35525227 -250.0240493 309.88928127 -247.5546875 300.46875 C-243.21951968 283.71571794 -241.723787 270.25322821 -249 254 C-249.46680176 252.94731934 -249.93360352 251.89463867 -250.41455078 250.81005859 C-253.67152781 243.46865651 -253.67152781 243.46865651 -256.98535156 236.15283203 C-257.50194336 235.01571777 -258.01853516 233.87860352 -258.55078125 232.70703125 C-259.25714722 231.16752808 -259.25714722 231.16752808 -259.9777832 229.59692383 C-261 227 -261 227 -261 224 C-259.390625 222.89453125 -259.390625 222.89453125 -257.25 221.8125 C-252.5817616 219.01486777 -250.42316477 216.26483655 -249 211 C-247.29144904 201.17930465 -250.4717495 194.94485517 -256 187 C-256.65613281 186.05253906 -257.31226563 185.10507813 -257.98828125 184.12890625 C-259.18131496 182.42704242 -260.38918271 180.7353985 -261.6171875 179.05859375 C-264.03404289 175.46061977 -264.21303932 172.29743098 -264.3125 168.0625 C-264.34988281 167.02222656 -264.38726562 165.98195312 -264.42578125 164.91015625 C-264 162 -264 162 -262.515625 159.84765625 C-259.0613306 157.31057356 -255.4166448 155.91646689 -251.4375 154.375 C-233.19277794 146.9841737 -214.40397272 138.82434327 -204.125 121.1875 C-196.64171313 108.35900822 -183.51071888 91.65532576 -168.625 87.375 C-163.87397141 86.63892515 -159.48190515 87.63638831 -154.79296875 88.4609375 C-142.15308193 90.25733748 -130.85953961 90.51948797 -120 83 C-119.37480469 82.59007813 -118.74960938 82.18015625 -118.10546875 81.7578125 C-97.52705113 66.23966151 -85.6589772 36.27970971 -74 14 C-69.55898337 14.1982168 -67.54073974 14.48457272 -64.26708984 17.60498047 C-63.61602768 18.36876511 -63.61602768 18.36876511 -62.95181274 19.14797974 C-60.60423471 21.88800094 -58.19723473 24.28180928 -55 26 C-49.12934021 26.40853687 -44.18169513 24.86860014 -38.625 23.125 C-37.20986494 22.74297845 -35.79318391 22.36663674 -34.375 21.99609375 C-20.00380592 18.08704511 -7.77529189 13.35321868 0 0 Z " fill="#000000" transform="translate(264,0)"/>
</svg>
