<?xml version="1.0" encoding="UTF-8"?>
<svg version="1.1" xmlns="http://www.w3.org/2000/svg" width="320" height="330">
<path d="M0 0 C1.84323425 0.62933284 3.68435395 1.26488893 5.5234375 1.90625 C7.36883183 2.54444887 9.21515911 3.17995777 11.0625 3.8125 C12.27607178 4.23499023 12.27607178 4.23499023 13.51416016 4.66601562 C30.14570534 9.82952627 46.75664639 5.81606267 61.8984375 -1.59375 C62.18589844 -0.81128906 62.47335938 -0.02882812 62.76953125 0.77734375 C63.75307883 3.5157646 63.75307883 3.5157646 65.9609375 5.46875 C67.8984375 7.40625 67.8984375 7.40625 68.265625 9.38671875 C68.71904481 11.56310072 68.71904481 11.56310072 70.74609375 12.671875 C71.47699219 12.99671875 72.20789063 13.3215625 72.9609375 13.65625 C73.69441406 13.99140625 74.42789063 14.3265625 75.18359375 14.671875 C75.74949219 14.91421875 76.31539062 15.1565625 76.8984375 15.40625 C76.58716234 16.98982459 76.27436461 18.57309993 75.9609375 20.15625 C75.78691406 21.03796875 75.61289063 21.9196875 75.43359375 22.828125 C74.8984375 25.40625 74.8984375 25.40625 74.08203125 27.296875 C73.82045852 30.30217874 75.33602972 31.99273555 76.87451172 34.47070312 C78.58149394 37.69744491 78.96317272 41.07501615 79.4609375 44.65625 C80.06523925 49.76174867 80.06523925 49.76174867 82.2578125 54.31640625 C84.91008372 56.07827213 87.83576273 56.65502789 90.8984375 57.40625 C90.9603125 58.17710938 91.0221875 58.94796875 91.0859375 59.7421875 C91.64119051 62.5805921 91.64119051 62.5805921 94.1484375 63.8828125 C95.5096875 64.45128906 95.5096875 64.45128906 96.8984375 65.03125 C99.6484375 66.1953125 99.6484375 66.1953125 101.8984375 67.40625 C102.2284375 68.39625 102.5584375 69.38625 102.8984375 70.40625 C106.61442941 70.60711443 107.67052195 70.5581937 110.8984375 68.40625 C111.8884375 68.40625 112.8784375 68.40625 113.8984375 68.40625 C113.91261719 69.04691406 113.92679688 69.68757813 113.94140625 70.34765625 C114.26020066 76.12903596 115.14033933 79.4046913 118.8203125 83.8671875 C120.35030658 86.05130948 120.28943269 87.82568174 119.8984375 90.40625 C120.8884375 90.40625 121.8784375 90.40625 122.8984375 90.40625 C124.26917536 92.04229196 125.59899006 93.71303061 126.8984375 95.40625 C129.02446935 97.16948505 129.02446935 97.16948505 130.8984375 98.40625 C130.5684375 100.71625 130.2384375 103.02625 129.8984375 105.40625 C130.79046875 105.39464844 131.6825 105.38304688 132.6015625 105.37109375 C133.77203125 105.36207031 134.9425 105.35304688 136.1484375 105.34375 C137.30859375 105.33214844 138.46875 105.32054688 139.6640625 105.30859375 C142.33404681 105.38920922 144.35155958 105.7580581 146.8984375 106.40625 C149.42712832 105.56146502 149.42712832 105.56146502 151.8984375 104.40625 C153.22520258 104.04766484 154.55679671 103.7043924 155.8984375 103.40625 C156.8984375 106.40625 156.8984375 106.40625 155.9609375 108.59375 C155.6103125 109.191875 155.2596875 109.79 154.8984375 110.40625 C155.67767578 110.75236328 155.67767578 110.75236328 156.47265625 111.10546875 C164.43736513 114.83018473 167.91569285 119.17614216 171.64453125 127.03125 C174.0844569 131.65266681 177.27893644 134.21857931 181.8984375 136.40625 C182.0064398 138.50929477 182.08402737 140.61391909 182.1484375 142.71875 C182.19484375 143.89050781 182.24125 145.06226563 182.2890625 146.26953125 C181.8984375 149.40625 181.8984375 149.40625 179.8828125 151.32421875 C179.22796875 151.68128906 178.573125 152.03835937 177.8984375 152.40625 C178.2284375 153.39625 178.5584375 154.38625 178.8984375 155.40625 C178.1559375 156.6128125 178.1559375 156.6128125 177.3984375 157.84375 C175.71425758 160.2260168 175.71425758 160.2260168 175.8984375 162.59375 C176.81658768 164.56431529 176.81658768 164.56431529 178.8984375 165.84375 C183.35553067 166.67945497 186.7763426 165.0766414 190.8984375 163.40625 C190.8984375 161.75625 190.8984375 160.10625 190.8984375 158.40625 C193.8984375 159.40625 193.8984375 159.40625 195.8984375 162.40625 C196.0234375 165.09375 196.0234375 165.09375 195.8984375 167.40625 C196.55070312 167.42042969 197.20296875 167.43460938 197.875 167.44921875 C204.1451118 167.79139299 207.40547204 168.7043094 211.8984375 173.40625 C212.7853125 174.2725 213.6721875 175.13875 214.5859375 176.03125 C218.38546918 180.72551011 219.8984375 187.46150391 219.8984375 193.40625 C218.83625 193.98632812 217.7740625 194.56640625 216.6796875 195.1640625 C213.03293355 197.16943216 209.41537002 199.22157356 205.8125 201.3046875 C204.33008386 202.15783311 202.83537507 202.98963792 201.3359375 203.8125 C196.29978927 206.98039969 194.4679087 211.01229068 191.9609375 216.21875 C188.64240278 222.97513933 188.64240278 222.97513933 185.95703125 224.53125 C183.55479713 224.75004931 181.30686307 224.56953309 178.8984375 224.40625 C176.13057809 224.62505312 173.40251892 224.89288778 170.6484375 225.21875 C169.96265625 225.27780518 169.276875 225.33686035 168.5703125 225.39770508 C161.77477356 226.13018321 158.45600296 229.67988582 153.8984375 234.40625 C152.97224609 233.88224609 152.97224609 233.88224609 152.02734375 233.34765625 C146.15022952 230.18993734 141.5639882 228.72877665 134.8984375 228.40625 C134.19750777 232.84547163 135.20539417 235.1769491 137.5859375 238.78125 C141.89720487 245.48766591 143.70817866 252.81970127 145.8984375 260.40625 C146.26710937 261.4478125 146.63578125 262.489375 147.015625 263.5625 C149.6373921 272.00783828 147.84771331 279.72409705 143.8984375 287.40625 C141.8984375 290.71875 141.8984375 290.71875 139.8984375 293.40625 C139.0940625 294.64375 139.0940625 294.64375 138.2734375 295.90625 C130.5770296 304.007732 117.65290685 309.02545218 107.48828125 313.45703125 C104.89875398 315.00311264 104.75039836 317.62317786 103.8984375 320.40625 C102.2734375 322.28125 102.2734375 322.28125 100.8984375 323.40625 C100.5890625 322.601875 100.2796875 321.7975 99.9609375 320.96875 C99.13508405 318.51544595 99.13508405 318.51544595 97.8984375 317.40625 C93.68272037 317.11881474 90.71834202 317.60864787 86.8984375 319.40625 C86.2178125 318.66375 85.5371875 317.92125 84.8359375 317.15625 C81.18507503 313.5260723 77.22557676 310.6043044 71.9609375 310.15625 C71.2803125 310.23875 70.5996875 310.32125 69.8984375 310.40625 C69.72828125 310.99792969 69.558125 311.58960938 69.3828125 312.19921875 C67.4890774 318.37400395 65.58780834 322.46740125 60.2109375 326.34375 C55.5534896 327.83764838 52.38251865 327.27041857 47.8984375 325.40625 C45.26647514 323.71115509 42.80250581 321.91679205 40.35546875 319.96484375 C37.48066655 318.14124108 35.27403129 317.67237565 31.8984375 317.40625 C31.2384375 317.73625 30.5784375 318.06625 29.8984375 318.40625 C18.9514494 318.72889807 7.21086963 315.02060652 -0.9140625 307.71875 C-2.33325756 306.30430936 -3.73451363 304.87115079 -5.1015625 303.40625 C-5.7615625 302.74625 -6.4215625 302.08625 -7.1015625 301.40625 C-7.3084259 299.56262207 -7.3084259 299.56262207 -7.24926758 297.29882812 C-7.23297806 296.45034302 -7.21668854 295.60185791 -7.1999054 294.72766113 C-7.16089363 293.34653137 -7.16089363 293.34653137 -7.12109375 291.9375 C-7.09089857 289.98438868 -7.06163222 288.03126282 -7.03320312 286.078125 C-6.97770507 283.00152798 -6.91456952 279.92566268 -6.83422852 276.84960938 C-6.76101531 273.87883367 -6.72026004 270.90892267 -6.68359375 267.9375 C-6.65151321 267.03294067 -6.61943268 266.12838135 -6.58638 265.19641113 C-6.50441512 254.71601915 -11.58418178 247.21618539 -18.58203125 239.77734375 C-21.93888964 236.61825376 -25.56678542 234.02312353 -29.33984375 231.38671875 C-42.07496753 222.25417596 -54.38579011 208.60543196 -57.90625 192.859375 C-58.23751597 188.69867435 -57.76588201 184.56402998 -57.43041992 180.4140625 C-56.81374691 172.01078624 -57.55091426 165.03619095 -63.1015625 158.40625 C-68.2312327 153.5842062 -73.36400194 151.4678706 -79.91210938 149.08984375 C-85.33198816 147.01455624 -89.55885326 144.7004562 -92.140625 139.1875 C-92.43066406 138.05828125 -92.43066406 138.05828125 -92.7265625 136.90625 C-92.95472656 136.04902344 -93.18289062 135.19179687 -93.41796875 134.30859375 C-94.44536729 129.94655311 -95.43040678 125.5763045 -96.35546875 121.19140625 C-96.99049059 118.22564086 -96.99049059 118.22564086 -99.1015625 115.40625 C-99.61325641 110.28931095 -99.12972275 105.41853121 -98.1015625 100.40625 C-97.59868 94.05862123 -97.59868 94.05862123 -100.1015625 88.40625 C-100.66315572 82.79031784 -99.70758006 77.42380619 -97.1015625 72.40625 C-93.95307223 69.47630516 -91.70916925 69.00751614 -87.4609375 68.89453125 C-86.39101562 68.85908203 -85.32109375 68.82363281 -84.21875 68.78710938 C-83.10757813 68.76455078 -81.99640625 68.74199219 -80.8515625 68.71875 C-79.72492188 68.68458984 -78.59828125 68.65042969 -77.4375 68.61523438 C-74.65895349 68.53281986 -71.88071998 68.46364702 -69.1015625 68.40625 C-69.7615625 67.31570312 -70.4215625 66.22515625 -71.1015625 65.1015625 C-72.72549312 62.41827089 -73.1015625 61.54387399 -73.1015625 58.28125 C-71.3636113 53.28464029 -68.77632826 50.70262544 -64.2890625 48.09375 C-58.62180983 44.73772328 -54.68866151 40.00827499 -51.28125 34.421875 C-48.83207614 31.03341224 -46.48633946 29.33916153 -42.9765625 27.09375 C-32.47214068 20.14105544 -22.63767728 11.55241579 -15.7265625 0.90625 C-11.9634148 -4.883208 -5.5529864 -1.82159288 0 0 Z " fill="#000000" transform="translate(100.1015625,2.59375)"/>
</svg>
