<?xml version="1.0" encoding="UTF-8"?>
<svg version="1.1" xmlns="http://www.w3.org/2000/svg" width="1145" height="1007">
<path d="M0 0 C4.01742893 0.23631935 6.38504801 0.50503864 9.5625 3.0625 C15.48453608 10.19931271 15.48453608 10.19931271 18 14 C18.87591797 15.31097656 18.87591797 15.31097656 19.76953125 16.6484375 C21.50307896 21.37029125 20.51107493 24.84672198 19.5625 29.6875 C18.18761361 38.06301227 17.94754234 45.74515236 18.75 54.1875 C19.82370833 65.60916812 20.38550482 76.97626942 20.67590332 88.44302368 C20.72467618 90.33180687 20.77818007 92.2204748 20.83679199 94.10897827 C21.49575042 115.58705394 18.23637699 133.19453254 8.6875 152.625 C8.14416016 153.76195312 7.60082031 154.89890625 7.04101562 156.0703125 C3.90348494 162.53058819 0.50318076 168.59362786 -3.5390625 174.53295898 C-6.96530074 180.31874398 -7.68310795 187.10451459 -8.78125 193.64453125 C-10.81608902 205.33239277 -14.10498743 214.71308564 -20 225 C-26.92705927 237.14899626 -28.90793834 245.06195071 -26 259 C-27.010625 258.9175 -28.02125 258.835 -29.0625 258.75 C-33.63589513 259.04037429 -36.59186251 260.00902483 -40 263 C-44.27879898 267.97972693 -46.16010899 273.28755185 -47.58544922 279.57714844 C-50.07421747 290.46466492 -53.99483058 295.36587253 -63 302 C-67.25690674 305.14272347 -68.97061395 307.47539595 -70.91015625 312.29296875 C-72 314 -72 314 -74.06811523 314.60668945 C-74.70563721 314.73648193 -75.34315918 314.86627441 -76 315 C-76.10546143 314.43490723 -76.21092285 313.86981445 -76.31958008 313.28759766 C-76.80428238 310.730747 -77.30812787 308.17804002 -77.8125 305.625 C-77.97814453 304.73554688 -78.14378906 303.84609375 -78.31445312 302.9296875 C-78.48525391 302.07890625 -78.65605469 301.228125 -78.83203125 300.3515625 C-79.05983276 299.17327881 -79.05983276 299.17327881 -79.29223633 297.97119141 C-79.91262975 295.62805432 -79.91262975 295.62805432 -83 294 C-86.65133079 294.07937676 -88.53206731 294.64005178 -91.4375 296.875 C-93.85553523 299.49261909 -95.46633486 302.49131565 -97.25 305.5625 C-100.76589782 311.23501764 -103.83718823 312.92905514 -110 315 C-117.34004891 317.88427053 -117.34004891 317.88427053 -122.5625 323.5 C-127.71945836 336.05607252 -125.89034188 352.31007531 -122 365 C-124.82155207 366.41077604 -126.15258994 365.49396555 -129.125 364.5625 C-136.98130877 362.33978944 -143.6397992 362.00751013 -151 366 C-155.66692093 369.0972342 -157.25151387 372.2124879 -158.5 377.625 C-159.70670844 382.7138619 -159.70670844 382.7138619 -162.5625 385.5 C-163.696875 385.995 -164.83125 386.49 -166 387 C-166.65355469 387.30550781 -167.30710937 387.61101562 -167.98046875 387.92578125 C-173.79017673 390.19566715 -178.91010687 389.98716644 -185 389.5 C-194.10937427 388.7948967 -200.92950579 389.13510545 -208.1875 395.25 C-209.47227859 396.48566231 -210.74348125 397.73561161 -212 399 C-212.60714844 399.55945313 -213.21429687 400.11890625 -213.83984375 400.6953125 C-221.25316155 407.67064435 -225.12861606 414.30938434 -227.29296875 424.2578125 C-228.69724134 429.70421778 -231.47435394 432.74040106 -236 436 C-249.52377608 429.49781463 -249.52377608 429.49781463 -254.75 425.75 C-264.96430687 418.816877 -277.03071988 418.84007415 -289 420 C-292.69225825 420.85737832 -295.68428013 422.19886822 -299 424 C-300.8298296 424.82036029 -302.6633473 425.63253155 -304.5 426.4375 C-306.33359128 427.29111282 -308.16692989 428.1452686 -310 429 C-310.84691406 429.36738281 -311.69382812 429.73476563 -312.56640625 430.11328125 C-318.46270997 432.79845243 -322.54521402 436.20570451 -327.2109375 440.6640625 C-331.3997796 444.17236443 -336.04315807 446.50976669 -340.8984375 448.98046875 C-344.40537325 451.2639521 -345.99843613 453.35377763 -348 457 C-348.75015195 460.04308291 -348.75015195 460.04308291 -348 463 C-345.70817728 465.79197732 -345.70817728 465.79197732 -343 468 C-342.34 468.66 -341.68 469.32 -341 470 C-342.28698445 483.78243344 -355.50611438 495.714488 -364.5 505.125 C-365.21196533 505.89666504 -365.92393066 506.66833008 -366.6574707 507.46337891 C-372.55124643 513.48385151 -372.55124643 513.48385151 -377.24609375 513.62890625 C-380.5890021 513.06885605 -382.71607147 512.56788761 -385.5625 510.8125 C-386.32175781 510.35617187 -387.08101562 509.89984375 -387.86328125 509.4296875 C-389.74106781 508.17325262 -391.48332455 506.84211604 -393.25 505.4375 C-401.95773981 499.02763597 -417.30465783 495.99100546 -428 497 C-435.75939414 498.90804774 -440.37861059 503.49801919 -446 509 C-446.66515625 509.63808594 -447.3303125 510.27617187 -448.015625 510.93359375 C-450.66796431 513.52250756 -453.09685669 516.11920823 -455.4375 519 C-457.48985702 521.40275944 -459.3364059 523.17355937 -461.7421875 525.16015625 C-466.00515242 528.85262546 -469.33983435 532.91835476 -472.6875 537.4375 C-473.22955078 538.14970703 -473.77160156 538.86191406 -474.33007812 539.59570312 C-484.83067447 553.54160973 -488.24540576 565.03250046 -486.1875 582.4375 C-484.99982492 593.78054294 -484.99982492 593.78054294 -479.0625 603 C-478.051875 603.66 -477.04125 604.32 -476 605 C-475.0409375 605.680625 -475.0409375 605.680625 -474.0625 606.375 C-470.60507698 607.42270394 -468.48004682 606.98601327 -465 606 C-461.15420695 603.25403188 -457.91413572 599.93819192 -454.625 596.5625 C-453 595 -453 595 -451 595 C-450.62488281 596.12277344 -450.24976563 597.24554687 -449.86328125 598.40234375 C-445.90540552 612.38742656 -445.90540552 612.38742656 -436.9375 623 C-432.72646538 624.40676321 -428.27285594 624.45643046 -423.8671875 624.59375 C-416.40349428 625.65127601 -413.10795261 631.37496545 -408.79296875 636.9921875 C-403.99251765 642.61844545 -397.27631205 645.70450628 -390.375 648 C-389.63572266 648.24637207 -388.89644531 648.49274414 -388.13476562 648.74658203 C-380.3995491 651.14499145 -372.47340997 652.53947759 -364.5 653.875 C-363.22431152 654.09027344 -361.94862305 654.30554688 -360.63427734 654.52734375 C-345.68807126 657.13223745 -345.68807126 657.13223745 -332 652 C-330.21153534 650.51151136 -328.49802909 648.99553104 -326.8359375 647.3671875 C-321.58110746 643.4540162 -316.01867541 643.78986184 -309.8125 644.1875 C-309.00619141 644.21908203 -308.19988281 644.25066406 -307.36914062 644.28320312 C-306.59376953 644.32767578 -305.81839844 644.37214844 -305.01953125 644.41796875 C-304.31932861 644.45688232 -303.61912598 644.4957959 -302.89770508 644.53588867 C-300.45427783 645.13346428 -299.5169044 646.01456717 -298 648 C-297.59375 651.265625 -297.59375 651.265625 -297.5 655.25 C-297.24920399 662.31597525 -296.16189629 668.82581097 -294.5234375 675.6953125 C-293.97078422 679.18445189 -294.09170716 681.59750619 -295 685 C-296.60118397 687.05279996 -298.26776336 689.05651499 -300 691 C-302.7317343 695.49052213 -302.51024706 699.88943029 -302 705 C-300.27925647 710.06663372 -297.31066845 712.98411331 -293 716 C-290.49734239 717.1675406 -288.15085091 718.15923852 -285.5625 719.0625 C-284.87019287 719.3114502 -284.17788574 719.56040039 -283.46459961 719.81689453 C-268.57081671 725.26837466 -268.57081671 725.26837466 -253 726 C-250.67245512 724.87501998 -249.01923874 723.65681128 -247 722 C-244.36 724.31 -241.72 726.62 -239 729 C-240.21642657 731.43285314 -241.44396516 733.86024658 -242.69140625 736.27734375 C-243.31524477 737.49732395 -243.93893916 738.71737785 -244.5625 739.9375 C-244.87896484 740.54529297 -245.19542969 741.15308594 -245.52148438 741.77929688 C-248.74830054 748.13016437 -249.20178692 753.5211563 -249.25 760.5 C-249.270625 761.24636719 -249.29125 761.99273438 -249.3125 762.76171875 C-249.34461899 767.29852547 -249.13789976 770.460296 -246 774 C-243.62851606 775.26270119 -241.48953098 776.25647663 -239 777.1875 C-235.45550999 778.5784218 -232.19160724 779.87226184 -229 782 C-228.671875 783.98828125 -228.671875 783.98828125 -228.75 786.3125 C-228.76546875 787.07175781 -228.7809375 787.83101562 -228.796875 788.61328125 C-229.37457125 795.40121224 -229.37457125 795.40121224 -231.92578125 797.84375 C-232.71339844 798.3903125 -233.50101563 798.936875 -234.3125 799.5 C-240.41920681 803.66002399 -240.41920681 803.66002399 -243.3359375 810.1328125 C-243.53756323 814.83224287 -243.21828522 818.35261008 -240 822 C-235.43655341 824.77803975 -232.23652669 825.29890924 -226.9375 825.0625 C-222.38343945 824.86965704 -219.0927691 824.87920147 -215 827 C-213.32229619 829.23693842 -213.00024447 830.99865541 -212.5 833.75 C-213.04138271 837.2689876 -213.7481808 838.19741537 -215.9375 840.875 C-218.58951763 844.19474653 -219.99927713 846.6520378 -220.234375 850.92578125 C-219.59308956 856.60115737 -216.49295876 862.34065119 -212.76171875 866.6015625 C-209.4519841 869.22880198 -205.51176694 870.76503133 -201.64453125 872.41015625 C-198.4054788 874.35741526 -197.90663598 875.37345609 -197 879 C-194.95542244 891.33516659 -194.95542244 891.33516659 -196.87890625 896.2421875 C-199.38435124 899.39951943 -202.34125595 900.61561036 -206 902 C-208.51964733 905.55001857 -208.20333323 909.02000578 -208.125 913.25 C-208.063125 916.59125 -208.063125 916.59125 -208 920 C-213.61 920 -219.22 920 -225 920 C-225.33 919.01 -225.66 918.02 -226 917 C-227.051875 917.06703125 -228.10375 917.1340625 -229.1875 917.203125 C-235.3541612 917.1976966 -241.09962701 915.3889925 -247 913.75 C-248.13695312 913.44964844 -249.27390625 913.14929688 -250.4453125 912.83984375 C-259.01034522 910.50482903 -266.42748723 908.30065359 -272.5 901.5625 C-277.34163302 896.52121201 -281.59253778 892.46202878 -288.6875 891.5 C-293.69429834 892.25574315 -295.99110348 893.72404263 -299.125 897.6875 C-300.60396822 900.30034385 -301.47908436 902.32786802 -302.375 905.125 C-303.51972943 908.36632627 -304.13736068 909.12243017 -306.875 911.5625 C-310.43382303 913.19955859 -311.3780281 913.26245291 -315 912 C-324.03392053 903.18396624 -329.77313512 890.13433525 -335.01586914 878.8046875 C-336.30369466 876.44308833 -337.57628155 876.10798558 -340 875 C-341.06541016 874.04480469 -341.06541016 874.04480469 -342.15234375 873.0703125 C-345.52527419 870.61811341 -348.75137972 869.74765693 -352.75 868.875 C-353.81408081 868.62254517 -353.81408081 868.62254517 -354.8996582 868.36499023 C-358.64677555 867.48465113 -362.39953005 866.74599542 -366.1875 866.0625 C-370.55343298 864.84576458 -372.26095342 863.56906069 -375 860 C-375.2475 859.13375 -375.495 858.2675 -375.75 857.375 C-377.24887938 854.52712918 -377.92334821 854.36515001 -380.875 853.3125 C-390.39038349 850.6177434 -400.16471612 849.66266097 -410 849 C-409.80664062 849.58136719 -409.61328125 850.16273438 -409.4140625 850.76171875 C-408.93015631 853.37755128 -409.30930847 854.4122498 -410.375 856.8125 C-417.1242633 872.10872757 -414.36548811 893.98699949 -408.84179688 909.11181641 C-407.61086687 912.27603829 -406.31617824 915.36480669 -404.80273438 918.40527344 C-401.86359397 924.39469822 -401.86359397 924.39469822 -402.625 927.7734375 C-403.07875 928.50820313 -403.5325 929.24296875 -404 930 C-404.67240333 931.53917326 -405.33898188 933.08090298 -406 934.625 C-406.33 935.38039063 -406.66 936.13578125 -407 936.9140625 C-410.63761098 948.13950263 -410.57599176 959.93588785 -410.95361328 971.61987305 C-411.35743134 983.59053964 -412.31856727 991.9147797 -421 1001 C-427.05497866 1006.04581555 -432.10516143 1007.70577559 -440 1007 C-441.34136367 1006.34964186 -442.67532254 1005.6837045 -444 1005 C-448.40022616 1004.68569813 -451.16675992 1004.88163048 -455 1007 C-454.94779297 1006.11248047 -454.94779297 1006.11248047 -454.89453125 1005.20703125 C-454.71671033 1000.01635402 -455.19734041 997.45877663 -458 993 C-457.2273014 990.25262721 -455.8124661 988.78405187 -453.9375 986.625 C-451.70651926 983.60238094 -451.1588414 981.73277293 -451 978 C-451.24225195 975.59870168 -451.24225195 975.59870168 -453 974 C-458.68059419 972.43293953 -461.82106809 972.92985077 -466.94433594 975.640625 C-470.54558628 978.02206941 -473.10863612 981.17266452 -475.8125 984.5 C-476.37130859 985.16386719 -476.93011719 985.82773437 -477.50585938 986.51171875 C-480.09724422 989.606555 -482.62555179 992.73409229 -485 996 C-488.88130574 994.62028988 -491.88353248 992.82491388 -495.1875 990.375 C-496.14140625 989.66988281 -497.0953125 988.96476563 -498.078125 988.23828125 C-501.73232848 985.43900505 -505.28731999 982.53077345 -508.80859375 979.56640625 C-513.00247983 976.56863741 -516.92349317 976.74643878 -522 977 C-524.72905146 977.52614756 -527.38824963 978.24683339 -530.0625 979 C-534.73941521 980.30971325 -539.1018589 981.49483417 -544 981 C-546.625 978.6875 -546.625 978.6875 -549 976 C-551.6157048 973.3842952 -552.81068002 973.02324982 -556.5625 972.5625 C-564.65778691 972.90987239 -571.4448952 976.08734266 -577.2734375 981.54296875 C-582.09248731 985.60972345 -587.36239034 987.11162978 -593.5625 987.4375 C-598.98266145 987.7724538 -603.06955307 989.13161276 -607 993 C-607.268125 994.010625 -607.53625 995.02125 -607.8125 996.0625 C-609 999 -609 999 -611.375 1000.33984375 C-618.85255166 1003.29307891 -618.85255166 1003.29307891 -622.5234375 1002.35546875 C-626.50700335 1000.17518902 -629.76272028 997.28003505 -633.2109375 994.34765625 C-635.87609129 992.04389034 -635.87609129 992.04389034 -638.3515625 990.30859375 C-645.63592343 984.86578474 -647.05432526 977.32730104 -648.5859375 968.69921875 C-649.08736414 964.21949206 -649.19092176 959.81681301 -649.1875 955.3125 C-649.18814453 954.42473877 -649.18878906 953.53697754 -649.18945312 952.62231445 C-649.14334136 946.87668412 -648.54533948 941.51620334 -647.45703125 935.87109375 C-644.70875683 918.60629293 -648.79777553 899.74552962 -651.875 882.75 C-652.01196289 881.92282471 -652.14892578 881.09564941 -652.29003906 880.2434082 C-653.0486624 876.34829519 -653.57482977 874.44329224 -656.3828125 871.515625 C-660.61553007 869.0644393 -664.01036247 868.82426928 -668.875 868.75 C-670.38707031 868.71132812 -670.38707031 868.71132812 -671.9296875 868.671875 C-675.66689672 869.07127141 -677.84419117 869.94851189 -681 872 C-682.70029189 874.14141852 -684.13866694 876.13310473 -685.5625 878.4375 C-690.78142287 886.73736124 -690.78142287 886.73736124 -695 889 C-701.76481644 889.32442816 -708.41152368 887.27202915 -714.875 885.5 C-729.46876788 881.50636025 -729.46876788 881.50636025 -744.09765625 883.85546875 C-748.49872353 886.5033388 -750.47406849 890.67264905 -752.3125 895.3125 C-754 898 -754 898 -757.375 899.375 C-767.81495749 901.19964122 -778.06942837 899.76368766 -788.40112305 897.97973633 C-795.37057674 896.84351975 -801.8042551 896.40212755 -808.25 899.625 C-810.6006238 901.65508419 -811.7572654 903.02876336 -813.375 905.5625 C-816.1788464 909.72821466 -819.23509929 910.82131403 -824 912 C-824.77601563 912.19207031 -825.55203125 912.38414062 -826.3515625 912.58203125 C-838.58420059 915.28097838 -858.25598491 918.63890327 -870 913 C-880.20020063 905.89127023 -887.38292007 895.10302116 -894.0625 884.8125 C-898.7566023 877.64781754 -904.09871068 869.81283147 -912 866 C-915.56961094 865.21514103 -915.56961094 865.21514103 -919.3125 864.8125 C-921.19388672 864.57466797 -921.19388672 864.57466797 -923.11328125 864.33203125 C-924.06589844 864.22246094 -925.01851562 864.11289062 -926 864 C-925.10292003 856.22530694 -925.10292003 856.22530694 -923 853 C-915.80536127 848.68215847 -907.17813129 847.78781043 -899.03515625 846.578125 C-889.79622039 845.07922072 -883.44918978 842.4319082 -877.4765625 835.08203125 C-874.11786425 830.34608901 -872.34207204 825.92135161 -873 820 C-873.83585441 816.74945508 -874.88684397 816.07200839 -877.75 814.25 C-891.34056004 809.16053101 -909.30864901 814.54129403 -922.375 819.25 C-933.41376664 823.15023167 -941.21867283 821.98485303 -952.09375 817.53125 C-956.02279713 815.46110689 -958.93695533 812.97536462 -961 809 C-961 808.01 -961 807.02 -961 806 C-960.36723145 805.81937012 -959.73446289 805.63874023 -959.08251953 805.45263672 C-951.70972274 803.34174192 -944.35006429 801.18873106 -937 799 C-935.62666504 798.59225342 -935.62666504 798.59225342 -934.22558594 798.17626953 C-921.6762665 794.39992082 -912.07122211 790.61542441 -905 779 C-901.84567486 773.12554833 -901.31871364 766.82367996 -900.625 760.26953125 C-899.23602998 753.00348185 -894.93080017 750.15520338 -889.1875 746.125 C-879.76178548 739.59505755 -879.76178548 739.59505755 -874 730 C-874.00963791 728.44023503 -874.07778236 726.88042041 -874.18359375 725.32421875 C-874.22291016 724.41349609 -874.26222656 723.50277344 -874.30273438 722.56445312 C-874.39209976 720.65669638 -874.50901922 718.75001832 -874.65429688 716.84570312 C-874.88168747 709.98044245 -874.88168747 709.98044245 -872.27368164 707.08032227 C-870.24403739 705.57279079 -868.17005526 704.29236459 -866 703 C-862.23619639 699.23619639 -861.09555125 696.35087015 -861 691 C-862.86713242 685.89650471 -867.47235863 682.74613181 -872 680 C-875.56402415 678.81233177 -878.98750583 678.87070199 -882.72265625 678.8671875 C-883.37640732 678.86636673 -884.03015839 678.86554596 -884.70372009 678.86470032 C-886.10073976 678.86423553 -887.49776204 678.866224 -888.89477539 678.87045288 C-891.07384407 678.8750238 -893.25259423 678.86656603 -895.43164062 678.85668945 C-902.56064463 678.84428 -909.54617936 679.07329766 -916.63330078 679.92138672 C-925.7497949 680.94645156 -925.7497949 680.94645156 -929.63671875 678.00390625 C-931.78679059 675.11666692 -933.37103035 672.20666423 -935 669 C-936.29834036 667.12116416 -937.63181774 665.26610305 -939 663.4375 C-939.65613281 662.52226563 -940.31226563 661.60703125 -940.98828125 660.6640625 C-942.9458826 657.99469708 -942.9458826 657.99469708 -945.10546875 655.6484375 C-957.54405887 641.69294614 -958.42154617 621.8622804 -957.5 604.0625 C-957.4282959 602.99588135 -957.3565918 601.9292627 -957.28271484 600.83032227 C-956.73485392 591.82034595 -957.61797674 584.5900328 -963 577 C-964.57078884 575.24441248 -966.15608877 573.53071387 -967.828125 571.87109375 C-969.5499932 569.1218442 -969.33426471 567.1914321 -969 564 C-967.96875 561.24609375 -967.96875 561.24609375 -966.5 558.4375 C-965.95472656 557.39464844 -965.40945313 556.35179687 -964.84765625 555.27734375 C-962.97207192 551.9504616 -960.97921439 548.72722596 -958.9375 545.5 C-952.57382615 535.23995003 -948.31506989 526.31906449 -950 514 C-950.90358442 510.68862885 -952.2561308 507.94760192 -954 505 C-954.76376953 503.69095703 -954.76376953 503.69095703 -955.54296875 502.35546875 C-957.28297753 499.50854363 -959.11212646 496.75090145 -961 494 C-961.63164063 493.05898438 -962.26328125 492.11796875 -962.9140625 491.1484375 C-965.9457601 486.95720616 -968.38243373 483.62956335 -973.5 482.1875 C-978.24719628 481.65008155 -982.00457812 482.34426593 -986 485 C-989.83496611 488.65268252 -993.03575414 492.74112346 -996.25 496.9375 C-998.81569778 499.9613581 -1000.88944752 500.88237615 -1004.83984375 501.30078125 C-1005.86207031 501.30464844 -1006.88429688 501.30851562 -1007.9375 501.3125 C-1008.95714844 501.32925781 -1009.97679687 501.34601563 -1011.02734375 501.36328125 C-1015.5183843 500.81444187 -1017.96545201 499.12988868 -1020.9921875 495.82421875 C-1023.53585321 492.24626095 -1025.85195063 488.56689885 -1028.125 484.8125 C-1028.60364502 484.02367432 -1029.08229004 483.23484863 -1029.57543945 482.42211914 C-1036.77281822 470.47861702 -1043.49672993 458.41061815 -1049.2956543 445.72412109 C-1051.5235584 440.88285835 -1054.08347436 436.46592988 -1057 432 C-1057 431.34 -1057 430.68 -1057 430 C-1057.556875 429.86464844 -1058.11375 429.72929687 -1058.6875 429.58984375 C-1065.24397857 427.74029658 -1069.2064209 424.74583429 -1074 420 C-1074.64710937 419.39027344 -1075.29421875 418.78054688 -1075.9609375 418.15234375 C-1080.53611816 413.74895841 -1084.54199616 409.0011703 -1088.515625 404.0546875 C-1091.28480004 400.64982134 -1094.13246895 397.32194113 -1097 394 C-1101.42471844 388.86673908 -1105.75231515 383.66971074 -1110.03125 378.4140625 C-1114.96102853 372.12589756 -1114.96102853 372.12589756 -1121 367 C-1121.53087173 364.4470438 -1121.8834982 362.08160137 -1122.125 359.5 C-1122.20282715 358.76950439 -1122.2806543 358.03900879 -1122.36083984 357.28637695 C-1122.51427325 355.83422784 -1122.66235771 354.38150208 -1122.8046875 352.92822266 C-1122.95831634 351.41152193 -1123.14493556 349.89816035 -1123.34375 348.38671875 C-1125.737384 329.66983065 -1123.58220536 314.5530292 -1114.17407227 298.08544922 C-1107.84893838 286.85776619 -1108.59825129 275.80091587 -1109.77734375 263.3125 C-1110.20946009 256.88382177 -1110.07354969 250.4396839 -1110 244 C-1106.37 244 -1102.74 244 -1099 244 C-1099 243.34 -1099 242.68 -1099 242 C-1094.3393532 240.47413122 -1091.26385902 241.91903295 -1087 244 C-1084.56609456 245.7307772 -1082.53656597 247.39344716 -1080.5625 249.625 C-1075.19575109 254.34773904 -1066.33785846 254.08809524 -1059.55859375 253.9296875 C-1043.87110722 253.69365041 -1032.75259562 257.10401304 -1019.16870117 264.89257812 C-1012.99578292 268.04470659 -1005.06226079 268.0936856 -998.4609375 266.31640625 C-996.16810641 265.36696932 -994.11524211 264.2960443 -992 263 C-991.36191406 262.61070312 -990.72382812 262.22140625 -990.06640625 261.8203125 C-982.59820283 256.39181195 -980.43699598 247.22176346 -978.4375 238.625 C-977.34129261 234.02333821 -976.3862607 230.47778126 -973 227 C-969.33645303 225.29137095 -966.22668266 224.77696679 -962.25 225.5 C-959.21521825 227.52318783 -957.36622051 229.64781324 -956 233 C-955.58786459 236.84856324 -955.7593294 240.63882349 -955.9375 244.5 C-956.62884715 253.76583318 -956.62884715 253.76583318 -953 262 C-948.10082592 265.47826559 -943.18730994 265.61241806 -937.375 265.625 C-936.04746704 265.63067993 -936.04746704 265.63067993 -934.69311523 265.63647461 C-927.5588425 265.44950207 -923.21952305 263.86401165 -917.41015625 259.62890625 C-913.3543987 256.88781889 -909.69950519 256.90952465 -904.9375 257.125 C-897.44779934 257.17560609 -888.06372026 256.31833344 -882.37890625 250.87109375 C-879.0008713 246.28730129 -876.51812089 241.08839221 -874 236 C-872.99431428 239.12958145 -873.06016991 241.03943322 -873.9375 244.1875 C-875.66992033 251.4756131 -876.00098559 257.53501757 -872.34375 264.26171875 C-870.85348517 266.18953226 -869.57142782 266.92772059 -867.4375 268.0625 C-864.63669303 269.85024913 -864.05002373 270.84232522 -863.0234375 274.078125 C-862.40200695 277.34234264 -861.84858741 280.60217198 -861.34472656 283.88574219 C-859.18175172 298.43192876 -859.18175172 298.43192876 -851 310 C-842.4102184 314.93694269 -833.59758953 317.64657657 -823.7109375 315.50390625 C-819.1556829 313.99401849 -816.60810332 312.17296531 -814 308 C-812.99994696 304.99984088 -812.88424415 303.02576244 -812.90234375 299.89453125 C-812.90717773 298.42016602 -812.90717773 298.42016602 -812.91210938 296.91601562 C-812.92048828 295.89185547 -812.92886719 294.86769531 -812.9375 293.8125 C-812.94426758 292.25885742 -812.94426758 292.25885742 -812.95117188 290.67382812 C-812.9629599 288.11582734 -812.97941485 285.55794267 -813 283 C-803.48753976 285.80070029 -803.48753976 285.80070029 -799.9375 289.375 C-793.73426032 295.19819931 -786.84484027 298.81257882 -779 302 C-777.3603125 302.680625 -777.3603125 302.680625 -775.6875 303.375 C-773.09151415 304.22115712 -773.09151415 304.22115712 -770.96875 303.34765625 C-768.38126516 301.57646127 -767.86551549 299.98945325 -766.8125 297.0625 C-766.48894531 296.18722656 -766.16539062 295.31195313 -765.83203125 294.41015625 C-764.54521843 290.68262804 -763.87238608 287.79158076 -763.82421875 283.8515625 C-763.80037109 282.84609375 -763.77652344 281.840625 -763.75195312 280.8046875 C-763.70914684 278.69291095 -763.67780819 276.58086936 -763.65820312 274.46875 C-763.4498704 266.89125268 -763.4498704 266.89125268 -761.55078125 263.12890625 C-757.80919845 260.00614572 -753.754071 257.67052578 -749.5 255.3125 C-748.64535156 254.82716797 -747.79070312 254.34183594 -746.91015625 253.84179688 C-744.61537074 252.54404376 -742.31757355 251.25658923 -740 250 C-739.30221436 249.61859863 -738.60442871 249.23719727 -737.88549805 248.84423828 C-736 248 -736 248 -733.42578125 248.06640625 C-730.08205684 249.35328247 -729.63408785 250.68158474 -728.1875 253.9375 C-724.7510646 261.88812175 -722.39111013 270.19865359 -720.06713867 278.53295898 C-717.23832775 288.32127521 -713.82860276 297.1022234 -704.76953125 302.48828125 C-703.85558594 302.98714844 -702.94164062 303.48601562 -702 304 C-701.40880371 304.33306152 -700.81760742 304.66612305 -700.20849609 305.00927734 C-698.22938314 306.12367628 -696.24228649 307.22183751 -694.25 308.3125 C-693.61199463 308.6626416 -692.97398926 309.0127832 -692.31665039 309.37353516 C-688.92073335 311.17715728 -685.85979419 312.67382021 -682 313 C-678.28738773 311.24886475 -678.28738773 311.24886475 -676 308 C-675.47495164 299.13523003 -676.21922852 290.68126095 -678 282 C-672.43697415 281.80480611 -667.26198064 282.18891062 -661.75 283 C-649.60653034 285.25828309 -649.60653034 285.25828309 -638.26953125 282.22265625 C-632.33904097 276.41465458 -631.41424009 268.78007262 -630.4921875 260.8203125 C-630 258 -630 258 -628 255 C-625.92185974 254.62145996 -625.92185974 254.62145996 -623.32592773 254.61523438 C-622.35409042 254.60512329 -621.38225311 254.59501221 -620.38096619 254.58459473 C-618.79826683 254.58912659 -618.79826683 254.58912659 -617.18359375 254.59375 C-616.09796646 254.58291382 -615.01233917 254.57207764 -613.89381409 254.56091309 C-610.40831627 254.5265358 -606.92314527 254.51104648 -603.4375 254.5 C-598.87338554 254.4853806 -594.30999574 254.45152526 -589.74609375 254.40625 C-588.18464882 254.41078186 -588.18464882 254.41078186 -586.59165955 254.41540527 C-577.79685764 254.32593474 -569.90812669 252.78354792 -563 247 C-561.41307072 244.73150494 -560.24620763 242.49241526 -559 240 C-558.67 239.34 -558.34 238.68 -558 238 C-529.52177403 237.41067027 -529.52177403 237.41067027 -516.41796875 240.34375 C-511.73373715 241.24312247 -507.65379841 241.75172655 -503.25 239.75 C-498.79642381 236.28610741 -496.95452601 232.52054868 -496 227 C-495.78800085 221.5631727 -496.00212114 216.1277555 -496.16601562 210.69140625 C-496.29312817 203.12601813 -496.1214145 196.099207 -491.37890625 189.87109375 C-490.77949219 189.39800781 -490.18007813 188.92492187 -489.5625 188.4375 C-488.86511719 187.88191406 -488.16773438 187.32632813 -487.44921875 186.75390625 C-483.62502161 184.01536635 -479.71249139 181.42137348 -475.7734375 178.8515625 C-471.02660378 175.68254957 -467.01610852 172.05014334 -463 168 C-457.27611024 180.08149588 -457.27611024 180.08149588 -458.21484375 187.0625 C-457.87746738 190.10502145 -456.32133412 191.09016115 -454 193 C-450.90065242 194.01672471 -450.90065242 194.01672471 -447.3984375 194.51953125 C-446.10292969 194.73673828 -444.80742188 194.95394531 -443.47265625 195.17773438 C-442.7986377 195.28174561 -442.12461914 195.38575684 -441.43017578 195.49291992 C-439.39842781 195.80885697 -437.37366412 196.15519468 -435.34765625 196.50585938 C-427.97485669 197.72763953 -421.40583263 198.16745717 -414 197 C-412.515 188.585 -412.515 188.585 -411 180 C-408.03619626 181.48190187 -405.70160512 182.83372588 -403.06640625 184.75 C-401.9690918 185.53890625 -401.9690918 185.53890625 -400.84960938 186.34375 C-399.32743111 187.44606184 -397.80659098 188.55022391 -396.28710938 189.65625 C-391.88390511 192.81681978 -391.88390511 192.81681978 -387.03125 195.1875 C-386.3609375 195.455625 -385.690625 195.72375 -385 196 C-383.9375 199 -383.9375 199 -383.51953125 200.8671875 C-382.00969281 207.06547161 -379.62431811 213.50780526 -375 218 C-373.82308594 218.54011719 -372.64617188 219.08023438 -371.43359375 219.63671875 C-369.55297852 220.68847656 -369.55297852 220.68847656 -368 222 C-367.2556227 224.92521822 -366.9339376 226.9986571 -366.875 229.9375 C-366.73518969 234.42376598 -366.52068938 237.34120355 -363.62890625 241 C-361.16067837 243.28478574 -361.16067837 243.28478574 -358.0625 243.0625 C-350.79525584 240.54121121 -347.57132581 236.51055855 -344 230 C-341.04727153 234.4290927 -341.90954893 238.99124244 -342.078125 244.1328125 C-342.17842817 249.16468838 -341.52159122 253.14880916 -340 258 C-339.91015625 260.22265625 -339.91015625 260.22265625 -340.0625 262.0625 C-339.98600405 266.88174481 -339.11365659 269.88596216 -335.64648438 273.35375977 C-330.61556829 277.71474885 -325.19687351 281.28024899 -319.5625 284.8125 C-318.59763672 285.41908447 -317.63277344 286.02566895 -316.63867188 286.65063477 C-313.76617246 288.445471 -310.88533805 290.22588987 -308 292 C-307.17999512 292.50692383 -306.35999023 293.01384766 -305.51513672 293.53613281 C-303.35580675 294.85895733 -301.18302097 296.15424651 -299 297.4375 C-298.37295166 297.82075439 -297.74590332 298.20400879 -297.09985352 298.59887695 C-294.13091689 300.29686051 -292.2158042 301.00652371 -288.76953125 300.90234375 C-285.93359895 299.97836581 -284.68661632 299.28425226 -282.6875 297.125 C-282.09839844 296.4959375 -281.50929688 295.866875 -280.90234375 295.21875 C-278.77833641 292.74146834 -276.76950459 290.18807892 -274.75 287.625 C-270.85057712 282.71560652 -266.6511542 279.1779867 -261.48046875 275.65625 C-254.47485723 268.15417782 -253.35976482 255.58203279 -251.20117188 245.87695312 C-249.97300162 240.52447638 -248.79384337 235.75036277 -246 231 C-237.96304464 233.05596533 -234.58446394 238.33573603 -230.33203125 245.01171875 C-228.46852588 247.79331474 -227.57421816 248.86949587 -224.25 249.625 C-219.88390508 248.78536636 -219.07848292 246.9948952 -216.57421875 243.49560547 C-213.71830846 238.96813727 -211.57209386 234.12208666 -209.375 229.25 C-208.45347087 227.2098369 -207.52405531 225.17321359 -206.5859375 223.140625 C-205.98338135 221.80306152 -205.98338135 221.80306152 -205.36865234 220.43847656 C-203.89465675 217.81231388 -202.21514222 216.02275138 -200 214 C-199.76925781 215.27875 -199.53851562 216.5575 -199.30078125 217.875 C-198.97222342 219.58350073 -198.64274716 221.29182501 -198.3125 223 C-198.16361328 223.83917969 -198.01472656 224.67835938 -197.86132812 225.54296875 C-196.69354573 231.45057381 -194.81530776 236.27386174 -191 241 C-186.55623328 243.22188336 -180.97987834 242.49996928 -176.29296875 241.31640625 C-170.72017389 239.30284769 -167.21270777 237.15980338 -164 232 C-160.73934549 224.7789158 -159.54812072 216.71864444 -158 209 C-153.40252376 211.84605672 -149.20260011 214.59302309 -145.5625 218.625 C-140.79700494 223.61163172 -135.00998214 225.64883542 -128.25 226.4375 C-124.59759526 225.94583013 -122.12559337 224.93489113 -119 223 C-117.33508556 219.67017112 -117.85865321 215.93785969 -117.8671875 212.27734375 C-117.86520859 210.95064163 -117.86520859 210.95064163 -117.8631897 209.59713745 C-117.86126722 206.7105564 -117.8676215 203.82407125 -117.875 200.9375 C-117.87632935 199.47031021 -117.87632935 199.47031021 -117.87768555 197.97348022 C-117.89285649 183.78237488 -118.21870531 169.6502512 -118.88867188 155.47460938 C-119.95889355 131.68564695 -119.95889355 131.68564695 -114.3828125 125.0859375 C-113.18195428 123.91600267 -111.95930877 122.76797007 -110.71484375 121.64453125 C-107.16635669 118.24154024 -105.41915057 114.38843627 -104 109.6875 C-104 104.58947355 -105.32422015 100.34552238 -108 96 C-109.03253906 95.25621094 -110.06507813 94.51242188 -111.12890625 93.74609375 C-114.41364499 90.60436404 -114.41364499 90.60436404 -114.5859375 86.79296875 C-114.54637725 85.25671241 -114.47526181 83.72099148 -114.375 82.1875 C-114.33439453 81.00510742 -114.33439453 81.00510742 -114.29296875 79.79882812 C-114.22263676 77.86469843 -114.11502458 75.93198696 -114 74 C-113.14277344 74.2165625 -112.28554688 74.433125 -111.40234375 74.65625 C-100.99498517 77.59871258 -100.99498517 77.59871258 -90.8125 75.4375 C-84.60675308 70.059186 -83.13000534 63.50175229 -81.66601562 55.78515625 C-80.57697011 50.76691127 -79.16940214 48.03128304 -75 45 C-68.04088756 42.37109749 -60.76470777 42.85339361 -53.4609375 43.078125 C-43.43235506 43.3889488 -43.43235506 43.3889488 -34.86328125 39.01171875 C-34.09564453 37.86123047 -34.09564453 37.86123047 -33.3125 36.6875 C-29.11061913 31.41620256 -24.64368622 30.14094926 -18.34765625 28.16796875 C-10.74344083 25.51492276 -6.17922735 20.71209241 -2 14 C-0.99740493 10.99221479 -0.69685358 8.46179353 -0.4375 5.3125 C-0.31181641 3.82169922 -0.31181641 3.82169922 -0.18359375 2.30078125 C-0.09271484 1.16189453 -0.09271484 1.16189453 0 0 Z " fill="#000000" transform="translate(1124,0)"/>
</svg>
