<?xml version="1.0" encoding="UTF-8"?>
<svg version="1.1" xmlns="http://www.w3.org/2000/svg" width="1322" height="2012">
<path d="M0 0 C2.00934341 6.27763812 3.90012604 12.56351832 5.578125 18.9375 C11.01353201 41.81311917 11.01353201 41.81311917 26 59 C28.60481001 59.54219063 31.11999893 59.96935205 33.75 60.3125 C34.4409375 60.42400391 35.131875 60.53550781 35.84375 60.65039062 C41.00573231 61.33445031 44.34922231 60.62206664 49 58 C51.12117373 56.01945373 51.12117373 56.01945373 52.6875 53.6875 C53.25984375 52.89859375 53.8321875 52.1096875 54.421875 51.296875 C55.20304688 50.15992187 55.20304688 50.15992187 56 49 C56.65742188 48.04867187 56.65742188 48.04867187 57.328125 47.078125 C58.23845317 45.73186503 59.12296149 44.36818008 60 43 C61.27450447 43.59638333 62.54446877 44.20247416 63.8125 44.8125 C64.52019531 45.14894531 65.22789063 45.48539063 65.95703125 45.83203125 C69.75241326 48.00185768 70.76853846 49.23657472 72.07958984 53.56079102 C73.14776978 58.05622314 73.2070694 62.29193368 73.08984375 66.890625 C73.06941349 68.58723662 73.0492393 70.28385133 73.02929688 71.98046875 C72.98601742 74.61097937 72.93767963 77.24127224 72.88354492 79.87158203 C72.62818339 93.27365959 73.50639133 104.59087755 79.5 116.8125 C85.87770784 130.74144059 86.62625741 144.91122947 87 160 C87.02723145 160.83660156 87.05446289 161.67320312 87.08251953 162.53515625 C87.15797 164.96096003 87.2087854 167.38589536 87.25 169.8125 C87.27151123 170.53477783 87.29302246 171.25705566 87.31518555 172.0012207 C87.3473015 177.16583002 86.41182985 180.52875379 84 185 C82.2734375 186.65234375 82.2734375 186.65234375 80.375 187.9375 C75.4199251 191.90339174 72.90563116 197.02379001 70.05810547 202.57788086 C67.28568528 207.90477157 67.28568528 207.90477157 64 209 C61.7934405 209.15315452 59.58455691 209.27390916 57.375 209.375 C47.27090145 209.94256752 47.27090145 209.94256752 38.9609375 215.0703125 C33.62851567 223.03707818 29.74208944 235.14159174 30.43359375 244.734375 C31.4930169 248.9720676 33.4406491 251.50709584 37 254 C46.07945903 258.34061857 54.55568586 259.1309353 64.50390625 259.328125 C68 260 68 260 70.26171875 262.390625 C70.83535156 263.25171875 71.40898438 264.1128125 72 265 C82.00289718 273.91347274 98.19686739 275.76751453 111 277 C107.62565316 285.19484233 101.48250842 294.75525012 93.703125 299.359375 C91.47431209 300.09146683 89.30607439 300.57140394 87 301 C77.48415286 303.39189092 71.82533808 307.00869625 65 314 C63.99872731 315.00393388 62.99606562 316.00648391 61.9921875 317.0078125 C60.43384784 318.56419568 58.87763675 320.12233326 57.32910156 321.68847656 C54.55520878 324.48750495 51.73935712 327.18266977 48.75 329.75 C41.16432966 336.28990921 35.23018293 343.17955464 29.5390625 351.37890625 C26.40763421 355.88743756 23.06309119 360.22561618 19.71484375 364.57421875 C16.7320039 368.79368014 16.37012568 372.97000368 17 378 C18.91122456 384.15966951 22.58241308 388.5719224 28 392 C30.58956831 393.18025302 33.17691961 394.20266106 35.86328125 395.140625 C38 396 38 396 40 398 C40.11208033 403.82817707 38.15118106 407.87957132 35.4375 412.9375 C32.60243533 418.34840302 30.24833975 422.87456232 32 429 C33.74186339 432.84157182 35.81152742 436.39979251 38 440 C38.68177416 441.32567199 39.35471895 442.65618655 40 444 C39.18015625 444.64066406 38.3603125 445.28132813 37.515625 445.94140625 C27.57934531 453.77387528 27.57934531 453.77387528 23.0625 465.3125 C22.56558015 472.28120931 25.15985782 478.35821157 28.1875 484.5 C30.83558239 490.21055935 30.58478876 495.74571753 29.48828125 501.84765625 C28.94431121 505.35952682 28.86756671 508.69688602 28.875 512.25 C28.86823242 512.90967773 28.86146484 513.56935547 28.85449219 514.24902344 C28.84880759 518.13160115 29.32433464 521.49925203 30.25 525.25 C30.53125 527.60546875 30.53125 527.60546875 30 530 C26.50788911 534.30980587 22.35432626 537.59873931 18 541 C16.1236499 542.54002319 14.24856535 544.08159015 12.375 545.625 C11.47523438 546.35589844 10.57546875 547.08679688 9.6484375 547.83984375 C-2.73864128 557.94316906 -16.31214188 570.13008182 -18.5 586.8125 C-17.85608828 590.91743719 -16.95520256 592.03179801 -14 595 C-10.40797205 597.23350456 -6.65813605 599.11322076 -2.875 601 C-1.87984375 601.50789062 -0.8846875 602.01578125 0.140625 602.5390625 C2.12292304 603.54832651 4.10882462 604.55054623 6.09838867 605.54541016 C8.01619015 606.50681202 9.927999 607.48027247 11.83325195 608.46630859 C12.71198975 608.91828613 13.59072754 609.37026367 14.49609375 609.8359375 C15.27138428 610.2386084 16.0466748 610.6412793 16.84545898 611.05615234 C20.33599113 612.58526252 23.35315757 612.86512685 27 612 C29.87588038 610.8220264 32.6306205 609.52963331 35.38671875 608.09375 C38.27810152 606.88360475 39.9061181 606.50968591 43 607 C45.359375 608.609375 45.359375 608.609375 47.75 610.75 C55.75580163 617.44511729 63.91121042 619.74666629 74 622 C70.79989957 625.20010043 66.30952702 626.40857632 62.1171875 627.99414062 C56.70382252 630.2128153 52.8512708 632.78493373 50 638 C48.33280157 642.88240425 47.24326776 647.83624654 46.1875 652.875 C45.8878838 654.21264766 45.58646313 655.54989247 45.28320312 656.88671875 C43.0703352 666.84894238 41.81559484 676.22133547 42.078125 686.41796875 C42.1053578 688.18422683 42.13136347 689.95050418 42.15625 691.71679688 C42.19958429 694.46236906 42.25050761 697.2069178 42.32226562 699.9519043 C42.38900154 702.62825275 42.42365217 705.30348417 42.453125 707.98046875 C42.48206848 708.79621872 42.51101196 709.61196869 42.54083252 710.45243835 C42.56014665 714.58450165 42.28538039 717.17516205 39.63061523 720.44238281 C31.20761108 728.63165349 18.42214337 736.25439122 6.48291016 736.10693359 C2.50394231 735.93556802 -1.38115962 735.43184343 -5.3125 734.8125 C-6.09689453 734.71130859 -6.88128906 734.61011719 -7.68945312 734.50585938 C-11.52208075 733.90344977 -13.48828262 733.48465134 -16.36328125 730.76171875 C-18.05936071 727.89983766 -19.50603494 725.03183222 -20.875 722 C-23.66208555 716.24898337 -26.21166993 712.89416503 -32 710 C-35.23013652 709.87810806 -38.22264515 709.83952304 -41.39599609 710.49462891 C-44.09671935 711.01877077 -46.60282683 711.15784301 -49.3515625 711.2109375 C-50.36863281 711.23929688 -51.38570312 711.26765625 -52.43359375 711.296875 C-54.53759576 711.34838056 -56.64178442 711.392816 -58.74609375 711.4296875 C-66.78985231 711.67251795 -75.35604036 711.98643 -81.77734375 717.296875 C-82.87755859 718.63492187 -82.87755859 718.63492187 -84 720 C-85.05179887 721.01776117 -86.11652892 722.02226838 -87.19140625 723.015625 C-97.01637412 732.00034495 -97.01637412 732.00034495 -101.203125 744.234375 C-100.86468443 754.04915153 -93.32072955 761.01331114 -86.953125 767.73828125 C-82.96092705 772.36124648 -82.84882309 775.65162812 -83.125 781.625 C-83.31523766 789.85837416 -82.04555886 796.29594192 -76.6875 802.8125 C-75 805 -75 805 -75.23046875 807.36132812 C-76.03251801 810.11150211 -77.04869283 812.02282298 -78.625 814.40625 C-79.43106689 815.63649902 -79.43106689 815.63649902 -80.25341797 816.89160156 C-80.82979004 817.75237305 -81.40616211 818.61314453 -82 819.5 C-82.58797363 820.38913086 -83.17594727 821.27826172 -83.78173828 822.19433594 C-85.51189168 824.80255517 -87.25411748 827.40229162 -89 830 C-89.45600586 830.68384766 -89.91201172 831.36769531 -90.38183594 832.07226562 C-102.03272394 849.51636197 -102.03272394 849.51636197 -107 852 C-110.50957569 852.2332313 -114.0126089 852.39398968 -117.52734375 852.51757812 C-122.02113275 852.72540606 -125.76130734 853.33287088 -130 855 C-130.94505103 858.93771262 -131.332723 861.2394903 -129.6875 865 C-123.47558066 872.83242004 -114.4266891 876.33101764 -105.24560547 879.42749023 C-100.48612386 881.10360206 -97.61429288 882.44988548 -95 887 C-93.859428 889.9738168 -92.98611991 892.99781957 -92.125 896.0625 C-88.37309028 908.55657349 -83.34826067 922.43449289 -72 930 C-71.0859375 932.5390625 -71.0859375 932.5390625 -70.375 935.625 C-70.13523437 936.62789062 -69.89546875 937.63078125 -69.6484375 938.6640625 C-68.28162688 945.69572679 -67.81817035 952.48036376 -67.8125 959.625 C-67.80025391 960.44484375 -67.78800781 961.2646875 -67.77539062 962.109375 C-67.76428421 966.71483656 -67.81519689 970.83136973 -70 975 C-72.265625 976.06640625 -72.265625 976.06640625 -75.25 976.5625 C-76.40242187 976.77777344 -77.55484375 976.99304688 -78.7421875 977.21484375 C-79.4031543 977.3319873 -80.06412109 977.44913086 -80.74511719 977.56982422 C-85.31927275 978.44245979 -89.84159321 979.56396586 -94.375 980.625 C-108.39803728 983.8900618 -118.07892767 985.20462165 -131.5625 979.6875 C-145.44315681 974.272559 -160.00332767 968.88075957 -174.85546875 973.98046875 C-179.69171231 976.18785318 -185.01952593 978.80125556 -187 984 C-188.15437601 991.74393907 -187.72410546 998.94208125 -183.71875 1005.7734375 C-178.14808651 1012.98997884 -169.7045748 1017.67393873 -162.09033203 1022.5 C-155.63344775 1026.65941513 -155.63344775 1026.65941513 -154 1030 C-153.92578125 1033.171875 -153.92578125 1033.171875 -154.3125 1036.75 C-154.74025567 1040.80109783 -155.03033291 1044.3533497 -154.4375 1048.375 C-155.13146343 1052.84720879 -156.214261 1053.39162256 -159.6875 1056.125 C-160.60273437 1056.79015625 -161.51796875 1057.4553125 -162.4609375 1058.140625 C-178.2164164 1069.67848339 -179.51277325 1093.81052391 -182.56835938 1111.56542969 C-182.93716113 1113.64557172 -183.34720892 1115.71832988 -183.765625 1117.7890625 C-185.23051179 1125.20739946 -185.2468049 1130.16904233 -181.3046875 1136.890625 C-178.8004708 1140.26919532 -176.04994097 1142.82092655 -172.75 1145.375 C-172.14373779 1145.84615234 -171.53747559 1146.31730469 -170.9128418 1146.80273438 C-161.74213207 1153.6898194 -151.42472352 1159.03294299 -140.13671875 1161.33203125 C-137.70331229 1162.09274881 -136.62970214 1163.07494731 -135 1165 C-135.92232422 1165.54527344 -135.92232422 1165.54527344 -136.86328125 1166.1015625 C-143.56027892 1170.1875906 -143.56027892 1170.1875906 -147 1177 C-148.77077071 1190.49449402 -143.09569623 1201.58262638 -135.26171875 1212.11328125 C-126.41039624 1223.41056508 -117.38722827 1226.4537955 -103.5625 1229.4375 C-92.54162962 1231.84813814 -81.78545225 1234.70649765 -71 1238 C-70.93530518 1236.93040039 -70.87061035 1235.86080078 -70.80395508 1234.75878906 C-70.55728607 1230.78369384 -70.27974687 1226.81124996 -69.99291992 1222.83886719 C-69.87317848 1221.12068283 -69.76177184 1219.40189617 -69.65893555 1217.68261719 C-69.50947059 1215.20822119 -69.32995264 1212.73755461 -69.14453125 1210.265625 C-69.10471634 1209.49881409 -69.06490143 1208.73200317 -69.02388 1207.94195557 C-68.70609875 1204.10605997 -68.28624313 1202.29946907 -65.59057617 1199.47924805 C-63 1198 -63 1198 -60.40625 1198.06640625 C-57.84627674 1199.05964263 -56.46575358 1200.03876074 -54.5 1201.9375 C-46.28435478 1209.43408502 -37.6221773 1215.84455663 -28.0625 1221.5 C-27.35295166 1221.92128174 -26.64340332 1222.34256348 -25.91235352 1222.77661133 C-19.49963562 1226.4792602 -13.56876463 1228.93694572 -6 1228 C-0.73935542 1226.33412922 1.97313505 1224.59074517 5 1220 C5.90369004 1216.43871613 5.90369004 1216.43871613 6.25 1212.6875 C6.39953125 1211.43324219 6.5490625 1210.17898438 6.703125 1208.88671875 C6.80109375 1207.93410156 6.8990625 1206.98148438 7 1206 C10.37776242 1204.89111279 11.00243108 1205.00089483 14.59765625 1206.32421875 C20.40051828 1209.46042821 24.82895433 1214.17029074 29.4375 1218.8125 C30.80165039 1220.12831055 30.80165039 1220.12831055 32.19335938 1221.47070312 C38.62112647 1227.88886937 38.62112647 1227.88886937 40.27734375 1232.74609375 C39.95346549 1236.54596124 38.97569301 1238.92386971 37.125 1242.25 C34.79014125 1246.50544643 34.79014125 1246.50544643 33 1251 C29.67256549 1252.10914484 28.75063903 1251.88529975 25.46484375 1251.00390625 C24.12583008 1250.66069336 24.12583008 1250.66069336 22.75976562 1250.31054688 C20.90476886 1249.81887645 19.05057264 1249.32417383 17.19726562 1248.82617188 C9.23997675 1246.79561281 1.08588481 1245.18520688 -6.5 1249.1875 C-7.3146875 1249.59355469 -8.129375 1249.99960938 -8.96875 1250.41796875 C-12.41247671 1253.10010206 -12.87956644 1256.26401712 -13.5625 1260.4375 C-13.17736443 1271.28210684 -4.66893897 1280.96179392 1.71118164 1289.08105469 C6.24908403 1294.99685682 8.92597298 1300.79880973 11 1308 C11.20109375 1308.6909375 11.4021875 1309.381875 11.609375 1310.09375 C12.28537016 1313.39260637 12.05596921 1316.64184738 12 1320 C4.70350517 1317.61747107 1.04289636 1313.14636427 -3.421875 1307.0625 C-10.23173528 1298.18672705 -20.1047278 1297.47815952 -30.54296875 1296.06884766 C-34.29922802 1295.58087639 -38.05754879 1295.11315293 -41.81835938 1294.66162109 C-60.12733672 1292.44827201 -71.47542932 1289.41090496 -83.25 1274.6875 C-91.21943501 1264.86969183 -100.43574244 1257.76830471 -110.86328125 1250.8203125 C-113.66410528 1248.94253978 -116.37188328 1246.98776893 -119.04296875 1244.9296875 C-119.69749023 1244.42880615 -120.35201172 1243.9279248 -121.02636719 1243.41186523 C-122.25665999 1242.4627418 -123.47820685 1241.50211489 -124.68847656 1240.52758789 C-129.07419204 1237.16832975 -133.45288983 1235.45220632 -139 1235 C-141.59869315 1235.86424561 -141.59869315 1235.86424561 -143 1238 C-144.12410933 1241.79783829 -143.99777356 1243.94633657 -142.4375 1247.5625 C-142.06367187 1248.44679688 -141.68984375 1249.33109375 -141.3046875 1250.2421875 C-140.04608149 1252.99317103 -140.04608149 1252.99317103 -138.5703125 1255.5078125 C-134.69975428 1262.3865766 -133.02419681 1268.78602457 -131.5 1276.5 C-128.90639397 1289.41749864 -125.29172111 1297.98276938 -116.0625 1307.6796875 C-113.15390641 1310.95185529 -111.55199294 1313.90838226 -110 1318 C-110.31897138 1322.06904036 -112.96845441 1324.95402852 -115.3125 1328.125 C-121.3954089 1336.6636596 -125.43099701 1344.41305947 -123.63549805 1355.18725586 C-123.15690932 1357.40960856 -122.62435623 1359.60979029 -122.0625 1361.8125 C-121.78889648 1362.93688477 -121.78889648 1362.93688477 -121.50976562 1364.08398438 C-120.76929225 1367.09703786 -119.98147125 1370.05558624 -119 1373 C-115.08401182 1373.34162681 -111.16712818 1373.67172425 -107.25 1374 C-106.15816406 1374.09539062 -105.06632813 1374.19078125 -103.94140625 1374.2890625 C-86.24721418 1376.45038061 -86.24721418 1376.45038061 -70.125 1370.8125 C-66.04484824 1365.41229914 -64.33548907 1360.75586114 -65 1354 C-66.33228623 1346.2616375 -68.72846988 1340.03444819 -72.890625 1333.375 C-74 1331 -74 1331 -73.671875 1328.6875 C-73.45015625 1328.130625 -73.2284375 1327.57375 -73 1327 C-70.30859375 1326.16796875 -70.30859375 1326.16796875 -67 1326 C-64.53515625 1328.17578125 -64.53515625 1328.17578125 -62.0625 1331.3125 C-52.81082632 1342.32275628 -39.84082519 1350.88034662 -25.4375 1352.8125 C-17.05319332 1354.0562079 -9.6441982 1357.48260897 -2 1361 C-1.23300781 1361.34482422 -0.46601562 1361.68964844 0.32421875 1362.04492188 C9.71537386 1366.3315044 17.13926946 1369.8344474 21 1380 C21.2990625 1380.87269531 21.598125 1381.74539063 21.90625 1382.64453125 C23.97983252 1388.606081 26.01750425 1391.72504762 31.56640625 1394.94140625 C36.65700626 1397.1557764 41.05005407 1397.20892278 46.5 1396.625 C50.91441283 1394.57545118 53.44165207 1391.66747626 56.7734375 1388.1796875 C59.94099995 1385.07881057 62.86770631 1383.51583341 67 1382 C68.10730469 1381.57976562 69.21460938 1381.15953125 70.35546875 1380.7265625 C78.89560214 1377.68601559 87.1247846 1376.26989618 96.17285156 1375.72021484 C101.06522478 1375.38677807 104.83693739 1374.85246883 109 1372 C110.27199497 1369.85702582 110.27199497 1369.85702582 110.875 1367.375 C112.25135131 1363.45380321 113.66476476 1360.97414611 116.5625 1358 C124.73849059 1349.44052017 130.18750327 1338.23977227 136 1328 C136.5465625 1328.69867187 137.093125 1329.39734375 137.65625 1330.1171875 C140.17629074 1333.21683761 142.80392177 1336.17914885 145.5 1339.125 C146.20962891 1339.91197266 146.20962891 1339.91197266 146.93359375 1340.71484375 C153.33685071 1347.72117754 159.01515598 1350.3039292 168.42578125 1351.3984375 C176.8077847 1351.77018422 182.77397988 1350.30732171 190.42675781 1347.15478516 C199.22545415 1343.56715688 206.26269038 1344.39936957 215 1348 C217.37609371 1350.37609371 217.3457584 1350.99047477 217.4375 1354.25 C217.3763808 1358.94938757 216.1844781 1362.62894634 214.5 1367 C210.42503236 1377.75048442 211.52260082 1385.48299384 216 1396 C222.49351878 1409.30283178 233.77113052 1420.82265904 247.26171875 1427.06640625 C252.73451687 1428.93231032 258.27071545 1428.95879859 264 1429 C265.04639648 1429.00837891 266.09279297 1429.01675781 267.17089844 1429.02539062 C274.78102098 1429.07198753 282.38998355 1429.05579191 290 1429 C292.80278787 1438.97398338 292.13400621 1449.09255302 291.95898438 1459.33862305 C291.76485852 1471.8201494 291.81240165 1483.02417937 297.8125 1494.3125 C298.14314453 1494.97572266 298.47378906 1495.63894531 298.81445312 1496.32226562 C301.99473333 1502.50580467 305.35665403 1508.30784065 312.35449219 1510.56054688 C319.36565344 1511.7251916 326.81023057 1510.99105017 333.88769531 1510.63671875 C346.56530919 1510.04116316 346.56530919 1510.04116316 350.35839844 1512.57617188 C351.85922355 1514.32434705 352.99857397 1515.93078438 354 1518 C353.62488281 1518.62261719 353.24976563 1519.24523438 352.86328125 1519.88671875 C346.86654396 1530.71709819 344.50429523 1542.58840831 342.33984375 1554.69140625 C340.954698 1562.31429442 338.52840681 1569.21747618 335.625 1576.375 C335.06184082 1577.76706665 335.06184082 1577.76706665 334.48730469 1579.18725586 C328.04688391 1594.56147614 328.04688391 1594.56147614 321.375 1598.1875 C320.49199219 1598.66960937 319.60898438 1599.15171875 318.69921875 1599.6484375 C312.55600663 1602.72448872 306.32547323 1605.47278228 299.94921875 1608.03125 C286.12091221 1613.43576639 286.12091221 1613.43576639 275 1623 C274.53207031 1623.53882813 274.06414062 1624.07765625 273.58203125 1624.6328125 C270.91144451 1628.03472914 269.15488275 1631.72528985 267.3125 1635.625 C263.82140534 1642.83447413 259.11450585 1648.88195944 254 1655 C253.31828735 1655.82999512 253.31828735 1655.82999512 252.62280273 1656.67675781 C251 1658 251 1658 249.05566406 1658.1862793 C241.8831469 1657.24804064 234.82471142 1655.8506052 227.77001953 1654.26342773 C225.77006451 1653.81697899 223.76636958 1653.39158608 221.76171875 1652.96679688 C213.80663993 1651.22279271 206.60492935 1648.81872889 199.20458984 1645.41040039 C188.09819685 1640.5222675 177.64939346 1639.61728827 165.625 1639.5 C164.43632324 1639.48146973 163.24764648 1639.46293945 162.02294922 1639.44384766 C153.54628697 1639.50443767 145.89565842 1640.35351786 139.49609375 1646.34375 C137.79746441 1649.35959322 136.91249918 1652.14700783 136.0625 1655.5 C134.25603454 1661.66977433 132.57778365 1664.96672405 126.85546875 1668.21875 C125.28276815 1669.07421566 123.70722159 1669.9244695 122.12890625 1670.76953125 C118.35905311 1672.94843719 115.86831775 1675.8698392 113.23828125 1679.29296875 C106.75810397 1687.70828737 101.89073856 1693.68456792 91.04296875 1695.23730469 C89.34926335 1695.45389605 87.6552501 1695.66809374 85.9609375 1695.87988281 C77.39224229 1697.02711333 72.23924537 1700.04717711 66.6875 1706.6875 C60.09577199 1716.43738181 58.84717791 1726.51981338 60 1738 C61.56793732 1744.70293204 65.76249356 1749.52197369 70.1953125 1754.640625 C74.57262594 1760.36334646 74.70570318 1766.04378296 74 1773 C71.1723221 1786.6449692 60.9432532 1794.30654435 50.44921875 1802.328125 C39.03461617 1810.92502478 39.03461617 1810.92502478 32 1823 C31.48450868 1827.90984358 31.46856602 1831.8521026 33.5625 1836.375 C45.44188338 1849.1681821 70.05625728 1846.84711223 86.0625 1847.6875 C88.39393221 1847.81742953 90.72531315 1847.94828259 93.05664062 1848.08007812 C98.70388126 1848.39734862 104.3516438 1848.70328772 110 1849 C106.86329503 1864.51656238 106.86329503 1864.51656238 104.25 1871.375 C103.99468506 1872.04853516 103.73937012 1872.72207031 103.47631836 1873.41601562 C101.21752669 1879.04286966 98.30559539 1882.84383959 94 1887 C92.73877155 1888.42765859 91.48866318 1889.86521987 90.25 1891.3125 C85.54507116 1896.73196243 80.91069964 1899.98826987 74.6875 1903.5625 C73.84509766 1904.05685547 73.00269531 1904.55121094 72.13476562 1905.06054688 C63.58293772 1910.00175158 57.46223276 1911.26459411 47.72070312 1910.83398438 C42.44624873 1910.70468668 38.64276554 1911.19899269 34 1914 C27.81072236 1919.98319845 24.79443557 1928.45092738 21.375 1936.1875 C20.53414653 1938.08183932 19.69028274 1939.97457552 18.83755493 1941.86360168 C18.06823355 1943.56868513 17.3098939 1945.27871114 16.55224609 1946.98901367 C14.96676068 1950.06447634 13.41042808 1952.51459748 11 1955 C4.91728348 1955 -0.50012478 1953.02133034 -6.1875 1951 C-28.90648798 1943.04554013 -55.62275056 1948.6108623 -77.27734375 1958.49609375 C-78.23769531 1958.97175781 -79.19804688 1959.44742187 -80.1875 1959.9375 C-84.61877528 1962.04668058 -84.61877528 1962.04668058 -88.0625 1961.625 C-89.031875 1961.08875 -90.00125 1960.5525 -91 1960 C-97.87463816 1956.20751135 -103.13210212 1954.14624345 -111 1954 C-111.7204248 1953.97566895 -112.44084961 1953.95133789 -113.18310547 1953.92626953 C-134.61599806 1953.17393107 -134.61599806 1953.17393107 -153 1963 C-165.34138562 1976.84206228 -169.22486927 1993.93143535 -170 2012 C-170.59087402 2011.89977539 -171.18174805 2011.79955078 -171.79052734 2011.69628906 C-173.59794278 2011.3904881 -175.40558387 2011.08601952 -177.21337891 2010.7824707 C-179.34910524 2010.42277811 -181.4841863 2010.05923599 -183.61865234 2009.69213867 C-189.36612749 2008.71699401 -195.10036391 2007.84063565 -200.890625 2007.16015625 C-213.37421499 2005.63513391 -222.28476432 2003.95546855 -232.30566406 1996.22753906 C-242.43884714 1988.88609173 -253.84099957 1984.51565526 -266 1982 C-267.33998047 1981.71576172 -267.33998047 1981.71576172 -268.70703125 1981.42578125 C-273.2102368 1980.58958124 -276.70302304 1980.42049965 -280.9375 1982.3125 C-284.03807838 1984.56371781 -285.82564871 1987.59440683 -287.9375 1990.75 C-291.5261089 1995.87951921 -291.5261089 1995.87951921 -295.6875 1996.9375 C-301.70388716 1995.23474892 -304.50976224 1991.63271137 -307.48657227 1986.41625977 C-307.88287842 1985.70139404 -308.27918457 1984.98652832 -308.6875 1984.25 C-309.56353835 1982.72175761 -310.44118439 1981.19443584 -311.3203125 1979.66796875 C-311.76407227 1978.89243652 -312.20783203 1978.1169043 -312.66503906 1977.31787109 C-324.67211774 1955.75839969 -324.67211774 1955.75839969 -345 1943 C-348.65695426 1942.32420301 -352.3274708 1941.9159482 -356.03710938 1941.66796875 C-362.29442189 1941.22143753 -366.09856426 1939.77172967 -370.69140625 1935.4921875 C-374.50146587 1930.56116423 -375.2558115 1924.17715213 -376.58398438 1918.23046875 C-378.59530985 1909.96987004 -382.08092282 1903.59602073 -389.125 1898.5625 C-389.76695312 1898.08941406 -390.40890625 1897.61632813 -391.0703125 1897.12890625 C-395.3769117 1894.60945854 -400.09827365 1894.43053306 -405 1895 C-407.65520549 1895.876211 -410.07524852 1897.1068786 -412.5625 1898.375 C-425.39285363 1904.36670307 -436.50556785 1904.49722165 -450.01708984 1901.41259766 C-454.40045874 1900.50052016 -458.86227336 1900.05861196 -463.3046875 1899.52734375 C-466 1899 -466 1899 -468 1897 C-467.9765625 1894.3828125 -467.9765625 1894.3828125 -467.625 1891.125 C-466.06272993 1879.74952133 -466.06272993 1879.74952133 -468.5625 1868.9375 C-475.74911308 1863.22506396 -483.3344277 1862.89822101 -492.09619141 1863.21972656 C-506.5870412 1863.66358622 -514.97583563 1860.96778343 -525.75 1851.25 C-534.26893563 1843.14801446 -540.85577841 1833.8479748 -547.57177734 1824.25488281 C-551.50441189 1818.65178171 -555.57410925 1813.2265092 -560 1808 C-560.71671875 1807.13761719 -561.4334375 1806.27523438 -562.171875 1805.38671875 C-569.24447636 1797.15567406 -576.06971546 1792.27153847 -586.421875 1788.95703125 C-589.30493361 1787.88680495 -591.52937641 1786.848299 -594 1785 C-594.70361328 1782.46655273 -594.70361328 1782.46655273 -594.8203125 1779.43359375 C-594.87888428 1778.31629883 -594.93745605 1777.19900391 -594.99780273 1776.04785156 C-595.03977783 1774.85643555 -595.08175293 1773.66501953 -595.125 1772.4375 C-595.25817038 1769.98273141 -595.39751221 1767.52828998 -595.54296875 1765.07421875 C-595.61306152 1763.86942871 -595.6831543 1762.66463867 -595.75537109 1761.42333984 C-596.08432825 1756.81990944 -596.67055982 1752.29910422 -597.4375 1747.75 C-597.54787598 1747.05575928 -597.65825195 1746.36151855 -597.77197266 1745.64624023 C-598.58723286 1741.03574423 -599.90773205 1737.15857725 -602 1733 C-605.18181478 1730.9028948 -607.85023546 1730.03415683 -611.5625 1729.1875 C-615.94304562 1727.6742206 -617.43403597 1725.81228942 -620 1722 C-621.60103012 1717.85581734 -622.35727048 1713.96320096 -622.875 1709.5625 C-623.82519446 1703.05218328 -625.29624916 1698.99343843 -629.75 1694.0625 C-633.25943659 1692.40526605 -636.28527341 1692.05349026 -640 1693 C-643.27523586 1695.04130979 -646.14541037 1697.40972423 -649 1700 C-650.65476637 1697.83359277 -652.16578776 1695.72147657 -653.5625 1693.375 C-662.28923056 1680.40016286 -674.04211478 1674.47738059 -688.96875 1671.25 C-694.65205244 1668.90637013 -696.39979796 1663.387201 -698.64453125 1658.02929688 C-699.21621264 1656.63141842 -699.78651914 1655.23297692 -700.35546875 1653.83398438 C-702.32852789 1649.13346114 -704.30150826 1644.64271675 -708.82958984 1641.88623047 C-717.59700069 1638.30628656 -728.94141621 1642.09087568 -737.875 1643.9375 C-739.2758478 1644.21906521 -740.676889 1644.49966998 -742.078125 1644.77929688 C-746.624745 1645.68945157 -751.16706723 1646.62035649 -755.70751953 1647.56079102 C-764.72420793 1649.28826944 -770.18755706 1646.42884696 -778 1642 C-778.80010498 1641.6169873 -779.60020996 1641.23397461 -780.42456055 1640.83935547 C-783.77322235 1638.44777162 -785.24575535 1635.55961931 -787.0390625 1631.96484375 C-787.40207458 1631.26231979 -787.76508667 1630.55979584 -788.13909912 1629.83598328 C-789.3165441 1627.54401251 -790.47187251 1625.24178993 -791.625 1622.9375 C-792.43048426 1621.34878693 -793.23598569 1619.76008257 -794.04150391 1618.17138672 C-800.64315965 1605.06202052 -806.90209071 1591.77639554 -812 1578 C-812.36746338 1577.01378662 -812.73492676 1576.02757324 -813.11352539 1575.01147461 C-815.95166542 1566.70297022 -816.85930552 1558.55685799 -817.49685669 1549.86975098 C-819.08429957 1528.57611186 -821.65315477 1507.39776154 -824.25979996 1486.2107811 C-824.55908277 1483.77778015 -824.85744637 1481.34466798 -825.15560913 1478.91152954 C-826.96865615 1464.12873316 -828.80748637 1449.34908153 -830.71484375 1434.578125 C-830.89135216 1433.20101349 -830.89135216 1433.20101349 -831.07142639 1431.79608154 C-831.58965392 1427.82578572 -832.20410296 1423.92528109 -833 1420 C-833.11709816 1417.54366186 -833.17502994 1415.08409608 -833.1875 1412.625 C-833.20167969 1411.35914063 -833.21585938 1410.09328125 -833.23046875 1408.7890625 C-832.99412477 1404.90340721 -832.09241001 1401.72259719 -831 1398 C-829.10904383 1380.48377447 -836.69746092 1366.00140391 -843.80957031 1350.45410156 C-847.36766886 1342.64786261 -850.10682797 1336.16401928 -850.375 1327.5 C-851.3238605 1312.75377448 -856.70719911 1300.13801207 -863 1287 C-863.31984863 1286.32855957 -863.63969727 1285.65711914 -863.96923828 1284.96533203 C-867.08421897 1278.47188241 -870.37352487 1272.09252091 -873.87890625 1265.80078125 C-874.37479248 1264.91052246 -874.87067871 1264.02026367 -875.3815918 1263.10302734 C-876.3533299 1261.36860906 -877.33229745 1259.63821486 -878.31958008 1257.91259766 C-883.93561443 1247.9345851 -885.58815186 1239.47480352 -882.56494141 1228.24023438 C-882.02164041 1226.32623708 -881.44890466 1224.42066963 -880.875 1222.515625 C-879.72689379 1217.90269826 -879.05812028 1214.692803 -881.42578125 1210.4375 C-882.04839844 1209.633125 -882.67101562 1208.82875 -883.3125 1208 C-888.17347467 1201.64098911 -890.44293316 1196.07768564 -891.6484375 1188.26171875 C-891.85734116 1187.00316826 -891.85734116 1187.00316826 -892.07046509 1185.7191925 C-892.66071008 1182.16271002 -893.22899229 1178.60283654 -893.796875 1175.04272461 C-895.29214069 1165.74663702 -896.90055646 1156.5874561 -899.54296875 1147.5390625 C-899.84253983 1146.50932564 -899.84253983 1146.50932564 -900.14816284 1145.45878601 C-902.71792421 1137.09471513 -906.31372492 1131.33423014 -914 1127 C-916.76052655 1126.16908933 -919.52856537 1125.68751708 -922.375 1125.25 C-923.47908203 1125.06244141 -923.47908203 1125.06244141 -924.60546875 1124.87109375 C-926.40152115 1124.56786412 -928.20050871 1124.28210552 -930 1124 C-930.39971615 1118.93190086 -929.37391388 1116.27156493 -926.6875 1112 C-920.87777441 1103.17740896 -920.87777441 1103.17740896 -920 1093 C-922.80744638 1085.2925199 -927.64215723 1079.10894222 -933 1073 C-933.61746094 1072.27554687 -934.23492188 1071.55109375 -934.87109375 1070.8046875 C-942.32090127 1062.65791254 -952.35960536 1059.07249839 -962.50390625 1055.2734375 C-965.23362624 1053.8808104 -966.38943484 1052.57039693 -968 1050 C-967.26394531 1049.53851562 -966.52789063 1049.07703125 -965.76953125 1048.6015625 C-958.94984464 1044.04309298 -954.29710249 1040.04563033 -952 1032 C-951.62956265 1028.87662823 -951.4423964 1025.77643235 -951.26953125 1022.63671875 C-951 1020 -951 1020 -949.625 1017 C-944.86876028 1013.37619831 -939.07599758 1011.93718177 -933.41015625 1010.2109375 C-926.76757478 1006.87349786 -922.33192577 997.85860521 -920 991 C-919.02168624 987.01301068 -918.86443696 983.26534179 -918.84228516 979.1652832 C-918.83720444 978.49786606 -918.83212372 977.83044891 -918.82688904 977.14280701 C-918.81622774 975.69964703 -918.80759111 974.25647097 -918.80076981 972.81328773 C-918.78890694 970.5207187 -918.76943394 968.22833187 -918.74765015 965.93583679 C-918.68629481 959.41960819 -918.63213343 952.90339911 -918.59863281 946.38696289 C-918.57755582 942.39340612 -918.54214937 938.40018425 -918.49787521 934.4068203 C-918.48381718 932.89398354 -918.4750161 931.38108756 -918.47182083 929.86818886 C-918.44311284 917.57315105 -917.13577622 908.10649831 -909.875 898 C-908.97596393 896.70874989 -908.07749865 895.41710211 -907.1796875 894.125 C-906.46039062 893.09375 -905.74109375 892.0625 -905 891 C-902.93136288 886.86272575 -903.42818525 881.9236594 -904.71875 877.58203125 C-906.73068797 872.73877735 -909.111269 869.58172593 -913 866 C-913.70574404 864.686932 -914.38035629 863.35582591 -915 862 C-914.21496094 861.01902344 -913.42992187 860.03804687 -912.62109375 859.02734375 C-899.80420694 843.21771287 -899.80420694 843.21771287 -896 824 C-896.83778547 821.42087886 -897.71778238 819.08675155 -898.8125 816.625 C-899.11655762 815.91674072 -899.42061523 815.20848145 -899.73388672 814.47875977 C-900.42131857 812.88480032 -901.11507121 811.29355711 -901.81396484 809.70458984 C-903.139652 806.68154285 -904.43895471 803.6477473 -905.73828125 800.61328125 C-906.69939234 798.38753319 -907.66162837 796.16227056 -908.625 793.9375 C-909.07979736 792.87934082 -909.53459473 791.82118164 -910.00317383 790.73095703 C-914.31462727 780.08387983 -914.31462727 780.08387983 -922 772 C-930.18113978 770.58505645 -938.46686535 770.08329221 -946 774 C-948.26070364 775.77764731 -950.3029261 777.61177379 -952.30859375 779.671875 C-952.86675781 780.11015625 -953.42492187 780.5484375 -954 781 C-954.99 780.67 -955.98 780.34 -957 780 C-957.93518785 776.97280232 -958.22422013 775.50510239 -956.91796875 772.5625 C-956.34691406 771.716875 -955.77585937 770.87125 -955.1875 770 C-954.548125 769.05125 -953.90875 768.1025 -953.25 767.125 C-949.98138634 762.58525881 -946.59432176 758.14699899 -943.13671875 753.75 C-940.95326167 751.00841799 -940.95326167 751.00841799 -939 748 C-929.68131462 748.85044313 -929.68131462 748.85044313 -926.4375 749.5625 C-919.66599178 750.77789891 -912.78338199 749.90558393 -906.0625 748.75 C-905.27762207 748.61505127 -904.49274414 748.48010254 -903.68408203 748.34106445 C-888.2617745 745.52496961 -876.0500238 737.03020433 -866.77734375 724.32470703 C-857.81827642 710.89749469 -854.26723465 694.76621136 -857.44311523 678.76782227 C-857.92835129 676.83642733 -858.46160641 674.91725657 -859 673 C-859.6875 669.4375 -859.6875 669.4375 -859 666 C-856.89490371 664.11885012 -854.64499777 662.57038033 -852.33203125 660.953125 C-846.93048409 656.42921616 -844.8151065 649.81429035 -844 643 C-843.19087158 629.32348212 -843.22580253 617.14560219 -852 606 C-852 605.34 -852 604.68 -852 604 C-852.639375 603.773125 -853.27875 603.54625 -853.9375 603.3125 C-866.86240952 597.77325306 -873.72661486 590.1263209 -879 577 C-879.52301028 575.0110151 -880.0033487 573.01025206 -880.4375 571 C-883.04817316 559.49811997 -890.78331916 550.31071748 -897.7421875 541.0546875 C-900.72387454 537.02064033 -901.59329286 535.04298929 -901 530 C-898.60921475 526.7398383 -897.04673387 525.24209219 -893.078125 524.32421875 C-886.63797833 523.56908561 -880.04019288 524.3895452 -873.59960938 524.859375 C-860.47051148 525.59543655 -851.15542447 522.42548594 -840.9375 514.375 C-836.41441626 511.16506961 -831.30890357 511.36375254 -826 512 C-822.32024525 513.10792616 -818.77514379 514.40305099 -815.19921875 515.80859375 C-807.24427834 518.7710563 -798.00537343 519.64268463 -790.0625 516.25 C-783.27953671 512.95653805 -779.98950183 508.76679398 -776.625 502.25 C-770.78856058 491.48137533 -765.63402719 484.63565041 -753.66015625 480.98046875 C-743.32475963 478.16459244 -732.82337027 477.04080292 -722.1784668 476.03881836 C-720.50457886 475.87651733 -720.50457886 475.87651733 -718.796875 475.7109375 C-717.80010742 475.62118652 -716.80333984 475.53143555 -715.77636719 475.43896484 C-711.86894553 474.82117165 -709.03918197 474.1058303 -706.28320312 471.1730957 C-701.01512686 462.25164463 -700.67395449 450.3471659 -699.19775391 440.24389648 C-698.1107216 432.86485515 -697.03305766 425.86846488 -694 419 C-683.06840373 419.24292436 -674.86349345 427.8112141 -667.07226562 434.64331055 C-658.29318145 442.310426 -650.03581648 448.11233429 -638 448 C-619.63524998 445.5904406 -604.75241322 437.96500614 -591.5078125 425.234375 C-587.53459345 421.69437298 -584.13255245 419.73818025 -578.875 418.875 C-578.02679687 418.72804688 -577.17859375 418.58109375 -576.3046875 418.4296875 C-567.15942971 417.24058779 -558.05021329 416.81255228 -548.8359375 416.60546875 C-546.30596609 416.53666589 -543.77601866 416.46697631 -541.24609375 416.39648438 C-537.31700229 416.28961191 -533.38809295 416.18778811 -529.45849609 416.10131836 C-504.39786525 416.0136076 -504.39786525 416.0136076 -481 408 C-476.06703957 402.53374656 -475.58451749 399.00045626 -475.6640625 391.75390625 C-476.61111813 381.17111018 -481.46042088 371.33820699 -486.40820312 362.07324219 C-488.96094772 357.04859808 -489.77619208 352.6277435 -489 347 C-487.5625 344.1875 -487.5625 344.1875 -486 342 C-482.93466976 333.17681972 -484.32922099 321.64366487 -487.8515625 313.25 C-489.04959318 310.78716478 -489.04959318 310.78716478 -491.125 307.875 C-496.44323487 299.7203732 -495.58839663 288.4343825 -496 279 C-487.3001625 280.13584679 -481.26905427 284.87393629 -474.65844727 290.35766602 C-454.13586318 307.34649058 -429.39613051 313.10524581 -403 311 C-399.670497 310.58510866 -396.39020426 310.05719773 -393.0859375 309.48046875 C-379.25773011 307.32746937 -371.45015758 309.48614009 -359.74658203 316.92724609 C-357.43027938 318.34992345 -355.06286694 319.49974744 -352.5625 320.5625 C-351.88316406 320.85253906 -351.20382812 321.14257812 -350.50390625 321.44140625 C-342.38657357 323.25229326 -335.61989562 321.26057846 -327.9375 318.5625 C-311.40982689 312.84964927 -300.84955428 315.48517489 -284.87182617 321.36743164 C-278.01375428 323.685061 -270.72080893 323.91265125 -263.6875 322.1875 C-260.08117109 319.25211601 -258.10445755 315.7645773 -255.73828125 311.79296875 C-253.83586138 308.73627165 -251.71135984 306.15929233 -249.26171875 303.53515625 C-246.72087833 300.4436693 -245.98046042 298.54710833 -246.125 294.5 C-247.12019834 290.51920663 -247.66515014 289.3343949 -251 287 C-253.9452398 285.82190408 -256.96754111 284.92539825 -260 284 C-268.28977606 281.39903471 -274.65089423 277.71716035 -279.16015625 270.01953125 C-281.583068 264.37358341 -282.24268814 258.58586626 -280.21484375 252.734375 C-275.82635917 244.21140173 -267.99802405 238.16478368 -261.00244141 231.83105469 C-249.92122922 221.69827105 -240.02280631 210.74210414 -232 198 C-230 201 -230 201 -228.8125 204 C-226.94004536 207.09923526 -225.51781545 208.4398882 -222.0859375 209.65625 C-214.41037425 210.92113683 -208.046064 207.2529911 -202 203 C-201.34 202.67 -200.68 202.34 -200 202 C-199.90203125 203.30195313 -199.8040625 204.60390625 -199.703125 205.9453125 C-199.55298231 207.67195341 -199.40189044 209.39851196 -199.25 211.125 C-199.188125 211.9809375 -199.12625 212.836875 -199.0625 213.71875 C-198.5496153 219.27500091 -197.64150828 222.71186875 -194 227 C-191.30308591 228.52066967 -191.30308591 228.52066967 -188 228 C-177.25328821 223.19488397 -170.80704317 212.99139557 -166.3203125 202.546875 C-162.00521713 190.95484365 -160.36058311 180.36205989 -161 168 C-154.62989088 167.79340187 -148.60125763 167.95751782 -142.3125 169.0625 C-136.05423284 170.10554453 -130.1124499 170.9951602 -124.5625 167.4375 C-120.65511142 161.34197381 -120.70749117 154.31493064 -120.8125 147.3125 C-120.81314453 146.48427734 -120.81378906 145.65605469 -120.81445312 144.80273438 C-120.84381754 140.72760602 -121.05886738 136.98225517 -122 133 C-123.53353022 123.70396115 -120.12003629 117.15764837 -116.01953125 109.10546875 C-114.31617219 105.74900861 -113.05291638 102.41426303 -111.9375 98.8125 C-110.07992982 93.58758984 -107.85891968 90.7199845 -103 88 C-93.68406926 83.57593533 -83.6937808 81.72093616 -73.61547852 79.87475586 C-64.79728772 78.19871419 -57.06013797 76.38144784 -51.36816406 69.01708984 C-48.8060625 65.23977308 -46.57244794 61.31019498 -44.375 57.3125 C-43.32326596 55.43917608 -42.26983595 53.56680347 -41.21484375 51.6953125 C-40.6822998 50.74817383 -40.14975586 49.80103516 -39.60107422 48.82519531 C-15.28072692 5.91042572 -15.28072692 5.91042572 -5.8125 1.625 C-5.13832031 1.30789062 -4.46414063 0.99078125 -3.76953125 0.6640625 C-2 0 -2 0 0 0 Z " fill="#000000" transform="translate(968,0)"/>
</svg>
