<?xml version="1.0" encoding="UTF-8"?>
<svg version="1.1" xmlns="http://www.w3.org/2000/svg" width="504" height="459">
<path d="M0 0 C0.721875 0.7425 1.44375 1.485 2.1875 2.25 C6.2648065 6.23669969 10.26639893 9.26152601 15.31640625 11.94042969 C39.88858607 24.98388131 39.88858607 24.98388131 45.8125 36.75 C50.38788639 45.21547262 57.98849675 46.94234012 66.56005859 50.05957031 C84.78595773 57.08440156 107.88458375 69.12742943 119.375 85 C120.43286749 86.44193935 121.49149735 87.88331961 122.55078125 89.32421875 C123.10846191 90.08524902 123.66614258 90.8462793 124.24072266 91.63037109 C126.04093251 94.05513336 127.87932388 96.44597298 129.73046875 98.83203125 C143.14921758 116.19908449 156.47982302 134.84659274 158.75 157.3125 C159.59763481 163.81403935 163.37040127 167.99975472 167.4921875 172.796875 C174.18564533 181.07130293 174.52895365 187.94267742 174.25 198.5 C174.23195313 199.799375 174.21390625 201.09875 174.1953125 202.4375 C174.14842615 205.62577151 174.08280893 208.812493 174 212 C172.9958606 211.73521851 172.9958606 211.73521851 171.97143555 211.46508789 C168.87908038 210.65517901 165.78338786 209.8587937 162.6875 209.0625 C161.63498047 208.78470703 160.58246094 208.50691406 159.49804688 208.22070312 C146.64828575 204.628455 146.64828575 204.628455 134 207 C132.67429032 213.09826454 133.39438005 218.00055779 135 224 C135.18433594 224.70125 135.36867188 225.4025 135.55859375 226.125 C136.20282216 228.27172635 136.20282216 228.27172635 138 231 C139.11375 231.226875 140.2275 231.45375 141.375 231.6875 C145 233 145 233 146.4609375 235.4609375 C147.76944703 238.60929074 148.92191106 241.76573319 150 245 C150.48146484 246.38251953 150.48146484 246.38251953 150.97265625 247.79296875 C151.67664718 249.85255152 152.34290967 251.9249779 153 254 C152.07380859 254.46212891 152.07380859 254.46212891 151.12890625 254.93359375 C142.11571363 260.21529719 137.46445422 268.36127094 134 278 C132.01562655 287.21237059 134.80430897 298.93994376 139.16796875 307.21484375 C141.8902361 310.81810378 144.76008056 311.86646067 149 313 C152.17848313 313.42005577 155.36560919 313.64197059 158.5625 313.875 C166.29802033 314.53524049 173.92164374 315.49306459 181.5625 316.875 C182.4481665 317.02437012 183.33383301 317.17374023 184.24633789 317.32763672 C190.06907208 318.43537916 192.78812477 319.94550563 196.3125 324.8125 C197.68768828 329.18809906 196.72825445 332.52505429 194.765625 336.5 C192.54156195 340.35198549 190.43858477 343.81838577 187.0625 346.75 C184.67185159 348.83151631 184.67185159 348.83151631 185.08984375 351.765625 C186.19504507 355.69312152 187.90444966 357.85970452 190.5 361 C194.99924749 366.59354982 198.95892196 372.35849592 202.75 378.44921875 C204.28125232 380.90560269 205.88626982 383.28480812 207.5625 385.64453125 C215.31119416 396.69580105 215.31119416 396.69580105 214.5546875 403.69921875 C212.63152973 411.67626047 208.74431648 417.23065382 203 423 C202.48050781 423.54269531 201.96101563 424.08539063 201.42578125 424.64453125 C198.95597693 426.9976519 197.58571075 428.01273284 194.125 427.9375 C193.09375 427.628125 192.0625 427.31875 191 427 C184.84587628 425.18402907 180.33214823 424.91532646 174 426 C173.7525 426.70125 173.505 427.4025 173.25 428.125 C170.11033834 435.34622181 165.83252714 439.28036167 159 443 C158.34 443 157.68 443 157 443 C156.85304688 443.59167969 156.70609375 444.18335938 156.5546875 444.79296875 C154.60744788 451.65307155 152.25304751 454.48958047 146.07421875 458.13671875 C141.77843513 459.9246061 137.07090972 458.74700672 132.8125 457.2109375 C128.02653686 454.98111376 123.43259536 452.22704529 121.19775391 447.19287109 C120.53907719 445.16249633 119.96917482 443.12969776 119.4375 441.0625 C117.59267612 434.08085204 115.21864379 428.45768756 109.4375 423.75 C108.85871094 423.27046875 108.27992188 422.7909375 107.68359375 422.296875 C101.38455938 417.4447186 94.72184977 417.29140673 87 418 C83.45279101 418.73086673 79.96117856 419.65736439 76.4831543 420.66479492 C70.39528662 422.380692 70.39528662 422.380692 67 421 C70.15086207 403.57758621 70.15086207 403.57758621 74.0625 398.125 C78.64551522 390.73303998 78.36310275 380.51431066 79 372 C76.02242175 371.72420373 74.53090335 371.58719781 72.12109375 373.4609375 C71.56550781 374.09257812 71.00992187 374.72421875 70.4375 375.375 C66.00064099 380.35493876 62.48628628 381.24126507 55.875 382.0625 C51.28373754 382.51412522 51.28373754 382.51412522 47 384 C47.185625 384.99 47.37125 385.98 47.5625 387 C47.59221411 389.94169683 47.1587404 390.82661688 45.13671875 393.03515625 C43.52962213 394.40026779 41.90399172 395.74382221 40.26171875 397.06640625 C38.23309675 398.80072039 36.9449514 400.24888181 35.5625 402.5 C34.7890625 403.7375 34.7890625 403.7375 34 405 C33.34 405 32.68 405 32 405 C32.04640625 403.87980469 32.0928125 402.75960938 32.140625 401.60546875 C32.17814423 400.13283915 32.21454423 398.66018073 32.25 397.1875 C32.30027344 396.08051758 32.30027344 396.08051758 32.3515625 394.95117188 C32.48676655 390.60827315 32.48676655 390.60827315 30.21875 387.09375 C29.4865625 386.7328125 28.754375 386.371875 28 386 C27.04867187 385.53013672 27.04867187 385.53013672 26.078125 385.05078125 C25.47484375 384.80714844 24.8715625 384.56351562 24.25 384.3125 C23.1775 383.879375 22.105 383.44625 21 383 C21.17789063 381.98679687 21.17789063 381.98679687 21.359375 380.953125 C22.34357154 375.44000851 22.34357154 375.44000851 20.3125 370.5 C18.24868219 369.16130737 16.26084326 367.96893283 14 367 C14.99 366.34 15.98 365.68 17 365 C17.40435195 361.74816993 17.40435195 361.74816993 17.25 358.0625 C17.23453125 356.81597656 17.2190625 355.56945312 17.203125 354.28515625 C17.14094783 350.99437909 17.14094783 350.99437909 16 348 C15.01 347.67 14.02 347.34 13 347 C12.401875 347.33 11.80375 347.66 11.1875 348 C9 349 9 349 6 349.25 C3 348 3 348 1.8671875 345.83984375 C1.19932409 344.05449234 0.55250075 342.26114412 -0.07421875 340.4609375 C-1.19807148 337.47348086 -2.28662155 335.72669538 -5 334 C-7.55330604 334.02830935 -7.55330604 334.02830935 -10 335 C-11.26335819 336.94794971 -11.26335819 336.94794971 -11.87890625 339.4375 C-12.16056641 340.33210938 -12.44222656 341.22671875 -12.73242188 342.1484375 C-13.00634766 343.08945312 -13.28027344 344.03046875 -13.5625 345 C-14.11119632 346.85869287 -14.67433511 348.71320173 -15.25390625 350.5625 C-15.61464233 351.80193359 -15.61464233 351.80193359 -15.98266602 353.06640625 C-17 355 -17 355 -18.90600586 355.83984375 C-21 356 -21 356 -24.25 355 C-28.86340037 353.7697599 -31.36469463 353.91842875 -36 355 C-38.40517095 357.32499859 -39.51883236 360.03144132 -41 363 C-50.84800545 358.89088505 -60.54495395 354.48842492 -70.20703125 349.9597168 C-75.9712674 347.28529753 -81.67043457 344.98825559 -87.75268555 343.1315918 C-91.37191868 341.30919684 -92.23744507 338.39722693 -93.69921875 334.77734375 C-95.212417 331.54646099 -97.12109933 329.20822963 -99.4375 326.5 C-110 314.08288043 -110 314.08288043 -110 309 C-112.35546248 308.68113125 -112.35546248 308.68113125 -115 309 C-116.89824957 310.62286429 -116.89824957 310.62286429 -118.4375 312.8125 C-121.30846423 316.32491611 -123.57254052 318.55626321 -128 320 C-130.625 320 -130.625 320 -133 319 C-133.61875 318.21625 -134.2375 317.4325 -134.875 316.625 C-136.85712598 313.69885559 -136.85712598 313.69885559 -140.5234375 312.8046875 C-144 311 -144 311 -145.171875 307.59375 C-145.38250882 306.23181844 -145.57432392 304.86688042 -145.75 303.5 C-147.21506116 295.33237627 -150.4457772 291.55881084 -156.734375 286.33203125 C-159 284 -159 284 -159.328125 281.19921875 C-159.21984375 280.47347656 -159.1115625 279.74773437 -159 279 C-161.97065509 279.34227572 -161.97065509 279.34227572 -165 280 C-165.33 280.66 -165.66 281.32 -166 282 C-166.66 282 -167.32 282 -168 282 C-168.67154933 280.71086513 -169.33708859 279.41859796 -170 278.125 C-170.37125 277.40570313 -170.7425 276.68640625 -171.125 275.9453125 C-172 274 -172 274 -172 272 C-174.97 272.33 -177.94 272.66 -181 273 C-181.268125 273.804375 -181.53625 274.60875 -181.8125 275.4375 C-182.204375 276.283125 -182.59625 277.12875 -183 278 C-183.99 278.33 -184.98 278.66 -186 279 C-186 278.01 -186 277.02 -186 276 C-185.34 276 -184.68 276 -184 276 C-184.33 274.68 -184.66 273.36 -185 272 C-183.47005208 270.76302083 -181.94010417 269.52604167 -180.41015625 268.2890625 C-178.86733563 267.0333609 -178.86733563 267.0333609 -178 265 C-178.99 264.67 -179.98 264.34 -181 264 C-181.66 259.71 -182.32 255.42 -183 251 C-184.98 250.34 -186.96 249.68 -189 249 C-192.78691836 246.11472887 -194.32132284 243.44044624 -195.875 239.0625 C-197.99023976 233.25425967 -201.49224909 229.75387545 -207 227 C-207.6328125 224.71484375 -207.6328125 224.71484375 -208.125 221.9375 C-208.29257813 221.01839844 -208.46015625 220.09929687 -208.6328125 219.15234375 C-208.75398438 218.44207031 -208.87515625 217.73179687 -209 217 C-210.62580966 217.11398665 -212.25067157 217.24155659 -213.875 217.375 C-214.77992188 217.44460937 -215.68484375 217.51421875 -216.6171875 217.5859375 C-219.17941903 217.79568132 -219.17941903 217.79568132 -221 220 C-223.8203125 219.9765625 -223.8203125 219.9765625 -227.125 219.625 C-228.22070312 219.51414063 -229.31640625 219.40328125 -230.4453125 219.2890625 C-231.28835937 219.19367188 -232.13140625 219.09828125 -233 219 C-232.01 217.02 -231.02 215.04 -230 213 C-231.0725 212.9175 -232.145 212.835 -233.25 212.75 C-237.44608647 211.91078271 -238.45634001 211.33307171 -241 208 C-241.9897597 206.27590246 -242.97780198 204.55031339 -243.921875 202.80078125 C-245.02946837 200.95077929 -246.26391465 199.42835119 -247.6875 197.8125 C-250.78224101 194.04862579 -250.78224101 194.04862579 -251 191 C-250.67 190.34 -250.34 189.68 -250 189 C-250 187.02 -250 185.04 -250 183 C-254.29 183 -258.58 183 -263 183 C-263 182.34 -263 181.68 -263 181 C-264.0828125 180.814375 -264.0828125 180.814375 -265.1875 180.625 C-268.05589786 179.98757825 -270.41029431 179.39984091 -273 178 C-274.1875 175.5 -274.1875 175.5 -275 173 C-277.6855594 170.3144406 -280.37621328 169.93950026 -284 169 C-284.18175781 167.89140625 -284.36351562 166.7828125 -284.55078125 165.640625 C-284.80410404 164.17698223 -285.0580427 162.71344596 -285.3125 161.25 C-285.48942383 160.15558594 -285.48942383 160.15558594 -285.66992188 159.0390625 C-286.41662197 154.63454841 -286.41662197 154.63454841 -288.6875 150.859375 C-290 149 -290 149 -289.63671875 146.125 C-289.32347656 145.09375 -289.01023437 144.0625 -288.6875 143 C-287.60987696 139.36245386 -287 136.83729334 -287 133 C-284.68165963 130.68165963 -282.94046337 130.13597553 -279.875 129 C-274.45425437 126.82910187 -269.84269167 124.07397481 -265 120.875 C-257.79767713 116.18338222 -250.67958168 112.46906739 -241.82421875 113.296875 C-238.08095843 114.22880703 -236.62448817 116.24092269 -234 119 C-228.31492754 121.78511125 -221.90533963 122.17090075 -215.82421875 120.34765625 C-211.00344787 118.09667506 -207.06844184 114.77373074 -203.078125 111.29296875 C-201 110 -201 110 -199.078125 110.0546875 C-196.25225549 111.34013942 -193.97076998 113.06066511 -191.5 114.9375 C-185.60286636 119.40085252 -181.60824437 122.0327342 -174 121 C-166.5779279 119.03256184 -161.32244945 115.42932595 -156 110 C-154.94425781 108.92492187 -154.94425781 108.92492187 -153.8671875 107.828125 C-148.75062413 102.35283578 -145.38492499 97.15477498 -143 90 C-139.04516248 90.74586848 -136.83239866 92.52879929 -133.78125 95.0390625 C-132.06195095 96.19829427 -132.06195095 96.19829427 -130.17211914 95.71533203 C-127.71551191 94.9063111 -125.69736864 93.82298641 -123.46484375 92.515625 C-122.58280273 91.99935547 -121.70076172 91.48308594 -120.79199219 90.95117188 C-119.85000977 90.38978516 -118.90802734 89.82839844 -117.9375 89.25 C-116.95813477 88.66798828 -115.97876953 88.08597656 -114.96972656 87.48632812 C-105.36500531 81.71666369 -96.13215049 75.48565874 -87 69 C-86.24235352 68.46375 -85.48470703 67.9275 -84.70410156 67.375 C-76.23967773 61.36868816 -67.88756413 55.21854423 -59.625 48.9375 C-58.91714355 48.40125 -58.20928711 47.865 -57.47998047 47.3125 C-52.39748227 43.4179413 -48.30096035 40.24180009 -45.8125 34.1875 C-43.47408615 29.28253436 -40.84085555 27.0807475 -36.4296875 24.05078125 C-33.97476816 21.97870303 -32.3822863 19.79610989 -30.61352539 17.13183594 C-25.44278939 9.40739827 -20.67450948 7.05779521 -11.7421875 4.921875 C-7.35276406 3.84055566 -3.91663465 2.20310699 0 0 Z " fill="#000000" transform="translate(290,0)"/>
</svg>
