<?xml version="1.0" encoding="UTF-8"?>
<svg version="1.1" xmlns="http://www.w3.org/2000/svg" width="616" height="1226">
<path d="M0 0 C4.29682481 0.48083516 6.72267162 3.26148781 9.75 6.0625 C15.87279462 11.52312969 22.34228725 15.03270217 29.76171875 18.44140625 C33 20 33 20 35 22 C27 30 27 30 24.55859375 32.421875 C21.90703225 35.09367743 19.31211319 37.80477637 16.75 40.5625 C15.87859375 41.49191406 15.0071875 42.42132812 14.109375 43.37890625 C12.18972856 45.7642447 11.36454858 47.02051644 11 50 C11.680625 50.45375 12.36125 50.9075 13.0625 51.375 C22.71374837 59.99951982 27.71314292 72.1043863 28.8125 84.875 C28.89497645 86.58248548 28.96556699 88.29087057 29 90 C28.04480469 89.9278125 27.08960938 89.855625 26.10546875 89.78125 C24.81253906 89.6884375 23.51960938 89.595625 22.1875 89.5 C21.50840576 89.4494043 20.82931152 89.39880859 20.12963867 89.34667969 C15.1366527 89.0012419 10.26466834 89.05412787 5.26953125 89.453125 C3 89 3 89 1.03125 87.08984375 C-1.68208373 82.96244571 -3.9960892 78.67197385 -6.3125 74.3125 C-9.73290523 67.97194515 -13.23811987 61.92387931 -17.4921875 56.09765625 C-23.86320291 47.23435242 -23.86320291 47.23435242 -24.1875 41.9375 C-21.76746407 35.95109533 -17.72088259 31.61656762 -13 27.3125 C-5.63960918 20.14913685 -2.50776159 9.74507356 0 0 Z " fill="#000000" transform="translate(218,589)"/>
<path d="M0 0 C3.59890184 3.59890184 6.30589539 7.77933326 8.8125 12.1875 C14.16677474 19.07156752 23.69544484 22.49619989 31.3125 26.484375 C34 28 34 28 36 30 C36.09534818 32.47011371 36.08674878 34.84814973 36 37.3125 C35.87390976 43.69438538 36.44713439 49.59356868 37.55078125 55.89453125 C38.5084748 62.51510842 39.03444563 70.55758883 37 77 C33.55618996 79.40401232 30.22853065 79.2992628 26.125 79.3125 C24.93132812 79.32925781 23.73765625 79.34601563 22.5078125 79.36328125 C18.6487463 78.96362295 16.32932629 77.94864867 13 76 C12.26394531 75.58363281 11.52789062 75.16726563 10.76953125 74.73828125 C5.61820103 70.98531612 4.13835891 67.17124986 3.125 61 C2.93365608 59.64672939 2.74862999 58.2925486 2.5703125 56.9375 C1.29072571 48.10309256 -1.18217129 42.76514809 -8 37 C-12.783718 33.93426183 -17.87978745 31.44676824 -23 29 C-22.95875 27.906875 -22.9175 26.81375 -22.875 25.6875 C-22.67925334 21.91107771 -22.67925334 21.91107771 -25 19 C-9.42078898 -2.03193488 -9.42078898 -2.03193488 0 0 Z " fill="#000000" transform="translate(97,316)"/>
<path d="M0 0 C0.56976562 0.71671875 1.13953125 1.4334375 1.7265625 2.171875 C9.66664855 12.04923291 17.16366642 18.63442805 28 25 C28.99386719 25.60070312 29.98773437 26.20140625 31.01171875 26.8203125 C32.67344523 27.82462602 34.33937916 28.82205392 36.01171875 29.80859375 C37.70494682 30.82319996 39.35758097 31.90505398 41 33 C39.91962365 36.45720431 38.34560845 38.94620145 36.125 41.75 C31.03486537 48.37584435 28.68633072 55.46689891 26.7109375 63.51953125 C25.68935392 67.08384758 24.75960987 69.37443893 21.875 71.75 C17.94826161 73.45727756 15.11983776 74.10662309 11 73 C0.37264982 67.44414669 -7.93612703 58.70334677 -16 50 C-16.7425 49.22140625 -17.485 48.4428125 -18.25 47.640625 C-21.08744025 44.35655064 -22.39612839 42.08752651 -22.125 37.6875 C-19.1015086 22.49184923 -10.80461931 10.80461931 0 0 Z " fill="#000000" transform="translate(575,465)"/>
<path d="M0 0 C3.13443437 1.68088349 3.65068073 4.73408781 4.77734375 7.953125 C9.38174706 27.07140832 5.74703425 43.92646352 -3.22265625 60.953125 C-3.57150879 61.61957031 -3.92036133 62.28601563 -4.27978516 62.97265625 C-6.217317 66.65756674 -8.20689716 70.3102814 -10.22265625 73.953125 C-14.49449121 73.90140463 -18.76428014 73.80636215 -23.03515625 73.703125 C-24.25009766 73.68894531 -25.46503906 73.67476563 -26.71679688 73.66015625 C-27.88017578 73.62792969 -29.04355469 73.59570312 -30.2421875 73.5625 C-31.31573486 73.54155273 -32.38928223 73.52060547 -33.49536133 73.49902344 C-36.22265625 72.953125 -36.22265625 72.953125 -38.05078125 71.04052734 C-41.63140597 64.66253957 -41.70928827 57.07479738 -41.22265625 49.953125 C-41.196875 48.69371094 -41.17109375 47.43429687 -41.14453125 46.13671875 C-40.35645344 33.93578953 -34.45220651 27.74506126 -25.6171875 19.7578125 C-24.15632422 18.48500029 -22.69153947 17.21667339 -21.22265625 15.953125 C-19.8249111 14.72725737 -18.42775419 13.50071863 -17.03125 12.2734375 C-16.05321411 11.42096436 -16.05321411 11.42096436 -15.05541992 10.55126953 C-13.91066606 9.55306002 -12.76845754 8.55191498 -11.63012695 7.54638672 C-10.25548528 6.33581592 -8.86452104 5.14385326 -7.47265625 3.953125 C-6.5703125 3.169375 -5.66796875 2.385625 -4.73828125 1.578125 C-2.22265625 -0.046875 -2.22265625 -0.046875 0 0 Z " fill="#000000" transform="translate(415.22265625,255.046875)"/>
<path d="M0 0 C0.68449219 0.33644531 1.36898438 0.67289062 2.07421875 1.01953125 C5.56145351 2.18815064 8.15035233 1.88985052 11.8125 1.6875 C20.17510729 1.79008961 24.48501536 6.11568916 30.12670898 11.84545898 C31.4464097 13.21976128 32.75904855 14.6008806 34.06445312 15.98876953 C37.0265224 19.06666139 40.19603142 21.89968925 43.375 24.75 C48.15875693 29.0633518 51.13999773 31.88996933 51.6328125 38.54296875 C51.71660156 39.61611328 51.80039062 40.68925781 51.88671875 41.79492188 C51.96535156 42.91447266 52.04398438 44.03402344 52.125 45.1875 C52.21136719 46.31865234 52.29773437 47.44980469 52.38671875 48.61523438 C52.59895415 51.40966714 52.80305481 54.20445481 53 57 C41.81511295 60.54850477 31.64359501 59.87378904 21 55 C20.3296875 54.70496582 19.659375 54.40993164 18.96875 54.10595703 C16.70086995 53.1072713 14.44282576 52.08920515 12.1875 51.0625 C11.46973389 50.73894531 10.75196777 50.41539062 10.01245117 50.08203125 C4.04350963 47.27671917 -1.63892339 44.11005008 -4.3125 37.75 C-4.61800781 37.06421875 -4.92351563 36.3784375 -5.23828125 35.671875 C-7.67818014 27.11346042 -6.54382338 20.48200732 -4.125 12 C-3.84269531 10.95199219 -3.56039063 9.90398437 -3.26953125 8.82421875 C-1.17660435 1.17660435 -1.17660435 1.17660435 0 0 Z " fill="#000000" transform="translate(7,118)"/>
<path d="M0 0 C2.55243426 -0.28552654 4.31395137 -0.21843897 6.8046875 0.4296875 C12.40057813 5.75706877 16.18567192 13.12245497 19.9296875 19.8046875 C20.42855469 20.67351562 20.92742187 21.54234375 21.44140625 22.4375 C24.01553935 26.98087852 26.45262414 31.58389816 28.734375 36.28125 C29.36835205 37.5818335 29.36835205 37.5818335 30.01513672 38.90869141 C30.94504947 41.87785625 30.78972155 43.49844214 29.8046875 46.4296875 C29.0828125 46.9659375 28.3609375 47.5021875 27.6171875 48.0546875 C23.91965786 51.17704586 22.3440939 54.76143931 20.234375 59.06640625 C18.8046875 61.4296875 18.8046875 61.4296875 15.8046875 62.4296875 C9.18818382 59.42218583 6.35139531 53.50975803 2.8046875 47.4296875 C2.36511719 46.70265625 1.92554688 45.975625 1.47265625 45.2265625 C-1.1953125 40.73909563 -1.1953125 40.73909563 -1.1953125 38.4296875 C-11.7553125 38.4296875 -22.3153125 38.4296875 -33.1953125 38.4296875 C-32.2690992 33.79862101 -30.84477649 30.37861789 -28.6328125 26.3046875 C-28.27711182 25.64742676 -27.92141113 24.99016602 -27.55493164 24.31298828 C-22.11054399 14.45918569 -16.69580884 5.34654719 -5.8203125 1.1171875 C-3.87938984 0.74908148 -1.93873343 0.3794674 0 0 Z " fill="#000000" transform="translate(293.1953125,1017.5703125)"/>
<path d="M0 0 C0.33 0 0.66 0 1 0 C2.09890652 4.4483736 2.19137232 8.81922108 2.1875 13.375 C2.18814453 14.16938477 2.18878906 14.96376953 2.18945312 15.78222656 C2.14479376 20.86324434 1.74280566 25.7242085 1 30.75 C-0.66203291 42.23758038 -1.06633191 51.36116784 3.953125 61.93945312 C5.18444418 64.57840714 5.98800164 66.75791541 6.1328125 69.6796875 C4.38248621 73.26483859 1.26832936 74.42794185 -2.1875 76.0625 C-3.5158525 76.7169566 -4.84269726 77.3744829 -6.16796875 78.03515625 C-6.81556152 78.35242676 -7.4631543 78.66969727 -8.13037109 78.99658203 C-10.29606629 80.10815424 -10.29606629 80.10815424 -13.23828125 82.30859375 C-16 84 -16 84 -18.1875 83.984375 C-23.65653862 81.01412127 -26.26746961 73.91074953 -28.1875 68.3125 C-32.00029913 54.73638258 -33.71730689 40.08046858 -33 26 C-31.40671875 25.56300781 -31.40671875 25.56300781 -29.78125 25.1171875 C-16.41336894 21.46919403 -16.41336894 21.46919403 -7.04296875 11.796875 C-5.76894001 9.50050112 -4.60407999 7.18877692 -3.4453125 4.828125 C-2 2 -2 2 0 0 Z " fill="#000000" transform="translate(87,0)"/>
<path d="M0 0 C4.45148352 8.29286525 8.44975749 16.55927901 11.4375 25.5 C11.68387207 26.22815918 11.93024414 26.95631836 12.18408203 27.70654297 C13.71512985 32.46944012 14.51217246 37.02079479 15 42 C14.31421875 41.89042969 13.6284375 41.78085937 12.921875 41.66796875 C6.62566253 40.71423213 0.35005333 39.91897543 -5.98828125 39.3046875 C-7.23125977 39.18198486 -8.47423828 39.05928223 -9.75488281 38.93286133 C-12.27277553 38.6879496 -14.79168332 38.45323748 -17.31152344 38.22924805 C-18.48875977 38.11363525 -19.66599609 37.99802246 -20.87890625 37.87890625 C-21.9366626 37.7816626 -22.99441895 37.68441895 -24.08422852 37.58422852 C-27.2971162 36.9404673 -29.35112693 35.90781753 -32 34 C-33.80504424 30.38991151 -33.18469906 26.16202835 -33.1875 22.1875 C-33.19974609 21.28451172 -33.21199219 20.38152344 -33.22460938 19.45117188 C-33.2443711 10.48593808 -33.2443711 10.48593808 -31 7 C-22.49277863 1.92717541 -9.78147557 -0.29595993 0 0 Z " fill="#000000" transform="translate(563,706)"/>
<path d="M0 0 C3.54162919 1.2961934 6.44055386 2.82965361 9.51171875 5.01171875 C10.35283203 5.60533203 11.19394531 6.19894531 12.06054688 6.81054688 C12.92744141 7.42994141 13.79433594 8.04933594 14.6875 8.6875 C15.53505859 9.28755859 16.38261719 9.88761719 17.25585938 10.50585938 C18.96531273 11.71612635 20.67348942 12.92819863 22.38037109 14.14208984 C26.57252241 17.11527452 30.78604155 20.05783958 35 23 C29.60281686 33.75965771 23.41803285 45.23374522 14 53 C10.94580436 53.03205303 9.60532689 52.49922465 7.26171875 50.56640625 C0.18964656 41.56399177 -9.19793474 25.11819347 -8.94140625 13.30078125 C-7.68308612 10.22546773 -5.94442802 7.83154802 -3.9375 5.1875 C-3.20402344 4.21167969 -2.47054687 3.23585938 -1.71484375 2.23046875 C-1.14894531 1.49441406 -0.58304688 0.75835937 0 0 Z " fill="#000000" transform="translate(117,447)"/>
<path d="M0 0 C0.96856934 0.00273926 1.93713867 0.00547852 2.93505859 0.00830078 C11.79312577 0.13646507 21.65820257 0.6162421 29.4375 5.3125 C31.28321103 9.00392207 29.95293122 13.32760704 29.4375 17.3125 C29.30408203 18.68728516 29.30408203 18.68728516 29.16796875 20.08984375 C28.82273603 22.67339852 28.4096928 24.89342871 27.4375 27.3125 C21.58569706 31.4212127 13.63178611 31.74132757 6.6484375 31.02734375 C2.16511926 30.24044866 -1.16060555 29.50319036 -4.5625 26.3125 C-5.3125 22.625 -5.3125 22.625 -5.5625 19.3125 C-10.0175 20.7975 -10.0175 20.7975 -14.5625 22.3125 C-19.30513767 17.94428109 -21.2736053 15.10514873 -21.9375 8.6875 C-21.5625 5.3125 -21.5625 5.3125 -20 3.5 C-13.39370851 0.2815503 -7.23896234 -0.04116591 0 0 Z " fill="#000000" transform="translate(162.5625,650.6875)"/>
<path d="M0 0 C6.03889693 6.26200889 7.29432126 16.982316 7.7265625 25.375 C7.37577629 31.03629974 5.16973698 34.32559342 1.5859375 38.64453125 C-4.34315756 38.05835935 -9.72986516 36.84048744 -15.4140625 35.08203125 C-16.57615234 34.73108398 -16.57615234 34.73108398 -17.76171875 34.37304688 C-19.6475839 33.80263087 -21.5310834 33.22440322 -23.4140625 32.64453125 C-22.31051161 25.08845339 -20.82062461 17.89630507 -18.4140625 10.64453125 C-18.98640625 10.40605469 -19.55875 10.16757813 -20.1484375 9.921875 C-22.88745587 8.37763534 -24.58076463 6.55652829 -26.6640625 4.20703125 C-27.37046875 3.42457031 -28.076875 2.64210937 -28.8046875 1.8359375 C-30.4140625 -0.35546875 -30.4140625 -0.35546875 -30.4140625 -3.35546875 C-20.10752414 -4.69800381 -9.06335949 -5.91690936 0 0 Z " fill="#000000" transform="translate(157.4140625,231.35546875)"/>
<path d="M0 0 C4.44508094 0.36748687 7.67381809 1.89093228 11.63671875 3.84765625 C12.7513147 4.38422852 12.7513147 4.38422852 13.88842773 4.93164062 C20.04260832 7.95245689 25.80581598 11.38474829 31.44921875 15.28515625 C30.21985088 18.65863491 28.87330561 21.29454607 26.63671875 24.09765625 C23.61353646 27.99733856 20.98952055 32.05881343 18.44921875 36.28515625 C7.43261537 36.01705307 -1.9696439 32.11106096 -10.55078125 25.28515625 C-10.13828125 24.10953125 -9.72578125 22.93390625 -9.30078125 21.72265625 C-7.5890757 16.62829449 -6.23179533 11.45778917 -4.90917969 6.25170898 C-3.39424336 0.37944834 -3.39424336 0.37944834 0 0 Z " fill="#000000" transform="translate(234.55078125,461.71484375)"/>
<path d="M0 0 C2.98308175 2.40472916 5.51069737 5.09360677 8 8 C6.92514561 10.23238989 5.80302388 12.30392023 4.453125 14.38671875 C2.86586609 17.2412247 2.33733499 19.61152431 1.75 22.8125 C0.28717264 29.10497961 -2.37292857 32.62531429 -7 37 C-7.804375 37.825 -8.60875 38.65 -9.4375 39.5 C-9.953125 39.995 -10.46875 40.49 -11 41 C-15.65098234 39.48197104 -17.50300801 35.72823744 -20 31.8125 C-20.42539062 31.16474609 -20.85078125 30.51699219 -21.2890625 29.84960938 C-22.54992846 27.91383204 -23.77779867 25.96036743 -25 24 C-25.61294922 23.05519775 -25.61294922 23.05519775 -26.23828125 22.09130859 C-29.00790463 17.63349982 -29.00790463 17.63349982 -28.97265625 14.80859375 C-25.3244924 8.02506017 -17.3603376 1.6751055 -10 -0.625 C-6.44897929 -1.29081638 -3.3697266 -1.22425319 0 0 Z " fill="#000000" transform="translate(358,1185)"/>
<path d="M0 0 C1.21042969 -0.03996094 2.42085938 -0.07992188 3.66796875 -0.12109375 C6.8125 0.4375 6.8125 0.4375 9.19140625 2.8515625 C12.06445597 7.43459604 12.53186249 12.05838647 11.8125 17.4375 C9.41258295 22.23733409 5.58637636 23.88038044 0.7421875 25.6484375 C-5.30027429 27.27587387 -11.71248918 28.15161221 -17.88671875 26.8828125 C-21.20827221 24.79626788 -22.26814853 22.11046458 -23.1875 18.4375 C-23.49944625 15.6059365 -23.47647405 12.8438754 -23.375 10 C-23.36146484 9.26845703 -23.34792969 8.53691406 -23.33398438 7.78320312 C-23.29903874 6.00097578 -23.24524805 4.21913427 -23.1875 2.4375 C-15.46999137 1.21145608 -7.81334883 0.25229013 0 0 Z " fill="#000000" transform="translate(308.1875,398.5625)"/>
<path d="M0 0 C1 1 1 1 1.1875 4.875 C1.14499921 9.37300013 0.39270681 13.53880786 -0.48828125 17.9375 C-1.43132736 23.58137901 -1.68335323 29.29202541 -2 35 C-6.20344998 34.36713857 -9.56176712 32.91477108 -13.375 31.0625 C-18.61489123 28.56740817 -18.61489123 28.56740817 -24.125 26.8125 C-27.18865307 25.946685 -28.08074747 25.44964425 -30 23 C-31.13871142 18.55978968 -31.14896643 14.14916964 -30.5625 9.625 C-27.67640426 4.77635916 -23.01377856 3.5843218 -17.86328125 2.08984375 C-11.81573106 0.57971217 -6.23082047 -0.47929388 0 0 Z " fill="#000000" transform="translate(325,333)"/>
<path d="M0 0 C30.79039301 3.79039301 30.79039301 3.79039301 36 9 C36.4375 11.3125 36.4375 11.3125 36 14 C33.8125 16.5625 33.8125 16.5625 31 19 C30.278125 19.680625 29.55625 20.36125 28.8125 21.0625 C21.45484196 26.13110887 13.90921559 28.20705501 5 27 C1.25969815 25.39701349 0.26841535 24.40262302 -2 21 C-2.265625 18.65234375 -2.265625 18.65234375 -2.25 15.9375 C-2.25515625 15.05964844 -2.2603125 14.18179687 -2.265625 13.27734375 C-1.90011786 8.76763062 -0.95697201 4.41700352 0 0 Z " fill="#000000" transform="translate(165,419)"/>
<path d="M0 0 C0.66796875 1.6953125 0.66796875 1.6953125 1 4 C-2.00968412 10.85603718 -7.30830759 16.77456161 -12.125 22.4375 C-12.87849731 23.32381104 -12.87849731 23.32381104 -13.6472168 24.22802734 C-16.5289019 27.53640074 -19.46422956 30.3643616 -23 33 C-28.40262055 31.29680098 -29.93768567 28.7242207 -32.640625 23.9453125 C-35.03044173 18.76737625 -37 12.76014928 -37 7 C-24.2465344 1.25874916 -13.89323865 -0.33343773 0 0 Z " fill="#000000" transform="translate(291,536)"/>
<path d="M0 0 C9.43267175 0.48125876 18.96226365 1.01295154 28 4 C30.97548587 8.4632288 30.732972 12.76889459 30 18 C28 20.75 28 20.75 25 23 C24.37222656 23.63292969 23.74445313 24.26585937 23.09765625 24.91796875 C21.15230976 26.84837976 19.29843563 28.50739041 17 30 C14.1875 29.8125 14.1875 29.8125 11 28 C10.07058594 27.50628906 9.14117187 27.01257813 8.18359375 26.50390625 C5.43533384 25.04027358 2.71559535 23.52338276 0 22 C0 14.74 0 7.48 0 0 Z " fill="#000000" transform="translate(291,214)"/>
<path d="M0 0 C5.95107827 0.50534296 10.64495259 1.78031301 16.0625 4.25 C16.73087891 4.53746094 17.39925781 4.82492187 18.08789062 5.12109375 C22.84756433 7.23958798 26.84157071 9.86360339 31 13 C26.61163104 17.97964394 21.38942214 20.99611702 15.6875 24.3125 C14.75615234 24.86228516 13.82480469 25.41207031 12.86523438 25.97851562 C10.58070033 27.32580493 8.29232432 28.66602336 6 30 C0.91183705 25.17396237 -0.0057892 18.55107594 -0.1875 11.71875 C-0.21732543 7.80902452 -0.1323695 3.90735151 0 0 Z " fill="#000000" transform="translate(135,695)"/>
</svg>
