<?xml version="1.0" standalone="no"?>
<!DOCTYPE svg PUBLIC "-//W3C//DTD SVG 20010904//EN"
 "http://www.w3.org/TR/2001/REC-SVG-20010904/DTD/svg10.dtd">
<svg version="1.0" xmlns="http://www.w3.org/2000/svg"
 width="321.000000pt" height="842.000000pt" viewBox="0 0 321.000000 842.000000"
 preserveAspectRatio="xMidYMid meet">

<g transform="translate(0.000000,842.000000) scale(0.100000,-0.100000)"
fill="#000000" stroke="none">
<path d="M1198 8256 c-107 -102 -168 -169 -168 -181 0 -11 14 -56 31 -100 28
-70 32 -92 31 -171 0 -56 -6 -105 -15 -126 -17 -41 -237 -230 -302 -259 -57
-26 -140 -24 -190 4 -49 28 -77 69 -105 152 -23 68 -31 75 -89 75 -52 0 -66
-15 -85 -94 -20 -81 -64 -172 -100 -205 -14 -14 -26 -34 -26 -46 0 -12 -16
-44 -35 -71 -46 -64 -57 -108 -57 -224 1 -119 17 -173 75 -247 25 -32 52 -71
60 -88 23 -47 39 -142 32 -188 -18 -106 -97 -207 -180 -229 l-40 -11 14 -75
c17 -89 6 -183 -28 -231 l-21 -29 35 -6 c43 -8 70 -45 62 -85 -3 -15 -22 -55
-41 -87 -20 -33 -39 -73 -42 -91 -11 -60 52 -151 157 -225 38 -26 68 -57 81
-81 44 -86 60 -265 38 -405 -15 -90 3 -151 109 -368 90 -183 125 -247 269
-482 l82 -132 -120 -326 -120 -326 50 -96 c68 -130 163 -261 276 -381 143
-153 159 -198 168 -451 5 -151 39 -447 91 -795 14 -93 28 -226 31 -295 5 -143
13 -191 59 -347 l33 -111 -23 -254 -23 -253 77 -149 c42 -82 84 -154 93 -160
22 -14 74 5 154 56 52 32 72 54 134 148 40 61 77 113 81 116 6 4 331 -194 481
-293 20 -14 47 -23 60 -21 33 4 67 72 77 155 11 92 42 167 175 426 78 155 127
238 166 284 30 36 70 84 89 106 l33 42 -6 110 c-3 61 -16 171 -27 245 -16 101
-23 211 -29 435 -8 345 -21 424 -96 608 -62 152 -91 262 -109 417 -21 178 -17
165 -95 325 -97 198 -124 281 -125 382 0 76 2 84 31 120 43 55 112 86 286 127
128 31 174 48 283 102 72 35 155 81 185 102 47 32 55 42 58 72 2 19 16 143 33
274 50 413 40 483 -86 576 -82 61 -123 107 -145 167 -23 61 -25 104 -9 136 7
12 42 54 79 92 83 86 87 102 94 355 3 102 12 259 20 350 23 247 23 239 -27
435 -26 99 -58 243 -72 320 -14 77 -28 147 -30 155 -3 8 -29 28 -58 43 -67 35
-105 74 -176 179 l-56 83 -50 -3 c-34 -2 -64 3 -95 17 -77 34 -118 36 -180 8
-101 -45 -225 -70 -320 -65 -97 6 -140 21 -194 68 -45 40 -68 83 -92 175 -25
96 -23 287 5 468 12 76 21 173 21 216 0 75 -23 171 -40 171 -5 0 -30 -44 -57
-97 -37 -75 -56 -102 -81 -117 -70 -39 -158 -14 -198 58 -12 21 -29 85 -39
145 -10 58 -21 113 -24 122 -5 13 -47 -22 -173 -145z"/>
</g>
</svg>
