<?xml version="1.0" standalone="no"?>
<!DOCTYPE svg PUBLIC "-//W3C//DTD SVG 20010904//EN"
 "http://www.w3.org/TR/2001/REC-SVG-20010904/DTD/svg10.dtd">
<svg version="1.0" xmlns="http://www.w3.org/2000/svg"
 width="1683.000000pt" height="1414.000000pt" viewBox="0 0 1683.000000 1414.000000"
 preserveAspectRatio="xMidYMid meet">

<g transform="translate(0.000000,1414.000000) scale(0.100000,-0.100000)"
fill="#000000" stroke="none">
<path d="M12257 14119 c-4 -13 -10 -80 -13 -149 -8 -143 -3 -166 72 -351 25
-63 46 -127 47 -144 0 -17 -11 -49 -26 -73 -44 -68 -58 -140 -63 -332 -4 -130
-10 -192 -24 -240 -35 -118 -151 -233 -263 -261 -52 -13 -125 -7 -156 13 -17
10 -24 9 -43 -9 -32 -30 -136 -83 -162 -83 -12 0 -32 7 -45 16 -35 25 -26 98
21 166 l35 50 -24 44 -25 45 -36 -43 c-69 -81 -89 -98 -119 -98 -44 0 -118 42
-221 125 -61 49 -102 75 -118 75 -14 0 -70 -12 -125 -27 -117 -31 -154 -25
-220 34 -34 30 -43 34 -73 29 -19 -4 -57 -25 -84 -46 -84 -67 -156 -93 -274
-99 -10 -1 -25 -19 -36 -45 -16 -36 -30 -48 -77 -71 -71 -35 -149 -44 -196
-21 -58 28 -237 183 -258 223 -31 61 -50 137 -61 248 -10 87 -9 122 6 222 21
146 15 301 -19 490 -13 73 -26 135 -29 138 -3 3 -26 6 -52 7 -35 2 -50 -2 -57
-13 -26 -48 -106 -143 -138 -164 -46 -32 -127 -33 -232 -5 -122 34 -233 54
-260 47 -18 -5 -35 -23 -56 -64 -45 -87 -85 -106 -237 -111 -88 -3 -146 0
-217 13 -53 10 -108 15 -122 11 -15 -3 -39 -25 -57 -50 -60 -88 -224 -131
-482 -124 -133 3 -147 5 -200 31 -72 35 -148 116 -260 278 -84 122 -145 189
-172 189 -27 0 -121 -21 -128 -28 -4 -4 1 -53 11 -107 56 -297 46 -408 -45
-455 -16 -8 -82 -51 -148 -94 -193 -127 -272 -157 -433 -160 -80 -2 -100 -6
-155 -34 -46 -23 -257 -170 -295 -206 -2 -2 6 -45 18 -97 11 -52 18 -108 14
-125 -4 -21 -1 -35 10 -44 44 -37 -15 -110 -88 -110 -23 1 -53 7 -67 15 -30
17 -70 19 -70 4 0 -6 34 -83 76 -171 82 -173 103 -246 86 -290 -15 -36 -52
-59 -103 -63 -41 -3 -44 -6 -80 -66 -21 -35 -54 -80 -73 -99 -40 -37 -62 -41
-172 -25 -78 11 -87 3 -129 -132 -53 -170 -96 -254 -164 -321 -31 -31 -61 -66
-65 -77 -4 -11 -4 -111 0 -222 l7 -203 48 -31 c112 -71 157 -144 127 -206 -24
-50 -58 -58 -155 -38 -126 27 -136 20 -147 -113 -10 -107 -47 -153 -141 -172
-79 -16 -97 -48 -195 -337 -65 -191 -102 -230 -151 -164 -16 21 -32 30 -65 35
-71 9 -117 40 -200 131 -81 89 -127 125 -162 125 -11 0 -42 -18 -68 -41 -89
-75 -150 -91 -261 -70 -26 6 -108 12 -182 14 l-135 4 -44 -41 c-94 -86 -151
-206 -177 -366 -37 -239 -54 -292 -102 -330 -22 -17 -37 -21 -70 -17 l-41 4
-6 -42 c-5 -33 -1 -57 23 -116 38 -96 46 -139 31 -183 -15 -45 -53 -70 -110
-69 -33 0 -72 13 -149 52 -104 51 -145 60 -182 41 -30 -16 -24 -60 27 -188 35
-88 48 -135 52 -190 4 -68 3 -75 -27 -123 -17 -28 -31 -62 -31 -76 0 -58 53
-356 80 -454 36 -127 39 -200 10 -229 l-20 -20 30 -76 c16 -42 30 -90 30 -108
0 -33 -25 -66 -49 -66 -7 0 -10 -7 -7 -17 60 -201 77 -294 86 -468 9 -192 14
-219 39 -249 22 -25 127 -76 239 -116 52 -18 110 -44 129 -57 34 -23 45 -24
242 -29 113 -3 216 -7 228 -10 29 -6 40 -47 20 -77 -10 -15 -16 -60 -19 -142
-2 -68 -10 -130 -17 -143 -11 -20 -8 -29 17 -70 74 -121 66 -147 -63 -208
-122 -58 -161 -62 -305 -30 -139 32 -179 51 -203 98 -16 32 -22 36 -69 41 -28
4 -68 16 -90 27 -49 26 -72 25 -188 -5 -115 -30 -189 -32 -219 -7 -12 9 -70
103 -129 207 -91 158 -114 193 -143 207 -36 18 -154 42 -404 82 -140 23 -177
32 -262 67 -27 11 -40 10 -87 -4 -31 -10 -97 -25 -148 -33 -178 -28 -184 -34
-168 -155 8 -61 8 -93 -1 -134 -10 -43 -9 -57 1 -70 29 -35 222 -147 277 -161
117 -30 242 -76 287 -105 73 -49 91 -81 91 -164 0 -68 -10 -98 -73 -217 -2 -3
19 -21 45 -39 82 -56 79 -39 49 -239 -8 -58 -16 -136 -18 -174 l-3 -70 50 -38
c28 -21 80 -56 116 -78 72 -43 139 -110 139 -139 0 -11 28 -40 75 -75 88 -66
112 -104 95 -146 -7 -16 -18 -31 -25 -34 -9 -3 -15 -53 -20 -193 -8 -214 -18
-303 -43 -354 l-18 -35 59 -45 c74 -55 143 -138 158 -190 10 -31 10 -61 0
-136 -25 -187 -67 -272 -153 -310 -37 -17 -45 -28 -109 -155 -73 -145 -115
-203 -163 -223 -24 -10 -32 -22 -43 -66 -16 -62 -51 -112 -96 -136 -20 -10
-65 -18 -120 -21 -76 -4 -97 -1 -164 23 l-76 27 -31 -32 -31 -31 36 -32 c19
-18 56 -44 81 -59 64 -37 84 -69 72 -116 -7 -29 -20 -44 -57 -67 -39 -25 -69
-62 -173 -219 -177 -265 -230 -318 -429 -429 -186 -104 -299 -177 -395 -259
l-72 -60 -70 4 c-65 3 -71 1 -93 -24 -29 -33 -83 -171 -97 -247 -6 -33 -7 -97
-3 -156 11 -166 10 -195 -14 -321 l-23 -122 -98 -104 -99 -105 14 -52 c7 -28
19 -83 25 -121 6 -38 15 -72 18 -74 4 -2 52 16 107 41 145 65 257 102 339 113
143 18 250 70 324 158 171 204 209 228 381 242 143 12 200 20 222 31 10 5 41
39 70 76 70 91 119 142 150 158 29 15 202 50 300 60 118 12 223 -23 429 -145
47 -27 90 -50 95 -50 6 0 23 24 37 53 45 91 83 134 148 167 44 22 61 37 66 56
10 40 -2 174 -21 224 -45 122 -56 270 -29 385 l17 71 -27 51 c-48 95 -38 123
112 338 116 167 142 185 258 185 92 0 115 -16 139 -101 36 -131 78 -223 121
-269 70 -75 154 -239 154 -303 0 -49 16 -53 56 -14 46 45 141 95 251 132 46
16 91 38 102 49 11 12 42 67 71 123 86 172 130 184 325 90 118 -56 279 -107
341 -107 29 0 84 32 84 48 0 4 -16 17 -35 30 -46 29 -75 77 -75 124 0 50 12
75 60 128 22 24 43 52 46 62 3 10 -13 59 -34 110 -54 127 -66 188 -52 274 23
142 57 182 204 239 150 58 351 189 442 286 46 51 111 145 143 207 25 50 27 80
17 227 -8 103 -7 111 11 128 11 10 40 21 64 25 40 6 46 11 69 57 21 42 25 64
25 137 0 78 2 89 24 112 32 34 123 67 187 69 40 1 62 -6 107 -31 31 -18 65
-32 75 -32 29 0 68 48 130 163 l59 107 44 -29 c32 -20 54 -45 77 -89 30 -56
34 -73 41 -180 8 -128 23 -168 79 -213 l27 -20 7 23 c3 13 21 72 39 131 18 59
36 104 39 100 4 -4 20 -45 34 -89 34 -102 80 -179 176 -291 42 -48 93 -110
114 -137 49 -61 81 -80 170 -102 66 -16 94 -16 376 -5 331 13 448 24 525 46
58 17 266 168 315 229 17 22 40 71 51 110 59 202 84 254 142 293 18 12 68 31
112 43 44 11 141 49 215 82 127 58 141 62 238 70 223 17 315 68 392 216 48 94
104 172 202 278 112 122 160 155 303 211 217 86 254 110 305 197 42 74 97 121
195 166 45 21 85 42 88 47 3 4 13 56 23 114 14 92 15 109 3 135 l-14 29 -160
6 c-202 7 -235 20 -279 106 -8 17 -18 55 -22 85 -7 62 10 110 53 149 35 33
406 272 483 312 57 29 58 29 94 12 44 -21 54 -52 66 -209 12 -154 58 -272 120
-303 14 -7 54 -13 89 -13 57 0 87 9 270 82 113 46 256 108 316 139 376 194
535 270 821 391 175 75 390 164 476 198 178 69 301 133 438 227 187 129 288
224 423 398 208 267 438 521 515 569 47 29 128 132 169 214 33 67 32 107 -1
236 -57 218 -32 285 200 526 88 92 244 297 244 322 0 7 -14 68 -31 137 l-31
124 16 87 c9 47 25 112 36 144 47 137 27 181 -178 391 -165 169 -219 244 -249
345 -18 62 -11 123 26 222 45 118 132 219 467 543 276 266 302 284 436 310
131 25 387 146 481 227 32 28 77 56 101 63 63 19 200 34 381 40 222 9 285 19
448 76 116 40 141 52 139 67 -2 9 -7 58 -11 108 -7 77 -13 100 -41 149 -55 96
-147 211 -201 251 -66 48 -102 60 -248 79 -66 9 -172 27 -233 40 -272 60 -902
236 -968 270 -15 8 -137 103 -271 212 -134 109 -320 257 -412 330 -154 121
-171 132 -190 120 -35 -19 -245 -16 -282 5 -55 31 -79 40 -200 69 -162 40
-185 51 -284 143 -84 78 -85 78 -102 58 -9 -12 -20 -38 -24 -59 -13 -74 -106
-143 -193 -143 -38 0 -57 6 -90 31 -44 33 -110 125 -162 228 -71 142 -117 181
-230 195 -130 17 -204 53 -229 114 -13 32 -47 46 -137 58 -48 6 -52 5 -57 -17z"/>
</g>
</svg>
