<?xml version="1.0" standalone="no"?>
<!DOCTYPE svg PUBLIC "-//W3C//DTD SVG 20010904//EN"
 "http://www.w3.org/TR/2001/REC-SVG-20010904/DTD/svg10.dtd">
<svg version="1.0" xmlns="http://www.w3.org/2000/svg"
 width="301.000000pt" height="491.000000pt" viewBox="0 0 301.000000 491.000000"
 preserveAspectRatio="xMidYMid meet">

<g transform="translate(0.000000,491.000000) scale(0.100000,-0.100000)"
fill="#000000" stroke="none">
<path d="M2554 4887 c-70 -59 -213 -105 -353 -114 -77 -5 -97 -3 -154 18 -54
19 -69 21 -79 11 -19 -19 -15 -217 7 -430 20 -195 16 -221 -38 -244 -44 -18
-162 -14 -284 11 -55 12 -124 21 -152 21 -48 0 -56 -4 -102 -47 -28 -27 -90
-75 -137 -108 -74 -52 -95 -73 -154 -160 -56 -82 -75 -102 -106 -113 -91 -32
-301 -93 -374 -107 -45 -9 -101 -26 -127 -37 -91 -39 -109 -60 -188 -225 -40
-84 -89 -192 -109 -239 l-35 -86 15 -68 c30 -130 21 -180 -52 -288 -45 -65
-86 -156 -113 -250 -16 -56 -17 -82 -9 -240 15 -285 11 -270 89 -365 90 -111
182 -232 216 -286 50 -80 191 -630 205 -800 8 -100 30 -211 67 -343 l16 -58
57 0 c31 0 78 3 104 6 l46 7 0 209 0 209 23 -7 c72 -22 210 -112 260 -169 36
-41 48 -79 83 -257 48 -243 47 -242 126 -266 100 -31 277 -64 346 -65 59 -1
64 1 92 34 37 44 141 218 177 295 15 32 29 82 31 109 5 66 -24 367 -44 457
-14 63 -23 78 -74 133 -31 34 -63 78 -69 97 -20 60 4 97 153 243 99 96 140
144 160 185 31 66 60 179 121 468 51 243 57 262 99 309 43 50 75 63 158 63 84
0 228 33 245 56 6 9 15 35 18 57 8 48 37 110 71 150 20 24 24 40 24 97 0 40
-8 94 -20 132 -27 87 -26 124 5 144 21 14 31 14 75 3 48 -12 51 -12 76 12 85
79 85 197 -1 309 -58 76 -80 124 -94 201 -28 163 2 347 63 398 9 8 16 19 16
25 0 19 -91 106 -133 128 -24 12 -44 31 -52 51 -7 18 -18 113 -24 212 -13 203
-15 212 -47 277 -13 25 -35 90 -50 145 -15 54 -30 102 -34 106 -4 4 -20 -3
-36 -16z"/>
</g>
</svg>
