<?xml version="1.0" standalone="no"?>
<!DOCTYPE svg PUBLIC "-//W3C//DTD SVG 20010904//EN"
 "http://www.w3.org/TR/2001/REC-SVG-20010904/DTD/svg10.dtd">
<svg version="1.0" xmlns="http://www.w3.org/2000/svg"
 width="915.000000pt" height="831.000000pt" viewBox="0 0 915.000000 831.000000"
 preserveAspectRatio="xMidYMid meet">

<g transform="translate(0.000000,831.000000) scale(0.100000,-0.100000)"
fill="#000000" stroke="none">
<path d="M3893 8303 c-34 -5 -86 -58 -176 -181 -66 -90 -72 -118 -58 -250 14
-122 4 -169 -40 -192 -33 -18 -103 -5 -166 31 -47 27 -57 29 -85 20 -44 -15
-212 -13 -283 3 -85 20 -145 48 -241 111 -45 30 -92 55 -103 55 -20 0 -49 -26
-133 -118 -41 -46 -51 -52 -86 -52 -45 0 -78 29 -88 76 -8 42 -300 342 -317
325 -6 -6 -27 -41 -47 -78 -53 -101 -76 -113 -214 -112 l-112 1 -111 -56 c-61
-30 -149 -84 -195 -118 -117 -88 -169 -120 -278 -171 -102 -47 -349 -223 -408
-291 -42 -48 -42 -85 3 -260 66 -258 50 -293 -179 -412 -142 -73 -166 -90
-166 -118 0 -29 52 -114 122 -202 93 -115 103 -149 123 -396 9 -106 18 -199
20 -207 9 -24 -15 -91 -46 -125 -31 -36 -54 -47 -211 -100 -82 -28 -93 -34
-101 -61 -20 -62 -101 -167 -208 -269 l-111 -105 57 -66 57 -65 157 0 156 -1
94 -109 93 -110 89 0 c49 0 89 -4 89 -9 0 -4 -7 -75 -15 -156 -15 -141 -18
-151 -62 -239 -42 -83 -47 -104 -65 -231 -12 -87 -23 -245 -28 -415 -7 -247
-11 -286 -35 -385 -16 -64 -29 -153 -32 -212 -7 -120 -10 -117 103 -82 60 18
75 29 133 91 77 82 104 98 164 98 92 0 153 -77 204 -254 l28 -98 83 -33 82
-33 33 56 c18 31 53 92 77 134 41 72 46 77 89 88 87 21 82 3 67 291 -7 152 -9
264 -4 280 15 45 81 63 192 52 l63 -6 23 -98 c13 -54 26 -102 29 -107 13 -19
81 -52 149 -72 110 -33 185 -100 307 -275 28 -38 71 -91 96 -116 48 -47 66
-91 54 -131 -4 -13 -31 -70 -60 -128 -64 -128 -69 -150 -35 -166 27 -13 231
-34 329 -34 58 0 61 -1 61 -25 0 -35 20 -32 77 12 167 129 174 133 209 133 80
0 94 -32 94 -215 l0 -131 142 -33 c148 -35 171 -45 225 -95 24 -22 33 -39 33
-63 0 -45 -32 -63 -132 -74 -76 -9 -212 -46 -247 -68 -11 -7 -13 -24 -8 -73 9
-94 34 -167 70 -203 31 -31 35 -32 143 -37 120 -6 161 -19 181 -57 19 -40 -5
-78 -100 -161 -77 -65 -137 -132 -137 -150 0 -5 183 2 333 14 54 4 67 2 67
-10 0 -11 14 -14 59 -14 125 0 214 -34 263 -100 10 -14 27 -59 39 -100 51
-187 111 -249 336 -345 87 -38 177 -74 201 -81 l42 -13 20 38 c37 73 112 79
158 11 35 -51 27 -125 -17 -180 -19 -24 -30 -47 -27 -56 3 -8 31 -26 62 -40
152 -67 367 -104 609 -104 l141 0 88 115 c75 98 92 115 110 109 97 -30 131
-88 151 -266 12 -99 141 -224 248 -239 28 -4 78 -8 111 -8 52 -1 57 1 51 17
-4 9 -19 49 -33 89 -22 62 -23 76 -13 102 15 35 64 61 114 61 54 0 66 18 55
82 -5 29 -23 82 -39 117 -16 35 -27 67 -23 70 3 3 74 29 157 56 l152 51 78
152 c75 147 79 158 126 361 43 188 52 217 89 273 56 87 112 207 112 241 0 29
-11 42 -98 115 -41 34 -55 53 -67 94 -25 86 -16 216 21 294 9 19 47 68 84 109
81 89 110 136 154 252 46 121 73 238 84 369 6 65 17 124 26 142 22 42 83 87
210 152 117 60 188 110 220 153 19 25 21 42 21 150 0 67 -3 137 -7 155 l-7 32
194 0 194 0 52 78 c89 132 245 335 298 387 l52 50 -43 20 c-36 17 -44 26 -46
52 -6 56 18 63 209 63 228 0 385 29 402 73 5 14 -56 364 -66 373 -3 3 -114 21
-247 39 -255 36 -256 36 -342 107 -66 55 -115 125 -153 221 -78 200 -81 202
-283 211 -459 21 -601 50 -760 155 -90 59 -147 81 -208 81 -24 0 -44 2 -44 4
0 3 -11 103 -25 223 l-26 218 -77 134 -77 134 -150 54 c-139 50 -394 158 -561
238 -57 28 -89 54 -175 142 -87 91 -116 114 -179 145 -136 65 -182 70 -375 38
-300 -50 -381 -37 -425 66 -10 23 -47 74 -82 115 -34 40 -90 110 -123 154 -44
58 -82 96 -142 139 l-83 58 0 137 0 136 -139 139 -138 138 -6 73 c-8 92 -40
180 -74 202 -20 13 -53 17 -142 19 -64 1 -130 0 -148 -3z"/>
</g>
</svg>
