<?xml version="1.0" encoding="UTF-8"?>
<svg version="1.1" xmlns="http://www.w3.org/2000/svg" width="1455" height="897">
<path d="M0 0 C1.62158203 2.61694336 1.62158203 2.61694336 3.0078125 6.08984375 C3.25997528 6.70839737 3.51213806 7.32695099 3.77194214 7.96424866 C4.57487649 9.94844063 5.34953064 11.9424376 6.125 13.9375 C6.65324583 15.24613107 7.18317731 16.55408304 7.71484375 17.86132812 C10.5100716 24.80150955 13.03945044 31.77193701 15 39 C15.70898438 39.08636719 16.41796875 39.17273437 17.1484375 39.26171875 C21.10841959 39.78428297 25.05481312 40.37711554 29 41 C30.48765869 41.23396484 30.48765869 41.23396484 32.00537109 41.47265625 C61.20063406 46.20063406 61.20063406 46.20063406 69 54 C69.69681082 61.7791503 69.79104996 68.60260214 65 75 C59.91665195 80.00041154 54.17942253 84.19870448 48.375 88.3125 C47.60027344 88.86574951 46.82554688 89.41899902 46.02734375 89.98901367 C44.44994373 91.11524232 42.87150324 92.2400152 41.29199219 93.36328125 C39.11531589 94.91765256 36.95021331 96.48663944 34.7890625 98.0625 C34.14662598 98.52873779 33.50418945 98.99497559 32.84228516 99.4753418 C31.63911825 100.34861838 30.43816435 101.22495438 29.23974609 102.10473633 C25.2260647 105 25.2260647 105 23 105 C22.77054688 106.19238281 22.54109375 107.38476562 22.3046875 108.61328125 C21.38113214 112.78889569 20.10648767 116.75696299 18.6953125 120.79296875 C18.27765625 122.00017578 17.86 123.20738281 17.4296875 124.45117188 C16.77351453 126.33030194 16.11697572 128.2094506 15.43359375 130.07885742 C12.57429078 136.95270864 12.57429078 136.95270864 12.55664062 144.11865234 C13.67107413 145.96483639 13.67107413 145.96483639 16 148 C16.7425 148.7425 17.485 149.485 18.25 150.25 C21.76168577 152.48470913 24.79782562 153.87595057 29 154 C35.79689841 152.19418197 39.47518907 147.7872164 43.25 142.125 C44.2184132 139.75674085 44.2184132 139.75674085 44 136.0625 C44.32167352 133.45550418 44.56144958 132.37357999 46.58203125 130.65234375 C49.32865326 129.23333588 52.11670058 128.12020079 55 127 C56.55316459 126.35546399 58.10515668 125.70809852 59.65625 125.05859375 C68.96982427 121.20260409 78.27844589 117.69648946 88 115 C96.767093 127.62584872 103.42892897 141.68212844 110.18188477 155.453125 C115.30248146 165.88784857 121.07983008 175.94458013 127.37890625 185.71484375 C127.74822266 186.29339111 128.11753906 186.87193848 128.49804688 187.46801758 C129.48838986 189.00963635 130.49549611 190.54045085 131.50390625 192.0703125 C134.90079626 198.72218589 133.87846615 204.15840874 131.9375 211 C131.70853027 211.83015625 131.47956055 212.6603125 131.24365234 213.515625 C124.0341228 238.87294535 111.04725454 253.18339727 90.48828125 268.64453125 C82.11769902 274.95823194 74.88531708 281.71592715 68.046875 289.66796875 C65.41833369 292.66269997 62.71074779 295.57977017 60 298.5 C55.58214651 303.26265487 51.24093583 308.07836922 47 313 C55.08913034 311.73414094 63.06153626 310.1754145 71.04296875 308.35546875 C73.3414687 307.83943195 75.64014069 307.32416097 77.93896484 306.80957031 C79.12367371 306.54390259 80.30838257 306.27823486 81.5289917 306.0045166 C160.60569335 288.34513941 160.60569335 288.34513941 186.6875 303.75 C192.40142606 307.4384672 197.73517386 311.53894532 203.02734375 315.80078125 C210.80884928 321.55766379 218.04399089 322.77935779 227.5 321.375 C232.39017439 320.37348123 236.35715104 318.44029459 240.7421875 316.1171875 C248.13608303 312.45861635 256.71996195 314.27313824 264.28125 316.74609375 C270.3196009 319.28084926 275.91108008 322.76801975 281.57421875 326.03515625 C284.45001329 327.68455722 287.32176009 329.32095772 290.25 330.875 C290.93578125 331.24367188 291.6215625 331.61234375 292.328125 331.9921875 C302.32104668 335.76144743 312.62044052 335.23747306 323.125 335.125 C324.76561953 335.11494877 326.40624503 335.10582672 328.046875 335.09765625 C332.03139965 335.07581549 336.01563259 335.0414043 340 335 C340.09000577 340.7257518 339.44393997 345.50280654 338 351 C337.78577393 351.82725586 337.57154785 352.65451172 337.35083008 353.50683594 C335.58479815 359.85795801 333.06488887 365.41905607 329.59179688 371.015625 C327.08023233 375.18067637 326.45219592 378.16677022 327 383 C328.80465427 387.0433393 331.72653777 389.4716296 335.77734375 391.15234375 C337.70458309 391.78293849 339.64926317 392.36332931 341.609375 392.8828125 C344 394 344 394 345.3046875 396.0625 C349.80226722 415.06351094 342.94390987 435.99363854 333.05078125 452.19140625 C331.09387929 454.87143008 329.08274676 457.08611411 326.6875 459.375 C323.93647676 462.01242623 321.34890047 464.71580184 318.859375 467.59765625 C304.44590279 484.18058688 290.04902627 497.27557288 270.93994141 508.27490234 C251.03562008 519.63364521 251.03562008 519.63364521 235.9375 536.375 C234.44593244 542.14239457 233.49511888 547.83509538 236.13671875 553.390625 C237.07895397 554.80521435 238.06339961 556.19329579 239.1015625 557.5390625 C244.41438215 564.42605094 248.21994968 571.30534254 251.4375 579.375 C258.46714684 596.26944696 266.74067254 606.27625908 282.5625 615.625 C296.9740418 624.22828523 305.61744429 631.71373387 313.625 646.625 C314.18445312 647.62917969 314.74390625 648.63335938 315.3203125 649.66796875 C320.50545976 659.24337042 326.65529094 671.7931103 324 683 C316.9466882 689.66478192 304.7080696 687.33452885 295.74365234 687.140625 C289.2863876 686.89806699 282.86825789 686.37151147 276.4375 685.75 C275.2201416 685.64075195 274.0027832 685.53150391 272.74853516 685.41894531 C259.13415687 683.97266673 252.39184872 678.69902056 243.74609375 668.28515625 C242.24462441 666.42333427 240.74984994 664.55609391 239.26171875 662.68359375 C237.08376202 660.09938603 234.7892944 657.85675009 232.3125 655.5625 C226.30961022 649.66382705 223.28479262 642.6484853 220.4765625 634.81640625 C220.0902063 633.74338257 220.0902063 633.74338257 219.69604492 632.64868164 C219.20193455 631.24904681 218.72460597 629.84333779 218.2668457 628.43139648 C216.7139879 623.92962083 215.09426664 621.4713141 211 619 C203.99735564 617.13101 197.96977197 619.90465092 191.88671875 623.23046875 C186.02414962 626.82416809 181.03933207 630.83031467 176.375 635.875 C171.3756751 641.0346239 165.22365272 644.42634737 158.97851562 647.87304688 C157.59147638 648.66309785 156.2320498 649.50269721 154.89648438 650.37695312 C148.90702926 654.13826727 144.34629557 654.55693906 137.375 654.125 C129.23241685 653.69460632 124.22312648 654.15184493 117.3125 658.8125 C114.84536967 660.92916106 114.84536967 660.92916106 113.32592773 663.98364258 C110.46059527 667.69952193 107.86203587 668.46890513 103.47265625 669.44921875 C102.73531754 669.6325174 101.99797882 669.81581604 101.23829651 670.00466919 C98.85149137 670.58994457 96.45810011 671.13944842 94.0625 671.6875 C92.42275297 672.08118843 90.78326732 672.47596708 89.14404297 672.87182617 C79.56504747 675.14676618 69.98754507 677.13133837 60.16821289 678.03979492 C52.49345828 678.82198317 48.11933736 682.27813014 43.38818359 688.06835938 C41.08846513 691.26838971 39.43238204 694.66851639 37.8125 698.25 C37.48314453 698.93707031 37.15378906 699.62414062 36.81445312 700.33203125 C32.00700686 710.71152755 30.60835108 719.97801657 31 731.375 C31.07670747 733.65321181 31.13974442 735.93193498 31.1875 738.2109375 C31.22230469 739.20399902 31.25710938 740.19706055 31.29296875 741.22021484 C30.72849279 746.5761509 27.51672273 749.94780531 23.44921875 753.2734375 C10.02104197 762.73955255 -5.59370804 769.29743741 -20.60546875 775.796875 C-27.50660319 779.26432917 -31.05404244 783.36916736 -35.3125 789.625 C-47.11386316 806.41325572 -60.36665456 816.76004215 -77.61669922 827.51269531 C-92.71432689 836.43535509 -92.71432689 836.43535509 -103.5 849.875 C-104.87786281 858.48664253 -102.7051238 864.81209869 -98 872 C-110.45165892 883.10678701 -127.36409734 896.82212479 -145 896 C-142.6994306 893.19106508 -139.93967299 891.89649641 -136.70581055 890.35009766 C-129.52730218 886.88197592 -124.09078098 883.73336485 -121 876 C-118.81156038 868.99917075 -117.63489708 861.15916145 -120.1875 854.125 C-121.70802007 850.95073704 -121.70802007 850.95073704 -124.1796875 849.61328125 C-128.12350348 848.75569246 -130.55546685 850.20948076 -133.9375 852.0625 C-134.53240234 852.36349609 -135.12730469 852.66449219 -135.74023438 852.97460938 C-138.90503162 854.63137208 -141.46194988 856.3584881 -144.06640625 858.80859375 C-147 861 -147 861 -150.06640625 861.06640625 C-157.87069677 858.22942714 -167.29096329 848.70198993 -170.89453125 841.1171875 C-171.05784954 837.83872398 -169.4548117 836.09542806 -167.625 833.4375 C-162.72721829 826.24693202 -162.29445511 820.62332649 -163 812 C-164.20320189 807.08256618 -165.81440651 803.24967962 -169.3125 799.5625 C-171.46739485 798.30965416 -173.45556065 797.36653679 -175.75 796.4375 C-177.35875 795.7259375 -177.35875 795.7259375 -179 795 C-182.0431051 785.8706847 -181.12428508 773.6110293 -176.96875 765.0625 C-174.83450194 760.51861704 -174.65268833 756.46939552 -175.8125 751.5625 C-179.74935751 743.670726 -188.58492872 738.25680018 -196 734 C-193.02469504 732.01646336 -191.83767845 731.65948274 -188.4296875 731.2109375 C-175.56757672 729.64792031 -175.56757672 729.64792031 -165.359375 722.375 C-162.71805901 719.71619185 -159.94209497 717.96022443 -156.7878418 715.96777344 C-147.4868142 710.0006645 -142.54538962 704.04538863 -137.97509766 694.06445312 C-136.99294266 691.98505837 -135.91621787 689.99063226 -134.79296875 687.984375 C-129.77107737 678.86177419 -127.31647176 670.31236213 -126 660 C-115.65058967 657.76475463 -105.14716809 656.93024614 -94.625 655.9375 C-91.89697649 655.67781454 -89.16910422 655.41675678 -86.4414978 655.15272522 C-84.75557882 654.98973934 -83.0694094 654.82931695 -81.38296509 654.67185974 C-77.53178794 654.30155717 -73.78009191 653.86135277 -70 653 C-71.65 651.02 -73.3 649.04 -75 647 C-67.743605 643.67895415 -60.94031593 642.16726686 -53.0625 641.125 C-44.33259084 639.79297161 -37.17395843 638.42803407 -30 633 C-29.17798096 632.39744385 -29.17798096 632.39744385 -28.33935547 631.78271484 C-22.63169863 627.58233467 -17.0642499 623.28604474 -12.1875 618.125 C-3.23589461 608.74804835 8.28798341 601.23784905 19 594 C17.70255854 591.2043362 16.28081321 588.94760223 14.27734375 586.609375 C13.74399414 585.98659668 13.21064453 585.36381836 12.66113281 584.72216797 C1.68623904 572.16477534 -10.71250232 562.39607944 -24.06054688 552.46728516 C-37.20465038 542.68029167 -52.35367505 528.75051198 -55.59765625 511.89453125 C-56.87124821 485.60628692 -38.30491118 457.17336146 -27.03125 434.140625 C-26.50861572 433.07247559 -25.98598145 432.00432617 -25.44750977 430.90380859 C-24.56284189 429.12910127 -23.65898821 427.36359237 -22.72241211 425.61572266 C-19.49157579 419.5694535 -19.21617558 414.7144477 -20 408 C-21.49972343 403.72578824 -23.09638974 401.31776859 -27 399 C-43.51714494 393.49428502 -66.26967656 396.7570629 -82.33984375 402.421875 C-86.02060175 403.71872238 -89.73512198 404.7539726 -93.50390625 405.765625 C-106.26375676 408.82707977 -106.26375676 408.82707977 -116.19921875 416.6484375 C-118.015511 419.93139381 -119.24395741 423.35647508 -120.33740234 426.93798828 C-122.88370829 434.86212242 -126.68126448 443.46619457 -133.921875 447.95703125 C-134.60765625 448.30121094 -135.2934375 448.64539063 -136 449 C-136.66515625 449.33386719 -137.3303125 449.66773438 -138.015625 450.01171875 C-146.68423692 453.55942844 -156.47634483 452.5296196 -165.5 451 C-174.41989427 449.49701415 -184.0587529 448.03759112 -192.25390625 452.63671875 C-196.54585172 455.98770079 -199.98395761 460.08287853 -203.375 464.3125 C-211.22665695 473.98709555 -218.37969538 481.46428333 -229.0078125 488.03125 C-233.12495236 490.74017753 -236.89981546 493.83531169 -240.6875 496.984375 C-249.79478618 502.52607272 -259.37729074 502.34384779 -269.75 502.0625 C-282.2425726 501.08915196 -282.2425726 501.08915196 -293.1875 505.9375 C-298.44652931 514.82344608 -299.5859821 522.76159054 -299 533 C-303.42321589 535.19846968 -307.59400724 535.34527821 -312.4375 535.3125 C-313.2322876 535.31121094 -314.0270752 535.30992187 -314.84594727 535.30859375 C-321.06115976 535.20890112 -326.75981459 534.153094 -332.80078125 532.6796875 C-338.16482549 531.54007371 -344.35006027 530.42111605 -349.2421875 533.3359375 C-351.78799841 535.74597183 -351.97896757 537.73693287 -352.25390625 541.17578125 C-351.95430783 545.6881944 -350.68379459 549.06376666 -348.9375 553.1875 C-345.67430383 560.92063227 -345.67430383 560.92063227 -347 565 C-347.82304123 564.99333817 -348.64608246 564.98667633 -349.49406433 564.97981262 C-357.30426971 564.91934769 -365.11435934 564.8738476 -372.92473888 564.84456348 C-376.93877958 564.82900142 -380.9526246 564.80793948 -384.96655273 564.77368164 C-388.85046078 564.74074628 -392.7341823 564.72307616 -396.61821938 564.71536827 C-398.08957156 564.70988534 -399.56091519 564.6991814 -401.03218651 564.68280983 C-415.08900279 564.53281537 -428.96264098 565.56443081 -439.67919922 575.56738281 C-452.92646776 588.5761222 -464.40503704 603.09853968 -473.09765625 619.51171875 C-481.59999407 635.10224785 -495.98886173 647.28735574 -509.3125 658.75 C-512.38211867 661.40988839 -515.33364253 664.17253006 -518.25 667 C-519.05953125 667.78375 -519.8690625 668.5675 -520.703125 669.375 C-525.97522116 675.40025275 -528.03136343 681.78830416 -530.3125 689.3125 C-534.62520418 702.63312666 -540.78258987 710.28383417 -551.22631836 719.47412109 C-557.87128243 725.41074684 -561.77191412 731.13603832 -564.0625 739.8125 C-566.81590663 749.11963801 -572.18344394 756.83313262 -577.5625 764.81591797 C-578.96528315 766.94725256 -580.26349972 769.12079132 -581.5625 771.31640625 C-585.30334542 777.28737106 -589.59476416 779.50244536 -596.25 781.625 C-598.11398437 782.23214844 -598.11398437 782.23214844 -600.015625 782.8515625 C-607.33233119 785.03293506 -614.43314411 786.34343257 -622.0625 786.6875 C-622.89628174 786.7280249 -623.73006348 786.7685498 -624.58911133 786.81030273 C-629.49624506 787.00924691 -634.28540775 786.94292844 -639.1875 786.5625 C-646.78745904 785.98382292 -654.37501983 785.81712473 -661.99404907 785.76681519 C-663.39024354 785.75579791 -664.7864081 785.73933608 -666.1824646 785.71682739 C-681.40049016 785.48317049 -696.0529183 787.0772049 -707.83203125 797.5078125 C-711.22864345 800.84125451 -714.3564954 804.0347431 -717 808 C-723.9893736 807.47230557 -730.63262052 806.34956782 -737.4375 804.6875 C-738.73397461 804.38682617 -738.73397461 804.38682617 -740.05664062 804.08007812 C-751.99773562 801.2124397 -762.13670357 796.51245989 -772.75 790.421875 C-797.90434433 776.27255631 -822.09658912 780.61429618 -848.88818359 788.06787109 C-857.7977637 790.6427502 -866.01171531 794.05874101 -874.25537109 798.29150391 C-876.12514905 799.25007641 -878.00475738 800.18670701 -879.88671875 801.12109375 C-887.5413725 804.9686039 -894.70058322 809.25546842 -901.78295898 814.07788086 C-907.17719463 817.30083125 -912.9220692 818.61075867 -919 820 C-930.886757 822.87541422 -943.32636196 826.22529189 -953.8125 832.75 C-956 834 -956 834 -958.875 833.4375 C-968.49350649 829.01298701 -968.49350649 829.01298701 -970 826 C-970.74408171 815.60288096 -969.27109786 805.33602383 -967.875 795.0625 C-967.71242706 793.82916931 -967.71242706 793.82916931 -967.54656982 792.57092285 C-965.85636978 779.78961468 -963.67311366 767.18662264 -960.79248047 754.61743164 C-958.80375999 745.60503504 -957.98957683 737.14772525 -962.64453125 728.8125 C-974.19204578 713.3714431 -1000.05517411 711.85931246 -1017.38186646 709.31765747 C-1031.19771309 707.47452958 -1044.93948497 707.60737187 -1058.85015869 707.84191895 C-1063.62612576 707.9199468 -1068.40233472 707.97499553 -1073.17874146 708.0173645 C-1075.69863034 708.0416295 -1078.21844686 708.07658482 -1080.73800659 708.12399292 C-1081.86844391 708.13705475 -1082.99888123 708.15011658 -1084.16357422 708.16357422 C-1085.14945526 708.18008026 -1086.1353363 708.1965863 -1087.15109253 708.21359253 C-1092.10853547 707.84191574 -1095.25737404 706.64979771 -1099 703.375 C-1105.50891015 695.12693661 -1108.75857293 683.92962744 -1108.40625 673.55078125 C-1108 671 -1108 671 -1107.01904297 668.81762695 C-1105.76264411 665.34371722 -1105.47833763 662.02222299 -1105.2890625 658.3671875 C-1105.22859238 657.25656448 -1105.22859238 657.25656448 -1105.16690063 656.12350464 C-1104.79457852 647.40070873 -1105.56256356 638.80281455 -1106.375 630.125 C-1106.51674669 628.51311908 -1106.65737461 626.90113938 -1106.796875 625.2890625 C-1107.27765732 619.78299467 -1107.77150822 614.27852764 -1108.32299805 608.77905273 C-1108.91782789 602.76889196 -1109.12465218 596.85082309 -1109.0625 590.8125 C-1109.05798828 589.95591797 -1109.05347656 589.09933594 -1109.04882812 588.21679688 C-1109.03725105 586.14449967 -1109.01932659 584.07223942 -1109 582 C-1095.80003097 580.88685405 -1082.54267561 586.22724989 -1072 594 C-1066.27536211 598.96135284 -1061.17656413 604.57042752 -1056.25 610.3125 C-1049.15748694 618.55006938 -1040.22340098 626.06689329 -1028.9921875 627.203125 C-1018.92760084 627.42595718 -1010.00587609 624.09570214 -1002 618 C-997.43154891 613.30125441 -996.88895639 608.56492013 -995.80859375 602.27734375 C-993.36593494 597.85101385 -990.94895641 597.25580539 -986.23510742 595.80737305 C-980.51120482 594.37888117 -974.76464749 593.34582382 -968.9375 592.4375 C-967.60782753 592.22559378 -966.27815633 592.01367957 -964.94848633 591.80175781 C-960.96925858 591.17543202 -956.98576551 590.58331971 -953 590 C-951.32067383 589.7537085 -951.32067383 589.7537085 -949.60742188 589.50244141 C-934.98740878 587.42955482 -920.47963134 586.57741178 -905.72924805 586.46582031 C-893.21639508 586.2775759 -881.35282956 584.37419782 -869.625 579.875 C-868.83899414 579.57859619 -868.05298828 579.28219238 -867.24316406 578.97680664 C-861.58390728 576.77327744 -856.13454442 574.24346312 -850.75 571.4375 C-849.73220459 570.910354 -849.73220459 570.910354 -848.69384766 570.37255859 C-842.06457861 566.77296297 -835.4265696 562.41451823 -833 555 C-832.37718012 550.6710935 -832.1551732 546.36836066 -832 542 C-831.92072266 540.15728516 -831.92072266 540.15728516 -831.83984375 538.27734375 C-831.57244471 527.03495781 -832.25363432 514.86236751 -840 506 C-843.7717064 502.95053525 -847.35148818 501.32814624 -852 500 C-848.94715211 496.66693902 -845.7704962 494.52159055 -841.875 492.25 C-828.16992537 484.0081759 -816.72038025 472.8977473 -806.46484375 460.68359375 C-805 459 -805 459 -802.87109375 457.1875 C-799.83782649 453.64130029 -800.20707992 449.70499949 -799.8828125 445.19140625 C-798.9493115 441.81675881 -797.91606539 440.24401548 -795.09326172 438.1730957 C-790.34733353 435.51340536 -785.15984651 433.97046769 -780 432.3125 C-779.04489532 431.99875931 -779.04489532 431.99875931 -778.07049561 431.67868042 C-764.77089684 427.31335895 -751.26114947 423.74482211 -737.6953125 420.31176758 C-736.91030365 420.11202332 -736.1252948 419.91227905 -735.3164978 419.70648193 C-733.85670257 419.33626627 -732.39586374 418.97012742 -730.93374634 418.60919189 C-721.887138 416.54282583 -721.887138 416.54282583 -714.64453125 411.28515625 C-714.03996094 410.22167969 -713.43539063 409.15820312 -712.8125 408.0625 C-711.89404297 406.50208984 -711.89404297 406.50208984 -710.95703125 404.91015625 C-710.29479863 403.6117673 -709.6437183 402.30766688 -709 401 C-708.55591797 400.1546167 -708.11183594 399.3092334 -707.65429688 398.43823242 C-703.61280637 389.99969716 -703.48719816 382.32467454 -703.875 373.1875 C-704.88077613 346.38068327 -704.88077613 346.38068327 -697 336 C-696.18273437 335.35289062 -695.36546875 334.70578125 -694.5234375 334.0390625 C-691.46206052 331.56531825 -689.63522978 328.69599496 -687.625 325.375 C-686.84117055 324.12286637 -686.05600309 322.87156938 -685.26953125 321.62109375 C-684.88619629 321.00733887 -684.50286133 320.39358398 -684.10791016 319.76123047 C-674.50982226 304.50327409 -674.50982226 304.50327409 -667 302 C-659.65963233 301.30764087 -653.34037671 302.68559066 -646.375 304.875 C-644.59149624 305.4152207 -642.8076466 305.95430093 -641.0234375 306.4921875 C-639.74436523 306.87890625 -639.74436523 306.87890625 -638.43945312 307.2734375 C-632.4901248 309.04537516 -627.01733289 310.2776094 -620.75 310.25 C-618.97882813 310.25773438 -618.97882813 310.25773438 -617.171875 310.265625 C-613.17955968 309.93129317 -611.10177482 309.29974998 -608.5 306.23046875 C-607.7575 305.21919922 -607.7575 305.21919922 -607 304.1875 C-599.42219802 295.31756279 -585.94205965 293.39626503 -575.0625 290.5 C-556.09152594 286.53477903 -556.09152594 286.53477903 -541 276 C-540.54753906 275.40912598 -540.09507812 274.81825195 -539.62890625 274.20947266 C-538.04687025 272.10300199 -536.52038735 269.96384694 -535 267.8125 C-533.85029576 266.20440182 -532.7005551 264.59632966 -531.55078125 262.98828125 C-530.67220459 261.75392334 -530.67220459 261.75392334 -529.77587891 260.49462891 C-524.89145127 253.63333091 -519.97298499 246.79740404 -515 240 C-514.29488281 239.03320312 -513.58976563 238.06640625 -512.86328125 237.0703125 C-508.19806039 230.94782139 -502.76894508 225.87567952 -497.05078125 220.76171875 C-484.91262164 209.82729642 -481.82466926 196.42968921 -479.296875 180.7734375 C-477.27585349 168.29222413 -474.09810495 158.24795081 -463.64453125 150.33984375 C-458.11381762 146.63717314 -452.14419386 143.63413405 -446.27416992 140.51391602 C-417.3480225 125.05012874 -401.90270289 101.71879225 -389.58813477 72.11962891 C-383.28022245 57.14011123 -383.28022245 57.14011123 -379 55 C-372.46331916 54.1995901 -368.11632502 56.13534735 -363 60 C-358.71395621 64.27680663 -355.75775453 69.36869316 -352.76660156 74.58227539 C-348.68047215 81.67008455 -344.78665502 87.1909849 -338 92 C-337.14921875 92.60457031 -336.2984375 93.20914063 -335.421875 93.83203125 C-312.37009635 108.96361323 -286.22393689 119.45613798 -258.5625 120.4375 C-242.04025753 121.09859003 -227.71278986 125.94956607 -212.3984375 131.9765625 C-197.20418397 137.84426742 -183.74949446 136.7899376 -168.8359375 130.234375 C-158.1700125 125.26502358 -145.67003294 118.7647534 -141.28051758 107.08569336 C-140.71814527 105.06673403 -140.22688783 103.04075755 -139.75 101 C-136.12157161 87.34407801 -128.30579504 76.48204753 -119 66 C-118.31333252 65.21496094 -118.31333252 65.21496094 -117.61279297 64.4140625 C-110.94954522 56.82183638 -104.03031388 50.17113382 -96 44 C-94.62908203 42.88818359 -94.62908203 42.88818359 -93.23046875 41.75390625 C-51.62308886 8.54434616 -51.62308886 8.54434616 -28.625 6.25 C-22.09198907 5.40994227 -16.45984008 3.5420576 -10.41845703 0.94433594 C-6.49099108 -0.6896974 -4.02701499 -1.55268002 0 0 Z " fill="#000000" transform="translate(1109,1)"/>
</svg>
