<?xml version="1.0" encoding="UTF-8"?>
<svg version="1.1" xmlns="http://www.w3.org/2000/svg" width="1195" height="983">
<path d="M0 0 C7.85777353 3.09584461 14.01217627 9.22507667 20 15 C20.48259277 15.45681152 20.96518555 15.91362305 21.46240234 16.38427734 C28.00423861 22.58944786 33.67207819 28.92483422 38.9765625 36.23046875 C45.08520351 44.87607671 45.08520351 44.87607671 54 50 C63.42464116 51.26839293 73.96435455 48.87680297 82.5078125 44.8046875 C87.26206313 43.26961598 91.09841586 44.60139444 95.54296875 46.56640625 C96.76480628 47.21883893 97.97950611 47.88477872 99.1875 48.5625 C99.83605957 48.91820068 100.48461914 49.27390137 101.15283203 49.64038086 C133.37314577 67.59102145 133.37314577 67.59102145 137.58984375 80.85546875 C139.33132541 89.96093 137.61491091 98.89537014 136 107.875 C133.75391791 120.52923119 131.91276989 132.74864307 137 145 C137.22945313 145.65613281 137.45890625 146.31226563 137.6953125 146.98828125 C139.65900271 150.01612693 142.49660593 151.62767136 145.5 153.5 C146.07492187 153.87769531 146.64984375 154.25539062 147.2421875 154.64453125 C155.1637339 159.67765353 163.60522336 162.41202498 172.75 164.25 C174.17542114 164.54970703 174.17542114 164.54970703 175.62963867 164.85546875 C179.08447158 165.58003776 182.54205115 166.29045031 186 167 C191.60962699 168.1545766 197.21772252 169.31632654 202.82458496 170.48425293 C205.2390857 170.98478115 207.65506875 171.47757754 210.07128906 171.96972656 C218.05005551 173.61319168 225.9492768 175.43084042 233.8046875 177.59375 C234.54233841 177.79572998 235.27998932 177.99770996 236.03999329 178.20581055 C247.73969693 181.51276492 254.97786454 186.26173354 261.375 196.8125 C267.85106938 207.11772193 273.47181811 214.28822924 285.6875 217.3125 C307.18565634 220.89552606 330.17417276 209.75918024 349.52734375 201.70703125 C350.42461182 201.33747314 351.32187988 200.96791504 352.24633789 200.5871582 C353.94968779 199.88268926 355.64847571 199.16704485 357.34155273 198.43823242 C362.05412028 196.484217 365.80593173 195.38632811 371 196 C374.34938761 197.50639673 377.10707374 199.74994624 380 202 C380.66 202.495 381.32 202.99 382 203.5 C390.18275777 210.0989982 396.00633502 219.19923696 402.0625 227.6875 C406.71639384 234.14077385 411.92901867 240.07185501 417.6875 245.5625 C419.75261717 247.73924512 421.15863057 249.73069307 422.75 252.25 C427.12147703 259.00489215 432.76311288 265.3008905 440 269 C446.90935081 269.35132292 450.39400133 266.66721007 455.54296875 262.26171875 C460.01898558 258.14150612 464.25284545 253.79083341 468.5 249.4375 C471.41093567 247.76371199 473.40690424 247.57895532 476.703125 248.2109375 C486.2872159 251.50343131 493.21921034 258.80264306 500 266 C505.07788279 271.31593656 505.07788279 271.31593656 511.875 273.375 C515.89726638 272.89232803 517.85858317 271.5267918 521 269 C521.556875 268.175 522.11375 267.35 522.6875 266.5 C527.0666167 261.76581978 533.02010445 260.34995215 539.29296875 259.61328125 C553.28288412 259.13765693 561.20694586 265.91197698 571 275 C577.09642624 280.7663014 582.88881004 286.76241845 588.36328125 293.125 C595.90800165 301.83527141 595.90800165 301.83527141 606 307 C611.02515343 307.26920465 613.53409297 305.83381544 617.25 302.6875 C619.27016407 300.82490873 620.94932396 299.07102324 622.546875 296.83203125 C624 295 624 295 627 294 C636.76877244 293.17474025 647.08453973 294.60917366 656.375 297.625 C661.45309187 299.23472193 665.87043044 300.30247982 671.02734375 298.15625 C678.26629092 294.04352762 682.98062746 288.11466952 686.625 280.75 C689.12428964 276.44566784 691.28564817 275.00704813 696 273.4375 C702.94960778 271.75563145 709.86134695 271.09518204 717 271 C717.84691406 270.97550781 718.69382812 270.95101563 719.56640625 270.92578125 C726.28746969 271.14786856 730.15829206 274.63264858 735 279 C735.804375 279.70898438 736.60875 280.41796875 737.4375 281.1484375 C739.12626237 282.65249149 740.80445552 284.16848472 742.47265625 285.6953125 C744.10947787 287.18793191 745.76234043 288.66322394 747.43359375 290.1171875 C751.73805116 293.8775615 755.726019 297.74163547 759.5168457 302.01196289 C767.30248298 310.88768981 767.30248298 310.88768981 777.9921875 315.38671875 C782.83266422 315.65157502 787.4056351 314.53541523 792.125 313.5625 C805.83070577 310.74553654 819.9939317 310.95021916 833.9375 310.875 C834.63987793 310.87024658 835.34225586 310.86549316 836.06591797 310.8605957 C840.80144071 310.876019 845.31738167 311.37500987 850 312 C863.92139947 313.09187447 877.48068837 309.92557306 890 304 C906.96935721 296.00089035 937.59803479 284.86348777 956.5625 291.125 C964.28734553 293.97868005 969.8245124 300.03239304 974 307 C981.69174097 324.62815344 978.36647244 343.98112275 971.73046875 361.31640625 C969.4486649 366.29291179 967.71198509 368.221137 963 371 C961.28755342 373.84539604 960.19209709 376.90855419 959 380 C958.55140625 381.00933594 958.1028125 382.01867187 957.640625 383.05859375 C952.59216915 394.87141321 952.75349556 403.83382064 957.45703125 415.796875 C960.9586925 423.06614646 965.88906458 427.37234439 972.7890625 431.3828125 C978.52742573 435.58013119 980.54461976 439.55625585 981.9375 446.4375 C985.21164835 461.13695495 990.39471646 475.84452501 1003 485 C1008.03718593 487.96223544 1013.25586179 490.5764996 1018.45898438 493.23242188 C1019.49732422 493.77576172 1020.53566406 494.31910156 1021.60546875 494.87890625 C1022.54543701 495.3591626 1023.48540527 495.83941895 1024.45385742 496.33422852 C1028.32576697 498.86736102 1030.53947324 501.61841972 1032 506 C1033.59708384 518.56573512 1033.59708384 518.56573512 1030.0625 523.953125 C1023.02158512 530.94890581 1023.02158512 530.94890581 1019.01977539 531.05004883 C1017.82082642 531.00400513 1017.82082642 531.00400513 1016.59765625 530.95703125 C1002.76692349 530.57564137 992.87189564 531.08349868 981.97265625 540.4140625 C980 542 980 542 977.87109375 542.9609375 C975.47465054 544.29173895 975.08271941 545.51744672 974 548 C973.0367026 549.42750479 972.05651362 550.84371101 971.0625 552.25 C962.16519138 565.49854715 961.82179477 581.52822604 961.75 597 C961.729375 598.11117187 961.70875 599.22234375 961.6875 600.3671875 C961.63769821 610.95006694 964.1278843 618.88864804 969.1875 628.0625 C974.83738275 638.98577624 974.83738275 638.98577624 973 645 C971.60430728 648.07304632 970.07204451 651.03589956 968.47265625 654.0078125 C965.2966421 660.46093408 964.20733085 666.96722102 966 674 C967.17512992 676.25233235 968.20240366 678.20240366 970 680 C970.55732566 683.41361965 970.53555496 685.93091105 968.96484375 689.06640625 C964.40763829 695.20872666 958.62741826 696.83316295 951.5234375 698.69921875 C946.4231882 700.58212675 943.96272818 703.55590774 941 708 C936.93861464 709.72498925 933.39432657 710.25489423 929.0078125 710.30859375 C927.33138672 710.34629883 927.33138672 710.34629883 925.62109375 710.38476562 C923.29823113 710.41980322 920.97530859 710.45107903 918.65234375 710.47851562 C910.01522153 710.68226822 902.33970603 711.48419103 896 718 C892.23564248 723.47050517 891.07997706 729.50144183 889.90625 735.94921875 C888.86170155 739.46556504 887.62782057 741.4482104 885 744 C882.96484375 744.3046875 882.96484375 744.3046875 880.9375 743.875 C880.26589844 743.74867188 879.59429688 743.62234375 878.90234375 743.4921875 C877.24865847 743.06433463 875.62048134 742.54016045 874 742 C872.00346488 741.8558058 870.00151894 741.7794341 868 741.75 C866.4221875 741.71132812 866.4221875 741.71132812 864.8125 741.671875 C862.0439467 741.75977954 862.0439467 741.75977954 860.36279297 743.203125 C857.60387089 746.84082949 858.27784221 751.84486923 858.125 756.25 C858.06570313 757.27480469 858.00640625 758.29960938 857.9453125 759.35546875 C857.69566556 765.41720849 857.921725 769.71186245 861 775 C862.4769259 776.58431221 862.4769259 776.58431221 864.125 777.5625 C867 780 867 780 868.25 782.8125 C867.7841347 788.75228259 863.2388745 792.67469239 859.3125 796.875 C853.04679528 805.34216854 853.59068379 815.32179315 853.75 825.4375 C853.76197213 826.90412701 853.77302625 828.37076178 853.78320312 829.83740234 C853.87364114 840.03093859 854.20143521 850.21314766 854.64135742 860.39746094 C855.09984636 871.26620054 855.10256215 882.12367867 855 893 C850.30208533 892.56573898 847.44696061 892.16733732 844.0625 888.8125 C840.24265366 885.20733494 836.26859847 882.05561279 832 879 C831.175 878.38125 830.35 877.7625 829.5 877.125 C825.05402554 875.12431149 820.61317197 875.46227601 816 877 C815.85900879 877.73637695 815.71801758 878.47275391 815.57275391 879.23144531 C814.92957815 882.57216658 814.27739305 885.91106705 813.625 889.25 C813.40328125 890.40886719 813.1815625 891.56773437 812.953125 892.76171875 C812.62441406 894.43427734 812.62441406 894.43427734 812.2890625 896.140625 C811.99056396 897.68024902 811.99056396 897.68024902 811.68603516 899.25097656 C810.79389591 902.82588331 810.10370191 905.27130106 806.9765625 907.3359375 C805.81253906 907.85027344 805.81253906 907.85027344 804.625 908.375 C803.85414063 908.73335937 803.08328125 909.09171875 802.2890625 909.4609375 C800 910 800 910 797.80859375 909.375 C795.49584608 907.61671235 795.15684971 906.42096303 794.4375 903.625 C794.19644531 902.73683594 793.95539062 901.84867188 793.70703125 900.93359375 C793.21959821 898.91115059 792.76028529 896.88179323 792.32421875 894.84765625 C791.30551081 890.24355165 790.46632711 886.69282885 787.8125 882.75 C784.69357129 880.80933325 782.73366149 880.10030985 779.08642578 880.42700195 C774.55000373 881.67284592 771.95904873 886.41658573 769.6315918 890.25927734 C768.30884805 892.67117869 767.04961339 895.10564298 765.8125 897.5625 C765.38775391 898.38685547 764.96300781 899.21121094 764.52539062 900.06054688 C762.31707655 904.35697131 760.15193517 908.67510098 758 913 C754 908 754 908 752.25 905.4375 C747.95864445 900.78853149 741.8428228 898.36851407 735.625 897.5625 C731.90210726 897.67865247 731.90210726 897.67865247 729.375 900.1875 C722.84982084 909.4848141 720.91411028 921.02186909 718.875 931.95288086 C717.63969867 938.24919044 716.43971598 943.18568693 711.28125 947.40625 C710.6934375 947.7671875 710.105625 948.128125 709.5 948.5 C704.53242092 951.96423278 700.96239022 956.54068709 697.21289062 961.23828125 C696.48102539 962.13546875 696.48102539 962.13546875 695.734375 963.05078125 C695.08807129 963.86542847 695.08807129 963.86542847 694.42871094 964.6965332 C692.60761759 966.35798525 691.45507217 966.78794354 689 967 C687.03979492 966.1706543 687.03979492 966.1706543 684.98046875 964.82421875 C684.2121875 964.33042725 683.44390625 963.83663574 682.65234375 963.32788086 C681.83894531 962.78655518 681.02554688 962.24522949 680.1875 961.6875 C679.34960938 961.14295166 678.51171875 960.59840332 677.6484375 960.03735352 C675.09086316 958.37022449 672.54524055 956.68587976 670 955 C668.50708364 954.02516323 667.01362873 953.05115053 665.51953125 952.078125 C664.17895145 951.19903809 662.83906582 950.31889135 661.5 949.4375 C660.88406982 949.03297607 660.26813965 948.62845215 659.63354492 948.21166992 C653.56013935 944.15729614 653.56013935 944.15729614 652 942 C651.5234375 939.40625 651.5234375 939.40625 651.375 936.5 C651.1977355 933.35988607 650.99994857 930.99984571 650 928 C649.89801663 926.40582961 649.84529558 924.80822759 649.82421875 923.2109375 C649.80037109 922.26863281 649.77652344 921.32632813 649.75195312 920.35546875 C649.70949576 918.39213745 649.67797182 916.42853457 649.65820312 914.46484375 C649.48469267 908.51706691 648.58299012 904.0741141 645.85083008 898.76416016 C645 897 645 897 645 895 C641.19002826 893.73000942 639.00187449 893.32171619 635 894 C632.50174862 896.71851484 630.77364742 899.7761667 629 903 C628.01005812 904.67266041 627.01567807 906.34284104 626 908 C625.67 908 625.34 908 625 908 C624.87882813 907.10796875 624.75765625 906.2159375 624.6328125 905.296875 C624.46523438 904.12640625 624.29765625 902.9559375 624.125 901.75 C623.96257813 900.58984375 623.80015625 899.4296875 623.6328125 898.234375 C623.07103211 895.36305302 622.65171212 893.38947686 621 891 C619.07847556 889.87703117 617.14018452 889.13094679 615.0703125 888.3203125 C611.43347021 886.0009678 609.49425493 882.92200988 608.42089844 878.74804688 C607.97761867 876.23245919 607.62530139 873.72253459 607.3125 871.1875 C607.08269501 869.47221526 606.84979256 867.75734166 606.61328125 866.04296875 C606.51829346 865.29039795 606.42330566 864.53782715 606.32543945 863.76245117 C606.16841892 861.97943429 606.16841892 861.97943429 605 861 C601.63370749 860.85363946 599.21580438 860.92806521 596 862 C592.51633799 860.30732947 589.45578098 857.93861345 586.3125 855.6875 C585.41982422 855.09904297 584.52714844 854.51058594 583.60742188 853.90429688 C577.286581 849.37975303 577.286581 849.37975303 576.45898438 845.39526367 C576.48828125 842.7109375 576.48828125 842.7109375 576.7824707 840.21630859 C577.18109741 837.80723078 577.18109741 837.80723078 575.875 834.9375 C574.06052105 832.77872399 574.06052105 832.77872399 571.0625 831.9375 C567.96519015 831.69710313 567.96519015 831.69710313 565.9140625 833.609375 C559.73832422 841.32274607 560.38771764 855.45412429 560 865 C542.14350797 863.07289294 542.14350797 863.07289294 534 861 C533.89042969 860.35933594 533.78085937 859.71867188 533.66796875 859.05859375 C532.67684419 853.65172723 531.27847312 849.03162814 529 844 C528.649375 842.741875 528.29875 841.48375 527.9375 840.1875 C527.2585469 836.93931214 527.2585469 836.93931214 525 835 C520.78780769 833.72654651 517.76695174 833.88635289 513.76074219 835.79663086 C511.70542377 837.20132643 510.43642499 838.74238534 508.890625 840.69140625 C504.88986139 845.38062156 500.30718958 848.62360211 495.1875 852 C494.32962891 852.58394531 493.47175781 853.16789063 492.58789062 853.76953125 C486.2917246 858 486.2917246 858 484 858 C483.71125 858.58652344 483.4225 859.17304687 483.125 859.77734375 C482.44628725 861.11827276 481.74439975 862.44829888 481 863.75390625 C475.83807079 873.08973915 475.74107136 883.06517591 476 893.5 C476.05094892 895.61438005 476.09303901 897.7289977 476.125 899.84375 C476.14820313 900.76349609 476.17140625 901.68324219 476.1953125 902.63085938 C476 905 476 905 474 908 C472.41616512 907.88152416 470.83295712 907.75467728 469.25 907.625 C467.92742187 907.52058594 467.92742187 907.52058594 466.578125 907.4140625 C463.49631284 907.05743358 460.52047393 906.5447484 457.47265625 905.98046875 C450.69177396 904.8302061 444.05314127 904.66835432 437.1875 904.6875 C435.4250293 904.66333008 435.4250293 904.66333008 433.62695312 904.63867188 C427.38005669 904.63514455 422.386052 904.6633112 417 908 C415.28903392 910.0855348 415.28903392 910.0855348 414.3125 912.5 C412.672267 916.07869017 411.34261098 917.88153989 408 920 C397.77335809 922.90084496 386.77056287 922.17572624 376.25 922 C360.67266474 921.20373065 360.67266474 921.20373065 346.0390625 925.6015625 C343.16719543 928.97958238 342.87932682 932.05855571 342.375 936.375 C340.86404382 948.13595618 340.86404382 948.13595618 337 952 C335.51771583 951.95977099 334.03767913 951.83793684 332.5625 951.6875 C331.57765625 951.58953125 330.5928125 951.4915625 329.578125 951.390625 C326.8996135 951.09821108 324.22316931 950.79588929 321.546875 950.484375 C320.76626709 950.39454346 319.98565918 950.30471191 319.18139648 950.2121582 C317.63609837 950.0329909 316.09130047 949.84943889 314.54711914 949.66088867 C304.48848574 948.29401307 304.48848574 948.29401307 295 951 C292.20111398 955.19832902 293.10363241 958.19447378 294 963 C294.33 963.99 294.66 964.98 295 966 C296.31850291 969.95550872 296.65049532 973.86112884 297 978 C293.04440187 976.48713131 289.27194656 974.7381316 285.5 972.8125 C284.3965625 972.26207031 283.293125 971.71164062 282.15625 971.14453125 C272.94366315 964.88498895 271.33174935 954.14299763 268.45043945 944.04174805 C265.44101586 933.57893338 262.36465624 923.50261468 254 916 C247.86106072 913.95368691 244.18016816 914.6657055 238.4375 917.4375 C233.69374732 919.95873883 229.10279522 922.69516635 224.5625 925.5625 C223.69419556 926.10765259 223.69419556 926.10765259 222.80834961 926.66381836 C217.50448226 930.10643614 212.52398161 934.089206 210 940 C209.55188157 943.60081669 209.48802239 947.18691721 209.4375 950.8125 C209.31555031 957.53779933 208.90719774 963.52778275 207 970 C200.47844966 967.09773938 194.75319736 964.03735397 189.3125 959.375 C182.39094514 953.49465325 176.4261387 950.22794316 167.171875 950.6015625 C164.77648625 950.87817106 164.77648625 950.87817106 162.4375 952.875 C160.25284285 956.10449318 159.89039437 957.78471137 159.97265625 961.6484375 C159.98490234 962.57140625 159.99714844 963.494375 160.00976562 964.4453125 C160.04478264 966.39070203 160.08381302 968.33602365 160.12695312 970.28125 C160.13791016 971.20679688 160.14886719 972.13234375 160.16015625 973.0859375 C160.17699463 973.9320459 160.19383301 974.7781543 160.21118164 975.64990234 C159.97841089 978.24025059 159.38930837 979.81275954 158 982 C153.5193738 984.2403131 147.34722708 983.67894998 142.63671875 982.31640625 C137.90178135 980.16740453 135.23494362 977.80099 133 973 C131.40503099 967.05014011 130.32775752 961.00320291 129.32421875 954.9296875 C129.20699463 954.26251709 129.08977051 953.59534668 128.96899414 952.90795898 C128.6418472 951.03400373 128.33976371 949.15572396 128.0390625 947.27734375 C126.4524187 942.27285448 123.18286662 939.9462933 119.1875 936.75 C116.46891291 933.33234766 116.53585629 931.4158047 116.7265625 927.18359375 C117 925 117 925 117.50390625 923.15625 C118.20388982 920.11380171 118.24926335 917.18106531 118.3125 914.0625 C118.34988281 912.85722656 118.38726562 911.65195312 118.42578125 910.41015625 C117.92298602 906.38318164 116.91940703 904.77421449 114 902 C110.14555357 901.4493648 107.98926813 901.35831256 104.6875 903.5 C104.130625 903.995 103.57375 904.49 103 905 C102.34 905 101.68 905 101 905 C100.59394531 905.81791016 100.59394531 905.81791016 100.1796875 906.65234375 C98.84885824 909.30078211 97.50315499 911.93829297 96.125 914.5625 C95.63257813 915.51253906 95.14015625 916.46257813 94.6328125 917.44140625 C92.6108197 920.60983995 90.74194979 922.4674308 87.11303711 923.5769043 C82.99347873 924.40176792 78.65055734 923.95428063 74.46289062 923.78515625 C67.73914452 923.653903 62.73816284 925.29413261 57.4375 929.625 C50.86681347 934.42999544 43.69771159 932.80962986 36 932 C36.02320313 930.81664062 36.04640625 929.63328125 36.0703125 928.4140625 C36.73658438 912.21165874 36.73658438 912.21165874 30 898 C24.53738414 893.07032227 20.23736868 892.63068646 13.07421875 892.734375 C7.66566467 893.20169606 4.22920331 894.82904191 0.35546875 898.6015625 C-4.17604824 904.36060435 -5.59919074 911.13826643 -7.08862305 918.17211914 C-8.59721604 924.87932496 -10.91134418 928.84512384 -16.6875 932.875 C-26.21918667 936.1121766 -34.1748963 933.08452042 -43 929 C-45.92868907 927.47357602 -48.80774525 925.89863886 -51.66015625 924.234375 C-55.75661381 922.07330557 -59.41521195 921.85782492 -64.015625 921.75390625 C-65.18480469 921.72103516 -66.35398437 921.68816406 -67.55859375 921.65429688 C-70.00382135 921.59348963 -72.44913791 921.53615238 -74.89453125 921.48242188 C-81.20924887 921.2987336 -86.99455686 921.04731016 -93 919 C-94.37482707 917.36739286 -95.70647667 915.69774938 -97 914 C-101.94885048 910.73420452 -107.25604561 909.23084737 -113 908 C-112.21625 907.113125 -111.4325 906.22625 -110.625 905.3125 C-107.28326185 901.26076082 -105.49243054 897.59497195 -105.69140625 892.19921875 C-107.67604515 878.05552635 -115.58027819 866.95137027 -123.53173828 855.54443359 C-147.48663865 820.96444092 -166.90478619 791.05026905 -161.12475586 748.19165039 C-160.39497647 742.72479472 -159.90087993 737.42402201 -159.89038086 731.91015625 C-159.83125365 724.0865939 -159.83125365 724.0865939 -157.2578125 720.72265625 C-154.93309742 718.88460297 -152.58241874 717.44963997 -150 716 C-139.8472442 708.95857259 -136.01076173 702.26781639 -132.78613281 690.54711914 C-131.74759561 686.87212567 -131.00217504 684.39969048 -128 682 C-125.8269043 681.17211914 -125.8269043 681.17211914 -123.32421875 680.53515625 C-122.41349609 680.29216797 -121.50277344 680.04917969 -120.56445312 679.79882812 C-118.65842079 679.31099772 -116.75217315 678.82400772 -114.84570312 678.33789062 C-106.14891008 676.03381872 -106.14891008 676.03381872 -99.609375 670.10546875 C-94.31846067 658.29710995 -93.93731115 646.58636206 -93.4375 633.8125 C-93.37272461 632.24145508 -93.37272461 632.24145508 -93.30664062 630.63867188 C-93.20200491 628.09253603 -93.09982454 625.54632822 -93 623 C-87.24441809 623.48456656 -81.74405872 624.16784154 -76.125 625.5625 C-66.27491162 627.709862 -58.38592426 628.40794048 -49.25390625 623.6796875 C-43.09417701 619.08924803 -41.20534877 614.54438266 -39.5625 607.3125 C-37.1906212 598.04441381 -33.63263057 590.84031883 -28.23046875 582.9296875 C-27.19475847 581.41183623 -26.15961913 579.89359524 -25.125 578.375 C-24.60357422 577.61155273 -24.08214844 576.84810547 -23.54492188 576.06152344 C-18.79672379 568.97479334 -15.21539337 561.56953209 -11.78857422 553.77929688 C-6.91254273 542.77727907 -0.85661479 538.55883825 10 534 C18.69627912 531.2913229 26.38149584 531.59624295 35.1875 533.5 C44.55569387 535.51285652 53.32373353 535.22822186 62.82421875 534.44140625 C71.36243444 533.82357617 79.77731136 534.18202453 88.3125 534.6875 C89.09993591 534.73123749 89.88737183 534.77497498 90.69866943 534.82003784 C105.47296002 535.65021862 120.11502387 537.22220377 134.7890625 539.09765625 C147.60901396 541.37359607 147.60901396 541.37359607 160 539 C163.95210636 534.83727982 166.23070464 530.8984337 168.25 525.5625 C168.50523437 524.93279297 168.76046875 524.30308594 169.0234375 523.65429688 C171.55682301 517.1674966 172.97206636 511.49053276 170.20703125 504.98828125 C166.56642925 498.99130256 160.57888579 495.08331383 154 493 C152.18951577 492.73579723 150.37668234 492.48748406 148.5625 492.25 C128.08641531 489.07442855 109.05208442 474.96760224 93.28515625 462.37109375 C80.21939771 451.97901191 66.92416675 444.60481258 50.8125 440 C37.33520079 436.11538134 28.35777172 429.14909057 18 420 C17.13246094 419.24460937 16.26492187 418.48921875 15.37109375 417.7109375 C4.88160613 408.45055517 -5.37149218 398.8280399 -13 387 C-13 386.34 -13 385.68 -13 385 C-11.77925781 385.04640625 -10.55851563 385.0928125 -9.30078125 385.140625 C5.11285156 385.52677 17.88713282 384.22301003 29 374 C34.15420951 367.73876627 35.43043342 361.4887328 35.34375 353.4921875 C34.09454048 340.80135441 30.31421881 325.86130345 21 316.6875 C12.03895365 309.89882852 0.07469363 306.86669445 -10.53955078 303.62329102 C-17.55151364 301.40706445 -25.07176044 298.62890426 -29 292 C-26.25272513 288.50823461 -22.36645202 287.39407053 -18.375 285.8125 C-7.09075157 281.03791062 -0.8508028 274.57193179 5.46435547 264.19140625 C7.82693184 260.37833155 9.65269568 257.65173003 14 256 C20.91753708 255.01673949 27.03003006 256.89977071 33.5625 259 C43.36446823 262.13776056 50.3847632 263.15360164 60.125 259.25 C60.80175781 258.99734375 61.47851562 258.7446875 62.17578125 258.484375 C67.68553495 256.35294223 73.16966742 253.63671838 77 249 C79.02535109 242.92394673 78.6444026 237.68818427 75.9375 231.875 C74.18102477 228.63834902 72.44105282 226.30014744 69.6875 223.875 C65.36883333 219.95236826 63.25178823 214.98785396 60.84057617 209.77294922 C57.91476509 203.49245978 54.78540467 199.17676369 48.78125 195.6015625 C43.79060013 191.11435538 41.62894354 183.89833729 39.1875 177.8125 C32.11209966 160.18706438 32.11209966 160.18706438 17.515625 148.91015625 C11.32072073 147.30636437 4.93055875 147.24040726 -1.43945312 146.87695312 C-11.46528377 146.20371223 -20.91183268 145.23667547 -28.3515625 137.93359375 C-38.94908532 125.50285016 -37.44391916 107.28477331 -37.36035156 92.01000977 C-37.31990852 79.75015162 -38.50519655 69.44796518 -43 58 C-43.32000977 57.17910889 -43.64001953 56.35821777 -43.96972656 55.51245117 C-44.72012109 53.72622391 -45.57270696 51.98373377 -46.4375 50.25 C-46.97246094 49.14140625 -47.50742188 48.0328125 -48.05859375 46.890625 C-50.33739376 43.4976431 -52.39994415 41.90725392 -56 40 C-60.72220249 39.12661459 -65.45817513 39.73174285 -70.0625 41 C-71.37389255 41.33766395 -72.68641791 41.67095675 -74 42 C-74.68449219 42.19464844 -75.36898437 42.38929687 -76.07421875 42.58984375 C-78.86982624 43.03653866 -80.31171169 42.98556592 -83 42 C-87.07121679 38.69783487 -90.36874149 34.57862851 -93.68994141 30.54882812 C-95.35152048 28.58441187 -97.14444845 26.78062429 -99 25 C-98.505 23.515 -98.505 23.515 -98 22 C-95.5859375 21.296875 -95.5859375 21.296875 -92.375 20.75 C-87.10371363 19.66709443 -82.63681873 18.00715226 -77.875 15.5625 C-65.13401105 9.21931828 -50.98814379 7.91201072 -37.02612305 6.14794922 C-24.73459013 4.53856529 -12.2821274 -1.62909882 0 0 Z " fill="#000000" transform="translate(163,0)"/>
</svg>
