<?xml version="1.0" encoding="UTF-8"?>
<svg version="1.1" xmlns="http://www.w3.org/2000/svg" width="126" height="136">
<path d="M0 0 C1.22265625 1.8984375 1.22265625 1.8984375 2.0625 4.375 C2.37574219 5.27347656 2.68898438 6.17195312 3.01171875 7.09765625 C3.33785156 8.05542969 3.66398437 9.01320313 4 10 C4.39832031 10.96808594 4.79664062 11.93617187 5.20703125 12.93359375 C5.59246094 13.88363281 5.97789063 14.83367188 6.375 15.8125 C6.73335938 16.68519531 7.09171875 17.55789062 7.4609375 18.45703125 C8.1428492 21.67387558 7.34287786 23.04750827 6 26 C5.55450643 28.6616187 5.55450643 28.6616187 5.375 31.3125 C5.26285156 32.63701172 5.26285156 32.63701172 5.1484375 33.98828125 C5.07496094 34.98408203 5.07496094 34.98408203 5 36 C5.886875 36.2475 6.77375 36.495 7.6875 36.75 C12.61033839 38.60767486 15.20507177 40.49846891 17.6875 45.1875 C18.75623188 47.92065038 19.27672764 50.54804769 19.75 53.4375 C20.68873881 58.13921746 22.95534295 60.78552611 26.24609375 64.17578125 C29.44073379 67.49849149 31.36492786 70.54199007 32.9375 74.875 C35.21839478 80.70110576 37.40903178 85.01913222 42.6875 88.5625 C46.60653218 91.32497569 49.24233009 94.71209691 51.9375 98.625 C52.52180786 99.46913452 52.52180786 99.46913452 53.11791992 100.33032227 C54.99538618 103.14798419 56.48145132 105.62531812 57 109 C55.66195312 109.45439453 55.66195312 109.45439453 54.296875 109.91796875 C53.12640625 110.33691406 51.9559375 110.75585938 50.75 111.1875 C49.58984375 111.59355469 48.4296875 111.99960938 47.234375 112.41796875 C43.0990537 114.44068026 41.03863077 116.92273846 39 121 C38.77049681 123.204364 38.58924067 125.41392173 38.4375 127.625 C38.31181641 129.40777344 38.31181641 129.40777344 38.18359375 131.2265625 C38.12300781 132.14179688 38.06242187 133.05703125 38 134 C31.25828264 132.14492035 24.93819516 129.87972138 18.625 126.875 C17.80136963 126.48538086 16.97773926 126.09576172 16.12915039 125.69433594 C10.03021709 122.71446726 4.94428436 119.24704826 -0.3671875 115.015625 C-6.45197456 110.35724203 -14.05907536 106.05710728 -22 107 C-26.90200763 109.0920379 -28.89379435 112.65069497 -31.5 117.0625 C-36.33707595 124.80125917 -42.16014953 130.32687735 -50 135 C-50.99 135 -51.98 135 -53 135 C-54.63528769 129.4214654 -56.04892213 123.89811337 -57.02954102 118.16308594 C-58.52726121 109.49277029 -58.52726121 109.49277029 -64 103 C-66.6514482 101.60180488 -66.6514482 101.60180488 -69 101 C-67.44444961 90.80846299 -59.69765616 84.24011621 -51.81640625 78.375 C-50.47399885 77.38974686 -49.12340677 76.41546075 -47.76171875 75.45703125 C-44.78527231 72.99535825 -43.21927197 70.6578159 -42 67 C-41.61704664 61.59321785 -42.60015176 58.0206369 -44.6875 53.0625 C-47.95581285 44.47691868 -46.31912152 37.63336833 -44 29 C-42.79162687 23.83040371 -42.64676347 18.66375525 -42.37890625 13.375 C-42.01468828 10.13083168 -41.5811698 7.84712247 -40 5 C-36.73840002 2.90611591 -33.65763137 2.56628491 -29.84375 2.18359375 C-28.06291016 1.99700195 -28.06291016 1.99700195 -26.24609375 1.80664062 C-25.00988281 1.68482422 -23.77367187 1.56300781 -22.5 1.4375 C-20.051838 1.18859928 -17.60390876 0.9373955 -15.15625 0.68359375 C-13.52913086 0.52201782 -13.52913086 0.52201782 -11.86914062 0.35717773 C-2.35436001 -0.82731206 -2.35436001 -0.82731206 0 0 Z " fill="#000000" transform="translate(69,1)"/>
</svg>
