<?xml version="1.0" encoding="UTF-8"?>
<svg version="1.1" xmlns="http://www.w3.org/2000/svg" width="205" height="293">
<path d="M0 0 C3.50460799 3.32302208 6.22886231 6.61351131 8.8125 10.6875 C12.55043544 16.42512491 16.64633182 21.72254928 21 27 C21.61359375 27.83660156 22.2271875 28.67320313 22.859375 29.53515625 C30.27930611 38.07890904 45.33614549 45.1793554 56.515625 46.23828125 C66.28741843 46.50351564 71.87473148 43.41274167 79 37 C83 39 83 39 84.8125 40.1875 C88.13838037 41.422827 90.73813518 41.18165669 94 40 C97.49729607 37.87398415 100.73920051 35.46840241 104 33 C107.52679099 30.64880601 109.02879485 30.78556548 113.1875 30.875 C114.27417969 30.89304687 115.36085937 30.91109375 116.48046875 30.9296875 C117.31191406 30.95289062 118.14335937 30.97609375 119 31 C124.15167631 40.89424892 128.90090458 50.96263679 133.5 61.125 C134.31065918 62.88517456 134.31065918 62.88517456 135.13769531 64.6809082 C135.88937988 66.35866333 135.88937988 66.35866333 136.65625 68.0703125 C137.10806641 69.06820801 137.55988281 70.06610352 138.02539062 71.09423828 C139.49805326 75.48492732 139.51713219 78.71964056 137.78515625 83.0078125 C133.97019521 89.91107533 129.9291621 96.06981198 125.015625 102.24609375 C122.31253296 105.93927182 120.30194757 109.42316271 119.4375 113.9375 C120.42081253 119.29109045 124.40606379 122.4946158 128.25 126.125 C130.32533593 128.34857421 131.21224694 130.0638295 132 133 C131.57385786 137.07498421 130.32297981 139.22554613 127.6875 142.3125 C117.15879904 155.32234976 116.80949032 169.77162012 116.97265625 185.90234375 C116.98529992 188.3639309 116.99766107 190.82551951 117.00976562 193.28710938 C117.03454951 197.11585202 117.06256118 200.94451571 117.09594727 204.77319336 C117.12636265 208.50374823 117.14398406 212.23420361 117.16015625 215.96484375 C117.18034569 217.65757668 117.18034569 217.65757668 117.20094299 219.38450623 C117.23352654 229.84547585 116.9046768 240.2968693 110.40234375 248.875 C106.52326117 252.30625353 102.12659641 253.56306083 97.20703125 254.96484375 C94.1668912 255.94613134 92.44639147 257.02601516 90 259 C89.34 259 88.68 259 88 259 C86.06871753 263.76383009 84.89691482 267.66554082 84.625 272.8125 C83.92135972 281.16571537 83.92135972 281.16571537 81 285 C76.94538919 288.18521608 72.63776354 290.76035109 68 293 C67.90203125 292.23816406 67.8040625 291.47632813 67.703125 290.69140625 C65.35543543 274.48020501 56.82866958 262.63586988 44.5859375 251.87890625 C31.07517787 239.84789648 25.27966971 221.58231621 18.98901367 205.1237793 C12.86637341 189.22595538 5.91100369 175.17855699 -6.796875 163.4765625 C-17.77466303 153.08689381 -20.05062614 146.18998181 -21 131 C-8.46 126.71 4.08 122.42 17 118 C17 117.34 17 116.68 17 116 C14.85999428 114.71843185 12.71375169 113.44995089 10.5625 112.1875 C9.97017578 111.83107422 9.37785156 111.47464844 8.76757812 111.10742188 C-0.38818094 105.77064252 -8.85773817 104.49692882 -19.375 103.9375 C-21.69577392 103.80885117 -24.01613741 103.67249772 -26.3359375 103.52734375 C-27.35220215 103.47312256 -28.3684668 103.41890137 -29.41552734 103.36303711 C-32 103 -32 103 -35 101 C-35.44921875 99.21484375 -35.44921875 99.21484375 -35.6875 96.9375 C-36.53417958 92.1032327 -38.26154903 88.04683021 -40.4375 83.6875 C-44.05952626 76.4181834 -46.91101519 68.98405427 -49.67956543 61.35186768 C-53.54641803 50.70733269 -57.70238728 40.99126663 -64.19921875 31.67578125 C-66 29 -66 29 -66 27 C-65.2575 27.165 -64.515 27.33 -63.75 27.5 C-46.50190958 29.79974539 -27.57757698 24.57032062 -13 15 C-10.28510877 12.55563174 -8.15257469 9.93898197 -6 7 C-4.86406467 5.65822404 -3.71866574 4.32438385 -2.5625 3 C-1.716875 2.01 -0.87125 1.02 0 0 Z " fill="#000000" transform="translate(66,0)"/>
</svg>
