<?xml version="1.0" encoding="UTF-8"?>
<svg version="1.1" xmlns="http://www.w3.org/2000/svg" width="823" height="960">
<path d="M0 0 C2.05948714 1.67481975 2.91940753 2.63287416 3.49633789 5.26098633 C3.55039795 6.17130615 3.60445801 7.08162598 3.66015625 8.01953125 C3.72477051 9.09154785 3.78938477 10.16356445 3.85595703 11.26806641 C4.17587052 19.55653695 4.34396061 27.84796921 4.47680664 36.14135742 C4.63488415 45.61180928 5.00630068 54.91706247 6.37217712 64.3009491 C7.13552918 69.79451488 6.76034121 74.81161134 5.8984375 80.265625 C6.03571077 83.96144385 7.48792846 85.3821086 10 88 C12.99901957 90.24926467 16.08390469 90.40182594 19.7890625 90.33984375 C22.34760848 89.94656901 24.24494307 89.08045896 26.5625 87.9375 C30.87601732 85.87259648 33.27086652 85.69541145 38 87 C40.70594085 88.01320191 43.3932779 89.04398076 46.05859375 90.16015625 C53.19063379 92.1965289 58.58071415 90.82533772 65.1875 88.0625 C73.5073539 84.68916319 73.5073539 84.68916319 78 84 C80.29477815 86.84710297 81.75613446 89.58386739 83.1875 92.9375 C86.14418203 98.94823981 89.80991245 101.43492777 95.9765625 103.73828125 C102.51158151 105.65192228 109.0798857 106.20551917 115.3125 103.1875 C117.49517612 101.97730334 119.29808821 100.75987339 121.25 99.1875 C121.8275 98.795625 122.405 98.40375 123 98 C125.109375 98.42578125 125.109375 98.42578125 127 99 C123.03873381 104.53742934 118.81993955 109.56777629 114 114.375 C113.34990967 115.023479 112.69981934 115.67195801 112.0300293 116.34008789 C104.95469134 123.2408318 97.19239383 128.59602351 88.94921875 134 C69.38265842 146.85432307 51.20171409 162.30277929 37 181 C36.00585883 182.26613602 35.01101381 183.53171959 34.015625 184.796875 C32.9469479 186.17633337 31.8792405 187.55654351 30.8125 188.9375 C30.06335327 189.88532349 30.06335327 189.88532349 29.29907227 190.85229492 C22.63194988 199.60088204 19.46079832 209.19546799 16.8125 219.75 C13.73320468 231.27665524 9.53045779 241.87987662 4.52734375 252.69042969 C2.42948305 257.23624166 0.3743409 261.80095179 -1.68260193 266.36538696 C-3.26384643 269.87370513 -4.84780608 273.38068566 -6.44165039 276.88330078 C-6.88432251 277.8577565 -6.88432251 277.8577565 -7.3359375 278.85189819 C-8.14303152 280.62792539 -8.95147763 282.40333797 -9.76000977 284.17871094 C-11.87639199 288.99401178 -12.33591833 293.38054956 -12.75 298.5625 C-13.52973843 307.72812007 -14.84914718 316.75586151 -16.27749634 325.83609009 C-19.56975555 346.92915858 -21.81840868 364.26728313 -11.4375 383.6875 C-4.71665711 396.59840605 -4.84647699 409.78208719 -5.04589844 424.02905273 C-5.13435548 433.96750703 -4.10572885 442.11163147 0.60546875 451.01953125 C3.60545777 457.52709012 3.47009095 463.2622117 3.125 470.3125 C2.82654019 477.32630565 2.75847525 483.67196984 4.453125 490.51953125 C6.71790587 500.04446544 6.53406629 509.62825299 6.625 519.375 C6.67398269 523.09123921 6.73002912 526.80734515 6.7890625 530.5234375 C6.8031163 531.41767929 6.8171701 532.31192108 6.83164978 533.23326111 C6.17598268 549.58357574 6.17598268 549.58357574 12 564 C13.928492 565.82947408 15.86581528 567.39936146 18 569 C14.67039989 571.21973341 13.04100484 571.38968184 9.1171875 571.74609375 C7.36535156 571.91915039 7.36535156 571.91915039 5.578125 572.09570312 C3.13297141 572.32138977 0.68766075 572.5453819 -1.7578125 572.76757812 C-13.2823683 573.80058803 -13.2823683 573.80058803 -23.4375 578.875 C-27.06636422 583.81025534 -27.40725922 588.77777514 -27.875 594.6875 C-28.47487492 601.49951569 -29.58261662 607.93438778 -31.25 614.5625 C-33.48843154 623.74982732 -32.56256324 630.3639075 -28.48828125 638.91796875 C-27.69277328 642.31001472 -28.06796393 644.65130122 -29 648 C-31.18852763 649.85784351 -33.0669814 651.18976415 -35.5 652.625 C-45.10548639 658.86599784 -53.04357145 668.7037954 -56 680 C-56.00865673 684.89754453 -56.00865673 684.89754453 -53.3125 688.75 C-51.53390973 689.71140015 -49.71178563 690.59257861 -47.875 691.4375 C-44.61930858 693.20689751 -44.26188168 693.64404742 -43 697 C-42.48718866 699.71057424 -42.03472807 702.39953415 -41.625 705.125 C-40.55521601 711.66140802 -39.43791416 718.22379864 -36 724 C-32.22614913 726.51590058 -29.36061 726.82918221 -25 726 C-21.37726051 724.39252016 -18.23431011 722.27726842 -15 720 C-14.16082031 719.443125 -13.32164062 718.88625 -12.45703125 718.3125 C-4.88593625 712.86600686 -0.60962577 705.92766557 4 698 C8.51544133 698.51217477 11.36222386 699.55488607 15.08984375 702.1328125 C16.03150391 702.77105957 16.97316406 703.40930664 17.94335938 704.06689453 C18.93142578 704.74606934 19.91949219 705.42524414 20.9375 706.125 C42.02045152 720.47896933 42.02045152 720.47896933 66.30859375 725.8125 C69.31537074 725.21619728 69.31537074 725.21619728 71 722 C71.25309517 718.61937165 71.36622918 715.28054811 71.390625 711.89257812 C71.50896447 708.34568133 71.73023549 706.35289602 73.9140625 703.49609375 C76 702 76 702 78 702 C78.20753906 702.73863281 78.41507813 703.47726562 78.62890625 704.23828125 C82.14127567 715.80411695 88.44299974 724.69730971 96 734 C95.401875 734.886875 94.80375 735.77375 94.1875 736.6875 C93.465625 737.780625 92.74375 738.87375 92 740 C91.443125 740.7425 90.88625 741.485 90.3125 742.25 C87.42925386 748.29108715 87.88879258 754.57032102 88.75 761.0625 C89.41233777 767.43239036 87.44414554 770.8180789 84 776 C80.69596425 782.75825494 81.9594965 790.09081864 83.8359375 797.140625 C86.36769584 804.43065255 89.99596885 810.47085022 94.69702148 816.53637695 C98.15520134 821.25124459 98.84560061 825.20504723 98 831 C96.65784949 834.35537627 95.54210798 836.45789202 93 839 C90.81689453 839.63842773 90.81689453 839.63842773 88.1328125 840.18359375 C87.16472656 840.38919922 86.19664062 840.59480469 85.19921875 840.80664062 C83.1580044 841.22551752 81.11633899 841.64220265 79.07421875 842.05664062 C77.61822266 842.36698242 77.61822266 842.36698242 76.1328125 842.68359375 C75.24480957 842.86462646 74.35680664 843.04565918 73.44189453 843.23217773 C70.75090495 844.07832473 69.08111579 845.10729677 67 847 C66.30487227 849.3501707 66.30487227 849.3501707 66.125 852 C64.97665179 859.58514211 62.05385682 866.35332409 56.1875 871.4375 C52.88976556 873.05403649 49.55700767 874.54546888 46.18359375 875.99609375 C41.88622696 877.97180621 38.66935237 879.99597144 36 884 C35.5337746 889.03523428 35.7587513 892.0712137 39 896 C41.22753806 897.866652 43.503915 899.62788405 45.84375 901.3515625 C46.5553125 901.89554688 47.266875 902.43953125 48 903 C48.6084375 903.39960937 49.216875 903.79921875 49.84375 904.2109375 C51.85007608 907.31532041 50.63496086 910.47885343 50 914 C19.53428538 912.85603048 19.53428538 912.85603048 11.62109375 907.12109375 C6.27669229 903.42508599 -1.75393989 904.41535509 -8 905 C-15.11891404 906.50043549 -21.70071713 908.93624081 -27 914 C-28.49082791 917.43290367 -28.49082791 917.43290367 -28 921 C-24.00547788 926.28518571 -19.43086429 927.44415345 -13.3125 929.0625 C-11.59633638 929.51801704 -9.88380214 929.98749856 -8.17578125 930.47265625 C-7.42208252 930.67125244 -6.66838379 930.86984863 -5.8918457 931.07446289 C-3.42407364 932.28175724 -2.95015252 933.46886585 -2 936 C-0.36935141 943.56473822 -0.83707646 950.88342204 -4 958 C-7.66865241 960.44576827 -9.67200343 960.23607254 -14 960 C-14.66 959.67 -15.32 959.34 -16 959 C-15.76216797 957.96166016 -15.76216797 957.96166016 -15.51953125 956.90234375 C-14.41197885 950.71503975 -13.27313678 942.75321852 -16.875 937.25 C-19.40266424 934.57364963 -20.23341296 934.08332468 -23.875 933.6875 C-27.81301955 934.08130195 -28.46080035 935.04333038 -31 938 C-32.19782487 939.94814022 -33.34151357 941.93030084 -34.4375 943.9375 C-39.25422751 952.33853007 -39.25422751 952.33853007 -43 955 C-46.82597243 955.19620371 -49.85407765 953.3574558 -52.74536133 950.89111328 C-55.5836805 946.61292292 -54.40534542 940.78368963 -54.125 935.875 C-53.60147547 925.73867398 -54.43155737 918.13688526 -59 909 C-59.43953294 903.30733948 -58.31567704 899.30757075 -56.125 894.1875 C-55.72087891 893.18686523 -55.72087891 893.18686523 -55.30859375 892.16601562 C-54.13447743 889.32809056 -53.19149673 887.19149673 -51 885 C-49.22706859 884.43716463 -47.43100255 883.94544835 -45.625 883.5 C-38.74148277 881.88986324 -38.74148277 881.88986324 -34 877 C-34.15104808 872.99722584 -34.60412239 870.58062049 -36.875 867.25 C-42.22736557 859.06402912 -42.40640868 849.85193005 -42.53393555 840.34521484 C-42.73719484 831.92447266 -44.6740981 825.24936035 -49.75 818.4375 C-53.0128306 813.78308103 -55.23781952 809.30103699 -57.3125 804.0625 C-61.17059433 794.54146154 -67.58033357 784.7412321 -77 780 C-80.11055713 779.39141273 -81.99074695 779.37663782 -84.7265625 781.06640625 C-87.99119691 783.70543891 -90.18631154 786.27683492 -92.3125 789.875 C-95.94820306 795.0988261 -101.73191567 796.89074916 -107.46411133 799.12255859 C-112.39178391 801.07662672 -115.35272743 803.03162204 -119 807 C-120.61093951 808.19095161 -122.22266189 809.38140714 -123.86010742 810.53564453 C-129.8872579 814.83494848 -134.44756276 818.4983627 -136 826 C-136.54327409 829.46102291 -136.99725477 832.92770956 -137.3190918 836.41650391 C-137.9518937 843.15383848 -137.9518937 843.15383848 -140 846 C-146.63588095 847.93546528 -153.25763281 846.52656683 -159.56640625 843.953125 C-163.12225788 841.09931149 -164.18030897 837.67342356 -165.8125 833.5 C-170.66341632 821.96864627 -177.10177571 813.67568542 -186.06323242 805.06542969 C-190.56323824 800.66030548 -194.20449139 795.9211531 -197.66552734 790.66870117 C-200.51298848 786.40000178 -203.44562755 783.06432185 -208.25 781.0625 C-215.50391067 780.89763839 -221.59158428 784.47459093 -227 789 C-228.71605098 791.31293828 -228.984458 792.92401691 -229.5625 795.75 C-228.29511382 803.07267568 -221.71350242 807.24670492 -216.0625 811.4375 C-211.2477417 815.28930664 -211.2477417 815.28930664 -210.2265625 818.21875 C-210.1843426 820.61684045 -210.49148999 822.65694236 -211 825 C-211.18949219 826.32837891 -211.18949219 826.32837891 -211.3828125 827.68359375 C-212.41347296 834.13927612 -212.41347296 834.13927612 -214.26171875 836.8515625 C-216 838 -216 838 -218.33203125 837.84765625 C-221.24493631 836.92217982 -223.90985614 835.71194836 -226.6875 834.4375 C-232.36280928 832.20490969 -237.2877537 831.51063438 -243.375 831.5 C-244.12354248 831.49411865 -244.87208496 831.4882373 -245.64331055 831.48217773 C-250.75529077 831.59658682 -254.48077538 832.57449211 -259 835 C-261.30441554 838.45662331 -261.25860135 839.94857881 -261 844 C-260.67 844.66 -260.34 845.32 -260 846 C-260.0633903 848.08611707 -260.19931987 850.17032712 -260.375 852.25 C-260.46523438 853.36890625 -260.55546875 854.4878125 -260.6484375 855.640625 C-260.97824115 858.79208206 -261.4786098 861.87593247 -262 865 C-262.52917908 871.01432373 -262.08961118 875.64467396 -259 881 C-256.30711319 883.77382057 -253.2117389 885.85884073 -250 888 C-250.92209237 890.25400357 -251.53333351 891.69495947 -253.6015625 893.046875 C-266.4386656 897.50764442 -279.45702908 895.17143376 -292 891 C-292.97324219 890.67644531 -293.94648438 890.35289062 -294.94921875 890.01953125 C-302.09703473 887.40187069 -307.54668511 884.08838319 -311 877 C-313.0650889 871.55567471 -312.60101177 865.85108433 -310.4375 860.5625 C-308.78308941 857.10490089 -306.74790268 854.3265477 -304.3125 851.375 C-301.26495617 847.59184214 -299.72041097 845.03260246 -300 840 C-301.45105464 836.94960008 -301.45105464 836.94960008 -302.75 835.0078125 C-306.96454676 828.23819676 -309.8282832 820.87825374 -311 813 C-311.185625 811.9275 -311.37125 810.855 -311.5625 809.75 C-310.89453045 806.48437109 -310.3406048 806.24541741 -307.6875 804.4375 C-307.04941406 804.0353125 -306.41132813 803.633125 -305.75390625 803.21875 C-302.13572297 800.70455583 -300.85164409 797.15454204 -300 793 C-298.26001575 774.05984354 -308.53028233 758.21767086 -320 744 C-320.66 743.16210938 -321.32 742.32421875 -322 741.4609375 C-329.14626047 732.84508314 -337.32105654 728.75783332 -348 726 C-350.29691451 725.39457051 -352.58853956 724.76878551 -354.875 724.125 C-355.94492187 723.83882812 -357.01484375 723.55265625 -358.1171875 723.2578125 C-364.49914361 720.47327339 -366.46963195 714.11952187 -369.125 708.125 C-377.57623728 689.53801197 -377.57623728 689.53801197 -391.75 675.6875 C-401.84621136 668.37904849 -406.18345007 651.73907806 -408.578125 640.21875 C-409.2328487 635.22345063 -409.28185832 630.19890101 -409.34179688 625.1640625 C-409.54670036 619.2170962 -410.94591095 615.08243075 -414 610 C-414.53882813 609.07832031 -415.07765625 608.15664063 -415.6328125 607.20703125 C-416.63256772 605.60271202 -417.63257016 603.99854682 -418.6328125 602.39453125 C-421.64285272 597.1226608 -422.21487033 592.82635473 -422.3125 586.8125 C-422.58499411 579.44416513 -424.03648301 574.30454165 -428 568 C-434.21584315 556.83685312 -434.49369268 545.69331807 -435.12304688 533.09960938 C-435.8093817 521.37008541 -437.35432598 509.96489621 -442.6875 499.375 C-443.03925293 498.65683105 -443.39100586 497.93866211 -443.75341797 497.19873047 C-447.84199936 489.04163658 -452.94018246 481.76121139 -458.37109375 474.4609375 C-458.97405273 473.65027832 -459.57701172 472.83961914 -460.19824219 472.00439453 C-461.43749927 470.33960941 -462.67902487 468.67651048 -463.92285156 467.01513672 C-467.2333944 462.55189542 -470.2107012 458.12536057 -472.875 453.25 C-476.42720716 446.82904833 -481.19216095 441.93096789 -488 439 C-494.64658964 437.89223506 -498.79085088 439.64469329 -504.625 442.75 C-516.63106887 449.12712331 -530.27706923 453.86040647 -543.9140625 450.22265625 C-559.06914096 444.48333408 -571.79715433 434.19109044 -583.69384766 423.47412109 C-594.74808833 413.54182196 -606.17092419 403.47154667 -621.78515625 403.73828125 C-633.7713864 404.71407398 -644.47468508 409.71095938 -655.23144531 414.73388672 C-656.65408691 415.38574951 -656.65408691 415.38574951 -658.10546875 416.05078125 C-658.95262451 416.44950439 -659.79978027 416.84822754 -660.67260742 417.2590332 C-663.322245 418.10259242 -664.49231235 418.19714415 -667 417 C-668.01733398 415.3293457 -668.01733398 415.3293457 -668.74609375 413.17578125 C-669.02646484 412.39396484 -669.30683594 411.61214844 -669.59570312 410.80664062 C-670.01239258 409.57204102 -670.01239258 409.57204102 -670.4375 408.3125 C-672.86954735 401.17658695 -675.01704079 395.50025177 -681.67578125 391.3203125 C-682.54589844 390.92585938 -683.41601562 390.53140625 -684.3125 390.125 C-685.63701172 389.51011719 -685.63701172 389.51011719 -686.98828125 388.8828125 C-687.65214844 388.59148437 -688.31601562 388.30015625 -689 388 C-688.26953125 385.57421875 -688.26953125 385.57421875 -687 383 C-685.01171875 382.14453125 -685.01171875 382.14453125 -682.6875 381.8125 C-681.88570312 381.668125 -681.08390625 381.52375 -680.2578125 381.375 C-679.51273438 381.25125 -678.76765625 381.1275 -678 381 C-675.08997479 380.48959656 -675.08997479 380.48959656 -673 379 C-670.52286301 373.22001369 -670.33143097 366.96215118 -671.37109375 360.80078125 C-672.79312693 352.1659612 -670.44400005 344.22550553 -668 336 C-667.71624512 334.99888184 -667.71624512 334.99888184 -667.42675781 333.97753906 C-665.67592517 328.07702496 -663.95046998 323.4346026 -658.8984375 319.71875 C-655.4375 317.875 -655.4375 317.875 -652.12109375 316.4296875 C-646.47936863 313.84536786 -642.98035603 310.42850562 -640 305 C-639.00958589 301.2364264 -638.69320402 298.96421595 -639.875 295.25 C-643.40955564 291.50752932 -648.27120328 290.1671381 -653.36767578 289.85498047 C-655.79918761 289.92796106 -658.20189618 290.09886484 -660.625 290.3125 C-662.38528938 290.42646263 -664.1457094 290.53842397 -665.90625 290.6484375 C-668.34394614 290.81539049 -670.78145543 290.98451335 -673.21875 291.15722656 C-682.54701989 291.75349381 -688.55866979 290.88302812 -696 285 C-695.72087761 281.83661293 -694.99220953 280.99314438 -692.55859375 278.8515625 C-691.52863281 278.11679687 -690.49867188 277.38203125 -689.4375 276.625 C-688.89681885 276.23070801 -688.3561377 275.83641602 -687.79907227 275.43017578 C-685.40442768 273.6871279 -682.98359381 271.98888948 -680.53125 270.328125 C-679.8403125 269.84859375 -679.149375 269.3690625 -678.4375 268.875 C-677.83808594 268.48054688 -677.23867188 268.08609375 -676.62109375 267.6796875 C-672.38297899 263.28838787 -671.63370275 258.1718201 -671.63867188 252.328125 C-671.65478516 251.55984375 -671.67089844 250.7915625 -671.6875 250 C-671.68427734 249.23171875 -671.68105469 248.4634375 -671.67773438 247.671875 C-671.73383709 241.67398474 -672.3210533 236.25608463 -676 231.3125 C-680.00341133 228.2265371 -684.25421031 226.64950749 -689 225 C-688.80664062 224.45214844 -688.61328125 223.90429688 -688.4140625 223.33984375 C-686.22167599 216.66500363 -685.26381947 210.08294201 -684.52734375 203.125 C-684 200 -684 200 -682 198 C-680.62437146 199.28965176 -679.29233607 200.62689293 -678 202 C-678 202.66 -678 203.32 -678 204 C-677.14535156 204.41765625 -677.14535156 204.41765625 -676.2734375 204.84375 C-674.01156538 205.99411795 -671.82417748 207.2345084 -669.625 208.5 C-661.42899852 213.01643518 -652.12575928 215.33909187 -642.75 213.375 C-633.69632854 210.05532047 -628.07512932 205.15025864 -623.7421875 196.484375 C-622.77755613 194.3392507 -621.86118179 192.1884149 -621 190 C-616.79362349 191.28817367 -613.12457608 192.8849687 -609.296875 195.046875 C-608.23339844 195.645 -607.16992188 196.243125 -606.07421875 196.859375 C-604.42873047 197.79523438 -604.42873047 197.79523438 -602.75 198.75 C-601.66847656 199.3584375 -600.58695313 199.966875 -599.47265625 200.59375 C-581.3592149 210.81943221 -581.3592149 210.81943221 -574.0625 216.1875 C-573.16660156 216.84105469 -572.27070312 217.49460938 -571.34765625 218.16796875 C-565.85080217 222.45752709 -564.95173453 226.02593487 -563.16015625 232.7734375 C-561.56753185 237.20275654 -559.7929193 240.08361902 -555.5390625 242.2578125 C-550.11592401 243.87166872 -544.97874836 245.05545572 -539.359375 245.703125 C-537.88090088 245.87497314 -537.88090088 245.87497314 -536.37255859 246.05029297 C-534.39392827 246.26462579 -532.4121365 246.4517419 -530.42822266 246.60986328 C-529.51089355 246.70509277 -528.59356445 246.80032227 -527.6484375 246.8984375 C-526.82520996 246.96724121 -526.00198242 247.03604492 -525.15380859 247.10693359 C-523 248 -523 248 -521.21459961 250.6184082 C-519.84146841 254.44137105 -519.74237657 257.15791238 -519.91796875 261.20703125 C-519.96106332 262.60485095 -520.00250732 264.00272232 -520.04248047 265.40063477 C-520.07991364 266.48309982 -520.07991364 266.48309982 -520.11810303 267.58743286 C-520.52573901 280.65741857 -520.31622131 292.2342017 -514 304 C-513.59007812 304.83660156 -513.18015625 305.67320312 -512.7578125 306.53515625 C-508.80290103 313.10620481 -500.99701194 316.52591843 -494 319 C-487.84256892 319.48972145 -484.07911921 318.29340782 -479 315 C-475.10056954 311.6204936 -471.62109582 308.0883847 -470.57421875 302.8828125 C-468.25866968 291.81766961 -458.68269908 285.03721007 -450.1875 278.375 C-442.26980938 272.06363222 -437.67821248 263.83353032 -433 255 C-431.75347656 255.03480469 -430.50695312 255.06960937 -429.22265625 255.10546875 C-412.81097617 255.42329202 -396.51650959 254.32278958 -381.8125 246.25 C-375.91720714 243.62986984 -369.89982749 245.03430219 -363.91796875 246.765625 C-362.52128811 247.15967493 -361.12455693 247.55354577 -359.7277832 247.94726562 C-358.99081207 248.15907471 -358.25384094 248.37088379 -357.49453735 248.58911133 C-340.72000594 253.39445085 -323.80162251 257.53017113 -306.8125 261.5 C-305.70023041 261.76075317 -304.58796082 262.02150635 -303.44198608 262.29016113 C-300.23933214 263.04007798 -297.03593245 263.78668119 -293.83203125 264.53125 C-292.88542633 264.75169983 -291.93882141 264.97214966 -290.96353149 265.19927979 C-278.45613492 268.20742005 -278.45613492 268.20742005 -265.6875 269.3125 C-264.53636719 269.32925781 -263.38523437 269.34601563 -262.19921875 269.36328125 C-258.68344496 268.96405419 -256.81381699 268.10651873 -254 266 C-252.71634613 263.43269226 -252.86724365 261.55347003 -252.875 258.6875 C-252.87113281 257.27017578 -252.87113281 257.27017578 -252.8671875 255.82421875 C-252.99495139 253.10735717 -253.43761595 250.65497588 -254 248 C-254.25614525 242.87709496 -253.80302645 238.6448973 -252.5625 233.69140625 C-251.84761074 230.2708597 -251.50820555 226.8478003 -251.125 223.375 C-250.21576054 216.35287374 -248.71940116 212.77182477 -244.6171875 207.08203125 C-235.47219806 193.93910139 -231.38532117 178.37445277 -226.6875 163.25 C-225.74133724 160.22555094 -224.79313944 157.20175237 -223.84346008 154.17840576 C-223.25780598 152.31170762 -222.67453379 150.44426011 -222.09391785 148.57598877 C-221.833069 147.74041443 -221.57222015 146.90484009 -221.3034668 146.04394531 C-221.07507614 145.30895813 -220.84668549 144.57397095 -220.6113739 143.81671143 C-220 142 -220 142 -219 140 C-215.84287341 141.38167466 -213.88348813 142.96996213 -211.5625 145.5 C-207.93770507 149.20963056 -205.3076235 150.69900563 -200.125 151.375 C-195.85578522 150.86269423 -193.57213227 149.4043198 -190 147 C-189.34 146.01 -188.68 145.02 -188 144 C-187.34 144 -186.68 144 -186 144 C-185.48050781 145.03640625 -184.96101563 146.0728125 -184.42578125 147.140625 C-183.72196094 148.51072854 -183.01749983 149.88050302 -182.3125 151.25 C-181.97283203 151.93191406 -181.63316406 152.61382812 -181.28320312 153.31640625 C-178.65319474 158.37978688 -176.00252386 161.67215116 -170.6328125 164.046875 C-160.26900918 166.95261425 -147.84500056 168.22116884 -138 163 C-135.07842789 160.66274231 -134.18423862 159.55271587 -133 156 C-132.87529624 154.42989015 -132.79897175 152.85565943 -132.75390625 151.28125 C-132.72224365 150.3538501 -132.69058105 149.4264502 -132.65795898 148.47094727 C-132.62645752 147.49053467 -132.59495605 146.51012207 -132.5625 145.5 C-132.30599479 138.64748834 -131.99806575 132.01377961 -130.40234375 125.31640625 C-129.33080469 119.14725421 -130.32089222 113.79323885 -131.9375 107.875 C-133.06831673 103.59947385 -134.15815639 99.34351995 -135 95 C-134.39526855 94.80889648 -133.79053711 94.61779297 -133.16748047 94.42089844 C-130.4001244 93.5403038 -127.63763266 92.64529762 -124.875 91.75 C-123.92367187 91.44964844 -122.97234375 91.14929688 -121.9921875 90.83984375 C-112.70880331 87.95987955 -112.70880331 87.95987955 -106.33984375 81.01953125 C-105.64568359 79.43205078 -105.64568359 79.43205078 -104.9375 77.8125 C-101.85943671 72.25991524 -101.85943671 72.25991524 -98.26171875 71.171875 C-96.08062678 71.09582198 -93.89711811 71.07656508 -91.71484375 71.1015625 C-78.57868909 70.74242473 -66.32802603 64.06360184 -55 58 C-53.00316881 56.99368733 -51.00429173 55.9913701 -49 55 C-49.64411386 49.44686304 -50.50057804 43.98744364 -51.5625 38.5 C-51.77036133 37.40945312 -51.77036133 37.40945312 -51.98242188 36.296875 C-52.31936665 34.53081963 -52.65935683 32.76534574 -53 31 C-52.18015625 31.19078125 -51.3603125 31.3815625 -50.515625 31.578125 C-49.43796875 31.79984375 -48.3603125 32.0215625 -47.25 32.25 C-46.18265625 32.48203125 -45.1153125 32.7140625 -44.015625 32.953125 C-40.95291831 33.29137892 -40.95291831 33.29137892 -38.71484375 31.43359375 C-36.69590573 28.56844936 -36.03337677 26.23353947 -35.3125 22.8125 C-34.06944444 17.06944444 -34.06944444 17.06944444 -33 16 C-31.62511713 15.97250234 -30.25006609 15.9533836 -28.875 15.9375 C-18.88177216 15.06039655 -8.65264292 8.19499665 -1 2 C-0.67 1.34 -0.34 0.68 0 0 Z " fill="#000000" transform="translate(696,0)"/>
</svg>
