<?xml version="1.0" encoding="UTF-8"?>
<svg version="1.1" xmlns="http://www.w3.org/2000/svg" width="774" height="1343">
<path d="M0 0 C1.4729269 2.47773735 2.68956187 4.82788968 3.875 7.4375 C4.57836043 8.90088046 5.28409304 10.3631231 5.9921875 11.82421875 C6.33475586 12.53884277 6.67732422 13.2534668 7.03027344 13.98974609 C11.42638958 23.45941746 11.42638958 23.45941746 19.6640625 29.28125 C22.41885522 30.12887853 25.19227074 30.78684234 28 31.4375 C33.51926237 32.73411063 37.51492596 34.56802511 42 38 C42.66644531 38.48082031 43.33289063 38.96164063 44.01953125 39.45703125 C49.34791742 43.6443481 52.26359806 48.43710596 55.359375 54.42578125 C57.08822436 57.13842822 57.98050554 58.02692073 61 59 C66.90063187 59 69.92127643 56.89633206 74.203125 53.1796875 C74.79609375 52.79039063 75.3890625 52.40109375 76 52 C76.99 52.33 77.98 52.66 79 53 C79.61254883 54.69897461 79.61254883 54.69897461 79.95703125 56.90234375 C80.16646362 58.10769775 80.16646362 58.10769775 80.38012695 59.33740234 C80.52281006 60.19543457 80.66549316 61.0534668 80.8125 61.9375 C82.54857438 71.10499647 84.78980511 78.95257811 92.375 85 C96.04453884 87.32322034 99.76258418 88.18225309 104 89 C106.56945809 100.41600253 107.83014324 111.6187718 108.65673828 123.2722168 C108.81268763 125.42331629 108.98377689 127.57282796 109.15625 129.72265625 C109.24712891 130.97828369 109.33800781 132.23391113 109.43164062 133.52758789 C110.03712745 137.22683149 111.05920952 139.80502784 113 143 C115.36377777 144.42331951 115.36377777 144.42331951 118.125 145.125 C119.10597656 145.44339844 120.08695313 145.76179687 121.09765625 146.08984375 C122.05542969 146.39019531 123.01320312 146.69054687 124 147 C141.31081728 152.96039673 152.10724971 170.51587756 162 185 C172.56407932 200.16668649 184.60767177 215.56502224 203 221 C207.82345239 221.62628734 212.57796738 221.70041742 217.4375 221.6875 C219.89459965 221.70411066 222.35166204 221.72853491 224.80859375 221.76171875 C226.41432251 221.7611145 226.41432251 221.7611145 228.05249023 221.76049805 C231.33534903 222.02724902 234.5858332 222.5858332 237 225 C236.90543035 226.40024092 236.74634712 227.79616313 236.5625 229.1875 C236.09212254 233.54633112 235.83833067 237.86600947 235.75 242.25 C235.72421875 243.38953125 235.6984375 244.5290625 235.671875 245.703125 C236.06178565 249.62079872 236.69585997 251.78871823 239 255 C244.70288778 257.82654045 250.48673439 258.7597451 256.75 259.625 C258.41167818 259.8656745 260.07314561 260.10780954 261.734375 260.3515625 C262.45850586 260.45291504 263.18263672 260.55426758 263.92871094 260.65869141 C266 261 266 261 268.05200195 261.52783203 C280.57475305 264.56317488 294.73060579 261.26708783 305.875 255.625 C311.49688263 252.91215411 311.49688263 252.91215411 315.9375 253.6875 C323.2186576 259.18551696 325.80370181 264.25120997 328 273 C331.6552288 287.23104934 331.6552288 287.23104934 341.90234375 296.95703125 C346.3156694 299.15136635 349.61779777 300.17007248 354.62133789 300.22485352 C363.89942079 300.33777358 369.8127407 302.3622385 376.84375 308.6484375 C382.74307158 314.78909496 386.86936991 322.60725258 391 330 C391.54140625 330.95648438 392.0828125 331.91296875 392.640625 332.8984375 C396.03083714 340.63357669 396.31524555 348.27357005 396.25 356.625 C396.25773437 357.62273437 396.26546875 358.62046875 396.2734375 359.6484375 C396.25872929 365.20814224 395.70035565 369.72419294 394 375 C393.60236645 379.23444854 394.08756076 382.64806123 396.4921875 386.2109375 C398.25009544 388.24045353 400.06810086 390.13633571 402 392 C404.22801578 394.22801578 406.24102348 396.31013415 408.1796875 398.8046875 C411.02281385 402.23826934 414.30542716 404.55274021 418 407 C421.63545999 409.40810384 424.55891193 411.41757737 427.21875 414.9296875 C430.82770402 419.53818026 436.35363149 421.61285258 441.5 424.125 C443.55462125 425.14333288 445.6067964 426.16661902 447.65625 427.1953125 C448.56181641 427.63891113 449.46738281 428.08250977 450.40039062 428.53955078 C453.23126202 430.12992199 455.6125732 431.79683501 458 434 C458.41796875 437.171875 458.41796875 437.171875 458.1875 440.75 C457.71259868 456.07348259 465.15496664 464.25687546 475.15625 475.140625 C481.05131377 481.21124221 487.69396172 486.02243333 494.6875 490.75 C495.52861328 491.32621094 496.36972656 491.90242188 497.23632812 492.49609375 C501.57270077 495.51072794 501.57270077 495.51072794 506.20556641 498.01367188 C508 499 508 499 509.01171875 501.609375 C509.23472656 502.64578125 509.45773437 503.6821875 509.6875 504.75 C509.91824219 505.77609375 510.14898438 506.8021875 510.38671875 507.859375 C510.98032026 510.8992197 511.50037764 513.94348675 512 517 C512.2475 518.2375 512.495 519.475 512.75 520.75 C512.74368688 524.06438834 512.04394436 524.95334209 509.72265625 527.41796875 C507.75352728 529.12278511 505.77128336 530.81255079 503.77734375 532.48828125 C498.8457609 536.94820779 495.14253094 542.9591038 494.6796875 549.765625 C495.80105181 557.5878248 500.37787177 564.17876454 506.31665039 569.15014648 C512.25835931 573.24625498 518.94803934 576.02700873 525.5 579 C526.96670157 579.67848745 528.43285143 580.35816884 529.8984375 581.0390625 C535.7537458 583.74782662 541.61990557 586.42237715 547.5546875 588.953125 C548.28586792 589.26628662 549.01704834 589.57944824 549.77038574 589.90209961 C551.15661675 590.49297295 552.54557189 591.07751066 553.93762207 591.65454102 C557.15549451 593.02472648 559.83661371 594.18835657 562 597 C563.3900037 600.57005223 564.15913591 604.2677436 565 608 C565.25136719 608.84433594 565.50273438 609.68867187 565.76171875 610.55859375 C566.39158629 613.35055979 566.56612918 615.18231887 566 618 C560.03754004 627.18846461 551.38227746 632.94931893 541.6875 637.5625 C537.77542953 639.4880674 534.98245943 640.94067831 533 645 C533.29858333 651.22380359 534.9349855 655.63032266 537.875 661.0625 C542.36225183 669.58499111 545.47042765 676.49030416 545.75 686.25 C545.7809375 687.18803467 545.811875 688.12606934 545.84375 689.0925293 C545.9170402 691.72845726 545.96350649 694.36334372 546 697 C546.03867188 698.61068359 546.03867188 698.61068359 546.078125 700.25390625 C545.87413775 706.93448867 543.27635351 712.25715522 540.53393555 718.22851562 C537.19685363 725.56430443 536.01893761 730.64510817 538.5 738.5 C543.06045503 749.59090255 550.16717852 755.55396758 560.9921875 760.31640625 C564.49699589 762.27818861 566.48598767 764.49600118 569.0625 767.5625 C573.17645712 772.4563542 575.89312836 774.7068989 582.3125 775.3125 C590.1317169 774.6498545 595.43256114 771.15470813 601.83203125 766.953125 C605.36380199 764.77570777 608.96949068 762.89678385 612.6875 761.0625 C613.36039063 760.73048584 614.03328125 760.39847168 614.7265625 760.05639648 C617.52968519 758.68166087 620.33839798 757.31886063 623.15087891 755.96337891 C633.82100368 750.92381324 633.82100368 750.92381324 643.421875 744.12890625 C645.31276764 742.77626275 646.70964357 742.38657463 649 742 C651.73863684 742.81784738 654.29253499 743.69876505 656.9375 744.75 C657.64068359 745.01554688 658.34386719 745.28109375 659.06835938 745.5546875 C665.02035626 747.8529281 669.70052116 749.89844486 673.25 755.4375 C673.75015625 756.19933594 674.2503125 756.96117187 674.765625 757.74609375 C676.93203235 761.70184388 676.93203235 761.70184388 677 764 C675.67638351 766.34972286 674.40014073 768.27542214 672.75 770.375 C672.30197021 770.95572266 671.85394043 771.53644531 671.39233398 772.13476562 C667.67709391 776.69353159 663.79169879 779.3376362 658.34765625 781.65625 C655.24605438 783.43154292 654.2913925 784.65227866 653 788 C652.41266939 795.56940228 655.99665446 801.67425544 659.5 808.125 C664.72890198 817.83205481 666.44335165 824.72553415 665.25 835.6875 C665.15638184 836.57236084 665.06276367 837.45722168 664.96630859 838.36889648 C663.84877668 848.24163199 661.46903074 857.27144427 657.8671875 866.52734375 C655.06923059 874.50530195 655.26694468 880.61678495 658.5625 888.3125 C661.83469436 896.36284181 661.32147204 902.60692275 658.625 910.75 C656.28429995 916.19147983 652.65960934 920.63664584 649.08300781 925.30688477 C642.73534308 933.74936458 638.89703768 942.83853375 638.75 953.4375 C638.71132812 955.10619141 638.71132812 955.10619141 638.671875 956.80859375 C639.03866798 960.37609215 639.78701898 962.19722677 642 965 C648.78512354 967.41504397 654.85630674 967.99550286 661.75 965.8125 C666.68383844 963.14979354 670.19553985 958.72143605 673.78808594 954.5090332 C678.10718154 949.51552495 678.10718154 949.51552495 682 949 C685.27074299 950.58185025 688.09148366 952.83257159 691 955 C692.051875 955.763125 693.10375 956.52625 694.1875 957.3125 C699.30863485 962.20602886 703.80881798 968.06222962 704.16113281 975.31884766 C704.1812643 976.68384259 704.19483692 978.04894428 704.203125 979.4140625 C704.20882507 980.14313812 704.21452515 980.87221375 704.22039795 981.62338257 C704.22984093 983.1683406 704.23637915 984.7133187 704.24023438 986.25830078 C704.2498793 988.59574805 704.28088231 990.93229254 704.3125 993.26953125 C704.43253082 1009.25740099 704.43253082 1009.25740099 701 1015 C698.43359375 1017.56640625 698.43359375 1017.56640625 695.4375 1019.5625 C694.37273438 1020.30757812 693.30796875 1021.05265625 692.2109375 1021.8203125 C690.62152344 1022.89925781 690.62152344 1022.89925781 689 1024 C687.1688466 1025.28634743 685.35468701 1026.5973962 683.5625 1027.9375 C682.80066406 1028.48277344 682.03882813 1029.02804687 681.25390625 1029.58984375 C674.4252808 1036.89185745 672.84398907 1046.04967584 671.375 1055.625 C671.1682666 1056.88449463 670.9615332 1058.14398926 670.74853516 1059.44165039 C669.25676961 1068.73043169 668.01808359 1078.04967618 667.07568359 1087.41064453 C666.05208448 1096.80162896 662.8741091 1101.68293194 655.8125 1107.9375 C644.81818182 1116 644.81818182 1116 641 1116 C640.31225595 1117.32258472 639.65288627 1118.65986503 639 1120 C638.484375 1120.99 637.96875 1121.98 637.4375 1123 C633.61535746 1132.19274282 634.68904818 1141.84925914 638 1151 C640.87541941 1157.74152953 646.13299143 1162.11057583 651.57421875 1166.80078125 C656.18070265 1170.97702993 656.85048225 1174.45819818 657.203125 1180.453125 C657.40129354 1196.50477691 657.40129354 1196.50477691 654 1201 C651.06006443 1202.98126092 648.03119266 1204.61184243 644.89453125 1206.26171875 C639.97333759 1209.21709146 637.97152617 1212.76938286 636.3515625 1218.15625 C634.43554678 1228.42320216 640.79463042 1236.42247777 646.2722168 1244.45800781 C656.51132169 1259.50462533 656.51132169 1259.50462533 655 1269 C654.86207031 1269.88429688 654.72414063 1270.76859375 654.58203125 1271.6796875 C652.42888694 1280.83947267 647.40319958 1287.97534186 642.29980469 1295.7512207 C632.57721472 1310.22916685 632.57721472 1310.22916685 630 1327 C630.60039057 1330.04612145 630.60039057 1330.04612145 631.5 1332.8125 C632.4005954 1335.76862103 633 1337.89512526 633 1341 C625.06150854 1342.21723536 619.6382286 1342.71405282 613 1338 C603.4668082 1330.45054371 594.80746505 1322.0942395 586.25683594 1313.46264648 C584.21618803 1311.40337953 582.16728556 1309.35258965 580.1171875 1307.30273438 C578.81202134 1305.9926642 577.50731561 1304.6821351 576.203125 1303.37109375 C575.59285461 1302.75971054 574.98258423 1302.14832733 574.3538208 1301.51841736 C569.03891006 1296.14280283 569.03891006 1296.14280283 568.93408203 1293.06396484 C568.95841309 1292.28746582 568.98274414 1291.5109668 569.0078125 1290.7109375 C569.02457031 1289.85113281 569.04132812 1288.99132813 569.05859375 1288.10546875 C569.1023 1286.30837048 569.15416545 1284.51144904 569.21484375 1282.71484375 C569.33217602 1275.53624235 568.31625157 1270.06562707 563.875 1264.1875 C559.10210198 1260.55594716 554.05659145 1259.4515513 548.24609375 1258.17578125 C539.28153084 1256.19214703 532.42461851 1253.66127161 525 1248 C524.195625 1247.3915625 523.39125 1246.783125 522.5625 1246.15625 C519.99897013 1244.15143818 517.49585464 1242.08844308 515 1240 C514.50242187 1239.58733887 514.00484375 1239.17467773 513.4921875 1238.74951172 C507.48545662 1233.76547855 501.59683679 1228.68427597 495.875 1223.375 C487.80997192 1215.90198489 479.20401103 1209.13986997 470.55004883 1202.37158203 C463.9034936 1197.16287511 457.36088371 1191.82789857 450.82177734 1186.48535156 C449.18330105 1185.14945103 447.53925952 1183.82038316 445.89453125 1182.4921875 C443.24583564 1180.34782745 440.61635743 1178.18366771 438 1176 C436.67162109 1174.89398437 436.67162109 1174.89398437 435.31640625 1173.765625 C423.90161652 1163.92821334 420.05055302 1154.64517197 417.98486328 1139.95727539 C414.91025386 1118.42875174 400.5916619 1103.027843 387.22265625 1086.58203125 C378.40930313 1075.63307357 374.86642603 1067.33161372 376 1053 C376.43625603 1050.17172997 376.97319519 1047.38285862 377.5390625 1044.578125 C379.06418226 1036.04779414 377.97173117 1028.7338432 374 1021 C372.12044026 1018.33087111 370.14108833 1015.84980669 368 1013.38671875 C358.43731613 1001.97500031 356.01668416 986.0127248 352.9375 971.75 C352.76602448 970.9609729 352.59454895 970.1719458 352.4178772 969.35900879 C349.88001588 957.54912705 347.96788591 945.76032751 346.6875 933.75 C346.60806152 933.0079129 346.52862305 932.26582581 346.44677734 931.50125122 C345.60787487 923.50812158 344.94714938 915.51951368 344.484375 907.49609375 C343.2603758 887.41199835 338.70188697 870.55600224 331 852 C330.26209229 850.20151611 330.26209229 850.20151611 329.50927734 848.36669922 C326.42188527 840.87491565 323.23005403 833.43115576 320 826 C311.65691566 806.76813162 306.2886695 785.97420711 305 765 C305.556875 765.13277344 306.11375 765.26554688 306.6875 765.40234375 C309.11942571 765.96513737 311.55631246 766.49074008 314 767 C314.71542969 767.15210938 315.43085938 767.30421875 316.16796875 767.4609375 C319.54024198 768.047987 321.9542248 768.01320438 325.25 767.0625 C331.10417872 762.67186596 332.80285003 755.80792029 333.8671875 748.79296875 C334.30108685 739.6683207 329.39420892 732.91319902 324 726 C323.55269531 725.39929688 323.10539062 724.79859375 322.64453125 724.1796875 C317.18233959 717.14424322 311.03664081 715.2210224 302.74609375 713.578125 C298.21252801 712.58399716 296.00438062 711.48910336 293 708 C291.48291016 705.44824219 291.48291016 705.44824219 290.0390625 702.546875 C289.49193604 701.4643042 288.94480957 700.3817334 288.38110352 699.26635742 C287.80158936 698.10595947 287.2220752 696.94556152 286.625 695.75 C281.39344583 685.41263924 275.85754994 675.32884794 269.88330078 665.39550781 C261.45798688 651.29188076 255.4666063 636.89234839 249.94628906 621.46044922 C248.7529501 618.13322535 247.53749526 614.81465771 246.3203125 611.49609375 C242.17373145 600.0567613 238.6904946 589.06657061 237 577 C236.73577899 575.41707321 236.46723531 573.83485163 236.19140625 572.25390625 C235.98386719 571.03574219 235.77632813 569.81757812 235.5625 568.5625 C234.81427865 564.28069645 233.95745688 560.50914852 231.8125 556.6875 C227.41129481 547.91868661 229.74581707 535.15612841 230.6875 525.75 C232.19533254 505.98825539 221.85247727 487.97695175 212.51635742 471.30078125 C207.75429979 462.73800968 203.65489435 453.9339343 199.81933594 444.92138672 C199.13392754 443.31406726 198.41821138 441.71971665 197.6953125 440.12890625 C197 438 197 438 198 435 C198.78375 434.87625 199.5675 434.7525 200.375 434.625 C203.14057822 434.20882007 203.14057822 434.20882007 205 432 C205.60713803 430.14516546 206.14131052 428.26578615 206.625 426.375 C207.01558594 424.87066406 207.01558594 424.87066406 207.4140625 423.3359375 C207.70410156 422.17964844 207.70410156 422.17964844 208 421 C208.95261719 421.05800781 209.90523438 421.11601562 210.88671875 421.17578125 C217.64553417 421.6905354 217.64553417 421.6905354 224.0078125 419.95703125 C226.78172306 417.12498484 227.92640228 414.55723991 228.4375 410.6875 C227.97117122 406.75701461 227.84047573 406.40171531 225 404.0625 C224.01 403.381875 223.02 402.70125 222 402 C222.350625 401.319375 222.70125 400.63875 223.0625 399.9375 C224.36763668 395.84807173 224.4609035 394.10444316 223 390 C215.93869915 383.61010153 209.4859753 379.39230399 199.90234375 379.63671875 C195.19003534 380.22655009 191.31736428 381.4979101 188 385 C186.97356124 388.37847934 186.82946972 391.4870763 187 395 C185.39850114 395.67305018 183.79368971 396.33822227 182.1875 397 C181.29417969 397.37125 180.40085938 397.7425 179.48046875 398.125 C177 399 177 399 174 399 C172.38671875 396.91015625 172.38671875 396.91015625 170.6875 394.0625 C168.26809316 389.99532278 168.26809316 389.99532278 165.57055664 386.11376953 C160.67620687 379.49729104 158.95645574 372.67783696 157.0625 364.75 C156.38535579 362.05201315 155.69332433 359.35793103 155 356.6640625 C154.8305336 356.00062836 154.6610672 355.33719421 154.48646545 354.65365601 C152.15453524 345.59695407 149.16316503 336.79455731 146 328 C145.63197266 326.96987793 145.26394531 325.93975586 144.88476562 324.87841797 C143.70728894 321.60143225 142.51366485 318.33087179 141.3125 315.0625 C140.75961304 313.54197021 140.75961304 313.54197021 140.19555664 311.99072266 C136.77417334 302.84490896 132.14193178 296.86752389 125.1875 290.125 C120.45123614 285.50881043 115.88845881 280.84190459 111.57446289 275.82617188 C109.47907613 273.39579616 107.30234233 271.04445475 105.125 268.6875 C99.19410904 262.17514914 93.62941997 255.40534866 88.23828125 248.44140625 C78.08208419 235.32363642 67.4196373 225.99563264 52.8125 218 C42.36423082 212.22135634 34.73181477 203.95528301 27 195 C26.55962402 194.4937207 26.11924805 193.98744141 25.66552734 193.46582031 C19.56305627 186.44850923 13.5700582 179.33848121 7.625 172.1875 C7.05434814 171.50679443 6.48369629 170.82608887 5.89575195 170.12475586 C-1.97069884 160.60838691 -6.93660061 151.00921517 -11.375 139.5625 C-11.98057043 138.02278238 -12.58678859 136.48331938 -13.19360352 134.9440918 C-15.14831101 129.97012475 -17.07720935 124.98637917 -19 120 C-19.32413879 119.15993408 -19.64827759 118.31986816 -19.98223877 117.4543457 C-26.44999812 100.67760356 -32.84215455 83.87259304 -39.06640625 67.00390625 C-40.06008297 64.32047173 -41.0542208 61.63720834 -42.04837036 58.95394897 C-42.96507555 56.46964646 -43.87140466 53.98174108 -44.77709961 51.4934082 C-50.39767023 36.20431023 -57.53411062 22.28724681 -66.21289062 8.50390625 C-66.72142578 7.68019531 -67.22996094 6.85648437 -67.75390625 6.0078125 C-68.21095947 5.28223145 -68.6680127 4.55665039 -69.13891602 3.80908203 C-69.42307373 3.21208496 -69.70723145 2.61508789 -70 2 C-69.67 1.34 -69.34 0.68 -69 0 C-67.74896484 0.63228516 -67.74896484 0.63228516 -66.47265625 1.27734375 C-65.34730469 1.82519531 -64.22195312 2.37304688 -63.0625 2.9375 C-61.96035156 3.48277344 -60.85820313 4.02804688 -59.72265625 4.58984375 C-52.47342577 7.33587964 -45.97906625 7.2169264 -38.4921875 5.6015625 C-37.72246613 5.44714691 -36.95274475 5.29273132 -36.15969849 5.13363647 C-33.72869517 4.64335294 -31.30196269 4.13487018 -28.875 3.625 C-26.44020901 3.12634862 -24.00467688 2.63149015 -21.56887817 2.13778687 C-20.06214873 1.83101018 -18.55613078 1.52070922 -17.05099487 1.20620728 C-3.51762161 -1.5996147 -3.51762161 -1.5996147 0 0 Z " fill="#000000" transform="translate(70,1)"/>
</svg>
