<?xml version="1.0" encoding="UTF-8"?>
<svg version="1.1" xmlns="http://www.w3.org/2000/svg" width="1989" height="1511">
<path d="M0 0 C12.71770447 4.07447836 22.22595847 16.0657963 31.19458008 25.34326172 C45.929368 42.68796948 45.929368 42.68796948 65.70629883 51.19482422 C69.3099672 50.53695373 70.52236551 48.75124666 72.63208008 45.84326172 C73.60271081 44.24650581 74.55997632 42.64158385 75.50708008 41.03076172 C81.75872159 30.42810338 88.92288051 25.42808701 99.63208008 19.84326172 C101.8749856 22.04847135 103.86268175 24.23129276 105.63208008 26.84326172 C105.63208008 27.50326172 105.63208008 28.16326172 105.63208008 28.84326172 C117.08192413 33.81535245 117.08192413 33.81535245 129.25708008 34.40576172 C132.91506323 31.99919386 134.53035052 28.61511567 136.63208008 24.84326172 C144.17962514 11.32741337 144.17962514 11.32741337 151.63208008 8.84326172 C153.76098633 9.76904297 153.76098633 9.76904297 156.19458008 11.15576172 C160.65854611 13.5352326 164.60310168 14.64013477 169.60083008 15.28857422 C171.63208008 15.84326172 171.63208008 15.84326172 173.63208008 18.84326172 C173.86254883 21.58544922 173.86254883 21.58544922 173.81958008 24.71826172 C173.81313477 25.74693359 173.80668945 26.77560547 173.80004883 27.83544922 C173.64465104 30.6181538 173.19785446 33.12154403 172.63208008 35.84326172 C172.02206918 41.44146303 171.47309018 47.03325824 174.69458008 51.90576172 C179.97456845 57.92394752 187.10918358 62.29160782 193.63208008 66.84326172 C205.53621973 75.312376 213.83193767 81.93590296 220.21826172 95.20019531 C224.42243195 103.89028561 229.36632003 111.78302247 234.83911133 119.72998047 C237.01912264 122.89627282 238.9747657 126.12921004 240.88208008 129.46826172 C249.17853008 142.50268437 261.91135149 152.33162102 274.47583008 160.97607422 C275.86198173 161.93073708 277.24740364 162.88646042 278.63208008 163.84326172 C279.3373584 164.32899658 280.04263672 164.81473145 280.76928711 165.31518555 C285.24823436 168.51555507 288.47007026 171.70316325 291.50708008 176.28076172 C292.12860962 177.18375 292.12860962 177.18375 292.76269531 178.10498047 C294.06671062 180.00852326 295.35050946 181.92455352 296.63208008 183.84326172 C297.47933449 185.09483592 298.32698827 186.34613986 299.17504883 187.59716797 C304.10141897 194.90106373 308.88381466 202.29662456 313.62426758 209.72216797 C314.61813477 211.26710937 314.61813477 211.26710937 315.63208008 212.84326172 C316.56407227 214.43460937 316.56407227 214.43460937 317.51489258 216.05810547 C321.38993456 221.15571604 326.17208951 222.12760814 332.25708008 223.15576172 C343.52184148 225.46527347 352.58022636 231.24852455 362.11401367 237.41577148 C370.59324232 242.87094699 377.11852435 243.57597778 387.06958008 242.34326172 C398.33159138 241.03464773 405.9416766 241.61867434 415.12817383 248.79248047 C428.26039644 260.20378779 438.04945258 273.99427284 448.18579102 287.98828125 C449.58850624 289.91153897 451.01282878 291.81656791 452.44458008 293.71826172 C452.83959717 294.2703833 453.23461426 294.82250488 453.64160156 295.39135742 C460.19457546 303.97769039 469.82685951 305.90902628 479.90356445 307.87060547 C485.95600409 309.15459047 490.71453695 311.03243442 495.63208008 314.84326172 C496.42207397 315.44750977 496.42207397 315.44750977 497.22802734 316.06396484 C501.08469866 320.95136191 500.96149801 327.50675788 501.12426758 333.46044922 C501.19023808 335.13754975 501.25665954 336.81463259 501.32348633 338.49169922 C501.41730781 341.08856116 501.50607202 343.68537759 501.58569336 346.28271484 C502.06526297 361.24988144 503.46144958 376.09406887 510.38208008 389.65576172 C510.7249707 390.35386963 511.06786133 391.05197754 511.42114258 391.77124023 C516.57333083 402.00862888 523.26021291 411.10313133 530.63208008 419.84326172 C531.71489258 421.14650391 531.71489258 421.14650391 532.81958008 422.47607422 C538.84507104 429.48489183 544.79937729 435.91608223 554.42578125 436.86743164 C558.5098744 436.82269055 562.1670418 435.5110304 566.00708008 434.21826172 C567.77351644 433.65681962 569.54045539 433.09695663 571.30786133 432.53857422 C572.19425293 432.25401367 573.08064453 431.96945312 573.99389648 431.67626953 C598.77986685 423.85008677 622.26801995 419.1560823 647.15942383 429.01513672 C654.12389157 432.68147069 658.80007338 437.85932411 663.38208008 444.15576172 C663.89230713 444.84798828 664.40253418 445.54021484 664.92822266 446.25341797 C694.4566588 486.77246284 694.4566588 486.77246284 695.06176758 511.51708984 C695.26582441 516.29967182 696.01196252 519.69577705 698.63208008 523.84326172 C705.48468726 529.12547976 711.22392498 529.50328755 719.63208008 528.84326172 C731.77928898 526.61272161 744.62007918 521.22556034 754.19458008 513.28076172 C756.79598936 511.21990501 757.3529386 510.85968181 760.81958008 510.65576172 C764.31467429 511.74439762 767.61550876 513.0349524 771.00708008 514.40576172 C776.2609206 516.47710344 780.99585363 518.26415914 786.63208008 516.84326172 C791.30805529 513.6550968 793.09545605 509.12514825 795.22583008 504.05029297 C797.06111629 501.16991321 798.39176314 500.84941822 801.63208008 499.84326172 C804.74731445 499.60375977 804.74731445 499.60375977 808.22583008 499.60498047 C809.50458008 499.58886719 810.78333008 499.57275391 812.10083008 499.55615234 C814.75760067 499.53454996 817.41252442 499.53393742 820.06958008 499.54052734 C835.32983771 499.30399335 846.55078407 493.12008265 859.25708008 485.46826172 C860.50135392 484.73040863 861.74614469 483.99342654 862.99145508 483.25732422 C884.19705997 471.04179747 884.19705997 471.04179747 899.75708008 452.65576172 C903.36231316 446.61234329 906.32599497 442.27161112 912.63208008 438.84326172 C913.73422852 438.19099609 914.83637695 437.53873047 915.97192383 436.86669922 C924.20132206 432.11755124 932.32645189 428.90974702 941.63208008 426.84326172 C942.4203418 426.66762695 943.20860352 426.49199219 944.02075195 426.31103516 C953.36837944 424.26074666 962.75611736 422.40684576 972.14561462 420.55986023 C975.23080601 419.9525941 978.3153938 419.34228333 981.40005493 418.73233032 C983.62786681 418.29389107 985.85681473 417.86164834 988.0859375 417.42993164 C995.07635931 416.06358605 1002.03830981 414.59714518 1008.94848633 412.86669922 C1010.1428833 412.57069824 1011.33728027 412.27469727 1012.56787109 411.96972656 C1016.6388037 410.47316987 1018.5316458 408.36700715 1021.03833008 404.93310547 C1026.61905723 397.61524021 1035.64754025 392.59592268 1044.63208008 390.90576172 C1051.72464123 390.31236019 1058.16396407 393.60268195 1063.63208008 397.84326172 C1067.9303993 401.57147228 1072.1206381 405.41291052 1076.25317383 409.32373047 C1082.64981552 415.47087912 1082.64981552 415.47087912 1090.63208008 418.84326172 C1095.3506274 418.62246314 1098.51542842 417.82253352 1102.10864258 414.67138672 C1104.33045294 412.18130823 1106.22793721 409.62771087 1108.11694336 406.88232422 C1118.39075306 392.35386464 1137.52397834 384.87683287 1154.69458008 381.84326172 C1161.88918534 380.41259451 1166.79828033 374.71219632 1172.00708008 369.90576172 C1178.61999115 363.82481853 1184.93294043 358.4542589 1193.63208008 355.84326172 C1193.73230469 356.49286865 1193.8325293 357.14247559 1193.93579102 357.81176758 C1194.40495559 360.80362262 1194.89338088 363.79203792 1195.38208008 366.78076172 C1195.5393457 367.80234375 1195.69661133 368.82392578 1195.85864258 369.87646484 C1197.42066365 379.27863017 1200.10045499 388.44581076 1207.63208008 394.84326172 C1211.23848248 396.55976496 1213.99867287 397.07016753 1217.97583008 396.96826172 C1218.97485352 396.95279297 1219.97387695 396.93732422 1221.00317383 396.92138672 C1222.03571289 396.89560547 1223.06825195 396.86982422 1224.13208008 396.84326172 C1226.18394687 396.79202909 1228.23606978 396.75003865 1230.28833008 396.71826172 C1231.19389648 396.69505859 1232.09946289 396.67185547 1233.0324707 396.64794922 C1236.75107988 396.92733383 1239.53516542 397.71613285 1242.17431641 400.42797852 C1242.59994873 401.04326416 1243.02558105 401.6585498 1243.46411133 402.29248047 C1243.9486377 402.97294434 1244.43316406 403.6534082 1244.93237305 404.35449219 C1245.43140137 405.07266113 1245.93042969 405.79083008 1246.44458008 406.53076172 C1254.53703543 417.76885863 1254.53703543 417.76885863 1266.63208008 423.84326172 C1269.5437777 424.11793569 1272.43947684 424.12039948 1275.36254883 424.11669922 C1277.07023754 424.13699965 1278.77791978 424.15785064 1280.4855957 424.17919922 C1283.14686567 424.20169227 1285.80787793 424.21823584 1288.46923828 424.22412109 C1301.41220453 424.27225858 1311.92928728 424.954772 1322.81958008 432.78076172 C1323.34656494 433.15773193 1323.8735498 433.53470215 1324.41650391 433.9230957 C1331.11356889 438.79324718 1337.47528647 444.10787928 1343.85473633 449.38183594 C1346.15404097 451.27244549 1348.48446149 453.12215335 1350.81958008 454.96826172 C1356.29815489 459.33829547 1361.62788437 463.88176717 1366.96313477 468.42431641 C1369.12536793 470.26265742 1371.2940452 472.0932975 1373.46289062 473.92382812 C1375.63089835 475.75482447 1377.79564065 477.5896525 1379.9597168 479.42529297 C1381.09089628 480.38440106 1382.22275135 481.34271286 1383.35522461 482.30029297 C1390.42382543 488.281872 1397.38435683 494.34831838 1404.13745117 500.68579102 C1407.08846499 503.4512785 1410.10748464 506.05864204 1413.25708008 508.59326172 C1418.64160103 513.25228932 1419.67171666 519.02920921 1420.63208008 525.84326172 C1421.02369186 532.13553371 1421.02988929 538.45054416 1421.09204102 544.75292969 C1421.11855125 546.79906749 1421.15936867 548.8450742 1421.21508789 550.890625 C1421.69565427 568.79027512 1418.56870972 578.54285244 1407.72583008 592.90966797 C1391.43782592 615.73110662 1381.52581631 643.91055113 1375.49633789 671.04833984 C1374.04510612 677.4707089 1372.1486214 683.66096804 1370.06958008 689.90576172 C1367.71110622 697.05086693 1365.72732585 704.14868366 1364.25708008 711.53076172 C1364.10166748 712.30750244 1363.94625488 713.08424316 1363.78613281 713.88452148 C1362.31573868 721.73698041 1361.65067046 729.61510777 1361.45629883 737.59716797 C1361.43245117 738.55429687 1361.40860352 739.51142578 1361.3840332 740.49755859 C1361.34098288 742.44004126 1361.3097768 744.38282173 1361.2902832 746.32568359 C1361.06131596 754.22239115 1359.52147707 761.29343113 1354.44458008 767.53076172 C1353.51645508 768.29388672 1352.58833008 769.05701172 1351.63208008 769.84326172 C1350.58793945 770.70757813 1350.58793945 770.70757813 1349.52270508 771.58935547 C1337.84627594 781.01278234 1327.86431231 781.33864581 1313.18676758 780.11279297 C1298.00382704 778.69666696 1298.00382704 778.69666696 1284.50708008 784.59326172 C1283.20701964 787.93627427 1283.59586046 790.5125558 1284.63208008 793.84326172 C1285.44111581 795.62532691 1286.27677932 797.39543341 1287.13208008 799.15576172 C1290.28494568 805.85560112 1291.64602194 811.99669139 1289.75708008 819.28076172 C1286.90763415 826.59303848 1281.3573662 833.84393366 1274.31958008 837.46826172 C1269.47649285 839.27415865 1265.72617029 839.96933179 1260.54614258 840.05419922 C1259.36793945 840.08255859 1258.18973633 840.11091797 1256.97583008 840.14013672 C1254.5046247 840.1920528 1252.03324761 840.2363734 1249.56176758 840.27294922 C1248.38098633 840.30388672 1247.20020508 840.33482422 1245.98364258 840.36669922 C1244.90937012 840.38651855 1243.83509766 840.40633789 1242.72827148 840.42675781 C1238.93066681 840.93761679 1236.76182927 841.58858094 1233.63208008 843.84326172 C1232.05601039 846.66489123 1231.19981666 849.62236507 1230.30786133 852.71826172 C1230.03491745 853.59796631 1229.76197357 854.4776709 1229.48075867 855.3840332 C1228.61360411 858.19765395 1227.77899846 861.01978075 1226.94458008 863.84326172 C1226.37308941 865.71238762 1225.7995421 867.58088602 1225.22387695 869.44873047 C1223.87728704 873.8394337 1222.5668585 878.23960694 1221.27770996 882.64749146 C1220.7425742 884.46747411 1220.19178969 886.28284711 1219.63696289 888.09692383 C1217.11785423 896.62682703 1216.30203723 905.37399064 1215.34692383 914.19287109 C1214.24303135 923.1702531 1212.90248279 931.44938722 1205.51098633 937.32373047 C1204.41657227 937.88705078 1203.3221582 938.45037109 1202.19458008 939.03076172 C1194.63714257 943.13802602 1194.63714257 943.13802602 1189.63208008 949.84326172 C1188.8743572 952.93054191 1188.2616772 956.00951188 1187.73632812 959.14428711 C1186.22851738 967.90959212 1182.31239694 975.82926803 1175.63208008 981.84326172 C1171.95383161 984.43766435 1167.95875366 984.27891299 1163.63208008 983.84326172 C1160.90125049 983.15354501 1158.39261611 982.41149651 1155.75708008 981.46826172 C1154.99008789 981.2056958 1154.2230957 980.94312988 1153.43286133 980.67260742 C1148.8625786 979.07975593 1144.36067516 977.34967124 1139.87426758 975.53466797 C1127.35876595 970.49378509 1114.91594145 966.28714347 1101.88208008 962.84326172 C1101.1730957 962.65371918 1100.46411133 962.46417664 1099.73364258 962.26889038 C1076.09155168 955.65972341 1076.09155168 955.65972341 1052.63208008 959.84326172 C1049.25966856 962.06761825 1046.85989597 963.93657479 1045.63208008 967.84326172 C1045.09194655 972.34437445 1045.74366142 975.36218186 1047.56958008 979.40576172 C1049.88420146 984.73100952 1050.08891295 989.62280421 1050.37036133 995.37060547 C1050.96647212 1003.28019489 1052.5458696 1010.46475013 1058.63208008 1015.84326172 C1062.07118702 1016.88994644 1064.72596346 1016.83848799 1068.31958008 1016.65576172 C1071.63208008 1016.84326172 1071.63208008 1016.84326172 1073.13989258 1018.28857422 C1075.29175647 1021.97265533 1076.49437451 1025.86274861 1077.81958008 1029.90576172 C1080.53515593 1037.98640062 1083.60854119 1045.81517542 1087.14257812 1053.57397461 C1088.99238263 1057.75974724 1090.40569774 1061.1736776 1089.63208008 1065.84326172 C1088.23364258 1067.31201172 1088.23364258 1067.31201172 1086.25708008 1068.34326172 C1085.5274707 1068.75060547 1084.79786133 1069.15794922 1084.04614258 1069.57763672 C1083.24950195 1069.99529297 1082.45286133 1070.41294922 1081.63208008 1070.84326172 C1069.26272299 1077.47667088 1063.11346798 1085.69208777 1057.38208008 1098.40576172 C1056.37723857 1100.57390051 1055.37203816 1102.74187302 1054.36645508 1104.90966797 C1053.90045898 1105.92947754 1053.43446289 1106.94928711 1052.9543457 1108 C1051.79777728 1110.48696378 1050.58838586 1112.93141891 1049.33520508 1115.37060547 C1044.3271858 1125.58191083 1047.18952651 1136.17320063 1049.34814453 1146.81665039 C1049.81583986 1149.13720398 1050.26083757 1151.4613397 1050.7043457 1153.78662109 C1054.26038584 1172.36130178 1054.26038584 1172.36130178 1065.92504883 1186.46044922 C1074.83249707 1192.09329848 1083.62569153 1193.87841061 1094.05395508 1193.91357422 C1111.65560491 1194.01209617 1128.03680061 1196.84199762 1145.18009949 1200.51089478 C1151.08416456 1201.76428022 1157.0135524 1202.82365909 1162.97195435 1203.7852478 C1170.03790047 1204.96677516 1176.16966125 1206.41549212 1180.49536133 1212.43701172 C1182.04869358 1215.19519596 1183.3936986 1217.93139176 1184.63208008 1220.84326172 C1185.03426758 1221.61669922 1185.43645508 1222.39013672 1185.85083008 1223.18701172 C1187.83295975 1229.92625259 1185.09681805 1235.88125505 1182.00708008 1241.78076172 C1181.65025146 1242.47661377 1181.29342285 1243.17246582 1180.92578125 1243.8894043 C1176.87372372 1251.58876234 1171.85340871 1257.78145433 1165.63208008 1263.84326172 C1162.5876755 1266.9617394 1160.06611159 1269.64329224 1158.56958008 1273.78076172 C1158.77586844 1283.8888914 1165.97159256 1290.83802748 1172.49682617 1297.84594727 C1177.37080689 1303.14519415 1181.22207699 1308.59353056 1184.88208008 1314.78076172 C1186.01763555 1316.65595479 1187.15569955 1318.52963086 1188.29614258 1320.40185547 C1188.85849609 1321.32595215 1189.42084961 1322.25004883 1190.00024414 1323.20214844 C1192.33191819 1326.97594406 1194.77723619 1330.66569955 1197.25708008 1334.34326172 C1202.38370418 1341.96432747 1207.46413618 1349.61445863 1212.50946045 1357.28955078 C1213.37927088 1358.61154917 1214.25039519 1359.93268407 1215.12286377 1361.25292969 C1216.35184281 1363.11295521 1217.57645443 1364.97578476 1218.80004883 1366.83935547 C1219.51443115 1367.924021 1220.22881348 1369.00868652 1220.96484375 1370.1262207 C1225.22080994 1377.06203088 1224.41607787 1385.69927337 1222.94848633 1393.45654297 C1217.48985096 1413.8188384 1204.635027 1430.70604394 1186.67114258 1441.90966797 C1182.46680074 1443.83464441 1179.26267814 1442.43876226 1175.13989258 1440.93310547 C1173.26765181 1440.235656 1171.39659385 1439.53502476 1169.52661133 1438.83154297 C1161.06884125 1435.94380231 1150.21114594 1433.63845682 1141.69458008 1437.28076172 C1140.68395508 1437.79638672 1139.67333008 1438.31201172 1138.63208008 1438.84326172 C1137.64208008 1439.17326172 1136.65208008 1439.50326172 1135.63208008 1439.84326172 C1134.55024804 1441.5485252 1134.55024804 1441.5485252 1133.63208008 1443.84326172 C1132.55987104 1446.16177559 1131.47646402 1448.47282758 1130.38208008 1450.78076172 C1130.10750977 1451.38855469 1129.83293945 1451.99634766 1129.55004883 1452.62255859 C1126.02249144 1459.95449962 1119.98827183 1463.37775144 1113.19458008 1467.21826172 C1102.65415619 1473.39173709 1096.77969929 1479.66311778 1093.19458008 1491.46826172 C1090.72766161 1499.03780627 1086.13850739 1502.71447333 1079.36645508 1506.51123047 C1069.29691764 1511.41653371 1061.17791594 1511.38470709 1050.62817383 1507.83154297 C1041.64951478 1504.30797534 1030.57833718 1499.70766627 1024.63208008 1491.84326172 C1022.39802121 1486.43351585 1020.78035034 1480.95702681 1019.23583984 1475.31640625 C1013.20868256 1453.444909 1004.95242083 1438.08237989 985.50708008 1425.46435547 C973.77702311 1418.8417608 954.36025264 1418.34041226 941.54614258 1421.63720703 C937.44522972 1422.9663515 933.41703256 1424.45064117 929.38696289 1425.97949219 C919.98415489 1429.42056603 911.5236117 1429.68310874 901.63208008 1428.84326172 C902.23883982 1423.65883682 903.43003783 1418.88353764 905.00708008 1413.90576172 C907.21260765 1406.76596705 908.66677535 1399.71935367 909.76098633 1392.33154297 C911.03327941 1387.23666528 913.59852353 1383.95433501 917.13208008 1380.15576172 C923.69152892 1372.31638996 924.71233411 1361.13737379 926.125 1351.35375977 C926.44596736 1349.1462203 926.79075606 1346.94329783 927.13793945 1344.73974609 C927.35225426 1343.31222481 927.56519336 1341.88449616 927.77661133 1340.45654297 C928.06048706 1338.55062378 928.06048706 1338.55062378 928.35009766 1336.60620117 C928.72280155 1331.63262105 928.62169778 1326.9266674 926.44458008 1322.34326172 C924.65748933 1320.5897491 924.65748933 1320.5897491 921.81958008 1320.49951172 C917.84105674 1320.92856816 916.64711153 1322.06731044 913.81958008 1324.84326172 C912.95848633 1325.66052734 912.09739258 1326.47779297 911.21020508 1327.31982422 C910.35942383 1328.15255859 909.50864258 1328.98529297 908.63208008 1329.84326172 C907.12456852 1331.31536193 905.60440824 1332.7746646 904.06958008 1334.21826172 C903.10858398 1335.15798828 903.10858398 1335.15798828 902.12817383 1336.11669922 C894.70800354 1341.24927397 885.51869679 1341.68467615 876.80395508 1342.65966797 C866.3806282 1343.73369022 866.3806282 1343.73369022 857.63208008 1348.84326172 C857.10849037 1353.55556906 858.04071113 1355.95620829 860.63208008 1359.84326172 C860.63208008 1360.50326172 860.63208008 1361.16326172 860.63208008 1361.84326172 C858.65551758 1363.39404297 858.65551758 1363.39404297 856.00708008 1365.15576172 C849.18743513 1369.71243139 843.98277026 1374.26955819 839.06958008 1380.78076172 C838.15248415 1381.97804537 837.23452155 1383.17466569 836.31567383 1384.37060547 C835.87465332 1384.94665527 835.43363281 1385.52270508 834.97924805 1386.11621094 C832.9272477 1388.74684712 830.78423333 1391.29414711 828.63208008 1393.84326172 C826.14861607 1390.1180657 826.61326755 1387.64815166 827.00708008 1383.40576172 C827.11629456 1381.96063182 827.22304383 1380.51531361 827.32739258 1379.06982422 C827.38056641 1378.3547168 827.43374023 1377.63960937 827.48852539 1376.90283203 C828.34322883 1365.9163298 828.34322883 1365.9163298 824.63208008 1355.84326172 C819.96154912 1351.47513924 814.90277091 1350.08032093 808.90942383 1348.18701172 C805.60472613 1346.83204627 803.92047657 1345.53683564 801.63208008 1342.84326172 C802.27145508 1342.01826172 802.91083008 1341.19326172 803.56958008 1340.34326172 C806.79470613 1335.46540204 806.91527544 1330.89642812 806.13208008 1325.21826172 C803.62853717 1319.58529017 800.19713128 1316.87760821 794.50317383 1314.58154297 C791.56245034 1313.59204333 788.62022895 1312.67739195 785.63208008 1311.84326172 C787.66101737 1310.49063686 789.70321883 1309.15773292 791.75708008 1307.84326172 C794.67697247 1306.15252039 794.67697247 1306.15252039 795.63208008 1303.84326172 C796.73938349 1286.43578553 796.73938349 1286.43578553 791.81958008 1270.15576172 C789.28168804 1267.47284727 788.25053468 1267.12201674 784.63208008 1266.84326172 C782.36240638 1267.79331726 782.36240638 1267.79331726 780.25708008 1269.28076172 C776.17228442 1271.71671129 773.47065924 1272.58765851 768.63208008 1271.84326172 C765.04082035 1270.28111933 763.83157743 1269.24777017 762.07739258 1265.69091797 C761.62422061 1264.43383363 761.18473522 1263.1717542 760.75708008 1261.90576172 C756.17401396 1249.17808283 756.17401396 1249.17808283 747.63208008 1239.03076172 C743.7593511 1237.4978065 741.6102149 1237.6645551 737.63208008 1238.84326172 C733.82499074 1241.90500919 732.46960849 1245.11461725 730.81958008 1249.65576172 C730.57095215 1250.33429199 730.32232422 1251.01282227 730.06616211 1251.71191406 C727.44960588 1259.02111906 725.27180358 1266.47715018 723.16796875 1273.94799805 C721.62481514 1279.26157965 720.02062592 1283.44851013 716.63208008 1287.84326172 C712.844675 1287.46452121 710.52296185 1286.77977475 707.19458008 1284.84326172 C699.38906754 1280.73035704 688.9996227 1281.03147979 680.56176758 1282.97998047 C676.40748296 1284.83847622 674.07073252 1286.8928481 672.15551758 1291.04248047 C671.7765332 1292.19361328 671.39754883 1293.34474609 671.00708008 1294.53076172 C669.84301758 1298.04248047 669.84301758 1298.04248047 668.63208008 1300.84326172 C667.64208008 1301.17326172 666.65208008 1301.50326172 665.63208008 1301.84326172 C663.60205078 1300.79321289 663.60205078 1300.79321289 661.24536133 1299.19873047 C655.39021145 1295.52110691 649.33493736 1293.38588186 642.81958008 1291.15576172 C630.4338936 1286.74583483 619.07665378 1281.27191258 607.63208008 1274.84326172 C597.22403818 1269.00472176 587.06496775 1264.6334903 575.5637207 1261.23144531 C573.49851877 1260.61639098 571.44062409 1259.98018004 569.38208008 1259.34326172 C568.16004883 1258.98232422 566.93801758 1258.62138672 565.67895508 1258.24951172 C560.47964809 1255.84983157 559.43706095 1251.45059292 557.18554688 1246.42700195 C553.66739603 1238.76810875 549.50257966 1233.05608659 543.62719727 1227.05102539 C533.88881424 1217.07830375 526.75289669 1205.93352354 520.42260742 1193.54394531 C518.04007453 1188.97024399 516.07664738 1185.73462001 511.63208008 1182.84326172 C507.30210547 1184.19684618 505.46715761 1185.89103935 502.81958008 1189.53076172 C494.93625172 1199.71034714 485.91838007 1205.10353005 474.04223633 1209.88623047 C471.63208008 1209.84326172 471.63208008 1209.84326172 468.98364258 1207.52685547 C468.06025812 1206.45719727 467.1520622 1205.37429476 466.25708008 1204.28076172 C465.28160676 1203.16278532 464.30375662 1202.04687814 463.32348633 1200.93310547 C462.85700684 1200.39540527 462.39052734 1199.85770508 461.90991211 1199.30371094 C457.23735386 1193.82802428 457.23735386 1193.82802428 450.71411133 1191.44482422 C446.7567744 1190.85676684 444.77125867 1190.39384432 441.63208008 1187.84326172 C438.10340181 1179.49205649 437.4716452 1169.91380279 436.23925781 1161.00292969 C435.35604474 1155.58968825 434.4688456 1152.69633414 429.94458008 1149.21826172 C425.90123372 1145.92540699 422.54142819 1142.60566262 419.22973633 1138.58935547 C417.51462154 1136.57251921 417.51462154 1136.57251921 414.31958008 1134.65576172 C410.06510655 1130.2034057 410.13843306 1124.80600458 409.63208008 1118.84326172 C405.67208008 1118.84326172 401.71208008 1118.84326172 397.63208008 1118.84326172 C397.36395508 1119.97763672 397.09583008 1121.11201172 396.81958008 1122.28076172 C396.42770508 1123.45638672 396.03583008 1124.63201172 395.63208008 1125.84326172 C394.64208008 1126.17326172 393.65208008 1126.50326172 392.63208008 1126.84326172 C389.74608178 1124.61317212 389.21907152 1122.46554437 388.37036133 1119.01904297 C387.05984606 1115.15683661 384.90507454 1111.72106312 382.87426758 1108.19873047 C381.63208008 1105.84326172 381.63208008 1105.84326172 381.63208008 1103.84326172 C379.04785549 1103.95744839 376.46528495 1104.08418534 373.88208008 1104.21826172 C373.1524707 1104.24919922 372.42286133 1104.28013672 371.67114258 1104.31201172 C366.27475191 1104.47536928 366.27475191 1104.47536928 361.63208008 1106.84326172 C360.71608581 1109.2473091 360.71608581 1109.2473091 360.38208008 1111.96826172 C360.23254883 1112.87833984 360.08301758 1113.78841797 359.92895508 1114.72607422 C359.83098633 1115.42474609 359.73301758 1116.12341797 359.63208008 1116.84326172 C355.17708008 1118.32826172 355.17708008 1118.32826172 350.63208008 1119.84326172 C351.12438777 1113.3201848 351.12438777 1113.3201848 353.69458008 1110.90576172 C354.33395508 1110.55513672 354.97333008 1110.20451172 355.63208008 1109.84326172 C355.30208008 1107.86326172 354.97208008 1105.88326172 354.63208008 1103.84326172 C355.47770508 1103.36888672 356.32333008 1102.89451172 357.19458008 1102.40576172 C361.66529501 1099.47152161 364.53955945 1095.12521336 367.63208008 1090.84326172 C366.82770508 1090.20388672 366.02333008 1089.56451172 365.19458008 1088.90576172 C361.66399199 1086.06406887 361.66399199 1086.06406887 361.35083008 1083.8972168 C361.27864258 1083.06085693 361.20645508 1082.22449707 361.13208008 1081.36279297 C361.00833008 1079.98704102 361.00833008 1079.98704102 360.88208008 1078.58349609 C360.79958008 1077.61734375 360.71708008 1076.65119141 360.63208008 1075.65576172 C359.91077568 1067.21474068 359.91077568 1067.21474068 358.63208008 1058.84326172 C357.77936523 1058.76591797 357.77936523 1058.76591797 356.90942383 1058.68701172 C349.67319092 1057.62392575 346.95626774 1054.46795695 342.63208008 1048.84326172 C340.3671988 1046.52570878 338.13821681 1044.26921838 335.65942383 1042.18310547 C333.03528323 1039.15447307 332.08109165 1035.90055428 330.88208008 1032.15576172 C327.57744712 1022.77735042 323.35976343 1017.02188824 314.68408203 1011.83813477 C307.53565231 1007.49289278 304.96547261 1003.62432241 302.83642578 995.51489258 C302.39426156 993.63345511 302.01111306 991.73842665 301.63208008 989.84326172 C301.43098633 988.85841797 301.22989258 987.87357422 301.02270508 986.85888672 C300.89379883 986.19373047 300.76489258 985.52857422 300.63208008 984.84326172 C297.35969977 984.86604553 294.09082104 984.94331936 290.81958008 985.03076172 C289.89081055 985.0365625 288.96204102 985.04236328 288.00512695 985.04833984 C285.45153545 985.13130852 283.11862285 985.25117295 280.63208008 985.84326172 C278.6028663 988.20494686 278.6028663 988.20494686 277.63208008 990.84326172 C274.5368402 991.83110423 272.67254529 992.36878393 269.71118164 990.87304688 C267.41932973 989.73788584 265.84425962 989.53806941 263.30395508 989.42919922 C262.50473633 989.39052734 261.70551758 989.35185547 260.88208008 989.31201172 C260.05708008 989.28107422 259.23208008 989.25013672 258.38208008 989.21826172 C257.54161133 989.17958984 256.70114258 989.14091797 255.83520508 989.10107422 C253.76784626 989.00710336 251.69999381 988.92410608 249.63208008 988.84326172 C250.45417683 985.20011097 251.8661427 982.36110724 253.69458008 979.09326172 C254.51635742 977.61599609 254.51635742 977.61599609 255.35473633 976.10888672 C255.98702148 974.98740234 255.98702148 974.98740234 256.63208008 973.84326172 C255.56989258 973.85228516 254.50770508 973.86130859 253.41333008 973.87060547 C240.5628751 973.7111517 240.5628751 973.7111517 235.75708008 969.78076172 C232.30966496 966.12073069 231.32233426 962.76132277 230.63208008 957.84326172 C230.00043945 957.74271484 229.36879883 957.64216797 228.71801758 957.53857422 C228.0296582 957.30912109 227.34129883 957.07966797 226.63208008 956.84326172 C225.89953432 955.178385 225.17775403 953.507013 224.53833008 951.80419922 C222.92261978 948.30813641 220.1795034 945.69075747 217.63208008 942.84326172 C213.7425588 938.38327732 212.05880977 934.88414934 211.47973633 928.95654297 C211.63208008 926.84326172 211.63208008 926.84326172 212.55786133 924.99560547 C214.00978008 922.08648826 214.30752938 919.30433811 214.75708008 916.09326172 C214.9246582 914.92279297 215.09223633 913.75232422 215.26489258 912.54638672 C215.38606445 911.65435547 215.50723633 910.76232422 215.63208008 909.84326172 C209.09968181 909.31615177 202.5590236 908.78942769 196.00708008 908.59326172 C194.87399414 908.55458984 194.87399414 908.55458984 193.71801758 908.51513672 C191.04972431 908.93486824 189.7126188 910.17531928 187.63208008 911.84326172 C186.97208008 911.84326172 186.31208008 911.84326172 185.63208008 911.84326172 C185.04426758 910.66763672 185.04426758 910.66763672 184.44458008 909.46826172 C182.39382148 906.49819754 181.32764366 906.27729289 177.94067383 905.47607422 C172.5085458 903.98706451 167.32527672 901.9765038 162.63208008 898.84326172 C161.54127245 896.4997297 161.34251305 894.65260386 161.10473633 892.09326172 C160.31617176 888.33943369 158.04039157 886.53384818 155.12817383 884.19873047 C151.32216449 882.13193041 147.54844692 881.79693437 143.26879883 881.52294922 C140.63208008 880.84326172 140.63208008 880.84326172 139.04956055 878.73046875 C137.42890398 875.42942077 136.86446846 872.60246916 136.31567383 868.96826172 C136.16268578 867.99783936 136.16268578 867.99783936 136.00660706 867.0078125 C135.68408684 864.95438373 135.37579604 862.89917979 135.06958008 860.84326172 C134.75810638 858.78768005 134.44343307 856.73273485 134.12184143 854.67871094 C133.83084466 852.81540344 133.55038467 850.95045938 133.27050781 849.08544922 C132.3735955 844.53057523 131.18995524 841.11912757 127.94458008 837.78076172 C125.63208008 834.84326172 125.63208008 834.84326172 125.75708008 832.53076172 C126.63208008 830.84326172 126.63208008 830.84326172 127.63208008 829.84326172 C127.93120031 827.82642133 128.19597545 825.80444988 128.44458008 823.78076172 C129.29315359 817.96197191 130.69010085 813.89978851 133.63208008 808.84326172 C134.30717204 807.51417441 134.97597874 806.1818256 135.63208008 804.84326172 C134.05000511 803.09211004 132.46646778 801.34231893 130.88208008 799.59326172 C130.00036133 798.61873047 129.11864258 797.64419922 128.21020508 796.64013672 C127.35942383 795.71716797 126.50864258 794.79419922 125.63208008 793.84326172 C124.96176758 793.09044922 124.29145508 792.33763672 123.60083008 791.56201172 C121.33581593 789.58461842 119.81820777 789.1114019 116.88208008 788.59326172 C116.08286133 788.44373047 115.28364258 788.29419922 114.46020508 788.14013672 C113.85692383 788.04216797 113.25364258 787.94419922 112.63208008 787.84326172 C112.58438477 786.77462891 112.53668945 785.70599609 112.48754883 784.60498047 C111.4054093 779.84653132 109.95037014 779.25424787 105.94458008 776.65576172 C100.85259343 772.37744304 100.85259343 772.37744304 100.31176758 768.61474609 C100.39441171 763.37924038 101.30450356 758.24683699 102.23657227 753.10449219 C104.00364112 743.00165778 101.576356 735.17651928 97.63208008 725.84326172 C97.33301758 725.08271484 97.03395508 724.32216797 96.72583008 723.53857422 C94.95980397 719.72853642 92.90307144 718.26788276 89.19458008 716.65576172 C88.45336914 716.39408203 87.7121582 716.13240234 86.94848633 715.86279297 C78.81351823 712.28230954 76.96587731 705.59627854 73.63208008 697.84326172 C67.03208008 697.51326172 60.43208008 697.18326172 53.63208008 696.84326172 C52.64208008 700.80326172 51.65208008 704.76326172 50.63208008 708.84326172 C49.29145508 708.69888672 47.95083008 708.55451172 46.56958008 708.40576172 C43.63759382 708.40115891 42.09455432 708.52856031 39.65161133 710.19091797 C36.89753298 712.9571556 34.61250802 715.87023943 32.31958008 719.03076172 C28.71384204 722.8042085 24.73067118 724.73153885 19.63208008 725.84326172 C5.38019631 724.11114588 -13.51572428 716.54665808 -23.36791992 705.84326172 C-25.79209859 702.21221825 -28.36791992 698.32952031 -28.36791992 693.84326172 C-29.04854492 693.59576172 -29.72916992 693.34826172 -30.43041992 693.09326172 C-33.36791992 691.84326172 -33.36791992 691.84326172 -36.30541992 689.78076172 C-41.68636722 686.54979113 -48.2689862 687.01244157 -54.36791992 686.84326172 C-54.44268555 686.17166016 -54.51745117 685.50005859 -54.59448242 684.80810547 C-56.11735566 673.23725492 -59.26040649 662.07250348 -62.36791992 650.84326172 C-62.59511719 649.96484619 -62.82231445 649.08643066 -63.05639648 648.18139648 C-64.62036513 642.43681936 -66.75988558 637.97082051 -70.24291992 633.15576172 C-70.94952759 632.15416016 -70.94952759 632.15416016 -71.67041016 631.13232422 C-75.35801506 626.00801354 -79.32024311 621.13309672 -83.43041992 616.34326172 C-84.27032471 615.36353394 -84.27032471 615.36353394 -85.12719727 614.36401367 C-86.49342438 612.81404098 -87.92510194 611.32220328 -89.36791992 609.84326172 C-90.02791992 609.84326172 -90.68791992 609.84326172 -91.36791992 609.84326172 C-92.70376289 611.39102771 -92.70376289 611.39102771 -94.01245117 613.42138672 C-94.52485352 614.17033203 -95.03725586 614.91927734 -95.56518555 615.69091797 C-96.63112533 617.27629395 -97.69624704 618.86222032 -98.76049805 620.44873047 C-106.41774947 631.63347974 -115.80062066 635.05291896 -128.61791992 638.21826172 C-130.23053711 638.64558594 -130.23053711 638.64558594 -131.87573242 639.08154297 C-132.90956055 639.34064453 -133.94338867 639.59974609 -135.00854492 639.86669922 C-135.94214844 640.10308105 -136.87575195 640.33946289 -137.83764648 640.58300781 C-141.65907782 640.97606511 -143.49717815 639.53419448 -146.41088867 637.22216797 C-147.11858398 636.62275391 -147.8262793 636.02333984 -148.55541992 635.40576172 C-152.43316595 632.2971554 -155.78031498 630.90914744 -160.51245117 629.58154297 C-163.28611696 628.47791595 -163.94208342 626.38497027 -165.36791992 623.84326172 C-170.67245029 620.44464505 -176.86029272 618.43674004 -182.74291992 616.28076172 C-195.44987849 611.52020999 -207.9381234 606.28321588 -220.36791992 600.84326172 C-221.37081055 600.40691406 -222.37370117 599.97056641 -223.40698242 599.52099609 C-247.3959473 588.98184419 -259.29251791 573.70910079 -271.27954102 550.90576172 C-272.27507628 549.0192023 -273.29543997 547.1489167 -274.32495117 545.28076172 C-274.87538086 544.24951172 -275.42581055 543.21826172 -275.99291992 542.15576172 C-276.45956055 541.28564453 -276.92620117 540.41552734 -277.40698242 539.51904297 C-280.263294 531.56549243 -276.95033656 522.80473526 -275.05737305 514.91162109 C-273.59582402 508.40258163 -272.77300397 502.41620027 -274.36791992 495.84326172 C-276.60729824 492.78277802 -277.77808342 492.03987389 -281.36791992 490.84326172 C-296.7331689 489.6140418 -308.93124229 501.0412114 -320.36791992 509.84326172 C-332.84569945 502.99316834 -343.21073693 490.53830592 -351.05541992 478.90576172 C-359.56128287 466.30160603 -369.45930633 455.5715776 -381.03588867 445.69091797 C-386.66483241 440.81369546 -391.86820362 435.49192331 -397.12255859 430.21899414 C-398.92654077 428.40965239 -400.73580657 426.60571853 -402.5456543 424.80224609 C-408.36883646 418.98227012 -414.02420341 413.11157614 -419.36791992 406.84326172 C-426.21776239 399.40661232 -433.06881131 392.65012288 -443.36791992 390.84326172 C-450.85155016 390.60568616 -456.24883024 393.49521611 -462.69580078 396.95996094 C-476.3757854 404.28333608 -494.88735399 401.97065381 -510.09875488 402.12936401 C-511.50291239 402.14665118 -512.9070065 402.1707459 -514.31091309 402.2024231 C-524.84523848 402.42770631 -539.00742793 402.62356886 -547.26196289 395.26245117 C-547.95692871 394.46411865 -548.65189453 393.66578613 -549.36791992 392.84326172 C-549.69791992 392.51326172 -550.02791992 392.18326172 -550.36791992 391.84326172 C-551.33560544 383.79764782 -550.06485805 376.90185753 -547.86791992 369.21826172 C-542.8046 351.30542368 -548.15804537 341.81907296 -556.86791992 326.09326172 C-557.20098145 325.49900391 -557.53404297 324.90474609 -557.87719727 324.29248047 C-564.16707193 313.04239777 -570.4473516 301.28068241 -567.55541992 288.15576172 C-561.3987287 273.39110406 -543.85734752 263.26099952 -531.3527832 254.40576172 C-523.89487472 249.11400687 -516.91705554 243.84673874 -511.02416992 236.80029297 C-509.31227323 234.77750938 -507.53237843 232.86338027 -505.68041992 230.96826172 C-505.14030273 230.41396484 -504.60018555 229.85966797 -504.04370117 229.28857422 C-500.45772868 226.19577743 -497.86564097 225.64209127 -493.18041992 225.90576172 C-486.4696499 226.02223703 -481.38958218 224.52196297 -475.55541992 221.28076172 C-467.20291975 211.97369009 -468.85267293 199.52706091 -469.36791992 187.84326172 C-469.59700503 183.73560701 -469.83372412 179.62783353 -470.18701172 175.52880859 C-470.47253849 171.72886778 -470.55779212 169.06120369 -468.36791992 165.84326172 C-467.53389648 166.05982422 -466.69987305 166.27638672 -465.84057617 166.49951172 C-455.64567442 169.02196164 -448.3034609 170.7190052 -438.84448242 165.43310547 C-429.34489355 159.33478895 -424.42920839 151.64316526 -419.36791992 141.84326172 C-418.14494832 139.48571088 -416.91488134 137.13237074 -415.68041992 134.78076172 C-415.16092773 133.75853516 -414.64143555 132.73630859 -414.10620117 131.68310547 C-412.19252115 128.55671137 -410.05309492 126.32673343 -407.36791992 123.84326172 C-406.82651367 123.33021484 -406.28510742 122.81716797 -405.72729492 122.28857422 C-393.55655902 112.30384428 -375.71820597 107.4558658 -360.265625 108.00976562 C-350.67206589 108.31961521 -342.29730559 107.20691179 -333.03515625 104.77319336 C-320.90765163 101.60354323 -308.87689564 100.69576149 -296.36791992 100.53076172 C-295.09561523 100.50405396 -295.09561523 100.50405396 -293.79760742 100.47680664 C-284.20653083 100.48902098 -276.46906364 103.23843643 -268.55541992 108.53076172 C-267.16882414 109.42418177 -265.78210367 110.31740831 -264.39526367 111.21044922 C-263.0525868 112.08770306 -261.71012923 112.96529267 -260.36791992 113.84326172 C-248.2405416 121.708422 -237.13701879 127.9840205 -222.43041992 128.09326172 C-221.74012695 128.11388672 -221.04983398 128.13451172 -220.33862305 128.15576172 C-215.58186099 128.19183195 -212.40064786 127.35090719 -208.36791992 124.84326172 C-206.10322257 122.1256249 -205.43714315 120.26725402 -204.86791992 116.78076172 C-205.60526273 110.97418708 -207.88361687 106.10696459 -210.36791992 100.84326172 C-210.94413086 99.59222656 -210.94413086 99.59222656 -211.53198242 98.31591797 C-216.15578905 89.1154864 -223.91224782 84.40761366 -232.31713867 78.88623047 C-235.28830262 76.89657778 -238.19621394 74.86573402 -241.05541992 72.71826172 C-241.86366211 72.11755859 -242.6719043 71.51685547 -243.50463867 70.89794922 C-246.07124188 68.06769075 -246.51385228 66.68310699 -246.36791992 62.84326172 C-244.8115295 59.75034156 -242.78333574 57.08451969 -240.68041992 54.34326172 C-239.59268234 52.87488049 -238.50543346 51.40613711 -237.41870117 49.93701172 C-236.89332764 49.24196533 -236.3679541 48.54691895 -235.82666016 47.83081055 C-234.52365091 46.05544682 -233.3390755 44.25252354 -232.17260742 42.38623047 C-230.36791992 39.84326172 -230.36791992 39.84326172 -227.18041992 38.65576172 C-219.14071563 39.05115701 -212.31069184 45.15219037 -205.99291992 49.78076172 C-201.23000108 53.23227319 -196.61088404 56.38582521 -191.30541992 58.96826172 C-185.38096401 62.03325173 -182.21336245 66.52347956 -178.36791992 71.84326172 C-176.7992475 73.83406858 -175.21580915 75.81332807 -173.61791992 77.78076172 C-172.90120117 78.67666016 -172.18448242 79.57255859 -171.44604492 80.49560547 C-168.32631272 84.01996459 -166.52532983 85.68081822 -161.80541992 86.34326172 C-158.32008878 86.22706686 -158.32008878 86.22706686 -156.74291992 83.89404297 C-154.59472577 79.1277372 -154.24574226 74.21205968 -153.6394043 69.05615234 C-152.71850927 62.21755315 -150.96753121 56.37621631 -145.93041992 51.46826172 C-140.84022441 48.24033286 -135.98725075 47.36957151 -130.05541992 46.78076172 C-129.26723877 46.69624756 -128.47905762 46.6117334 -127.66699219 46.5246582 C-123.0620617 46.0495573 -118.46924696 45.71867115 -113.84545898 45.50317383 C-104.08424163 45.03707453 -96.90469836 44.33721685 -90.10620117 36.92919922 C-88.18564264 34.62452898 -86.33799661 32.27124465 -84.49291992 29.90576172 C-78.83418367 22.7146791 -72.53032907 17.01130043 -64.36791992 12.84326172 C-63.98313477 13.64376953 -63.98313477 13.64376953 -63.59057617 14.46044922 C-55.81897116 29.58498692 -42.6278891 39.07550359 -27.00073242 45.09716797 C-23.18307077 46.17902758 -21.10651119 46.19551814 -17.36791992 44.84326172 C-15.12206027 42.55532507 -14.41531883 41.24840956 -14.03979492 38.03857422 C-14.06557617 37.02537109 -14.09135742 36.01216797 -14.11791992 34.96826172 C-14.13338867 33.96021484 -14.14885742 32.95216797 -14.16479492 31.91357422 C-14.316021 28.84768883 -14.316021 28.84768883 -14.86791992 25.87060547 C-15.40186006 22.63776479 -15.57151491 19.55618236 -15.61791992 16.28076172 C-15.64370117 15.18634766 -15.66948242 14.09193359 -15.69604492 12.96435547 C-15.18256115 8.08014675 -12.99323487 5.52813048 -9.74291992 1.96826172 C-5.9560063 -0.4160913 -4.29877229 -0.89934041 0 0 Z " fill="#000000" transform="translate(568.367919921875,0.15673828125)"/>
</svg>
