<?xml version="1.0" standalone="no"?>
<!DOCTYPE svg PUBLIC "-//W3C//DTD SVG 20010904//EN"
 "http://www.w3.org/TR/2001/REC-SVG-20010904/DTD/svg10.dtd">
<svg version="1.0" xmlns="http://www.w3.org/2000/svg"
 width="2449.000000pt" height="1775.000000pt" viewBox="0 0 2449.000000 1775.000000"
 preserveAspectRatio="xMidYMid meet">

<g transform="translate(0.000000,1775.000000) scale(0.100000,-0.100000)"
fill="#000000" stroke="none">
<path d="M12224 17740 c-45 -10 -108 -57 -199 -149 -94 -95 -137 -116 -279
-131 -52 -6 -145 -24 -207 -40 -63 -17 -145 -37 -184 -46 -38 -9 -76 -18 -83
-20 -10 -3 -11 -16 -7 -48 17 -109 -55 -160 -250 -176 -181 -15 -195 -20 -298
-124 -79 -79 -117 -99 -255 -131 l-110 -26 -4 -71 c-3 -64 -7 -73 -36 -99 -33
-30 -79 -38 -98 -19 -7 7 -53 -11 -145 -58 -74 -38 -167 -80 -207 -93 l-72
-23 -53 23 c-121 53 -163 47 -248 -38 -66 -66 -109 -144 -109 -198 -1 -72 -17
-116 -55 -150 -43 -37 -79 -52 -345 -138 -113 -36 -233 -79 -268 -95 -56 -26
-65 -35 -84 -77 -38 -87 -85 -150 -130 -176 -25 -14 -103 -39 -183 -57 -201
-45 -189 -35 -196 -155 -8 -133 -41 -220 -109 -293 -28 -30 -50 -59 -50 -66 0
-23 -70 -94 -113 -115 -32 -15 -84 -24 -207 -36 -256 -23 -341 -52 -359 -123
-5 -20 -16 -78 -24 -128 -19 -116 -58 -199 -136 -287 -56 -62 -61 -72 -61
-113 0 -31 14 -80 42 -147 40 -100 41 -106 48 -252 9 -213 8 -212 247 -354
263 -158 360 -227 483 -346 130 -126 140 -130 300 -139 52 -3 130 -12 173 -21
115 -22 145 -20 197 16 75 51 139 80 189 86 57 7 174 -11 249 -37 31 -11 59
-17 63 -12 4 4 26 50 49 102 23 52 55 118 71 146 29 51 99 124 119 124 6 0 29
14 52 30 60 43 92 40 144 -15 54 -56 64 -93 62 -236 0 -63 5 -140 11 -171 13
-61 22 -71 105 -120 52 -31 86 -79 86 -123 0 -39 -33 -92 -70 -113 -16 -9 -30
-20 -30 -24 0 -3 16 -39 35 -79 49 -102 48 -140 -7 -192 -54 -51 -138 -90
-209 -95 -50 -4 -64 0 -148 43 -51 25 -105 47 -120 47 -14 0 -75 -21 -136 -47
-60 -26 -150 -61 -200 -78 -86 -30 -96 -32 -215 -28 -248 8 -293 6 -326 -11
-59 -32 -120 -154 -131 -264 -5 -43 -2 -57 22 -92 66 -100 41 -208 -62 -260
-32 -17 -33 -19 -16 -34 10 -9 56 -26 103 -37 117 -29 183 -64 251 -132 64
-64 120 -168 138 -257 15 -71 14 -479 0 -523 -16 -47 -56 -87 -98 -99 -92 -25
-335 0 -436 45 -27 13 -77 43 -110 68 -96 73 -103 41 -16 -81 79 -111 82 -125
46 -307 -8 -38 -16 -98 -18 -133 l-3 -63 40 -21 c72 -36 136 -89 156 -129 28
-54 25 -126 -10 -271 -16 -67 -30 -136 -30 -153 0 -52 -25 -132 -55 -175 -31
-44 -98 -90 -132 -90 -29 0 -71 52 -79 98 -11 64 -20 72 -72 72 -74 0 -121 18
-172 66 -54 50 -94 120 -109 186 -8 35 -7 67 4 130 8 46 15 96 15 111 0 37
-13 29 -115 -66 -105 -97 -137 -144 -146 -214 -12 -89 -82 -143 -166 -130 -53
9 -75 28 -138 117 -89 128 -113 134 -389 100 -181 -23 -268 -25 -331 -9 -67
17 -79 37 -84 135 -3 92 -9 100 -66 104 -58 4 -76 0 -100 -25 -30 -29 -33 -82
-10 -231 18 -119 12 -170 -27 -245 -53 -101 -265 -298 -377 -350 -47 -23 -50
-26 -51 -62 0 -67 -25 -103 -182 -260 -163 -164 -183 -177 -250 -156 -18 6
-86 36 -151 67 -92 44 -120 53 -129 44 -8 -8 -15 -57 -18 -125 -8 -154 -40
-210 -120 -210 -41 0 -79 23 -147 86 -31 29 -34 30 -71 19 -51 -16 -104 -15
-124 1 -27 21 -81 108 -133 212 -53 107 -56 110 -160 147 -65 23 -115 65 -115
96 0 34 44 86 93 111 27 13 88 29 144 37 140 21 156 28 218 97 76 84 99 97
165 97 111 -1 227 -62 263 -138 17 -36 28 -48 48 -50 14 -2 31 3 37 11 19 22
74 161 73 183 0 12 -23 88 -51 170 -86 256 -68 315 132 431 43 25 78 48 78 52
0 3 -42 29 -93 56 -123 67 -190 133 -207 204 -23 96 2 255 48 304 29 31 62 34
115 12 50 -21 167 -20 211 2 28 13 44 33 76 94 22 42 40 83 40 91 0 7 -31 54
-69 105 -117 157 -115 152 -119 411 l-4 224 -36 -7 c-19 -4 -49 -17 -66 -30
-87 -64 -158 -83 -253 -65 l-66 13 -21 -29 c-11 -16 -39 -48 -62 -71 -37 -39
-46 -43 -88 -43 -26 0 -78 7 -116 16 l-70 16 -57 -45 c-158 -121 -196 -119
-346 19 -80 74 -134 90 -277 79 -141 -11 -165 -10 -203 12 -71 42 -121 171
-122 313 0 107 17 135 111 181 113 56 182 50 248 -20 17 -17 34 -31 40 -31 18
0 96 33 96 40 0 4 -17 11 -37 15 -60 11 -113 38 -176 90 -74 62 -92 94 -77
140 8 24 26 43 62 65 45 28 55 31 103 25 49 -6 55 -5 69 16 15 25 36 129 36
188 l0 33 -42 -5 c-24 -3 -121 -16 -216 -29 l-174 -22 -58 -81 c-69 -97 -112
-171 -139 -246 -24 -63 -78 -132 -123 -155 -39 -20 -314 -65 -347 -57 -45 11
-87 42 -120 88 -35 48 -137 132 -148 121 -3 -3 -6 -19 -6 -36 0 -22 17 -49 78
-115 80 -89 85 -93 170 -148 42 -27 53 -40 68 -85 22 -68 12 -110 -48 -201
-84 -127 -75 -121 -208 -136 -114 -14 -191 -38 -228 -71 -10 -9 -25 -49 -34
-90 -12 -55 -27 -88 -59 -131 -23 -32 -45 -66 -48 -75 -9 -24 41 -96 144 -205
75 -80 88 -98 93 -138 13 -83 -30 -198 -113 -307 -29 -37 -52 -73 -52 -80 0
-24 71 -119 103 -138 18 -11 60 -29 95 -41 75 -25 86 -42 78 -118 -20 -181
-20 -194 7 -246 14 -28 56 -85 94 -128 112 -130 108 -122 107 -185 -3 -100
-40 -217 -115 -359 -98 -186 -97 -194 24 -338 111 -132 123 -195 55 -297 -71
-108 -77 -130 -63 -239 9 -65 -3 -94 -62 -153 -47 -47 -91 -76 -164 -105 -65
-26 -115 -71 -136 -120 -29 -69 -77 -89 -297 -121 -154 -22 -198 -39 -292
-105 -86 -62 -113 -99 -125 -175 -5 -34 -19 -80 -30 -102 -11 -22 -18 -42 -16
-45 14 -13 132 -32 201 -33 109 0 149 -14 199 -70 62 -69 137 -218 143 -283
10 -98 -39 -136 -252 -198 -60 -17 -130 -40 -157 -50 -26 -10 -72 -19 -101
-19 -77 0 -137 -22 -274 -99 -129 -73 -216 -111 -256 -111 -31 0 -36 -16 -36
-104 0 -65 3 -77 30 -115 17 -23 71 -71 119 -107 55 -40 95 -77 104 -97 43
-92 27 -199 -59 -376 -34 -71 -62 -147 -73 -200 -26 -119 -55 -191 -96 -238
-19 -22 -44 -66 -55 -96 -39 -103 -97 -118 -269 -71 -53 14 -104 23 -118 19
-56 -14 -111 -105 -123 -203 -6 -42 -17 -77 -34 -103 -20 -29 -24 -44 -17 -57
5 -9 48 -54 95 -100 92 -88 132 -153 143 -227 8 -60 -17 -124 -66 -168 -95
-86 -212 -73 -349 40 -65 52 -93 60 -146 42 -39 -13 -41 -16 -38 -49 5 -59 52
-260 83 -355 17 -54 53 -130 89 -189 114 -189 124 -249 91 -521 -29 -234 -31
-218 29 -244 58 -25 106 -29 138 -12 12 6 50 33 85 59 78 59 125 73 244 69
l92 -2 39 38 c23 22 66 89 103 160 76 146 149 229 217 247 51 13 77 7 108 -29
39 -44 54 -109 64 -277 5 -88 10 -160 10 -161 0 -2 17 -3 38 -3 78 -1 177 -72
223 -162 37 -72 36 -144 -5 -300 -22 -86 -36 -161 -36 -199 0 -58 2 -64 38
-98 27 -27 63 -46 130 -70 129 -46 172 -79 257 -196 71 -99 72 -100 117 -103
33 -2 82 9 170 37 153 50 219 58 315 37 141 -29 184 -59 346 -231 148 -158
179 -205 191 -285 3 -25 18 -107 33 -184 l27 -138 58 4 c56 4 61 7 112 60 85
90 149 97 441 47 102 -17 236 -33 310 -36 144 -5 144 -5 272 77 61 38 129 49
189 30 22 -7 97 -39 167 -72 146 -69 142 -69 357 -28 161 30 383 37 474 16
147 -35 263 -129 330 -269 67 -138 90 -287 85 -532 -4 -135 -2 -154 11 -149
161 68 286 56 490 -46 44 -22 82 -40 85 -40 3 0 5 15 5 34 0 45 33 149 68 211
41 75 79 90 319 125 111 16 215 35 231 42 l31 13 -30 70 c-58 133 -73 268 -48
412 15 83 40 113 116 137 66 21 100 42 161 100 l42 40 0 96 c1 55 6 104 13
116 7 12 36 43 65 69 29 26 74 77 100 114 25 36 81 109 123 161 41 52 104 134
138 183 73 102 127 139 231 158 81 14 154 5 464 -56 219 -43 384 -61 420 -47
15 7 19 21 20 83 5 162 105 259 269 259 116 0 306 -60 509 -160 143 -71 157
-95 169 -289 7 -119 12 -149 43 -236 40 -110 46 -186 20 -223 -8 -12 -34 -32
-57 -44 -23 -11 -58 -34 -78 -50 -31 -25 -53 -32 -138 -44 -56 -8 -118 -21
-138 -29 l-36 -15 37 -43 c20 -23 56 -67 79 -97 74 -97 129 -147 172 -159 61
-16 121 2 195 59 41 31 98 55 156 64 26 5 115 -4 255 -25 141 -21 256 -32 339
-33 l125 -1 116 52 c64 29 159 68 211 87 196 71 194 69 401 300 92 102 166
139 284 145 101 4 179 -9 331 -55 191 -58 284 -107 389 -207 100 -95 175 -138
280 -163 95 -22 265 -14 403 20 179 45 167 37 175 109 21 194 70 331 144 400
26 24 65 50 87 58 46 16 180 16 274 0 36 -6 119 -14 185 -17 163 -7 170 -3
171 96 1 108 1 109 35 141 62 58 136 36 366 -104 148 -91 190 -110 336 -152
120 -34 169 -61 257 -140 88 -79 79 -79 254 -1 156 69 178 76 243 76 58 0 101
-18 187 -77 92 -63 173 -83 340 -85 100 0 151 15 244 72 140 86 635 200 881
203 161 2 170 -1 368 -109 181 -99 184 -100 246 -179 115 -146 163 -176 315
-198 134 -19 185 -48 224 -127 55 -111 59 -302 12 -545 l-6 -30 26 24 c14 14
38 45 52 69 l27 45 -7 166 c-10 237 -8 247 85 403 44 73 84 148 89 167 19 67
12 137 -22 223 -69 180 -62 207 76 301 68 46 136 105 136 118 0 5 -11 9 -24 9
-83 0 -166 83 -166 167 0 63 58 134 132 162 45 17 58 50 74 187 18 156 36 215
78 258 32 32 92 56 137 56 14 0 54 -8 90 -18 78 -22 97 -17 135 34 26 34 29
46 34 145 5 89 9 113 27 136 20 27 23 28 99 25 l79 -3 65 115 65 116 67 0 c37
0 79 5 95 11 56 21 56 48 2 160 -92 188 -109 267 -66 306 30 28 72 32 219 24
143 -9 170 -20 194 -77 11 -27 27 -41 67 -59 65 -31 147 -50 179 -42 32 8 58
65 68 145 5 37 16 72 26 83 10 11 55 31 101 45 108 34 189 31 231 -8 50 -48
79 -42 128 29 43 63 102 105 181 130 l53 17 0 47 c0 55 36 162 74 219 14 22
45 52 69 67 38 25 54 28 167 34 129 6 212 28 261 68 22 17 22 18 -87 103 -154
121 -236 215 -270 310 -37 104 20 162 182 188 96 16 163 38 201 67 l33 24 -27
40 c-36 54 -38 128 -5 161 20 21 31 23 101 21 62 -2 93 2 149 22 90 32 196 33
342 5 114 -23 153 -20 175 13 8 12 23 76 35 141 26 147 52 204 137 298 37 40
78 85 92 100 l24 28 -59 62 c-77 81 -97 116 -123 213 -33 121 -38 122 -201 40
-115 -58 -155 -72 -234 -85 -76 -12 -140 3 -168 40 -10 14 -29 78 -43 142 -42
203 -73 249 -225 333 -47 25 -99 57 -117 71 -17 13 -45 24 -62 24 -53 0 -152
-48 -251 -120 -95 -70 -138 -90 -196 -90 -103 0 -204 86 -204 174 0 66 38 115
159 205 167 124 186 160 150 294 -28 105 -36 121 -115 218 l-66 80 -14 142
c-7 78 -14 158 -14 177 l0 35 91 -90 c100 -99 155 -171 219 -285 24 -41 44
-76 45 -78 2 -2 29 4 60 13 41 12 75 15 119 11 41 -4 69 -2 86 7 42 21 69 84
79 185 10 97 26 132 67 150 64 30 120 6 227 -96 97 -93 154 -125 254 -141 48
-7 124 -34 230 -80 87 -37 195 -82 240 -100 l83 -31 55 45 c70 57 116 80 193
98 81 19 110 39 118 81 10 54 36 71 108 70 76 -2 155 -31 227 -85 60 -44 142
-93 175 -103 17 -5 35 11 103 91 46 54 94 117 108 141 l26 43 -19 42 c-28 62
-58 92 -148 152 -79 52 -301 241 -381 324 l-39 41 129 1 c72 0 213 8 315 17
l185 17 29 54 29 55 -54 50 c-30 27 -95 82 -144 121 -151 121 -176 158 -202
305 -19 106 -13 200 17 265 12 28 28 81 36 119 17 85 44 117 123 146 73 27
232 102 227 107 -2 3 -61 8 -130 13 -140 10 -177 23 -202 73 -22 41 -28 137
-16 257 7 70 6 105 -3 135 -7 22 -15 52 -19 66 -8 36 11 134 35 181 18 35 18
41 4 61 -8 12 -15 41 -15 66 0 55 28 95 105 146 64 42 68 35 -45 97 -36 20
-103 64 -150 97 -47 34 -88 61 -92 61 -4 0 -19 -22 -32 -49 -36 -71 -77 -101
-135 -101 -60 0 -111 32 -205 128 -64 65 -70 69 -96 60 -15 -5 -38 -20 -51
-34 -20 -22 -24 -38 -30 -148 -8 -133 -17 -158 -61 -177 -53 -22 -110 11 -230
133 -104 106 -143 133 -172 122 -8 -3 -23 -1 -32 4 -9 5 -65 101 -123 213
-124 239 -98 221 -316 212 l-140 -5 -44 33 c-24 19 -60 45 -81 59 -74 50 -123
96 -218 204 -109 123 -139 142 -247 151 -124 11 -192 37 -266 102 -37 32 -95
75 -130 96 -56 33 -71 37 -130 37 -110 0 -165 28 -200 105 -26 56 -24 90 11
163 29 62 29 63 7 56 -26 -8 -68 -37 -87 -59 -18 -21 -100 -63 -159 -81 -25
-8 -79 -14 -119 -14 -82 0 -127 18 -202 79 -25 21 -58 46 -74 56 l-29 19 -27
-32 c-43 -52 -56 -103 -42 -169 14 -68 1 -106 -51 -146 -54 -41 -54 -56 -3
-144 49 -83 57 -124 31 -172 -44 -85 -341 -118 -568 -62 -79 20 -112 22 -300
20 -234 -2 -251 1 -328 62 -57 45 -83 100 -83 175 0 55 7 75 71 205 104 214
101 202 68 249 -15 22 -33 40 -40 40 -7 0 -34 -17 -61 -37 -32 -25 -85 -50
-154 -73 -69 -23 -106 -40 -108 -51 -1 -9 13 -38 33 -65 98 -137 85 -177 -66
-203 -104 -18 -143 -15 -178 14 -41 35 -55 84 -48 167 3 37 4 68 2 68 -7 0
-150 -31 -167 -36 -11 -3 -18 -15 -18 -29 0 -13 -11 -47 -25 -77 -14 -31 -25
-71 -25 -97 0 -38 -5 -49 -42 -86 -56 -55 -102 -65 -164 -35 -38 19 -49 32
-77 89 l-32 68 -62 -28 c-120 -54 -203 -79 -259 -79 -48 0 -60 4 -85 29 -24
25 -29 38 -29 78 0 73 26 137 80 196 73 80 84 109 83 203 -2 139 -63 335 -142
456 -26 40 -62 101 -80 135 -31 58 -36 62 -80 72 -26 5 -57 8 -69 5 -19 -5
-20 -11 -15 -54 5 -40 2 -51 -16 -69 -30 -30 -120 -30 -168 0 -30 19 -45 21
-108 16 -79 -6 -166 -42 -185 -76 -5 -11 -10 -35 -10 -54 0 -45 -51 -122 -108
-162 -41 -28 -50 -30 -130 -29 -48 0 -100 4 -116 8 l-29 7 9 -113 c5 -62 9
-154 9 -203 0 -113 -12 -135 -92 -166 -53 -21 -75 -23 -238 -23 -223 -1 -299
14 -431 85 -50 27 -101 49 -113 49 -16 0 -27 -13 -45 -52 -27 -60 -81 -116
-144 -149 -38 -19 -48 -20 -80 -11 -33 11 -39 9 -63 -14 -15 -15 -33 -40 -40
-56 -11 -28 -15 -30 -52 -24 -80 13 -147 72 -168 148 -23 88 6 225 57 269 31
25 155 96 203 115 l43 17 -53 34 c-79 50 -165 93 -188 93 -12 0 -26 -11 -35
-27 -20 -39 -51 -64 -131 -107 -98 -53 -105 -61 -92 -96 31 -83 -69 -152 -222
-154 l-64 -1 -14 -40 c-25 -74 -79 -107 -137 -85 -31 11 -71 89 -63 122 4 15
2 18 -11 12 -130 -55 -152 -38 -227 164 -24 65 -50 135 -59 156 l-16 37 -82
-71 c-144 -125 -223 -156 -302 -121 -51 22 -66 44 -66 96 0 37 16 60 73 100
l28 21 -42 79 c-22 44 -53 101 -66 128 -38 71 -43 167 -11 227 34 62 88 88
212 102 l97 12 -7 45 c-4 27 -19 61 -39 86 -17 23 -42 70 -55 104 -26 71 -39
80 -75 57 -22 -15 -25 -23 -25 -82 0 -95 -19 -123 -100 -148 l-45 -13 3 -100
c3 -85 1 -107 -18 -150 -48 -113 -144 -153 -288 -122 -64 13 -117 58 -179 152
-27 40 -53 74 -58 76 -6 2 -30 -42 -55 -100 -50 -113 -84 -149 -144 -149 -17
0 -36 -4 -42 -8 -22 -14 -137 -203 -128 -211 5 -4 43 -20 84 -35 128 -47 193
-90 325 -217 l124 -121 -5 -66 c-3 -37 -14 -121 -25 -187 -31 -199 -27 -216
77 -316 124 -119 206 -211 225 -253 23 -51 24 -108 3 -171 -13 -36 -15 -67
-11 -124 7 -78 40 -216 58 -238 6 -6 35 -17 65 -23 45 -10 57 -9 76 4 50 35
129 6 184 -67 51 -68 57 -101 49 -263 -7 -141 -6 -145 18 -192 34 -65 40 -101
28 -169 -21 -111 -90 -303 -145 -402 -30 -53 -66 -127 -79 -163 -24 -66 -125
-248 -138 -248 -4 0 -14 11 -23 25 -28 43 -139 156 -167 171 -40 20 -79 17
-134 -11 l-49 -24 -45 34 c-85 62 -197 189 -288 326 -50 74 -105 147 -122 162
-28 23 -34 24 -68 15 -60 -16 -92 -45 -122 -112 -37 -83 -114 -198 -157 -235
-35 -32 -71 -39 -103 -21 -40 21 -70 132 -87 323 -7 87 -4 81 -130 222 -123
138 -210 253 -245 323 -28 57 -34 78 -34 137 0 65 4 79 58 189 65 135 66 156
8 156 -77 0 -104 69 -136 340 -5 45 -11 56 -68 138 -30 43 -44 104 -33 146 12
48 67 97 159 142 99 49 206 130 263 202 21 26 55 66 77 90 61 69 69 96 68 255
-1 76 4 166 11 198 l12 58 -52 103 c-55 107 -85 207 -97 318 -5 53 -3 76 13
120 41 112 190 428 230 487 77 113 201 203 279 203 21 0 74 -12 118 -26 130
-42 178 -45 260 -19 93 30 270 109 319 143 57 39 140 138 132 157 -3 9 -35 29
-71 45 -109 49 -128 111 -72 230 33 69 96 134 151 155 23 9 78 22 122 29 l79
12 0 116 0 116 58 115 c39 78 77 136 116 179 94 102 97 115 50 223 -39 89 -47
157 -25 209 14 34 58 106 191 314 22 35 46 56 93 80 62 33 100 74 161 175 20
32 23 48 18 96 -5 63 -67 196 -162 350 -76 124 -92 159 -104 231 -29 165 -31
171 -75 214 -85 84 -351 249 -462 286 -45 15 -80 37 -130 81 -37 32 -70 59
-74 59 -4 0 -36 23 -70 50 -55 44 -68 50 -109 50 -65 0 -120 -17 -161 -49 -87
-69 -126 -67 -245 13 -92 61 -261 149 -315 163 -19 5 -49 6 -66 3z"/>
</g>
</svg>
