<?xml version="1.0" standalone="no"?>
<!DOCTYPE svg PUBLIC "-//W3C//DTD SVG 20010904//EN"
 "http://www.w3.org/TR/2001/REC-SVG-20010904/DTD/svg10.dtd">
<svg version="1.0" xmlns="http://www.w3.org/2000/svg"
 width="2392.000000pt" height="1887.000000pt" viewBox="0 0 2392.000000 1887.000000"
 preserveAspectRatio="xMidYMid meet">

<g transform="translate(0.000000,1887.000000) scale(0.100000,-0.100000)"
fill="#000000" stroke="none">
<path d="M5712 18836 c-22 -20 -63 -81 -96 -143 -135 -248 -190 -290 -364
-278 -96 7 -82 13 -208 -80 -68 -50 -69 -50 -144 -50 -65 0 -85 5 -140 32
l-64 31 -37 -19 c-28 -14 -59 -19 -112 -19 l-74 0 -12 -54 c-23 -104 -71 -146
-189 -168 l-59 -11 12 -55 c10 -43 22 -63 55 -93 39 -36 42 -41 37 -81 -14
-127 -29 -226 -39 -251 -15 -38 -57 -66 -112 -73 -25 -4 -59 -15 -77 -26 -32
-19 -32 -19 -26 -86 7 -86 25 -165 41 -187 9 -12 31 -20 67 -23 43 -3 66 1
114 23 120 54 136 57 265 59 69 2 163 6 210 11 68 6 103 4 167 -10 l81 -18 84
46 c157 85 277 100 339 41 52 -49 69 -97 69 -203 0 -111 -17 -150 -78 -174
-37 -15 -214 -39 -387 -52 -163 -13 -336 -66 -407 -125 -33 -27 -42 -45 -73
-148 l-37 -117 -102 -102 c-145 -145 -210 -172 -322 -138 -27 8 -50 15 -50 15
-1 0 -4 -35 -8 -77 -8 -91 -33 -154 -71 -179 -18 -12 -60 -20 -133 -26 -59 -4
-144 -19 -190 -31 l-83 -23 78 -24 c43 -13 117 -39 165 -58 102 -40 128 -65
208 -197 49 -83 88 -135 205 -272 51 -61 60 -90 73 -235 14 -163 6 -194 -104
-418 -87 -176 -97 -202 -104 -272 -10 -88 -27 -124 -76 -157 -48 -33 -187 -78
-282 -91 -75 -10 -91 -9 -185 14 -56 13 -141 31 -189 40 -183 32 -283 127
-303 288 -6 51 -10 57 -34 63 -72 16 -203 -43 -227 -102 -22 -50 -10 -85 51
-155 66 -76 100 -137 121 -219 17 -68 14 -131 -10 -177 -8 -15 -42 -61 -77
-102 -93 -112 -102 -137 -88 -257 6 -54 8 -129 4 -166 -17 -175 -66 -237 -265
-334 -121 -59 -242 -105 -314 -118 -36 -7 -46 -24 -46 -77 0 -32 -45 -87 -106
-129 -72 -49 -83 -48 -239 26 -126 60 -278 122 -378 155 -23 7 -57 9 -86 5
-41 -5 -50 -11 -55 -31 -12 -45 -57 -58 -202 -56 -221 3 -307 16 -400 62 -45
22 -95 53 -112 68 -24 22 -50 33 -113 45 -46 10 -86 14 -90 10 -3 -5 -16 -62
-28 -128 -47 -258 -122 -481 -254 -761 l-95 -201 58 -237 c31 -129 63 -244 71
-253 8 -10 47 -55 87 -101 40 -46 77 -95 82 -108 12 -31 -1 -130 -34 -256 -13
-51 -27 -118 -31 -149 l-7 -56 124 -77 c67 -41 129 -80 137 -85 11 -7 -3 -37
-69 -147 l-83 -139 -1 -375 c-1 -359 8 -570 23 -570 4 0 53 76 109 169 56 93
113 176 127 185 29 19 157 50 275 65 l85 12 29 -33 c37 -44 76 -126 76 -163 0
-49 -35 -94 -94 -121 -58 -26 -195 -64 -233 -64 l-25 0 4 -107 3 -108 43 -59
c59 -83 57 -152 -6 -170 -9 -3 -63 -14 -120 -26 -129 -27 -186 -44 -219 -65
-25 -17 -25 -20 -19 -86 12 -133 71 -334 143 -483 43 -91 68 -157 71 -187 l4
-47 -101 -68 c-111 -74 -114 -79 -84 -156 20 -54 60 -111 161 -231 92 -109
152 -207 181 -294 18 -52 21 -88 21 -215 0 -187 15 -262 71 -366 78 -144 119
-233 224 -482 154 -368 163 -414 166 -765 1 -226 1 -233 -30 -362 -19 -78 -29
-143 -25 -158 8 -33 35 -53 139 -105 61 -29 92 -51 106 -74 32 -52 25 -73 -41
-137 -42 -40 -60 -65 -60 -82 0 -60 29 -142 98 -277 l74 -145 -5 -140 c-3 -77
-11 -212 -17 -300 -7 -88 -10 -241 -8 -340 5 -179 5 -181 46 -302 67 -201 73
-239 82 -538 8 -291 13 -327 85 -603 63 -237 132 -430 214 -597 97 -197 127
-290 147 -459 16 -141 42 -267 69 -331 10 -23 56 -79 109 -131 96 -97 149
-173 177 -258 11 -32 26 -56 41 -63 40 -21 129 -15 236 17 142 42 232 93 232
132 0 10 5 18 10 18 6 0 27 19 48 42 38 42 100 77 138 78 16 0 38 -26 89 -102
161 -243 216 -295 369 -353 132 -50 180 -28 277 124 93 146 214 304 247 323
38 23 70 23 154 1 58 -15 79 -16 160 -5 165 21 192 33 288 131 159 161 198
294 146 496 -9 32 -16 77 -16 99 0 38 6 46 75 111 l75 70 10 78 c12 94 -1 200
-28 236 -10 15 -39 37 -65 51 -25 14 -64 40 -86 58 -56 45 -138 174 -160 252
-11 36 -24 83 -30 105 -6 22 -43 83 -82 135 -90 119 -119 179 -119 245 0 68
25 113 85 154 l50 33 171 -7 c195 -8 231 -2 290 48 56 49 119 78 178 84 42 4
70 -1 146 -28 75 -26 111 -33 170 -34 98 0 116 13 182 132 59 106 113 162 193
199 65 30 195 60 320 74 196 21 183 17 195 59 5 20 21 109 35 197 37 237 51
278 110 314 29 18 45 21 78 16 64 -10 196 -90 294 -177 143 -128 186 -140 335
-93 104 33 159 61 225 116 28 24 75 62 103 85 85 71 151 81 574 93 385 10 487
26 516 81 19 34 -6 123 -73 264 -57 120 -61 135 -62 200 0 58 4 75 23 99 19
25 22 41 22 116 0 78 -3 91 -27 126 -14 21 -34 57 -44 79 -20 46 -39 178 -39
276 0 58 4 72 26 98 63 75 168 42 364 -115 105 -84 165 -114 290 -146 162 -41
229 -44 393 -19 223 34 245 31 387 -55 120 -73 172 -80 274 -39 174 70 232 71
410 11 136 -46 204 -61 221 -48 6 4 25 30 43 58 17 27 43 61 57 74 27 25 25
40 -5 40 -11 0 -44 9 -75 21 -73 27 -153 101 -195 181 -29 53 -35 76 -38 145
-4 74 -2 88 22 137 28 57 47 78 235 261 149 146 224 240 252 315 36 99 98 128
159 73 26 -25 31 -37 36 -100 6 -63 10 -73 26 -73 30 0 70 24 106 65 40 43 73
58 105 46 53 -20 73 -67 84 -195 l6 -80 34 40 c85 99 139 262 129 384 -10 110
-8 123 14 142 30 24 112 31 210 18 47 -7 107 -14 134 -17 l48 -6 -7 139 c-13
262 -15 247 42 369 27 61 56 129 63 153 19 60 72 118 141 153 35 17 131 47
232 71 195 46 233 66 273 135 206 359 351 578 410 620 50 35 132 73 159 73 65
0 95 -51 144 -247 47 -187 78 -276 110 -320 28 -38 34 -41 93 -48 l62 -7 31
35 c40 47 119 198 190 367 111 261 118 270 238 310 38 12 79 32 93 44 30 26
64 117 64 172 0 58 61 177 125 240 39 39 66 56 116 73 40 13 77 33 95 52 26
27 29 37 27 87 -4 85 10 117 61 141 51 25 150 45 182 37 25 -7 26 -5 44 89 8
41 8 68 1 86 -5 15 -58 77 -118 139 -130 135 -176 195 -216 278 -25 53 -29 72
-25 120 6 79 46 161 110 225 44 43 64 75 107 172 92 207 109 238 177 320 93
111 112 116 163 41 50 -72 270 -218 389 -257 57 -19 68 -20 110 -8 127 34 161
88 162 249 0 80 5 115 19 146 24 53 83 100 148 119 68 20 105 53 142 127 36
72 38 109 11 173 -29 68 -26 114 10 161 98 127 207 330 217 403 5 36 1 47 -35
93 -84 111 -105 196 -62 251 62 79 208 48 333 -72 l59 -56 31 37 c18 20 50 57
71 83 81 97 142 108 262 49 67 -33 92 -39 276 -63 205 -28 246 -40 284 -83 54
-61 96 -175 114 -308 6 -47 17 -94 25 -106 21 -33 70 -51 231 -85 213 -45 261
-65 441 -188 32 -21 123 -71 203 -109 127 -62 146 -69 157 -55 17 22 33 105
33 174 0 107 43 149 154 149 76 0 156 -27 271 -94 132 -75 186 -91 305 -90
102 1 159 17 351 98 97 40 281 76 394 76 104 -1 136 -20 304 -181 174 -168
238 -241 252 -291 19 -72 -29 -551 -68 -673 -8 -27 -33 -83 -54 -124 -32 -61
-39 -85 -39 -131 0 -49 5 -63 31 -96 75 -95 97 -164 109 -349 6 -99 14 -157
30 -200 11 -33 32 -123 45 -200 14 -77 33 -171 42 -210 16 -63 21 -72 53 -87
49 -24 188 -39 380 -41 188 -2 210 3 306 68 34 24 90 58 124 76 165 88 215
252 141 463 -42 120 -40 147 14 266 48 103 75 204 75 280 0 75 24 94 161 124
25 5 27 11 34 72 15 143 53 209 175 304 36 28 90 79 122 113 l56 62 89 0 c141
0 191 -24 335 -162 113 -110 127 -119 183 -113 25 2 112 61 176 118 61 55 82
100 113 243 37 172 79 265 141 309 11 8 33 27 48 42 25 25 27 30 15 52 -17 33
-115 108 -184 142 -32 15 -82 29 -122 34 -37 4 -89 16 -114 28 -107 47 -290
192 -347 276 -16 23 -41 83 -55 132 -14 49 -34 95 -44 102 -26 21 -153 8 -229
-23 -76 -31 -142 -32 -198 -5 -108 53 -93 185 24 206 47 8 65 25 112 104 30
50 41 83 50 145 7 44 22 103 34 130 33 72 145 221 195 257 l42 31 -34 26
c-108 83 -181 167 -233 271 -16 30 -29 56 -31 58 -1 2 -54 7 -118 12 -64 6
-129 16 -145 24 -34 18 -55 63 -45 100 15 61 141 164 234 191 14 4 61 23 105
43 44 19 118 45 164 56 104 26 99 14 111 261 5 114 16 218 30 282 12 57 20
115 18 130 -4 38 -53 63 -211 109 -107 32 -136 44 -173 77 -35 31 -44 45 -44
72 0 44 22 69 121 135 45 30 91 67 102 81 22 30 38 168 25 214 -4 17 -60 111
-124 210 -183 285 -208 347 -245 608 -29 204 -20 236 97 367 101 112 174 165
346 248 117 57 142 104 174 322 21 150 16 318 -12 375 -24 51 -51 63 -176 81
-56 8 -121 23 -144 34 -54 27 -156 121 -214 198 -42 55 -57 66 -210 148 -91
49 -176 90 -190 90 -14 1 -50 5 -80 9 -114 15 -548 -59 -737 -126 -48 -17
-123 -50 -167 -74 -106 -57 -172 -75 -270 -75 -172 1 -297 31 -392 96 -102 70
-116 75 -173 64 -28 -5 -99 -32 -158 -60 -214 -101 -264 -98 -378 20 -52 54
-102 79 -250 125 -137 43 -170 58 -326 153 -133 81 -172 101 -212 113 l-30 8
7 -62 c12 -121 -31 -184 -141 -206 -61 -12 -219 -3 -358 19 -79 13 -167 13
-202 -1 -83 -31 -129 -128 -158 -334 -16 -114 -33 -158 -67 -176 -11 -6 -66
-24 -120 -40 -375 -107 -628 -66 -838 137 -101 96 -161 129 -346 190 -290 95
-405 81 -536 -67 -197 -225 -205 -231 -436 -319 -70 -26 -163 -64 -207 -83
-124 -55 -156 -60 -338 -54 -117 3 -201 13 -302 32 -193 37 -244 33 -333 -29
-89 -60 -130 -76 -199 -75 -108 1 -193 52 -276 168 -26 37 -74 96 -106 134
-64 73 -76 106 -56 152 26 63 98 98 235 117 77 10 100 17 125 39 16 14 45 34
63 43 17 9 32 23 32 31 0 8 -15 56 -34 108 -39 108 -56 203 -56 316 0 94 4 90
-155 163 -254 117 -426 149 -508 95 -38 -25 -57 -76 -57 -157 0 -122 -30 -152
-162 -158 -103 -5 -183 5 -453 59 -110 22 -239 43 -286 46 -135 9 -181 -14
-266 -136 -26 -36 -81 -109 -123 -161 -42 -52 -101 -129 -131 -170 -31 -41
-79 -96 -108 -123 l-53 -47 7 -64 c10 -99 0 -130 -66 -200 -59 -64 -145 -118
-207 -131 -45 -9 -54 -37 -56 -165 -1 -110 3 -130 56 -259 66 -164 16 -209
-278 -251 -274 -39 -261 -34 -294 -99 -29 -59 -50 -147 -50 -212 0 -29 -6 -42
-27 -59 -38 -30 -65 -24 -223 50 -72 34 -154 65 -181 69 -69 11 -151 -4 -243
-46 -73 -33 -82 -35 -105 -22 -35 20 -39 51 -30 230 24 499 -82 715 -375 761
-87 13 -186 5 -441 -38 -94 -16 -166 -23 -192 -19 -23 3 -93 31 -155 62 -191
94 -207 96 -295 33 -90 -65 -126 -75 -263 -74 -82 1 -183 10 -295 28 -356 56
-360 56 -438 -27 -43 -45 -61 -57 -106 -67 -61 -14 -143 -8 -177 15 -13 8 -30
28 -38 43 -15 30 -76 325 -76 371 0 36 -39 86 -192 243 -138 142 -178 162
-323 162 -78 0 -104 -4 -195 -36 -162 -56 -262 -58 -317 -6 -14 12 -52 63 -85
111 -68 98 -101 122 -222 163 -94 32 -150 69 -187 124 -60 89 -62 179 -9 360
37 129 41 205 10 255 -30 48 -78 75 -133 75 -109 0 -126 30 -138 239 -11 191
-17 241 -30 241 -5 0 -26 -15 -47 -34z"/>
</g>
</svg>
