<?xml version="1.0" standalone="no"?>
<!DOCTYPE svg PUBLIC "-//W3C//DTD SVG 20010904//EN"
 "http://www.w3.org/TR/2001/REC-SVG-20010904/DTD/svg10.dtd">
<svg version="1.0" xmlns="http://www.w3.org/2000/svg"
 width="421.000000pt" height="578.000000pt" viewBox="0 0 421.000000 578.000000"
 preserveAspectRatio="xMidYMid meet">

<g transform="translate(0.000000,578.000000) scale(0.100000,-0.100000)"
fill="#000000" stroke="none">
<path d="M3814 5748 c-17 -18 -59 -73 -92 -123 -34 -49 -120 -153 -191 -230
-72 -77 -145 -163 -163 -192 -18 -29 -46 -74 -63 -100 -38 -62 -95 -90 -220
-111 -170 -29 -262 10 -273 117 l-5 51 -27 -38 c-33 -46 -71 -72 -116 -79 -40
-7 -61 8 -81 54 -16 39 -44 52 -169 81 -120 28 -253 37 -334 22 -131 -23 -280
-122 -280 -185 0 -13 18 -52 40 -86 65 -101 53 -165 -46 -245 -97 -79 -134
-118 -140 -143 -3 -14 -26 -92 -51 -173 l-47 -148 17 -53 c28 -88 22 -118 -25
-136 -53 -20 -165 22 -293 110 -86 59 -146 74 -263 65 -46 -3 -92 -11 -102
-16 -26 -14 -80 -127 -80 -168 0 -20 -12 -84 -26 -143 -25 -107 -26 -109 -66
-131 -38 -22 -40 -26 -43 -76 -3 -58 -17 -80 -77 -118 -47 -30 -75 -60 -98
-104 -16 -31 -19 -67 -22 -270 l-3 -235 -33 -67 c-22 -45 -64 -100 -134 -174
-106 -114 -143 -176 -154 -256 -5 -39 -1 -57 32 -129 35 -76 39 -92 39 -166
l0 -81 -69 -101 c-81 -119 -156 -264 -156 -303 0 -15 14 -47 30 -70 77 -110
92 -225 59 -453 -31 -207 -33 -424 -6 -503 36 -102 85 -135 201 -134 80 1 179
24 263 62 59 27 75 30 123 24 30 -3 80 -16 111 -28 42 -17 62 -20 83 -13 59
20 110 -16 182 -126 61 -94 89 -124 145 -152 80 -41 109 -90 125 -209 4 -25
12 -46 19 -46 23 0 191 88 211 111 11 13 35 49 53 79 69 116 134 156 207 125
20 -8 65 -42 101 -75 65 -61 189 -150 209 -150 6 0 19 10 30 21 52 58 158 64
344 19 126 -31 286 -90 349 -128 l35 -21 125 65 c169 87 194 108 194 165 0 52
-21 123 -74 242 -29 65 -39 100 -39 140 0 58 9 76 76 148 67 73 109 165 204
445 35 102 57 191 79 325 24 140 36 188 50 199 10 8 44 33 75 55 75 53 111
108 125 193 16 89 110 472 123 496 6 11 63 92 127 181 l116 161 79 244 79 244
-33 221 c-18 121 -36 230 -41 242 -4 11 -35 60 -69 107 l-60 85 -68 3 -67 3
-67 230 c-37 127 -68 235 -68 241 0 6 58 71 128 145 130 136 171 198 186 286
5 30 2 33 -113 113 l-119 82 -13 81 c-7 45 -14 138 -14 207 0 144 5 159 85
270 l53 72 -44 44 -45 44 -30 -32z"/>
</g>
</svg>
