<?xml version="1.0" standalone="no"?>
<!DOCTYPE svg PUBLIC "-//W3C//DTD SVG 20010904//EN"
 "http://www.w3.org/TR/2001/REC-SVG-20010904/DTD/svg10.dtd">
<svg version="1.0" xmlns="http://www.w3.org/2000/svg"
 width="703.000000pt" height="366.000000pt" viewBox="0 0 703.000000 366.000000"
 preserveAspectRatio="xMidYMid meet">

<g transform="translate(0.000000,366.000000) scale(0.100000,-0.100000)"
fill="#000000" stroke="none">
<path d="M5020 3602 c-30 -32 -91 -114 -135 -181 -163 -250 -177 -260 -317
-235 -84 15 -251 20 -281 8 -10 -3 -26 -38 -41 -87 -54 -177 -128 -225 -233
-154 -34 22 -52 65 -68 159 -7 46 -32 55 -114 42 l-56 -9 -17 -95 c-9 -52 -17
-119 -17 -148 -1 -61 -22 -108 -51 -117 -12 -4 -39 -4 -61 0 -51 9 -97 9 -147
0 l-39 -6 4 -47 c9 -94 -63 -147 -218 -159 -83 -7 -198 21 -321 78 -57 26 -97
39 -111 35 -12 -3 -63 -28 -112 -56 -97 -54 -141 -70 -193 -70 -49 0 -97 51
-106 110 -17 117 -49 286 -55 292 -12 14 -100 -72 -171 -167 -39 -52 -82 -102
-95 -111 -62 -41 -182 -19 -220 40 -15 23 -16 34 -6 83 14 70 14 119 1 144
-21 37 -109 21 -260 -49 -56 -26 -81 -31 -176 -36 -61 -3 -122 -10 -135 -15
-13 -5 -64 -50 -114 -100 -83 -84 -95 -93 -160 -114 -60 -19 -92 -22 -228 -22
-86 0 -157 -2 -157 -5 0 -3 7 -13 15 -24 13 -17 10 -27 -27 -95 -50 -91 -122
-205 -154 -244 -30 -36 -30 -65 0 -194 20 -87 32 -114 81 -188 31 -47 65 -105
76 -128 24 -53 24 -132 1 -177 -16 -32 -95 -142 -142 -197 -22 -27 -71 -30
-110 -8 -14 8 -28 14 -32 15 -4 0 -4 -46 -1 -103 8 -145 13 -136 -197 -305
-47 -37 -94 -84 -104 -103 l-19 -35 41 -90 c25 -54 52 -136 67 -204 28 -127
53 -180 107 -223 47 -38 101 -47 197 -35 42 5 117 8 166 6 90 -3 90 -3 270
-89 99 -48 187 -89 196 -92 9 -3 54 2 100 10 114 20 205 12 407 -37 189 -46
329 -70 416 -70 64 0 349 35 407 51 34 8 39 15 72 97 47 113 101 199 137 217
42 22 92 18 131 -8 18 -12 62 -59 97 -104 76 -99 75 -99 300 -114 252 -17 467
7 535 61 14 11 42 47 61 79 76 124 128 123 406 -4 225 -103 201 -98 710 -151
170 -18 438 -15 522 6 45 11 46 13 37 36 -5 14 -9 47 -9 73 0 55 38 124 90
161 34 24 44 24 207 -1 72 -11 101 -11 227 5 83 10 161 15 185 11 41 -7 41 -7
41 24 0 103 86 185 208 197 74 8 122 -7 160 -50 l29 -34 34 77 c41 94 91 182
129 224 15 18 69 54 120 82 123 66 159 108 199 231 17 53 31 103 31 110 0 8
-13 41 -30 73 -16 32 -49 123 -74 202 -29 95 -49 143 -58 142 -7 -1 -42 -14
-78 -29 -59 -26 -76 -28 -188 -29 -123 0 -124 0 -148 28 -42 48 -29 87 61 188
74 83 90 136 82 279 -7 113 -19 171 -42 194 -9 8 -37 17 -63 21 -170 21 -219
41 -296 117 -62 62 -135 104 -204 119 -67 14 -122 -2 -237 -69 -104 -61 -230
-112 -278 -112 -59 0 -93 40 -101 116 -4 38 -17 79 -37 114 -67 123 -100 199
-106 247 -5 47 -3 54 22 77 15 14 50 30 81 37 67 15 114 43 114 67 0 11 -22
35 -54 58 -93 67 -105 110 -61 215 31 73 25 102 -32 169 -52 60 -180 160 -206
160 -13 0 -43 -22 -77 -58z"/>
</g>
</svg>
