<?xml version="1.0" standalone="no"?>
<!DOCTYPE svg PUBLIC "-//W3C//DTD SVG 20010904//EN"
 "http://www.w3.org/TR/2001/REC-SVG-20010904/DTD/svg10.dtd">
<svg version="1.0" xmlns="http://www.w3.org/2000/svg"
 width="490.000000pt" height="605.000000pt" viewBox="0 0 490.000000 605.000000"
 preserveAspectRatio="xMidYMid meet">

<g transform="translate(0.000000,605.000000) scale(0.100000,-0.100000)"
fill="#000000" stroke="none">
<path d="M4032 6038 c-7 -7 -12 -17 -12 -23 0 -6 -61 -60 -136 -120 -75 -60
-218 -179 -318 -264 -99 -86 -251 -215 -336 -286 -85 -71 -191 -164 -235 -205
-44 -42 -134 -121 -200 -177 -156 -130 -261 -241 -290 -307 -25 -58 -45 -166
-45 -250 0 -72 -24 -133 -61 -151 -59 -31 -166 -10 -246 48 -39 28 -47 29
-101 24 -76 -8 -128 -30 -136 -59 -4 -13 -11 -97 -16 -188 -14 -251 -47 -341
-173 -478 -54 -59 -80 -96 -88 -125 -33 -122 -43 -143 -95 -197 -58 -61 -80
-119 -69 -179 4 -20 22 -73 41 -119 19 -45 34 -99 34 -118 0 -24 -17 -71 -50
-134 l-49 -98 25 -17 c80 -52 69 -246 -16 -290 -55 -28 -128 -13 -327 70 -58
25 -115 45 -127 45 -26 0 -68 -38 -102 -92 -31 -48 -102 -215 -133 -309 -28
-87 -53 -119 -147 -188 -130 -95 -144 -121 -144 -268 -1 -165 -30 -202 -191
-237 -113 -25 -201 -82 -250 -165 -22 -36 -39 -70 -39 -77 0 -6 23 -26 50 -44
83 -53 140 -135 174 -250 12 -41 16 -92 15 -200 -1 -125 2 -154 21 -209 40
-118 83 -182 170 -251 l37 -29 49 25 c47 24 55 25 194 22 160 -4 170 -7 290
-88 30 -20 74 -47 96 -58 l42 -21 -9 37 c-9 42 0 91 37 195 14 40 33 107 44
149 23 96 39 123 103 173 75 59 137 116 137 127 0 5 -18 35 -40 67 -52 75 -61
131 -30 195 42 87 174 178 310 212 52 13 93 15 205 11 210 -9 390 -60 431
-122 20 -31 34 -23 64 43 27 56 45 71 87 72 64 0 113 -69 113 -161 0 -24 5
-39 16 -43 43 -16 190 1 245 30 14 7 45 46 71 91 25 43 86 122 134 176 179
198 217 244 270 322 29 44 82 109 118 144 l65 64 38 -33 c21 -18 75 -68 121
-110 l82 -76 -51 -65 c-29 -35 -70 -91 -92 -124 l-39 -60 5 -145 c3 -80 9
-155 14 -167 4 -12 62 -60 128 -106 118 -82 120 -84 119 -120 l-1 -37 67 37
c63 35 80 53 242 256 95 120 186 237 201 260 65 98 123 350 132 572 6 168 19
305 36 380 7 28 47 142 89 255 43 113 86 231 96 262 l17 57 -49 83 c-82 140
-102 186 -109 245 -4 32 -18 138 -31 236 -23 165 -29 187 -71 280 -65 145
-119 292 -133 363 -23 115 18 188 217 386 112 112 137 133 217 173 106 53 136
88 144 166 4 48 4 51 -15 41 -10 -6 -41 -29 -67 -50 -65 -54 -107 -60 -191
-26 -37 14 -131 94 -175 147 -84 103 -90 168 -24 259 32 43 39 61 39 98 0 75
-20 108 -82 135 -46 21 -57 31 -74 70 -42 95 -35 240 17 377 l18 47 -23 25
c-36 38 -240 176 -260 176 -9 0 -22 -5 -29 -12z"/>
</g>
</svg>
