<?xml version="1.0" standalone="no"?>
<!DOCTYPE svg PUBLIC "-//W3C//DTD SVG 20010904//EN"
 "http://www.w3.org/TR/2001/REC-SVG-20010904/DTD/svg10.dtd">
<svg version="1.0" xmlns="http://www.w3.org/2000/svg"
 width="2035.000000pt" height="1828.000000pt" viewBox="0 0 2035.000000 1828.000000"
 preserveAspectRatio="xMidYMid meet">

<g transform="translate(0.000000,1828.000000) scale(0.100000,-0.100000)"
fill="#000000" stroke="none">
<path d="M20233 18253 c-10 -40 -8 -174 4 -273 6 -47 11 -78 12 -69 0 9 24 53
51 99 28 46 50 87 50 91 0 5 -11 24 -24 44 -18 27 -23 44 -19 69 4 27 1 36
-18 50 -33 23 -48 20 -56 -11z"/>
<path d="M20216 17688 c-10 -41 -6 -88 15 -171 21 -82 22 -178 3 -304 -6 -38
-4 -43 12 -43 13 1 31 24 57 77 l39 75 -37 54 c-50 73 -78 161 -79 256 -1 43
-2 78 -2 78 -1 0 -4 -10 -8 -22z"/>
<path d="M19860 17523 c-29 -37 -70 -63 -99 -63 -13 0 -56 16 -96 36 -71 37
-71 37 -107 20 -19 -9 -41 -27 -47 -40 -11 -20 -6 -33 58 -132 38 -60 76 -117
83 -128 13 -18 16 -18 93 -2 44 10 114 22 156 28 l76 11 -27 133 c-34 167 -48
190 -90 137z"/>
<path d="M12307 2953 c-3 -5 -8 -26 -11 -49 -10 -58 -61 -140 -106 -172 -22
-15 -39 -29 -40 -32 0 -9 149 -105 216 -138 69 -35 174 -72 203 -72 16 0 22
18 45 135 14 75 26 154 26 177 l0 41 -102 -6 -103 -6 -53 64 c-50 62 -66 74
-75 58z"/>
<path d="M171 2178 c-32 -9 -33 -10 -26 -46 4 -20 8 -44 9 -52 1 -9 -26 -25
-77 -44 l-78 -30 38 -19 c49 -25 83 -56 95 -87 l10 -25 13 31 c19 45 60 74
109 75 22 1 32 4 21 6 -54 14 -62 68 -16 113 l29 29 -37 23 c-20 12 -40 25
-46 29 -5 3 -25 2 -44 -3z"/>
<path d="M12632 518 c-10 -24 -62 -101 -115 -171 -56 -75 -97 -138 -97 -151 0
-32 33 -60 62 -53 13 4 64 29 113 57 50 27 93 50 97 50 4 0 26 -37 49 -82 23
-46 56 -103 73 -126 l31 -44 7 34 c16 71 -17 218 -74 333 -33 64 -114 195
-122 195 -3 0 -14 -19 -24 -42z"/>
</g>
</svg>
