<?xml version="1.0" standalone="no"?>
<!DOCTYPE svg PUBLIC "-//W3C//DTD SVG 20010904//EN"
 "http://www.w3.org/TR/2001/REC-SVG-20010904/DTD/svg10.dtd">
<svg version="1.0" xmlns="http://www.w3.org/2000/svg"
 width="872.000000pt" height="862.000000pt" viewBox="0 0 872.000000 862.000000"
 preserveAspectRatio="xMidYMid meet">

<g transform="translate(0.000000,862.000000) scale(0.100000,-0.100000)"
fill="#000000" stroke="none">
<path d="M5548 8555 c-60 -58 -93 -77 -311 -184 -135 -66 -261 -134 -282 -152
-23 -20 -52 -64 -77 -116 -21 -46 -56 -101 -76 -122 -91 -96 -202 -45 -202 92
0 56 -5 57 -92 22 -34 -14 -80 -25 -102 -25 -36 0 -46 6 -101 63 -33 35 -85
77 -115 94 l-54 32 -37 -77 c-55 -118 -94 -173 -145 -205 l-46 -28 89 -60
c111 -76 120 -84 155 -138 41 -66 39 -134 -12 -298 -38 -122 -42 -130 -91
-176 -54 -51 -169 -111 -290 -153 -54 -18 -109 -28 -204 -34 -141 -10 -220
-30 -390 -98 -232 -92 -338 -156 -400 -240 -52 -70 -76 -81 -254 -107 -230
-35 -233 -36 -286 -102 -59 -76 -183 -286 -276 -467 l-77 -149 29 -41 c19 -27
41 -86 64 -175 37 -141 62 -194 178 -384 83 -136 107 -199 107 -280 0 -110
-44 -178 -194 -300 -49 -40 -98 -84 -109 -99 -58 -78 -19 -290 99 -535 30 -62
54 -115 54 -117 0 -10 -153 -66 -245 -91 -55 -15 -124 -41 -154 -58 -75 -44
-146 -135 -171 -217 -11 -36 -47 -114 -80 -175 -108 -197 -188 -368 -210 -450
-25 -93 -56 -152 -102 -190 -18 -15 -84 -53 -147 -83 -143 -70 -206 -127 -281
-252 -71 -119 -110 -163 -234 -263 -112 -91 -183 -160 -192 -189 -3 -12 8 -45
30 -87 88 -168 85 -324 -10 -618 l-37 -112 -106 -45 c-58 -25 -119 -50 -136
-56 l-30 -12 74 -69 c87 -83 137 -113 209 -128 65 -13 246 -14 344 -2 376 49
418 49 452 -5 14 -21 24 -24 71 -24 29 0 66 5 82 11 98 37 129 39 280 19 80
-11 179 -20 220 -20 65 0 77 3 98 25 14 13 25 30 25 37 0 33 30 207 40 233 6
17 21 40 32 53 37 39 64 29 147 -54 92 -93 142 -118 231 -119 107 0 158 42
200 169 23 71 49 93 100 82 30 -5 314 -156 406 -215 102 -64 191 -125 211
-143 13 -13 27 -43 34 -77 14 -69 33 -108 56 -115 53 -17 206 -37 258 -34 l59
3 33 -50 c59 -89 69 -137 54 -273 -13 -132 -5 -184 47 -291 23 -48 35 -60 83
-85 64 -34 92 -31 137 13 19 19 32 45 36 72 10 64 35 96 176 229 104 97 138
137 175 201 59 103 73 109 216 102 127 -7 226 12 338 63 123 57 104 58 466
-40 238 -65 690 -167 750 -169 l50 -2 -5 35 c-9 61 -5 192 8 275 27 166 33
185 80 253 63 92 91 158 156 367 101 319 112 342 167 366 42 17 72 5 144 -56
35 -30 68 -55 73 -55 18 0 40 36 48 74 8 45 35 76 65 76 31 0 67 -45 133 -165
68 -124 85 -136 195 -136 83 0 119 8 131 31 6 10 10 59 10 109 0 50 5 122 12
160 9 54 9 84 -1 137 -15 81 -30 113 -89 181 -30 36 -40 54 -31 57 8 2 71 17
141 34 165 40 224 66 245 106 9 17 32 54 51 83 l34 52 83 0 c97 -1 164 16 288
73 93 44 94 46 76 111 l-10 37 -29 -15 c-56 -29 -80 -22 -220 63 -90 54 -120
81 -170 147 -54 73 -80 129 -80 172 0 48 20 78 69 103 21 10 41 26 44 34 3 8
38 37 78 65 l72 51 99 0 c59 0 98 -4 98 -10 0 -5 -4 -10 -10 -10 -46 0 49 -58
174 -106 106 -42 176 -94 176 -132 0 -48 56 -35 178 41 l53 33 -50 27 c-27 15
-82 58 -123 95 -104 96 -235 209 -261 227 -19 12 -32 13 -78 3 -30 -6 -71 -8
-92 -4 -45 8 -100 54 -117 98 -37 93 -104 134 -209 126 -46 -3 -72 -12 -119
-41 -33 -20 -67 -37 -76 -37 -32 0 -96 40 -111 70 -21 40 -19 135 5 293 12 72
25 202 29 288 7 135 12 162 31 197 17 31 21 50 17 78 -9 57 -15 59 -124 47
-150 -16 -196 2 -238 91 -26 55 -70 99 -200 198 -113 87 -145 136 -146 230 l0
53 -42 -50 c-119 -140 -146 -155 -288 -155 -133 0 -187 26 -327 155 -118 109
-133 147 -157 379 -8 81 -18 153 -22 161 -5 7 -25 27 -46 44 -80 63 -134 156
-201 351 -60 170 -88 296 -90 390 -1 82 0 87 37 144 29 47 37 70 37 107 0 55
-14 76 -84 122 -27 17 -64 52 -81 77 -37 53 -102 95 -362 235 -100 54 -193
109 -207 124 -51 54 -63 285 -21 418 13 43 29 112 35 153 20 134 61 190 185
255 39 20 90 53 115 72 25 19 78 50 118 69 62 29 78 42 106 87 65 101 76 152
58 264 l-7 41 -67 -63z"/>
</g>
</svg>
