<?xml version="1.0" standalone="no"?>
<!DOCTYPE svg PUBLIC "-//W3C//DTD SVG 20010904//EN"
 "http://www.w3.org/TR/2001/REC-SVG-20010904/DTD/svg10.dtd">
<svg version="1.0" xmlns="http://www.w3.org/2000/svg"
 width="2322.000000pt" height="2107.000000pt" viewBox="0 0 2322.000000 2107.000000"
 preserveAspectRatio="xMidYMid meet">

<g transform="translate(0.000000,2107.000000) scale(0.100000,-0.100000)"
fill="#000000" stroke="none">
<path d="M12031 21051 c-19 -9 -34 -26 -41 -46 -24 -74 -77 -97 -291 -130
-316 -49 -577 -112 -614 -149 -42 -42 -241 -692 -345 -1126 -29 -118 -56 -232
-62 -254 -7 -30 -39 -68 -138 -170 -107 -110 -144 -156 -228 -288 -55 -87
-114 -192 -131 -233 -18 -42 -45 -97 -61 -122 -17 -26 -30 -52 -30 -58 0 -20
-53 -111 -123 -210 -174 -247 -575 -755 -613 -776 -51 -29 -185 -67 -300 -83
-77 -12 -163 -16 -285 -14 -164 2 -177 1 -227 -21 -64 -29 -84 -56 -106 -143
-22 -91 -54 -161 -108 -233 -66 -89 -138 -149 -288 -239 -94 -57 -144 -95
-167 -124 -41 -54 -82 -162 -149 -394 -95 -331 -126 -407 -204 -501 -84 -101
-187 -172 -429 -298 -79 -40 -163 -91 -186 -111 -82 -73 -135 -185 -170 -360
-23 -116 -42 -174 -81 -241 -19 -32 -34 -62 -34 -68 0 -5 -16 -26 -35 -48 -67
-73 -199 -110 -425 -118 -132 -5 -159 -2 -305 25 -375 71 -542 67 -825 -23
-134 -42 -194 -51 -435 -65 -267 -15 -303 -26 -410 -115 -104 -87 -264 -164
-358 -173 -51 -4 -61 -2 -83 18 -29 28 -54 105 -54 169 -1 60 -19 108 -63 169
-21 27 -52 80 -69 118 l-33 69 0 180 c0 99 4 199 8 222 6 38 4 46 -24 78 -35
39 -143 106 -202 125 -30 9 -53 9 -120 -5 -217 -43 -591 -200 -786 -330 -55
-36 -84 -67 -162 -172 -113 -153 -397 -514 -677 -861 -180 -223 -221 -268
-346 -376 -196 -171 -555 -468 -710 -590 -71 -55 -152 -119 -180 -141 -74 -60
-212 -229 -251 -309 -62 -126 -70 -175 -70 -416 l0 -215 33 -95 c78 -228 323
-658 422 -743 67 -57 108 -63 248 -38 65 11 129 21 143 21 49 0 143 -58 241
-148 69 -63 107 -91 131 -96 35 -7 121 3 267 30 107 20 168 15 217 -19 60 -42
87 -89 80 -139 -5 -34 5 -74 45 -198 l50 -155 -21 -62 c-44 -129 -348 -781
-425 -913 l-38 -65 11 -65 c7 -36 39 -166 71 -290 32 -124 62 -243 66 -265 4
-22 10 -47 15 -56 18 -35 128 -162 329 -379 114 -124 230 -252 256 -284 108
-131 94 -121 176 -120 86 1 130 14 334 100 91 38 172 66 206 70 112 13 226
-45 272 -138 30 -61 32 -81 10 -145 -22 -64 -55 -111 -158 -220 -49 -51 -86
-100 -86 -111 0 -35 40 -152 116 -339 41 -100 80 -206 88 -236 19 -72 44 -120
171 -322 159 -254 185 -313 196 -438 18 -213 155 -593 258 -716 l28 -34 48 13
c27 7 100 45 164 84 144 87 211 115 276 116 46 0 52 -3 74 -35 23 -34 24 -40
17 -141 l-7 -105 98 2 c54 2 134 2 179 0 100 -3 162 12 369 92 l160 61 160 1
c182 0 252 -12 317 -55 27 -18 79 -37 132 -50 48 -11 138 -41 199 -66 62 -25
129 -52 149 -59 l37 -14 -6 69 c-8 93 0 118 42 136 30 12 40 12 68 0 45 -19
100 -76 126 -130 18 -39 25 -45 44 -41 61 14 234 35 291 35 36 0 94 -7 130
-15 70 -16 335 -34 526 -35 130 -1 174 -13 204 -53 40 -54 19 -199 -32 -226
-10 -5 -62 -21 -116 -35 -128 -32 -141 -45 -45 -44 89 1 166 -23 372 -119
l139 -64 20 26 c29 37 75 58 112 51 21 -4 77 -47 176 -136 80 -71 161 -137
180 -146 19 -10 86 -51 149 -92 131 -85 152 -93 315 -122 66 -11 123 -23 127
-26 13 -8 62 21 167 100 107 81 109 84 178 266 37 99 49 147 59 240 7 68 25
93 64 93 56 0 66 -17 197 -343 45 -113 103 -251 129 -307 28 -63 48 -123 52
-155 5 -48 3 -57 -23 -87 -17 -20 -63 -50 -113 -75 -100 -48 -101 -50 -76
-160 13 -62 26 -88 87 -172 102 -142 112 -169 114 -290 2 -97 13 -139 46 -181
14 -18 66 11 73 40 3 12 15 66 28 120 l23 98 109 85 109 84 14 -32 c7 -18 29
-87 47 -153 42 -149 55 -179 115 -280 26 -44 57 -109 69 -144 29 -87 46 -216
37 -275 -7 -44 -15 -56 -96 -135 -103 -102 -116 -133 -84 -204 28 -61 97 -151
188 -245 108 -112 138 -128 258 -141 54 -6 119 -18 145 -27 96 -32 174 -91
199 -151 21 -49 34 -216 32 -398 -1 -88 2 -167 7 -176 6 -9 57 -54 115 -99 58
-46 142 -121 188 -167 45 -47 88 -83 95 -80 6 2 34 46 62 97 60 112 99 148
172 157 41 4 61 1 96 -16 61 -30 114 -86 134 -142 15 -42 21 -48 54 -53 49 -8
81 -35 124 -106 22 -37 58 -76 93 -103 92 -69 122 -129 122 -239 l0 -56 43 -7
c98 -16 247 -117 371 -252 l70 -75 95 5 c109 5 129 13 287 103 134 77 194 99
297 107 43 4 88 12 99 18 12 6 80 29 151 51 171 51 191 62 182 96 -8 35 -80
162 -117 207 -29 34 -31 35 -104 35 -71 0 -239 29 -297 52 -53 21 -61 68 -21
141 14 27 32 80 40 119 22 106 49 146 157 232 102 81 170 107 338 130 204 28
213 31 228 73 21 57 92 118 194 166 108 52 173 113 160 150 -4 12 -8 51 -8 87
0 69 16 109 85 218 40 63 40 65 -58 181 -81 95 -104 137 -109 201 -6 61 15
123 80 238 57 100 91 194 103 283 7 49 6 52 -33 92 -166 173 -213 287 -180
440 14 63 13 69 -2 74 -62 20 -145 70 -177 106 -42 48 -94 151 -94 185 0 30
13 53 73 132 63 82 97 154 97 206 0 38 -6 47 -65 105 -80 77 -164 197 -172
244 -8 49 1 74 51 147 24 35 49 83 55 106 6 23 15 59 21 81 5 21 22 51 37 66
59 59 193 105 306 105 64 0 66 1 128 95 56 86 53 112 -20 150 -61 32 -84 53
-180 162 -87 100 -98 128 -88 213 3 26 15 68 27 93 l21 45 41 -11 c60 -15 186
-104 233 -163 61 -78 67 -80 187 -60 57 10 117 19 134 22 44 6 79 49 118 140
34 83 96 185 174 289 25 33 47 62 48 63 7 10 343 54 446 59 l116 6 16 -31 c31
-61 15 -262 -27 -337 -34 -60 -65 -77 -141 -80 -36 -1 -68 -4 -71 -6 -2 -3 17
-21 42 -42 43 -34 72 -46 192 -77 80 -21 121 -88 84 -138 -35 -48 -211 -118
-266 -106 -17 3 -52 26 -78 50 l-47 45 -54 -21 c-76 -28 -100 -53 -93 -96 3
-19 7 -51 10 -72 9 -61 34 -128 55 -147 17 -16 28 -16 123 -4 177 21 280 -8
391 -111 90 -84 98 -87 149 -51 23 17 65 48 92 71 56 46 64 46 208 16 l68 -14
27 36 c15 20 44 54 65 75 41 44 22 42 185 21 53 -7 102 12 161 62 37 31 144
49 192 32 57 -20 64 -49 64 -293 0 -250 -4 -235 95 -365 106 -139 114 -182 60
-291 -59 -116 -78 -139 -135 -165 -70 -32 -190 -42 -260 -20 -27 8 -51 13 -54
10 -3 -3 -7 -49 -9 -103 -4 -98 -4 -98 27 -134 18 -19 71 -56 121 -81 109 -57
145 -86 160 -131 20 -61 -17 -107 -139 -171 -77 -41 -117 -79 -127 -120 -4
-17 11 -77 47 -182 70 -209 70 -234 4 -367 -46 -92 -54 -102 -97 -123 -37 -18
-56 -22 -86 -17 -50 8 -109 57 -120 98 -9 36 -57 68 -134 88 l-47 13 -78 -76
c-43 -41 -93 -83 -111 -92 -18 -9 -83 -24 -143 -32 -61 -8 -120 -19 -132 -26
-20 -10 -16 -13 46 -33 89 -29 121 -60 173 -173 24 -51 57 -113 74 -137 l29
-43 42 14 c61 22 101 9 172 -52 37 -31 66 -49 71 -44 5 5 12 65 16 132 7 136
19 166 73 195 45 23 92 11 227 -57 66 -33 125 -60 132 -60 12 0 287 274 289
288 13 132 14 134 82 168 120 60 326 244 366 327 25 52 26 88 5 232 -14 91
-15 120 -5 168 23 110 103 164 226 155 120 -10 169 -63 170 -183 l0 -70 80 2
c44 2 161 12 261 24 150 18 190 19 236 10 84 -18 138 -58 203 -150 48 -68 61
-81 85 -81 25 0 28 4 32 44 9 73 47 135 148 237 116 118 177 159 237 159 79 0
105 -60 83 -189 -29 -173 -25 -201 45 -279 l44 -49 81 -7 c100 -9 135 -34 154
-111 l13 -49 25 45 c16 28 28 68 33 109 3 36 19 119 36 185 16 66 29 133 29
148 0 38 -40 75 -138 128 -42 23 -85 49 -94 57 -22 18 -23 65 -3 82 9 7 15 30
15 54 0 22 9 79 20 126 31 133 28 152 -32 238 -75 110 -82 136 -57 216 33 109
78 115 197 27 105 -78 146 -98 227 -111 106 -17 255 -14 274 5 13 13 17 49 19
213 5 279 -17 368 -115 469 -60 62 -104 85 -213 113 -46 12 -96 28 -111 35
-38 20 -76 69 -90 116 -11 35 -10 43 7 66 11 14 39 33 64 42 27 10 50 27 59
43 14 25 13 29 -17 78 -42 67 -48 112 -28 203 34 152 110 267 205 311 51 23
140 26 331 12 101 -8 108 -7 195 22 50 16 140 52 200 78 149 65 194 66 318 7
49 -24 102 -43 118 -43 28 0 86 24 136 57 l21 14 -38 83 c-67 141 -61 198 20
215 56 11 46 39 -28 81 -35 19 -71 49 -82 65 -29 47 -50 172 -50 302 0 91 -4
124 -16 141 -15 22 -15 22 -42 3 -15 -10 -39 -26 -55 -35 -38 -23 -70 -74
-133 -217 -70 -156 -84 -172 -144 -166 -25 2 -72 14 -105 27 -33 12 -94 24
-135 27 -81 6 -123 -8 -196 -63 -36 -28 -106 -54 -145 -54 -15 0 -73 9 -129
20 -56 11 -127 20 -158 20 -83 0 -179 18 -226 42 -22 11 -90 69 -151 128 -119
116 -198 171 -463 329 -266 158 -282 181 -293 416 -7 146 -8 152 -48 245 -73
173 -67 248 29 354 91 100 114 156 140 334 12 88 29 122 72 156 73 55 169 79
394 100 172 15 198 26 235 98 11 22 38 59 59 82 55 59 76 122 83 242 8 166 17
174 262 234 82 21 157 41 166 44 15 7 51 60 112 166 43 73 92 97 415 205 140
46 264 91 277 99 18 12 23 26 27 81 15 179 199 375 352 375 31 0 75 -10 111
-25 33 -14 67 -25 75 -25 8 0 92 38 186 85 132 65 182 85 213 85 48 0 51 11
20 71 -20 39 -20 41 -2 55 38 29 121 62 213 84 123 29 136 37 222 121 39 38
89 79 112 91 42 22 187 48 266 48 25 0 62 5 83 11 50 13 49 37 -5 153 -28 61
-43 105 -43 133 0 38 6 48 51 95 65 66 75 86 67 132 -5 34 -8 37 -32 31 -14
-4 -62 -13 -106 -21 -213 -39 -204 -39 -339 2 -48 15 -90 22 -107 19 -15 -3
-56 -29 -91 -57 -109 -88 -159 -106 -348 -122 -100 -9 -166 -19 -168 -26 -10
-30 -72 -97 -108 -117 -57 -32 -147 -54 -156 -39 -4 7 -14 63 -24 126 -27 189
-9 317 52 357 24 15 50 18 184 18 85 0 198 -4 250 -8 90 -8 97 -7 130 15 35
23 90 114 90 150 0 15 -3 17 -19 8 -11 -5 -59 -10 -108 -10 -103 1 -147 18
-177 69 -16 28 -18 40 -9 72 10 38 10 39 -16 39 -19 0 -43 17 -88 63 -68 69
-80 95 -63 137 16 39 61 58 159 66 82 7 83 7 139 58 30 28 75 75 98 105 l43
55 -52 56 c-59 63 -77 109 -84 210 -2 36 -9 77 -15 93 -6 15 -59 68 -122 120
-141 118 -148 123 -214 143 -67 21 -80 15 -105 -52 -23 -62 -42 -82 -83 -90
-70 -13 -186 91 -220 198 -25 80 -31 377 -11 544 9 73 13 149 9 174 -6 40 -11
46 -42 57 -19 7 -75 12 -125 13 -110 0 -207 22 -260 57 -28 19 -53 27 -85 27
-49 0 -140 -22 -140 -34 0 -4 26 -13 58 -19 67 -15 123 -44 141 -73 7 -11 18
-62 24 -113 9 -80 8 -101 -7 -151 -38 -133 -76 -168 -180 -167 -95 1 -145 18
-161 55 -11 27 -10 41 5 97 21 75 19 88 -5 40 -27 -52 -104 -128 -141 -138
-42 -12 -97 2 -148 37 -80 55 -99 108 -84 234 12 100 6 147 -32 227 -17 35
-30 76 -30 91 0 32 60 205 86 249 21 36 59 58 113 67 34 5 41 10 35 23 -38 92
-47 136 -54 258 -9 138 -10 141 -70 234 -20 32 -52 93 -69 136 -21 53 -49 97
-85 137 l-53 60 -41 -55 c-52 -69 -80 -90 -167 -120 -48 -17 -81 -36 -110 -65
-22 -22 -58 -52 -80 -67 -55 -36 -65 -57 -75 -151 -19 -176 -57 -216 -207
-216 -71 0 -157 28 -202 66 -19 16 -40 53 -60 103 -39 105 -67 147 -160 245
-43 44 -105 118 -140 164 -34 45 -64 82 -68 82 -10 0 -83 -44 -82 -49 0 -3 34
-32 75 -64 101 -79 108 -96 101 -224 -6 -128 -28 -178 -94 -222 -26 -17 -52
-31 -59 -31 -7 0 -44 16 -81 36 -69 35 -193 64 -227 51 -11 -4 -16 -18 -16
-44 0 -21 -7 -73 -15 -116 -8 -43 -15 -98 -15 -122 0 -41 3 -46 58 -87 71 -54
88 -85 72 -133 -41 -125 -280 -177 -505 -111 -230 69 -315 150 -323 311 -6
104 10 148 94 262 15 22 14 27 -24 115 -47 111 -62 168 -62 242 0 62 15 103
40 111 9 3 30 19 46 36 25 26 29 38 28 82 -1 70 -35 153 -101 251 -118 173
-190 234 -303 256 -164 33 -200 61 -273 213 -71 147 -155 275 -206 312 -112
82 -211 328 -211 525 l0 96 -50 79 c-60 96 -90 184 -90 270 0 55 -5 74 -39
137 -53 98 -69 167 -81 349 -19 283 -33 319 -237 602 -51 71 -106 153 -123
182 -34 59 -82 105 -109 105 -10 0 -42 -13 -72 -29 -30 -17 -103 -45 -164 -63
-144 -43 -249 -45 -342 -6 -102 42 -254 144 -393 263 -72 62 -159 129 -193
149 -60 36 -64 37 -138 33 -59 -4 -96 -14 -175 -47 -219 -93 -246 -102 -280
-95 -41 7 -78 50 -101 118 -40 115 -64 150 -127 184 -74 39 -86 55 -86 113 0
36 7 57 30 88 36 50 57 62 108 62 48 0 57 21 40 88 -6 24 -8 76 -5 116 6 81
62 263 105 340 23 42 34 51 82 67 60 21 123 67 128 93 3 16 -7 16 -125 9 -200
-13 -251 -10 -303 17 -129 66 -168 137 -119 216 21 34 99 99 172 143 55 33 71
71 64 150 -7 78 -13 97 -35 106 -60 24 -196 55 -247 55 -33 0 -105 7 -160 16
-185 27 -196 28 -260 6 -131 -44 -223 -41 -281 10 l-34 30 -233 -26 c-313 -35
-427 -33 -560 10 -55 18 -165 103 -248 190 l-57 60 -31 -15z"/>
</g>
</svg>
