<?xml version="1.0" standalone="no"?>
<!DOCTYPE svg PUBLIC "-//W3C//DTD SVG 20010904//EN"
 "http://www.w3.org/TR/2001/REC-SVG-20010904/DTD/svg10.dtd">
<svg version="1.0" xmlns="http://www.w3.org/2000/svg"
 width="302.000000pt" height="400.000000pt" viewBox="0 0 302.000000 400.000000"
 preserveAspectRatio="xMidYMid meet">

<g transform="translate(0.000000,400.000000) scale(0.100000,-0.100000)"
fill="#000000" stroke="none">
<path d="M1505 3992 c-109 -12 -201 -58 -325 -163 -147 -124 -206 -157 -442
-245 -162 -60 -255 -82 -414 -98 -163 -16 -187 -28 -192 -96 -6 -74 21 -122
134 -242 124 -131 136 -158 135 -325 0 -161 -24 -238 -101 -326 -55 -62 -130
-187 -170 -284 -37 -88 -37 -107 -2 -304 53 -293 52 -442 -2 -549 -36 -71 -63
-164 -99 -342 l-24 -117 126 -198 c120 -188 214 -373 306 -599 l29 -71 49 26
c75 38 168 34 383 -18 l171 -41 65 24 c152 57 285 68 384 30 l45 -17 57 61
c86 91 101 93 327 43 85 -18 141 -24 226 -22 33 1 37 4 63 61 39 84 74 116
142 130 46 10 58 9 67 -3 7 -7 26 -24 44 -36 18 -12 54 -49 80 -82 26 -34 59
-67 73 -74 24 -12 32 -11 76 9 53 25 221 169 273 235 38 48 43 44 -95 65 -274
42 -466 165 -618 396 -84 128 -176 343 -176 413 0 68 72 199 165 296 66 70 85
108 85 166 0 78 -45 141 -150 213 -103 69 -141 140 -148 273 -5 101 14 189 76
350 29 74 47 143 62 239 11 74 36 209 54 300 l34 165 -160 302 c-151 287 -161
303 -206 332 -129 82 -302 135 -407 123z"/>
</g>
</svg>
