<?xml version="1.0" standalone="no"?>
<!DOCTYPE svg PUBLIC "-//W3C//DTD SVG 20010904//EN"
 "http://www.w3.org/TR/2001/REC-SVG-20010904/DTD/svg10.dtd">
<svg version="1.0" xmlns="http://www.w3.org/2000/svg"
 width="1213.000000pt" height="1590.000000pt" viewBox="0 0 1213.000000 1590.000000"
 preserveAspectRatio="xMidYMid meet">

<g transform="translate(0.000000,1590.000000) scale(0.100000,-0.100000)"
fill="#000000" stroke="none">
<path d="M11480 15867 c-20 -42 -89 -64 -161 -50 l-48 10 -6 -47 c-4 -28 -2
-64 5 -87 18 -59 3 -78 -76 -103 -46 -14 -94 -20 -155 -20 l-89 0 0 -44 c0
-31 -11 -66 -40 -122 -53 -106 -88 -146 -171 -194 -77 -46 -86 -56 -125 -155
-66 -169 -156 -258 -274 -272 -107 -13 -161 19 -214 126 -55 109 -93 131 -199
118 -40 -5 -107 -7 -149 -4 -69 3 -83 8 -132 40 -31 20 -63 37 -71 37 -25 0
-84 -27 -177 -83 l-88 -51 6 -52 c10 -85 -1 -117 -63 -184 -82 -89 -341 -253
-433 -274 -14 -3 -95 -8 -180 -10 -209 -5 -247 -14 -345 -81 -99 -67 -139 -74
-286 -50 -272 45 -626 134 -692 175 -27 17 -53 30 -58 30 -5 0 -9 -14 -9 -32
0 -97 -112 -205 -256 -248 l-42 -12 41 -87 c31 -63 42 -99 42 -135 0 -45 -3
-51 -47 -90 -31 -28 -56 -62 -76 -107 -16 -36 -45 -88 -64 -116 -34 -49 -35
-54 -41 -169 -8 -176 -35 -243 -95 -244 -28 0 -108 40 -150 74 -16 15 -40 26
-52 26 l-23 0 7 -138 7 -139 -78 -23 c-42 -12 -100 -23 -128 -24 -91 -1 -178
70 -230 189 -19 41 -34 59 -67 78 -54 31 -198 91 -258 107 -116 31 -207 94
-251 176 -14 27 -25 31 -145 57 -71 15 -172 44 -224 64 -148 55 -218 73 -315
79 -96 7 -200 -7 -222 -29 -7 -7 -21 -43 -32 -80 -24 -86 -55 -126 -130 -166
-36 -19 -76 -51 -98 -78 -125 -154 -180 -190 -306 -205 -45 -5 -95 -17 -111
-26 -48 -28 -93 -95 -106 -158 -18 -88 -7 -134 52 -207 72 -88 91 -135 91
-226 1 -88 -21 -162 -68 -236 -41 -64 -68 -90 -190 -185 -119 -92 -153 -126
-164 -166 -10 -38 -5 -51 27 -68 55 -28 325 -56 542 -56 197 0 220 -16 207
-138 -8 -68 -59 -238 -94 -307 -14 -27 -53 -79 -88 -115 -34 -36 -65 -74 -69
-85 -7 -22 -178 -122 -281 -164 -50 -21 -77 -25 -158 -26 -98 0 -99 0 -123
-30 -13 -16 -24 -34 -24 -38 0 -17 -132 -282 -156 -314 -29 -39 -72 -63 -110
-63 -16 0 -89 21 -163 46 -133 45 -138 46 -231 41 -119 -7 -345 -64 -453 -114
-44 -21 -93 -37 -111 -36 -18 1 -68 19 -110 42 l-78 41 -132 0 c-169 0 -225
-15 -282 -75 -81 -87 -138 -260 -132 -402 3 -72 2 -76 -24 -96 -26 -19 -31
-20 -95 -7 -121 23 -165 30 -318 50 -172 22 -213 34 -281 83 -87 62 -238 136
-319 157 -104 26 -123 25 -134 -2 -15 -37 -78 -104 -115 -122 -42 -20 -96 -21
-140 -2 l-33 14 -7 -77 c-3 -42 -11 -99 -17 -128 l-12 -51 69 -76 c38 -42 102
-99 142 -127 40 -28 78 -61 84 -74 7 -15 56 -47 142 -91 140 -74 199 -122 209
-172 4 -17 4 -60 0 -96 -5 -58 -3 -69 20 -109 63 -107 277 -294 411 -358 16
-8 38 -25 48 -39 23 -32 58 -210 58 -297 l0 -66 -79 -76 c-91 -89 -105 -122
-72 -174 41 -66 50 -72 421 -239 164 -73 191 -92 220 -148 24 -48 50 -168 50
-234 0 -51 -3 -58 -54 -118 -70 -82 -122 -123 -207 -164 -38 -19 -69 -36 -69
-38 0 -3 25 -54 56 -114 66 -129 78 -195 72 -383 -5 -125 -5 -128 -48 -217
-50 -105 -50 -135 -1 -206 36 -52 68 -76 133 -100 34 -12 62 -35 104 -83 55
-63 59 -65 96 -60 21 3 59 21 87 41 27 20 112 66 188 102 170 80 187 90 243
132 79 61 116 65 221 27 107 -38 161 -70 206 -118 87 -95 108 -176 60 -243
-78 -113 -120 -157 -168 -177 -27 -12 -49 -26 -49 -31 0 -6 28 -66 62 -135
l63 -123 -1 -117 c-1 -135 -22 -253 -64 -369 -37 -101 -37 -131 -4 -213 49
-120 19 -257 -89 -409 -75 -105 -105 -170 -109 -235 l-3 -50 43 -3 c42 -3 44
-2 130 87 105 109 132 118 215 77 81 -40 160 -109 212 -185 41 -60 48 -78 57
-147 5 -43 7 -140 5 -214 -9 -211 -26 -248 -171 -354 -58 -43 -111 -88 -119
-100 -25 -38 -54 -197 -81 -443 -9 -82 -23 -150 -35 -178 -25 -57 -95 -124
-181 -176 -89 -53 -100 -66 -107 -133 -10 -98 9 -139 108 -237 106 -105 113
-123 107 -294 -5 -163 -22 -198 -121 -257 -111 -67 -113 -92 -17 -237 120
-183 136 -232 116 -349 -16 -94 -48 -162 -160 -345 -86 -140 -97 -179 -74
-257 l14 -45 79 3 c45 2 93 -1 110 -8 67 -25 115 -94 140 -202 8 -35 21 -68
30 -74 8 -6 43 -17 78 -23 34 -7 116 -27 182 -46 108 -30 270 -65 365 -78 44
-6 48 -4 290 159 107 71 222 145 255 164 99 54 398 256 451 303 68 61 149 114
292 192 180 99 263 131 357 140 102 9 191 37 233 72 42 35 53 81 77 304 9 90
23 202 31 249 32 182 54 451 54 650 0 126 16 181 123 433 l50 118 106 83 c131
102 218 161 279 189 43 20 65 22 282 23 268 1 263 0 505 109 68 30 147 60 175
65 45 9 172 16 575 34 121 5 393 32 530 51 l100 15 48 50 c26 28 47 60 47 70
0 32 -138 281 -194 351 -28 35 -99 102 -156 147 -190 152 -189 150 -201 193
-10 32 -10 54 0 102 18 90 141 454 196 580 l48 108 251 252 c255 256 428 447
473 525 23 39 25 47 14 83 -6 21 -30 73 -53 115 -34 63 -40 82 -35 115 17 128
265 493 363 535 18 8 100 16 206 20 160 6 181 5 244 -14 129 -39 491 -80 598
-67 80 9 392 87 537 135 104 34 218 93 219 112 0 4 -18 35 -39 68 -85 131
-123 309 -126 586 l-2 191 -40 54 c-22 30 -52 75 -67 100 l-26 47 -63 -34
c-34 -18 -81 -36 -103 -40 -116 -17 -202 118 -151 238 8 18 51 80 97 138 107
136 122 166 113 225 -5 38 -3 48 13 60 24 18 115 19 133 3 11 -11 12 -7 7 17
-33 172 -35 284 -6 445 11 63 23 156 26 205 6 86 4 98 -44 270 -54 193 -67
230 -160 460 -66 162 -96 264 -89 301 3 20 -3 25 -54 44 -71 27 -249 141 -306
198 -70 69 -69 129 4 152 81 27 112 67 134 171 13 66 32 97 66 110 36 14 84
-3 139 -48 l47 -38 -7 55 c-8 65 8 234 29 307 8 28 26 65 40 81 35 41 47 80
101 319 60 267 97 391 141 476 47 89 96 127 221 168 121 40 239 98 273 136 33
34 286 396 301 428 15 34 -7 224 -30 251 -9 12 -46 56 -82 99 -80 95 -140 190
-140 224 0 41 39 76 115 106 39 14 94 41 124 57 77 44 277 195 350 264 61 59
62 60 91 169 65 249 73 267 153 367 77 97 143 191 170 243 12 24 16 88 22 310
7 272 6 284 -18 425 -49 273 -85 357 -212 489 -103 107 -197 168 -318 206 -43
14 -79 25 -80 25 -1 0 -9 -15 -17 -33z"/>
</g>
</svg>
