<?xml version="1.0" standalone="no"?>
<!DOCTYPE svg PUBLIC "-//W3C//DTD SVG 20010904//EN"
 "http://www.w3.org/TR/2001/REC-SVG-20010904/DTD/svg10.dtd">
<svg version="1.0" xmlns="http://www.w3.org/2000/svg"
 width="1189.000000pt" height="1127.000000pt" viewBox="0 0 1189.000000 1127.000000"
 preserveAspectRatio="xMidYMid meet">

<g transform="translate(0.000000,1127.000000) scale(0.100000,-0.100000)"
fill="#000000" stroke="none">
<path d="M3614 11224 c-21 -27 -57 -69 -79 -94 -22 -25 -52 -60 -67 -78 l-28
-33 -32 38 c-102 119 -142 153 -191 168 -65 19 -77 19 -77 -2 0 -28 69 -121
107 -144 23 -14 31 -25 25 -33 -5 -6 -12 -36 -16 -66 -14 -104 -104 -292 -203
-424 -34 -45 -51 -76 -47 -86 50 -112 51 -156 7 -267 -37 -93 -107 -160 -206
-198 -46 -17 -83 -38 -90 -50 -6 -11 -10 -58 -9 -105 3 -152 -35 -250 -123
-310 -49 -33 -133 -60 -191 -60 -41 0 -174 36 -184 49 -3 4 -32 22 -65 40 -92
52 -186 116 -233 159 l-42 39 -26 -35 c-15 -19 -71 -124 -126 -234 -84 -170
-107 -208 -152 -252 -38 -37 -58 -66 -70 -104 l-18 -52 35 -63 c44 -77 141
-189 229 -262 79 -66 102 -114 119 -258 11 -86 10 -96 -8 -132 -11 -22 -26
-57 -32 -77 -14 -42 -20 -44 -91 -27 -25 6 -68 8 -96 4 l-52 -6 5 -40 c4 -24
-1 -55 -11 -82 -23 -61 -104 -141 -163 -162 -93 -33 -113 -45 -148 -92 -39
-54 -75 -140 -75 -182 0 -39 -28 -119 -59 -166 -20 -31 -45 -49 -107 -80 -44
-22 -93 -45 -110 -51 -25 -9 -37 -29 -91 -155 -35 -79 -71 -172 -81 -205 l-19
-62 52 -21 c68 -28 81 -44 107 -127 18 -60 21 -98 24 -291 l3 -223 30 -62 c68
-140 106 -382 99 -641 -4 -165 -9 -179 -97 -265 -39 -38 -64 -74 -77 -107 -20
-54 -47 -90 -79 -108 -11 -6 -63 -14 -115 -18 -114 -9 -124 -12 -140 -47 -21
-46 -60 -165 -60 -184 0 -38 162 -81 281 -75 44 2 49 -1 100 -54 43 -44 66
-59 109 -71 102 -30 195 -48 242 -48 61 0 93 -35 85 -93 -8 -55 -83 -181 -152
-253 -62 -65 -64 -66 -214 -104 -36 -10 -73 -40 -227 -187 -101 -97 -184 -179
-184 -182 0 -3 -38 -55 -85 -116 -47 -60 -85 -113 -85 -117 0 -4 26 -22 58
-40 119 -67 194 -178 177 -265 -4 -20 -26 -76 -51 -125 -24 -48 -44 -91 -44
-96 0 -5 20 -40 45 -78 36 -55 45 -78 45 -113 0 -41 -4 -48 -47 -85 -104 -91
-123 -115 -123 -153 0 -20 16 -72 37 -117 35 -77 37 -86 36 -181 0 -55 -4
-125 -8 -155 -5 -43 -1 -75 19 -150 14 -52 26 -96 26 -98 0 -2 -15 -2 -33 -1
-29 3 -47 -9 -142 -90 -174 -148 -352 -365 -330 -401 10 -16 118 -69 225 -111
l95 -37 35 18 c49 25 119 42 144 36 12 -3 43 -20 70 -38 38 -24 73 -36 145
-50 53 -9 111 -17 129 -18 30 0 32 -2 32 -34 0 -24 6 -38 23 -49 13 -9 30 -29
36 -45 18 -43 -2 -80 -59 -111 -25 -14 -49 -31 -53 -38 -11 -18 -64 -44 -117
-58 l-45 -11 -35 -130 -34 -129 -1 -246 -1 -247 45 -5 c25 -3 69 -1 96 4 28 6
85 14 129 19 46 6 92 18 113 30 67 39 122 23 204 -61 41 -41 126 -73 224 -84
33 -4 75 -13 94 -21 18 -8 36 -14 40 -14 4 0 36 25 71 55 137 117 230 126 260
27 6 -20 13 -43 16 -50 3 -10 9 -9 28 3 23 15 29 15 80 -1 l54 -17 32 27 c48
40 88 58 113 50 12 -3 56 -28 97 -54 107 -68 114 -69 132 -21 24 61 54 74 182
81 l111 5 3 62 c2 53 -2 74 -29 135 -25 56 -33 88 -33 137 -1 58 1 65 27 85
24 18 41 21 115 20 48 0 105 -6 127 -12 30 -8 57 -9 100 -1 130 23 142 23 173
0 17 -11 33 -21 36 -21 3 0 31 23 61 50 36 32 64 50 81 50 31 0 73 -21 98 -49
24 -26 47 -26 119 -2 116 40 198 36 212 -10 11 -33 47 -48 184 -79 160 -36
171 -36 200 -6 30 32 36 84 21 167 -17 90 -6 119 44 119 29 0 49 -13 132 -90
l99 -90 3 89 c2 52 -4 119 -12 161 -13 62 -13 77 -2 105 15 34 57 71 116 100
19 10 66 41 105 69 81 60 97 62 263 29 112 -22 143 -40 162 -99 7 -19 17 -34
24 -34 8 0 45 15 84 33 64 29 75 38 107 90 27 46 32 63 25 77 -6 10 -10 35
-10 56 0 30 7 44 39 74 60 57 64 71 62 202 -1 110 0 119 20 130 24 15 49 61
73 133 12 36 25 56 47 69 17 10 33 15 36 12 3 -3 13 9 22 27 24 47 65 55 144
28 104 -35 123 -31 192 40 82 83 104 93 179 84 107 -13 129 -10 192 30 33 20
84 63 115 96 66 70 94 76 142 28 30 -31 31 -31 64 -15 18 9 71 52 116 95 82
79 117 101 161 101 35 0 71 -34 85 -80 7 -23 19 -44 27 -47 8 -3 42 0 77 7 53
11 68 11 93 -1 35 -17 64 -71 64 -121 0 -30 4 -38 18 -38 23 0 122 47 147 69
11 10 36 24 55 31 48 18 66 32 128 92 37 36 55 63 62 92 5 23 20 62 33 87 l23
46 -27 33 c-36 43 -42 72 -25 115 l15 35 -50 0 c-131 0 -177 79 -107 184 17
27 39 78 49 115 21 75 61 121 107 121 38 0 218 90 276 138 77 63 139 65 151 5
3 -19 24 -62 47 -94 34 -51 44 -59 71 -59 90 0 127 -30 142 -115 9 -50 29 -90
53 -107 11 -7 26 -27 35 -44 23 -44 133 -142 211 -188 36 -21 66 -45 66 -52 0
-9 12 -14 35 -14 20 0 58 -11 86 -25 67 -35 183 -40 205 -11 20 27 18 110 -2
127 -25 21 -35 56 -23 86 5 15 7 44 4 64 l-6 36 -65 6 c-35 4 -92 17 -125 31
-49 20 -66 22 -85 14 -19 -9 -41 -4 -128 31 -57 22 -108 41 -114 41 -20 0 -52
53 -52 85 0 18 9 62 20 98 l20 66 -20 53 c-25 66 -25 100 -2 121 26 23 52 21
125 -9 92 -38 145 -75 163 -112 15 -33 16 -33 42 -16 52 33 69 55 81 108 18
80 62 143 117 167 52 24 69 21 196 -23 97 -34 128 -60 138 -115 4 -26 11 -37
21 -34 50 14 86 11 147 -12 37 -14 104 -30 148 -36 45 -6 105 -20 134 -31 l53
-21 -6 41 c-3 22 -17 54 -31 71 -14 17 -26 43 -26 57 0 55 62 120 132 137 29
8 42 34 53 117 9 67 45 75 141 33 65 -29 90 -30 159 -10 35 11 69 14 116 9 59
-6 72 -3 136 25 47 20 88 31 118 31 l47 0 -6 32 c-3 18 -9 57 -12 85 -7 51 -6
54 32 92 43 42 93 61 164 61 53 0 70 10 161 95 45 42 78 64 101 69 19 3 90 2
158 -4 68 -6 131 -8 140 -5 9 3 23 17 32 32 9 16 41 55 71 88 l54 60 0 105 c1
223 98 510 218 647 l42 47 -56 24 c-31 13 -83 34 -116 46 -33 13 -83 35 -112
49 -32 17 -104 37 -185 52 -73 14 -159 32 -191 39 l-59 13 -22 -36 c-13 -20
-28 -52 -35 -71 -17 -51 -32 -67 -82 -84 -75 -26 -96 -22 -146 32 -24 26 -59
64 -78 84 -19 20 -35 44 -35 53 0 8 -25 66 -56 127 l-56 112 17 86 c36 170 38
161 -48 244 -74 70 -97 105 -97 148 0 30 48 147 75 183 12 17 27 41 34 53 l13
24 -99 -7 c-82 -6 -105 -4 -130 9 -40 20 -49 58 -28 115 8 24 15 45 15 47 0
16 -117 -60 -170 -110 -75 -70 -180 -131 -210 -121 -40 13 -79 56 -95 106 -23
68 -17 214 9 254 17 26 149 95 182 95 7 0 14 4 14 10 0 12 -105 90 -122 90
-24 0 -115 58 -171 110 -73 66 -103 129 -121 253 -19 123 -62 209 -158 314
-38 40 -68 77 -68 83 0 19 -76 57 -180 90 -91 28 -130 35 -300 47 -208 15
-338 40 -380 73 -14 11 -47 32 -75 46 -27 15 -76 45 -108 66 l-59 40 -62 -11
c-132 -23 -476 -7 -609 28 -64 16 -69 20 -92 64 -14 25 -32 75 -40 110 -8 35
-21 82 -29 105 -9 23 -26 106 -40 185 -14 79 -34 163 -45 187 -17 37 -21 66
-21 162 l0 118 -60 117 c-36 70 -63 136 -67 163 -7 63 13 156 48 212 43 72 56
108 73 210 22 127 46 358 46 442 l0 70 -77 80 c-43 45 -121 128 -173 185 -113
124 -152 147 -239 136 -92 -11 -332 -73 -387 -100 -94 -47 -228 -77 -339 -77
-120 1 -170 16 -331 102 -96 51 -199 90 -240 90 -20 0 -41 -71 -48 -165 -4
-49 -12 -106 -17 -127 -9 -35 -11 -36 -68 -43 -73 -8 -67 -10 -276 82 -168 75
-262 124 -320 168 -51 38 -111 64 -192 84 -115 28 -264 71 -298 86 -16 7 -55
16 -87 20 l-56 6 19 45 c19 43 20 49 5 147 -16 110 -34 171 -66 222 -24 39
-75 54 -295 85 -77 11 -172 31 -210 44 -39 14 -88 28 -111 32 -40 6 -42 5 -80
-42z"/>
</g>
</svg>
