<?xml version="1.0" standalone="no"?>
<!DOCTYPE svg PUBLIC "-//W3C//DTD SVG 20010904//EN"
 "http://www.w3.org/TR/2001/REC-SVG-20010904/DTD/svg10.dtd">
<svg version="1.0" xmlns="http://www.w3.org/2000/svg"
 width="2016.000000pt" height="1925.000000pt" viewBox="0 0 2016.000000 1925.000000"
 preserveAspectRatio="xMidYMid meet">

<g transform="translate(0.000000,1925.000000) scale(0.100000,-0.100000)"
fill="#000000" stroke="none">
<path d="M999 19199 c-196 -135 -319 -250 -473 -442 -106 -133 -135 -189 -174
-339 -34 -130 -64 -205 -195 -492 -87 -192 -91 -203 -98 -295 -5 -53 -20 -172
-34 -266 -14 -95 -25 -215 -25 -271 0 -101 0 -101 49 -200 73 -147 82 -188 90
-424 l7 -205 37 -82 37 -81 -2 -144 c-1 -113 2 -157 17 -208 15 -53 19 -117
24 -357 l6 -292 52 -48 c34 -32 54 -61 62 -87 5 -21 19 -48 30 -60 27 -30 101
-232 101 -278 0 -22 -5 -49 -11 -61 -9 -16 -9 -22 0 -25 50 -17 104 -96 122
-181 7 -34 22 -61 47 -88 20 -21 42 -50 49 -64 6 -13 25 -53 42 -89 20 -43 43
-74 66 -90 37 -26 132 -144 158 -195 25 -50 29 -96 13 -169 -14 -67 -13 -72 6
-110 11 -23 42 -68 68 -102 94 -120 101 -165 35 -250 l-36 -49 7 -97 6 -97
-37 -67 c-34 -60 -37 -72 -32 -119 6 -54 52 -155 128 -275 38 -61 40 -69 36
-121 -5 -63 -36 -141 -70 -177 -28 -30 -52 -40 -152 -59 -88 -16 -105 -25
-105 -56 0 -35 -70 -167 -111 -208 -25 -25 -55 -43 -85 -51 -25 -7 -58 -24
-75 -38 l-29 -25 57 -45 c75 -60 96 -97 92 -163 -1 -29 -1 -77 0 -107 7 -119
4 -251 -8 -390 -13 -147 -9 -297 10 -382 11 -47 69 -128 92 -128 7 1 23 24 37
53 27 56 77 97 117 97 38 0 165 -41 198 -64 17 -11 85 -67 152 -124 139 -119
157 -147 168 -259 9 -108 20 -132 82 -195 49 -49 57 -63 56 -93 -1 -49 -43
-115 -130 -206 -92 -96 -152 -129 -237 -129 l-59 0 22 -24 c13 -13 38 -27 57
-30 71 -14 103 -71 80 -147 -7 -24 -4 -27 25 -33 55 -11 99 -7 139 14 99 50
152 -5 137 -145 -9 -88 -66 -176 -144 -222 l-45 -26 -166 8 c-209 10 -335 7
-344 -8 -10 -15 -9 -179 0 -230 7 -37 8 -37 30 -22 12 9 38 41 57 70 41 65 57
71 241 85 172 14 214 27 299 96 39 31 84 63 102 70 48 21 123 17 210 -11 43
-14 90 -25 105 -25 15 0 97 14 183 31 131 27 160 30 184 19 38 -15 62 -67 69
-145 5 -74 -9 -108 -75 -176 -45 -46 -45 -47 -32 -83 18 -49 31 -49 300 22 64
17 169 38 233 46 64 9 126 21 139 27 12 7 65 53 118 104 53 52 120 106 150
121 50 26 64 29 184 32 l130 3 -24 -20 -25 -19 94 -47 c51 -26 125 -69 163
-96 75 -52 97 -58 118 -33 23 28 106 63 175 74 105 17 158 2 244 -70 25 -20
55 -42 67 -48 12 -7 47 -34 76 -60 32 -27 77 -55 108 -65 102 -35 399 -217
482 -296 53 -50 85 -116 97 -203 17 -118 28 -146 112 -286 97 -162 152 -278
168 -356 19 -93 3 -144 -86 -270 -48 -70 -83 -100 -151 -135 -29 -14 -50 -36
-69 -68 -15 -27 -53 -88 -85 -138 -32 -49 -65 -107 -74 -128 -15 -37 -15 -40
21 -128 42 -103 48 -174 21 -226 -9 -18 -44 -63 -78 -100 -38 -42 -79 -105
-110 -165 l-49 -98 0 -123 c0 -168 -8 -179 -149 -196 -140 -18 -188 -52 -230
-163 -10 -26 -8 -28 47 -53 95 -44 129 -89 123 -170 -2 -40 -22 -68 -105 -150
-77 -76 -168 -128 -356 -201 -138 -54 -201 -56 -355 -11 -116 34 -121 35 -155
19 -19 -9 -63 -43 -96 -77 -65 -64 -105 -133 -182 -315 -22 -52 -54 -124 -71
-160 -22 -46 -31 -80 -31 -115 0 -91 45 -230 108 -337 41 -70 48 -116 29 -190
-12 -41 -14 -86 -10 -170 9 -188 -4 -223 -150 -397 -87 -103 -196 -190 -307
-246 -101 -51 -124 -74 -109 -114 6 -14 19 -35 29 -46 38 -41 62 -106 71 -188
5 -45 16 -113 24 -152 15 -67 17 -70 45 -71 40 -1 74 -26 94 -67 28 -60 21
-102 -41 -231 -37 -77 -57 -131 -56 -153 2 -72 68 -171 253 -382 137 -155 160
-194 160 -267 0 -62 19 -203 29 -222 9 -16 63 62 120 175 55 110 115 158 211
170 26 3 60 3 75 -1 47 -12 116 -88 210 -231 81 -123 189 -249 238 -276 7 -5
35 -2 62 6 97 30 155 13 242 -68 l63 -59 28 63 c15 34 58 124 96 198 71 140
133 317 143 408 5 42 2 56 -15 78 -34 43 -44 116 -32 245 11 129 4 172 -35
214 -19 21 -30 26 -43 19 -9 -4 -53 -8 -97 -7 -66 0 -89 5 -125 25 -56 31 -75
63 -106 185 -31 122 -35 237 -10 311 27 82 16 103 -143 262 -75 75 -146 150
-156 166 -26 42 -32 169 -12 282 9 48 19 115 22 149 l7 60 -108 103 c-112 107
-155 134 -304 191 -157 61 -165 101 -59 270 80 129 108 156 175 171 l52 12 27
66 c78 188 151 244 221 169 17 -18 51 -64 77 -103 70 -108 85 -119 171 -123
66 -4 75 -2 95 19 34 37 43 89 30 165 -19 112 21 186 111 200 l38 6 4 79 c3
70 6 81 32 108 17 17 55 40 85 52 52 19 58 19 89 5 28 -14 42 -34 83 -119 27
-56 60 -116 73 -134 30 -41 51 -165 36 -209 -15 -42 -43 -53 -164 -64 -134
-13 -151 -25 -151 -107 0 -51 5 -67 43 -130 54 -89 82 -162 82 -212 0 -34 -6
-45 -42 -75 -25 -22 -35 -36 -26 -36 25 0 126 72 210 149 61 57 82 71 108 71
47 0 90 -50 128 -151 17 -46 45 -121 62 -166 l31 -83 42 21 c86 44 157 21 157
-50 l1 -36 15 34 c23 55 40 63 117 56 37 -3 86 0 110 5 l42 11 -4 50 c-3 48
-1 52 41 92 24 23 76 59 115 80 54 28 77 47 93 76 45 79 114 91 227 37 94 -45
207 -120 227 -151 21 -33 20 -77 -3 -106 -10 -13 -66 -48 -124 -78 -157 -80
-161 -84 -165 -172 -3 -65 -1 -78 18 -102 l23 -29 27 30 c42 46 86 65 139 59
36 -4 52 -1 76 16 41 29 63 57 70 89 8 36 40 75 75 93 51 26 92 19 202 -39 57
-29 128 -60 158 -67 62 -15 370 -19 434 -6 l39 8 -8 157 c-12 219 -12 246 4
275 22 42 57 50 181 42 l110 -7 40 40 c34 34 40 45 38 80 -4 108 125 194 312
208 67 5 80 3 123 -20 l47 -25 0 32 c0 75 55 117 151 117 111 0 161 -31 214
-132 21 -40 58 -103 81 -139 94 -145 163 -393 152 -547 -6 -86 -31 -142 -96
-216 -47 -53 -84 -128 -70 -141 11 -11 105 17 203 60 55 24 116 46 135 50 50
9 85 -21 105 -89 20 -69 46 -94 80 -78 22 10 25 18 25 60 0 32 9 65 25 98 14
27 25 63 25 80 0 57 48 86 187 114 125 25 154 25 188 -2 26 -20 27 -24 21 -82
-3 -34 -8 -77 -12 -96 -9 -54 9 -69 73 -58 l53 10 -26 33 c-33 43 -55 117 -47
156 9 46 66 86 169 118 61 19 108 41 145 69 57 43 108 58 158 47 23 -5 41 -24
80 -81 28 -41 51 -86 51 -100 0 -29 -36 -115 -116 -278 -61 -123 -67 -165 -31
-207 53 -63 60 -64 312 -64 207 0 239 -3 320 -24 78 -20 108 -22 225 -18 94 3
147 9 173 20 l37 16 -46 75 c-59 99 -64 130 -29 190 15 25 40 56 55 69 28 21
28 24 18 73 -17 83 24 194 97 267 57 56 113 49 210 -28 104 -81 121 -89 190
-88 78 1 154 32 218 88 57 52 160 90 214 80 70 -13 81 -78 28 -181 -61 -122
-46 -149 85 -156 113 -6 146 -23 342 -176 53 -40 60 -43 169 -58 166 -22 195
-39 328 -188 110 -123 150 -159 206 -189 17 -8 46 -29 65 -47 33 -29 37 -30
90 -24 100 13 242 9 281 -8 44 -19 79 -64 114 -143 46 -102 147 -275 162 -275
37 0 107 -51 203 -149 l105 -106 6 100 c8 137 35 188 129 244 23 14 52 21 84
21 48 0 50 -2 140 -89 110 -107 130 -119 156 -96 10 9 24 31 31 48 7 18 23 47
36 65 21 28 30 32 68 32 38 0 58 -10 152 -73 59 -41 152 -99 205 -131 169 -99
171 -133 18 -240 -44 -31 -80 -60 -80 -64 0 -4 9 -18 20 -32 23 -29 26 -92 6
-109 -19 -16 -46 -96 -46 -138 0 -19 6 -44 12 -56 9 -15 13 -77 13 -207 l0
-185 110 -7 c227 -16 310 -47 298 -112 -10 -49 -130 -126 -308 -196 -44 -17
-85 -36 -91 -41 -7 -5 -15 -33 -18 -62 -4 -29 -18 -77 -31 -106 -30 -64 -34
-173 -10 -266 20 -77 35 -96 131 -173 43 -35 105 -86 137 -114 32 -28 60 -49
62 -47 17 18 141 395 161 492 14 67 27 123 28 125 8 7 656 18 866 14 235 -4
247 -5 293 -28 l48 -25 -6 23 c-2 13 -9 77 -15 143 -17 193 9 319 96 471 25
43 48 97 51 118 4 22 0 123 -7 225 -18 259 -7 289 128 354 79 38 97 62 89 122
-9 60 -38 115 -149 280 -205 306 -377 618 -403 730 -21 88 -21 245 0 389 8 60
15 145 15 188 0 81 15 135 48 171 9 11 50 42 90 70 82 57 108 94 141 203 34
115 75 150 211 179 148 31 159 51 170 300 8 189 20 234 71 260 38 20 69 19
179 -10 123 -32 196 -33 241 -2 19 12 37 34 41 47 54 187 58 196 149 335 98
152 126 202 154 281 50 141 168 224 368 260 69 12 88 12 150 -2 121 -26 193
-33 239 -22 49 12 382 4 553 -12 61 -6 181 -20 268 -32 187 -26 178 -30 221
95 30 87 28 100 -27 141 -21 16 -56 28 -103 35 -156 24 -336 120 -624 335
-142 106 -239 158 -350 186 -117 30 -190 67 -295 151 -127 102 -342 321 -394
402 -74 115 -66 197 20 199 19 0 79 0 134 -1 128 -3 194 19 254 84 38 42 41
48 41 103 0 67 -29 192 -59 250 -35 69 -76 94 -227 144 -186 61 -244 88 -298
138 -53 49 -72 94 -56 136 19 48 51 75 146 119 101 47 142 84 221 200 87 126
177 147 370 87 55 -18 115 -32 133 -32 44 0 178 58 196 85 20 30 9 55 -61 135
-31 36 -74 101 -95 145 -26 55 -47 86 -66 95 -49 27 -100 105 -148 227 -51
132 -102 215 -145 237 -17 9 -83 19 -167 25 -228 16 -323 59 -393 175 -59 99
-74 180 -76 426 -1 234 -9 279 -65 389 -51 100 -43 96 -144 72 -48 -12 -102
-21 -119 -21 -44 1 -113 34 -171 82 -52 44 -142 78 -333 123 -135 33 -218 32
-325 -1 -130 -40 -159 -62 -215 -155 -56 -95 -112 -154 -180 -191 -105 -57
-169 -42 -250 62 -98 126 -142 168 -191 184 -100 32 -389 56 -674 56 l-157 0
-36 32 c-60 52 -119 188 -185 431 -32 115 -32 116 -70 131 -62 25 -167 39
-244 33 -39 -3 -141 -13 -226 -21 -85 -9 -200 -16 -255 -16 -151 0 -194 27
-350 214 -70 84 -143 154 -191 182 -61 36 -189 80 -359 125 -228 59 -369 80
-510 77 -266 -5 -349 4 -462 49 -76 30 -147 92 -220 190 -65 88 -98 114 -193
153 -101 41 -147 70 -197 122 -35 36 -139 187 -258 374 -37 58 -76 79 -182 98
-153 27 -170 39 -772 540 l-144 120 -278 57 c-299 61 -353 76 -439 120 -87 43
-156 110 -315 304 -273 332 -336 391 -390 367 -12 -6 -34 -35 -49 -66 -30 -60
-152 -198 -197 -221 -15 -8 -36 -15 -45 -15 -22 0 -117 49 -299 153 -180 103
-218 129 -405 279 l-155 125 -17 -27 c-25 -41 -58 -60 -105 -60 -23 0 -44 -4
-47 -8 -2 -4 9 -37 24 -72 33 -74 36 -99 15 -139 -26 -51 -104 -67 -244 -51
-113 13 -168 39 -251 121 -73 72 -116 159 -125 253 -3 38 -11 79 -18 92 -11
21 -15 18 -87 -76 l-75 -98 -94 -7 c-327 -25 -734 59 -858 177 -42 41 -49 71
-25 119 l19 39 -43 0 c-53 0 -98 15 -279 92 -167 71 -220 103 -280 170 -50 56
-106 165 -124 243 -23 96 -63 125 -173 125 -35 0 -86 6 -114 13 -42 11 -88 11
-260 1 -115 -7 -217 -13 -228 -13 -16 -1 -18 5 -14 52 8 93 78 206 180 287
l51 40 -56 0 c-105 0 -157 17 -207 69 -64 66 -109 211 -110 349 l0 63 73 34
c39 19 109 45 154 58 l83 23 -118 27 c-64 15 -134 32 -154 37 l-38 11 -2 159
-3 158 -79 -64 c-136 -112 -182 -125 -257 -74 -36 24 -54 30 -102 30 -95 0
-250 20 -286 37 -91 44 -93 129 -6 299 34 66 55 120 51 129 -3 9 -19 23 -35
32 -16 10 -42 40 -59 68 -43 70 -157 210 -196 240 -18 14 -57 32 -87 41 -51
15 -166 71 -200 97 -8 7 -21 35 -28 62 -32 132 -28 125 -68 125 l-36 0 6 -77
c16 -195 20 -422 8 -450 -13 -32 -80 -81 -122 -90 -22 -4 -42 -33 -114 -159
-48 -85 -89 -154 -91 -154 -16 0 -288 116 -300 127 -7 8 -14 24 -14 36 0 38
-40 170 -67 218 -14 26 -36 52 -51 58 -24 11 -29 8 -86 -52 -76 -80 -112 -105
-188 -128 -82 -26 -167 -25 -201 2 -58 45 -60 163 -8 407 28 131 31 159 31
334 0 144 6 242 25 397 25 203 27 207 75 311 41 88 50 118 56 188 l7 82 -51 0
-51 0 -97 110 -98 110 -155 0 -156 0 -58 69 c-32 38 -69 78 -81 90 l-22 21
-75 -51z"/>
</g>
</svg>
