<?xml version="1.0" standalone="no"?>
<!DOCTYPE svg PUBLIC "-//W3C//DTD SVG 20010904//EN"
 "http://www.w3.org/TR/2001/REC-SVG-20010904/DTD/svg10.dtd">
<svg version="1.0" xmlns="http://www.w3.org/2000/svg"
 width="937.000000pt" height="1695.000000pt" viewBox="0 0 937.000000 1695.000000"
 preserveAspectRatio="xMidYMid meet">

<g transform="translate(0.000000,1695.000000) scale(0.100000,-0.100000)"
fill="#000000" stroke="none">
<path d="M8183 16931 c-18 -11 -65 -49 -105 -84 -199 -173 -267 -192 -440
-122 l-63 26 -19 -27 c-37 -50 -189 -174 -252 -205 -53 -26 -72 -31 -113 -27
-64 6 -89 23 -158 107 -63 78 -95 101 -121 85 -9 -6 -33 -42 -52 -80 -49 -97
-71 -107 -215 -100 -69 3 -148 14 -213 30 -150 38 -148 38 -221 -44 -72 -80
-88 -85 -181 -49 -72 28 -168 21 -300 -21 -51 -16 -111 -30 -133 -30 -21 0
-100 16 -175 36 -99 26 -160 36 -222 37 -131 2 -160 -23 -137 -120 23 -92 20
-205 -7 -339 -30 -145 -40 -219 -66 -490 -29 -311 -27 -305 -115 -390 l-74
-71 15 -84 c18 -101 13 -183 -22 -318 -32 -126 -84 -236 -123 -258 -21 -13
-36 -36 -56 -87 -42 -108 -45 -124 -33 -180 16 -75 44 -123 89 -154 105 -69
169 -148 169 -206 0 -31 54 -184 91 -257 37 -75 85 -114 222 -182 63 -31 126
-69 142 -84 45 -45 67 -107 73 -203 4 -73 1 -92 -16 -126 -27 -52 -133 -150
-175 -162 -18 -5 -78 -7 -134 -4 -96 4 -103 3 -151 -23 -66 -36 -155 -124
-182 -181 -35 -72 -52 -198 -48 -363 l3 -146 54 -108 c48 -95 55 -114 55 -170
0 -52 -6 -73 -36 -132 -59 -117 -60 -112 24 -117 104 -5 151 -31 219 -119 30
-40 63 -83 74 -98 24 -31 27 -131 8 -250 -8 -49 -9 -91 -3 -125 10 -54 31
-604 25 -646 -21 -149 -31 -195 -52 -255 -29 -80 -138 -302 -191 -388 -30 -49
-39 -79 -58 -185 -25 -145 -65 -260 -125 -352 -62 -95 -73 -139 -52 -213 30
-107 -5 -163 -108 -175 -54 -7 -54 -8 -82 -62 -15 -30 -33 -86 -41 -125 -15
-70 -15 -70 -110 -161 -53 -50 -96 -96 -96 -102 0 -20 -62 -83 -102 -103 -26
-13 -54 -19 -81 -17 -34 2 -45 9 -64 36 -12 19 -25 54 -29 79 l-7 46 -18 -35
c-31 -61 -105 -108 -171 -108 -9 0 -30 -11 -45 -24 -26 -23 -28 -29 -31 -120
-3 -76 0 -110 17 -165 26 -87 26 -121 0 -155 -43 -55 -102 -68 -179 -41 -55
19 -120 19 -147 0 -13 -9 -25 -32 -29 -53 -15 -80 -49 -121 -139 -162 -84 -39
-164 -54 -212 -41 -50 14 -111 13 -145 -2 -15 -7 -60 -48 -100 -93 -67 -74
-74 -86 -85 -144 -20 -108 -114 -220 -184 -220 -44 0 -116 28 -188 73 -137 85
-151 90 -261 89 -91 -1 -105 -4 -157 -31 -32 -17 -88 -44 -124 -61 -39 -17
-84 -48 -109 -74 -24 -24 -71 -58 -106 -75 -34 -17 -65 -34 -68 -39 -3 -5 4
-18 15 -28 61 -56 61 -117 -2 -234 -68 -126 -270 -344 -356 -385 -65 -31 -177
-3 -264 66 -22 17 -61 39 -87 49 -64 25 -192 45 -227 36 -35 -9 -282 -257
-366 -370 -106 -140 -114 -159 -113 -256 0 -129 21 -227 50 -246 23 -15 25
-14 79 44 107 116 186 105 231 -31 9 -29 30 -84 46 -123 32 -79 38 -84 126
-84 73 0 114 -24 196 -116 95 -105 149 -127 426 -174 174 -30 202 -28 253 19
67 61 101 74 202 79 216 10 285 -38 285 -197 0 -38 9 -116 20 -173 12 -57 18
-118 15 -135 -3 -18 -24 -53 -45 -79 -45 -52 -51 -87 -20 -127 22 -28 65 -45
219 -87 l104 -28 25 30 c23 27 30 30 69 25 32 -3 61 -18 118 -61 106 -80 115
-114 54 -202 -58 -84 -79 -143 -79 -220 l0 -71 45 -13 c57 -16 129 -61 151
-95 14 -21 16 -40 10 -112 -9 -106 -21 -132 -91 -183 -85 -63 -74 -85 45 -85
92 0 137 -20 176 -78 20 -30 29 -58 32 -98 5 -61 -3 -81 -51 -141 l-29 -36 23
-42 c19 -33 39 -50 90 -76 37 -18 76 -45 87 -59 26 -33 43 -114 45 -213 1 -94
-15 -130 -79 -175 l-45 -32 6 -50 c5 -40 13 -55 38 -75 72 -57 581 -466 690
-554 136 -110 122 -105 592 -236 362 -101 566 -147 712 -161 65 -6 142 -20
170 -31 108 -40 213 -139 304 -288 l44 -70 45 5 c171 22 331 60 343 83 2 4 -9
63 -25 132 -39 170 -42 278 -9 343 47 90 178 193 269 210 70 14 254 -83 308
-162 30 -45 30 -76 -2 -175 -36 -113 -40 -156 -19 -197 25 -49 53 -77 91 -89
27 -9 41 -7 96 16 61 26 69 27 230 25 199 -2 214 3 284 84 27 32 101 105 164
162 102 93 132 127 212 240 43 60 119 87 181 64 13 -5 53 -34 88 -65 96 -84
303 -179 419 -193 42 -5 52 -1 116 40 38 24 81 57 96 73 l27 29 3 230 3 230
39 95 c55 134 57 175 12 283 -40 96 -186 393 -234 474 -53 89 -62 138 -62 329
0 199 -14 355 -38 428 -15 45 -26 58 -96 110 -98 74 -117 111 -124 242 -3 70
1 117 18 200 25 121 25 147 10 364 -15 207 -22 238 -78 311 -72 94 -92 131
-92 169 0 62 34 115 137 215 l98 95 -1 92 c-1 137 -47 296 -91 312 -8 3 -74
15 -146 26 -239 37 -374 76 -412 121 -41 50 -33 75 63 201 38 50 45 67 58 145
28 175 14 358 -33 429 -24 37 -108 71 -240 98 -130 26 -196 51 -249 91 -95 72
-170 333 -145 502 23 154 110 286 269 407 102 76 139 122 183 221 35 80 35
164 0 385 -17 107 -36 254 -43 326 -10 115 -9 139 5 197 20 78 21 98 6 131
-22 48 -52 52 -434 66 -474 17 -628 36 -740 90 -52 25 -65 37 -96 92 -20 35
-93 142 -161 238 -236 332 -242 347 -243 640 0 199 1 206 25 254 51 100 104
126 305 146 140 14 206 29 251 54 l39 22 7 114 c4 63 14 164 23 224 20 136 98
380 134 419 26 29 58 40 231 80 58 13 160 48 226 76 l122 51 143 -1 c79 0 207
-4 284 -9 136 -8 142 -7 194 16 30 14 74 40 97 59 48 40 94 123 94 172 0 40
-76 384 -95 430 -19 46 -51 62 -156 78 -175 28 -260 60 -300 116 -20 28 -23
47 -26 143 -5 143 -10 173 -34 197 -26 26 -87 25 -235 -5 -200 -41 -228 -42
-314 -11 -155 56 -309 149 -353 213 -24 33 -27 48 -27 118 0 95 6 88 -150 189
-58 37 -170 116 -250 175 -80 59 -203 140 -275 180 -71 40 -142 81 -157 92
-18 13 -35 17 -53 12 -31 -8 -65 18 -65 50 0 12 26 51 59 88 116 131 201 270
201 330 0 17 -11 35 -32 54 -37 31 -124 74 -150 74 -23 0 -41 36 -34 66 7 26
124 123 403 332 293 220 352 251 385 200 l15 -22 51 37 c47 35 112 117 112
141 -1 20 -37 91 -93 179 -68 107 -89 182 -63 221 18 28 52 34 79 14 8 -7 62
-92 118 -188 257 -440 423 -657 583 -761 69 -45 111 -59 184 -59 66 0 66 -3
-29 161 -39 65 -76 138 -84 160 -31 86 -12 149 51 169 43 14 96 0 260 -70 138
-59 187 -73 208 -56 8 6 25 37 37 70 38 103 76 122 164 83 100 -46 186 -142
370 -412 185 -272 273 -368 373 -406 106 -40 190 -48 378 -39 99 5 205 6 250
0 126 -14 130 -6 120 194 -7 119 -6 135 10 150 12 12 28 17 51 14 l33 -4 1
166 c1 91 1 172 0 180 -2 15 -44 90 -114 204 -56 91 -46 140 32 166 23 7 41
16 41 20 0 4 -18 28 -40 53 -54 61 -83 128 -84 197 -2 97 46 149 114 123 38
-14 42 -8 48 84 4 71 3 76 -32 132 -43 70 -45 93 -10 128 26 26 27 26 137 19
62 -3 127 -9 146 -12 33 -7 33 -6 18 17 -50 78 -73 176 -87 374 -20 285 -8
270 -231 278 -182 6 -260 23 -327 73 -20 15 -91 82 -157 148 -137 137 -196
176 -283 183 -45 3 -64 0 -89 -16z"/>
<path d="M7567 1068 c25 -30 217 -117 230 -104 2 2 -18 26 -45 55 -43 45 -53
51 -89 51 -22 0 -56 3 -74 7 -29 5 -32 4 -22 -9z"/>
<path d="M8081 1056 c-22 -12 -22 -13 24 -26 40 -11 48 -11 56 1 4 8 5 17 1
20 -16 14 -59 17 -81 5z"/>
<path d="M6001 955 c0 -11 6 -33 14 -50 l14 -30 -6 30 c-3 17 -10 39 -14 50
l-8 20 0 -20z"/>
<path d="M7464 851 c-55 -33 -57 -42 -51 -159 5 -100 9 -115 60 -242 30 -74
67 -175 82 -223 22 -69 40 -104 82 -158 30 -39 60 -68 66 -66 7 2 22 41 35 88
12 46 37 127 54 181 38 118 36 135 -35 313 -59 149 -98 197 -203 252 -60 32
-60 32 -90 14z"/>
<path d="M8050 815 c-30 -7 -73 -14 -95 -14 -59 -2 -63 -7 -55 -81 8 -71 20
-101 87 -201 27 -41 58 -107 77 -166 27 -81 38 -102 65 -120 43 -29 155 -54
277 -60 99 -6 102 -5 115 18 33 63 -8 291 -49 273 -80 -33 -92 -35 -136 -15
-71 31 -105 96 -127 241 -9 65 -17 86 -39 110 -30 33 -38 33 -120 15z"/>
<path d="M6860 768 c-21 -35 -19 -45 16 -58 17 -7 44 -2 106 21 46 17 92 34
103 37 24 7 -97 30 -163 31 -37 1 -45 -3 -62 -31z"/>
<path d="M6365 731 c-22 -4 -53 -14 -68 -22 l-29 -15 70 -17 c82 -20 95 -20
162 -6 43 9 50 14 50 35 0 22 -4 24 -44 24 -24 0 -56 2 -72 4 -16 2 -47 1 -69
-3z"/>
<path d="M5885 636 c-14 -24 -39 -83 -55 -131 -37 -108 -71 -169 -110 -192
-17 -9 -30 -23 -30 -29 0 -18 127 -133 154 -140 13 -3 27 -15 30 -27 6 -21 9
-19 39 18 17 22 58 65 89 96 32 31 58 61 58 68 0 27 -64 218 -85 256 -13 22
-29 59 -36 83 -7 23 -16 42 -20 42 -5 0 -20 -20 -34 -44z"/>
<path d="M7031 563 c-15 -32 -30 -192 -33 -348 -3 -115 -2 -122 23 -157 l25
-37 36 24 c32 22 36 30 42 82 4 32 12 97 18 144 19 142 -8 250 -77 301 -22 16
-23 16 -34 -9z"/>
<path d="M6699 553 c-9 -10 -35 -59 -58 -109 l-43 -92 17 -52 c10 -29 17 -70
17 -91 -1 -21 1 -39 4 -39 13 0 81 40 95 56 9 11 29 43 44 71 l28 52 -23 68
c-12 38 -32 87 -44 111 -21 41 -23 42 -37 25z"/>
<path d="M6239 423 c-13 -3 -15 -24 -12 -151 2 -81 6 -162 9 -180 8 -52 35
-72 98 -72 71 0 104 13 112 45 13 52 -51 238 -113 328 -25 36 -46 43 -94 30z"/>
</g>
</svg>
